<?xml version="1.0" encoding="UTF-8"?>
<!DOCTYPE svg  PUBLIC '-//W3C//DTD SVG 1.1//EN'  'http://www.w3.org/Graphics/SVG/1.1/DTD/svg11.dtd'>
<svg version="1.1" xmlns="http://www.w3.org/2000/svg">
<defs>
<font id="unaScript" horiz-adv-x="286">
<font-face font-family="Una" font-weight="400" ascent="500" bbox="-122.316 -478 616 548.243" cap-height="342" descent="-500" panose-1="3 0 5 3 0 0 0 0 0 0" underline-position="-100" underline-thickness="50" unicode-range="U+0020-0300" units-per-em="1000" x-height="264"/>
<missing-glyph/>
<glyph glyph-name="space" horiz-adv-x="194" unicode=" "/>
<glyph d="M100 110q-29 0 -41 27q-3 8 -4 15q-8 123 -42 204q-3 8 -3 16q1 31 28 42q9 4 18 4q28 0 40 -26q1 -1 1 -2q39 -96 48 -232v-3q0 -29 -27 -41q-8 -3 -15 -4h-3zM136 -44q-26 1 -38 21l-9 13q-7 14 -7 24q1 24 22 38q10 7 24 7q26 -1 38 -21l8 -14q7 -10 7 -24 q-1 -26 -21 -38q-12 -6 -24 -6z" glyph-name="exclam" horiz-adv-x="191" unicode="!"/>
<glyph d="M81 210q-29 0 -41 27q-3 7 -4 14q-2 29 -24 109q-2 9 -2 13q0 29 27 41q3 1 5 2q9 2 13 2q29 0 41 -28q1 -3 2 -5q23 -80 28 -127v-3q0 -29 -27 -41q-7 -3 -14 -4h-4zM190 225q-31 0 -41 28q-1 4 -2 6q0 1 -5 18q-11 51 -22 76q-4 9 -4 18q1 29 27 41q9 4 19 4 q29 -1 40 -26q9 -19 28 -92q1 -3 2 -10q2 -5 2 -7q1 -5 1 -11q0 -29 -26 -41q-5 -2 -8 -3q-4 -1 -11 -1z" glyph-name="quotedbl" horiz-adv-x="245" unicode='"'/>
<glyph d="M371 253q-13 -1 -39 -4q-23 -2 -34 -3q-2 -19 -8 -54q24 3 51 6q1 0 3.5 0.5t3.5 0.5q32 0 41 -31q2 -8 2 -15q-2 -36 -37 -44q-17 -2 -81 -10l-9 -36q-8 -36 -13 -54q-8 -32 -42 -33q-30 0 -42 26q-4 9 -4 18q0 8 1 11q2 9 6 26q7 25 9 37h-4q-16 0 -39 2 q-13 -41 -30 -73q-13 -21 -39 -22q-12 1 -22 6q-22 13 -23 39q1 12 6 22q9 17 17 40q-28 11 -29 41q0 31 26 42q8 4 18 4q6 0 9 -1h1q6 24 9 37q-4 0 -12 -1h-10h-2q-33 0 -42 32q-2 7 -2 13q0 33 28 43q7 2 14 2q8 1 23 1.5t23 0.5l3 15q3 14 4 20q10 48 45 51 q40 -9 44 -55v-5q0 -6 -1 -9q-2 -8 -2 -11h12q8 1 12 1v7q4 52 36 65q7 2 12 2q41 -3 42 -66q36 4 55 6h5q34 0 42 -33q1 -6 1 -12q0 -35 -30 -43zM198 185q6 36 8 54q-6 -1 -17 -1q-12 -2 -17 -2q-6 -28 -12 -51q7 -1 19 -1q13 0 19 1z" glyph-name="numbersign" horiz-adv-x="421" unicode="#"/>
<glyph d="M344 56q-23 -30 -74 -45h2v-3q1 -7 1 -12q-1 -38 -14 -70q-12 -27 -42 -28q-6 0 -17 4q-26 13 -28 41q0 10 4 18q6 14 6 28v8h-3h-34q-56 0 -72 3q-30 4 -38 32q-2 7 -2 13v4q4 29 31 38q7 2 13 2h5h2q33 -3 64 -3h14q10 1 15 1q76 4 94 22q-1 5 -2 8q-16 39 -97 50 q-16 2 -39 4q-52 6 -67 11q-56 18 -56 68q1 39 34 71q25 22 55 37q13 7 25 11q-1 1 -3 4t-3 4l-26 53q-5 10 -5 20q1 27 25 40q12 5 21 5q27 -1 40 -25l26 -53q5 -11 5 -19t-3 -15q19 -10 25 -29q1 -5 1 -11q0 -31 -28 -43q-3 -1 -5 -2l-42 -15q-5 -2 -9 -4q-13 -5 -27 -15 q18 -2 26 -3q73 -7 111 -20q73 -27 99 -90q9 -21 9 -42q0 -29 -17 -53z" glyph-name="dollar" horiz-adv-x="371" unicode="$"/>
<glyph d="M197 0q-13 1 -23 6q-22 15 -23 39q1 11 7 23q104 170 171 262q-20 0 -61 6q-15 -50 -46 -83q-42 -45 -91 -46h-8q-5 0 -11 2q-52 18 -76 49q-22 28 -26 77v9q10 62 50 92q35 24 84 24q20 0 40 -3q4 -1 11 -3q74 -34 144 -34q48 0 84 16q10 3 17 3q24 -1 38 -19 q7 -12 7 -25q-1 -19 -13 -32q-74 -75 -237 -342q-13 -20 -38 -21zM100 336q2 -16 7 -23q8 -9 26 -16q13 6 24 18q18 22 25 46q-3 1 -9 4q-7 3 -9 4q-8 1 -20 1q-21 0 -30 -7q-9 -6 -14 -27zM459 -45q-10 0 -16 2h-1q-4 1 -5 1q-40 9 -63 25q-42 31 -43 92v6q2 42 27 70 q21 22 50 33q32 14 62 14l1 -15q11 5 27 5q31 -1 62 -21q49 -33 55 -81q1 -6 1 -10q0 -7 -2 -16q-10 -44 -56 -73q-27 -16 -58 -25q-23 -7 -41 -7zM468 43zM459 45zM458 106q-9 -2 -18 -6q-18 -7 -20 -22v-1q0 -19 13 -24q8 -4 22 -7q1 0 3.5 -0.5t3.5 -0.5q15 3 36 12 q20 9 27 19q-4 5 -11 12q-6 5 -15 10q-5 -2 -14 -2q-17 1 -27 10z" glyph-name="percent" horiz-adv-x="625" unicode="%"/>
<glyph d="M306 37q-45 -18 -78 -27q6 -11 6 -26v-9q-1 -8 -1 -12q0 -32 5 -49q3 -8 3 -15q0 -28 -25 -40q-3 -1 -5 -2q-7 -3 -15 -3q-31 1 -43 30q-10 29 -10 78q0 8 1 21v7q0 4 2 11q-23 2 -40 10q-42 22 -59 74q0 1 -1 4q-2 8 -2 22q1 34 19 60q11 14 20 21q-50 24 -65 53 q-8 15 -8 33q0 16 5 27l6 10q22 29 64 50q27 12 52 14l4 50q0 30 28 42q8 3 17 3q30 0 42 -28q3 -9 3 -17q0 -40 -7 -74q13 -11 23 -31q4 -9 4 -19q-1 -28 -25 -41q-9 -4 -19 -4q-32 1 -41 25q-2 3 -11 5h-3q-20 -1 -40 -12q15 -7 26 -11q24 -8 89 -25l3 -1q32 -13 33 -43 v-4q-1 -28 -29 -39q-5 -2 -10 -3q-70 -9 -87 -33q-4 -6 -4 -10t1 -7t2.5 -4.5t3 -2.5t3.5 -1l2 -1q10 -3 17 -3q5 0 19 2q38 7 91 29q8 3 16 3q30 -1 43 -29q3 -8 3 -17q-1 -30 -28 -41z" glyph-name="ampersand" horiz-adv-x="343" unicode="&amp;"/>
<glyph d="M93 224q-27 1 -39 23q-9 15 -42 111q-2 6 -2 14q0 30 26 42q3 1 4 1q6 2 15 2q30 0 42 -26q1 -3 1 -4q26 -81 35 -97q5 -10 5 -20q-1 -27 -23 -40q-11 -6 -22 -6zM132 291v-1v1z" glyph-name="quotesingle" horiz-adv-x="147" unicode="'"/>
<glyph d="M165 -85q-12 1 -23 7q-67 39 -97 82q-35 53 -35 127q0 19 1 28v3q25 170 142 212q6 2 15 2q29 0 41 -26q0 -3 1 -4q2 -6 2 -15q0 -29 -25 -41q-3 0 -4 -1q-63 -22 -80 -124q-1 -8 -2 -14q0 -4 -1 -11v-9q0 -67 43 -103q16 -12 45 -29q22 -15 23 -39q-1 -11 -7 -23 q-13 -21 -39 -22z" glyph-name="parenleft" horiz-adv-x="222" unicode="("/>
<glyph d="M121 -97q-16 1 -29 10q-16 14 -16 35q1 18 10 29q60 73 60 153q0 11 -2 28q-16 94 -102 129q-2 1 -3 1q-28 12 -29 42q0 9 3 16q12 28 42 29q9 0 16 -3q139 -56 162 -201v-2q3 -21 3 -41q0 -54 -20 -107q-20 -52 -60 -102q-15 -15 -35 -16z" glyph-name="parenright" horiz-adv-x="245" unicode=")"/>
<glyph d="M310 389q-1 -28 -30 -40q-1 -1 -2 -1l1 -1q10 -14 10 -28q-1 -21 -17 -35q-12 -10 -28 -10q-23 1 -35 17q-11 13 -30 34l-33 -36q-14 -15 -33 -15q-18 1 -30 12q-15 14 -15 33q0 6 1 8h-3q-9 -2 -11 -2q-29 0 -41 27q-2 4 -3 8q-1 5 -1 11q0 29 27 41q4 1 7 2q5 2 38 8 q-12 13 -12 30q1 18 12 31q14 15 33 15q18 -1 30 -12q2 -2 32 -30l23 25q13 14 33 15q17 0 30 -12q14 -13 15 -33q0 -9 -3 -16q28 -7 34 -34q1 -6 1 -10v-2z" glyph-name="asterisk" horiz-adv-x="319" unicode="*"/>
<glyph d="M356 241q0 -30 -28 -42q-8 -3 -17 -3h-1h-1q-29 0 -96 -13l3 -81q0 -31 -27 -43q-9 -3 -17 -3l-1 -1q-30 0 -42 27q-3 9 -3 17l-3 65q-16 -3 -58 -13q-4 -1 -10 -1q-29 0 -41 27q-2 4 -3 8t-1 9q0 31 28 43q4 1 7 2q24 6 75 17l-2 75v2q0 28 27 40q8 3 16 4h2 q29 0 41 -27q3 -8 4 -16l2 -61q65 13 100 13h2q29 0 41 -28q3 -9 3 -17z" glyph-name="plus" horiz-adv-x="365" unicode="+"/>
<glyph d="M55 -86q-17 1 -28 10q-16 15 -17 35q1 17 10 28q6 8 6 25t-3 25q-2 8 -2 13q1 32 32 44q9 2 13 2q29 0 41 -27q1 -3 2 -5q7 -15 7 -50q-1 -51 -26 -83q-15 -16 -35 -17z" glyph-name="comma" horiz-adv-x="126" unicode=","/>
<glyph d="M73 178h-21q-28 2 -39 30q-3 8 -3 16v2q1 29 29 39q8 3 15 3h4h16q34 0 87 9l24 3q19 3 28 4h4q30 0 42 -27q2 -7 3 -13v-5q0 -30 -28 -42q-6 -2 -11 -3t-16 -2q-22 -3 -32 -4q-64 -10 -102 -10z" glyph-name="hyphen" horiz-adv-x="272" unicode="-"/>
<glyph d="M62 -20q-7 0 -18 4q-23 10 -31 32q-3 11 -3 19q0 15 7 29q13 24 41 25q10 0 20 -5q22 -13 24 -39q5 -11 5 -19q0 -7 -4 -18q-13 -26 -41 -28z" glyph-name="period" horiz-adv-x="116" unicode="."/>
<glyph d="M55 0q-10 0 -18 4q-26 13 -27 41q0 10 4 18q81 190 107 280q11 31 43 32q6 0 13 -2q27 -9 31 -36q1 -4 1 -7q0 -6 -2 -13q-27 -93 -111 -289q-12 -27 -41 -28z" glyph-name="slash" horiz-adv-x="219" unicode="/"/>
<glyph d="M36 62q-25 44 -25 90q1 65 47 131q39 52 84 79q23 14 42 14q26 -1 39 -23q34 -2 62 -18q37 -22 59 -63q20 -38 20 -76q-1 -75 -71 -142q-66 -61 -140 -61q-78 1 -117 69zM140 242q-1 -2 -8 -11q-31 -46 -32 -71q1 -29 14 -54q15 -24 37 -24q42 2 81 38q40 38 41 82 q-1 36 -32 55q-11 6 -23 6q-20 -1 -43 -15q-12 -7 -24 -7q-8 0 -11 1z" glyph-name="zero" horiz-adv-x="373" unicode="0"/>
<glyph d="M165 3q-30 0 -42 28q-3 8 -3 15v18q-1 13 -1 19q0 44 4 113q2 30 2 46q-23 -14 -51 -27q-9 -4 -18 -4q-29 1 -42 26q-4 9 -4 19q1 28 26 41q76 36 99 63q14 15 35 15q6 0 13 -2q27 -11 31 -39q2 -18 2 -54q0 -43 -3 -89q-4 -70 -4 -108q0 -5 1 -17v-17v-2q0 -29 -27 -41 q-8 -3 -16 -3h-2z" glyph-name="one" horiz-adv-x="225" unicode="1"/>
<glyph d="M179 10q-19 0 -42 2q-33 5 -47 12q-26 14 -35 37q-6 14 -6 29q0 14 4 25q6 17 21 45q20 33 69 100q2 3 3 4q-28 2 -41 2q-27 0 -47 -2h-2q-30 0 -42 27q-3 8 -4 16v2q0 28 26 41q8 3 16 4q40 2 55 2q89 0 133 -23q18 -9 25 -29q1 -4 1 -11q-1 -16 -8 -26q-28 -40 -42 -59 q-40 -55 -55 -80q-3 -6 -9 -15q-5 -8 -7 -11q8 -1 32 -1q41 0 91 5h4q29 0 41 -28q3 -7 4 -13v-4q0 -29 -27 -41q-7 -3 -13 -4q-59 -6 -98 -6z" glyph-name="two" horiz-adv-x="327" unicode="2"/>
<glyph d="M210 22q-36 0 -97 5q-29 2 -39 30q-2 8 -2 15v4q2 29 30 39q8 2 15 2h4q45 -5 91 -5h21q25 1 38 5q-12 46 -104 58h-2q-30 6 -39 35q-1 4 -1 10q1 25 21 38q28 19 39 33q-6 1 -18 1q-39 0 -100 -17q-8 -2 -12 -2q-29 0 -41 28q-1 3 -2 5q-2 9 -2 13q0 29 28 41q3 1 5 2 q67 20 125 20q57 -1 91 -22q16 -11 20 -29q2 -14 2 -22q-1 -35 -20 -65q25 -11 44 -25q44 -35 55 -89q3 -12 3 -24q-1 -23 -14 -43q-34 -41 -139 -41z" glyph-name="three" horiz-adv-x="373" unicode="3"/>
<glyph d="M252 23h-1q-30 0 -42 27q-3 8 -3 16l-1 17q0 22 -2 63q-38 -11 -76 -11q-45 0 -87 16q-25 11 -29 38q-1 11 -1 29q0 33 7 81q3 18 7 53q2 30 31 39q7 2 13 2h4q29 -2 38 -29q3 -8 3 -15v-5q0 -8 -6 -57q-6 -46 -7 -60q9 -2 26 -2q35 0 75 15q0 44 2 121q3 30 31 40 q8 3 15 3h2q29 -1 39 -29q3 -8 3 -15v-3q-2 -58 -2 -91q0 -61 4 -180l1 -17q0 -31 -27 -43q-9 -3 -17 -3z" glyph-name="four" horiz-adv-x="305" unicode="4"/>
<glyph d="M338 134v-12q-1 -54 -37 -89q-39 -33 -111 -33q-54 0 -126 18q-15 4 -24 14q-17 21 -17 49q1 32 20 53q13 14 34 14q19 -1 30 -11q14 -15 14 -34v-6q41 -7 69 -7q40 0 52 11q7 7 6 19v2q-6 12 -43 26q-1 1 -2 1q-53 20 -153 31q-20 2 -33 20q-7 10 -7 24q0 7 2 14 q6 20 20 41q-18 14 -21 35v4q0 30 28 41q7 2 14 3q145 11 232 33q5 1 11 1q30 0 42 -26q1 -4 2 -7q1 -5 1 -11q0 -30 -26 -42q-4 -1 -7 -2q-68 -17 -155 -27q-10 -9 -22 -21q60 -10 104 -27q39 -13 63 -33q31 -26 39 -60q0 -1 1 -3v-3z" glyph-name="five" horiz-adv-x="351" unicode="5"/>
<glyph d="M61 11q-48 60 -49 154q1 75 33 125q34 53 95 80q9 3 17 3q29 -1 42 -27q3 -9 3 -17q-1 -30 -27 -42q-68 -29 -74 -109q-1 -6 -1 -11q2 -29 5 -42q12 22 31 41q47 44 100 45q33 -1 56 -18q40 -28 41 -84q-1 -53 -37 -98q-46 -53 -116 -54q-73 1 -119 54zM173 46 q5 -1 14 -1q21 2 39 22q15 20 17 44q-2 9 -9 10q-7 -1 -15 -5q-36 -18 -44 -57q-1 -4 -1 -6q0 -1 -0.5 -3.5t-0.5 -3.5z" glyph-name="six" horiz-adv-x="342" unicode="6"/>
<glyph d="M311 129q-20 -1 -53 -7q-45 -94 -49 -101q-13 -24 -41 -25q-9 0 -20 5q-24 13 -25 40q0 10 5 20q10 20 15 29q-28 1 -40 25q-5 12 -5 21q1 27 25 40q26 13 71 25q23 54 39 101q-24 2 -37 2q-42 0 -91 -9q0 -1 0.5 -3.5t0.5 -3.5q-1 -27 -24 -40q-12 -5 -21 -5 q-27 1 -40 25q-11 20 -11 42q1 27 14 46q10 15 28 20q80 18 145 18q57 0 106 -14q27 -9 31 -36q1 -4 1 -7q0 -8 -1 -11q-12 -48 -36 -108h3l2 1h4q29 0 41 -27q3 -7 4 -14v-4q0 -29 -27 -41q-7 -3 -14 -4z" glyph-name="seven" horiz-adv-x="361" unicode="7"/>
<glyph d="M84 -5q-17 22 -17 47q1 58 75 122q-9 6 -32 19q-21 12 -31 18q-9 6 -14 14q-5 -1 -11 -1q-29 1 -40 26q-4 9 -4 18q1 29 26 41q77 36 136 39h7q6 1 9 1q64 0 107 -34q30 -25 31 -59q0 -12 -4 -22q-5 -21 -22 -43q-2 -3 -8 -9q-5 -5 -7 -8q47 -47 48 -95q-1 -47 -44 -81 q-40 -30 -101 -30q-73 1 -104 37zM159 51q14 -4 42 -5q28 1 40 21q2 4 2 7q0 6 -23 27l-2 2l-6 6q-45 -33 -53 -58zM172 248q22 -15 42 -27q8 7 16 17q-19 11 -43 11q-10 0 -15 -1z" glyph-name="eight" horiz-adv-x="342" unicode="8"/>
<glyph d="M230 -17q-3 1 -4 1q-30 2 -39 31q-2 7 -2 13v4q3 51 6 86q-39 -7 -59 -7q-28 0 -53 8h-2q-42 17 -58 53q-9 21 -9 54q1 48 43 84q44 37 100 37h3q57 -5 88 -36q22 -23 32 -60q1 -3 1 -4q5 -25 5 -74q0 -67 -8 -148q-3 -31 -30 -40q-8 -2 -14 -2zM106 205q15 -4 27 -4 q20 0 58 9q-1 8 -3 19q-5 15 -8 19q-11 7 -29 9q-21 0 -38 -14q-12 -11 -13 -19q0 -14 1 -17q2 -1 5 -2z" glyph-name="nine" horiz-adv-x="292" unicode="9"/>
<glyph d="M55 152q-30 0 -42 27q-1 3 -1 4q-2 8 -2 13q1 32 31 44l17 5q6 2 14 2q30 0 42 -27q1 -3 1 -4q2 -8 2 -13q-1 -32 -31 -44l-17 -5q-10 -2 -14 -2zM100 -4q-29 1 -42 27l-7 16q-4 9 -4 17q1 30 28 42q9 4 17 4q30 -1 42 -27l7 -16q4 -9 4 -18q0 -27 -25 -40q-1 -1 -2 -1 q-9 -4 -18 -4z" glyph-name="colon" horiz-adv-x="154" unicode=":"/>
<glyph d="M78 154q-30 0 -42 27q-1 3 -1 4q-2 8 -2 14q1 16 10 29q-1 14 6 27q15 22 39 23q13 -1 23 -6q27 -18 28 -51v-6q-4 -37 -37 -55q-6 -2 -10 -4q-10 -2 -14 -2zM66 194zM55 -183q-19 1 -33 14q-12 14 -12 31q1 19 14 33q13 12 24 42q12 29 12 53v2q0 29 28 41q8 3 16 3h1 q29 0 41 -27q3 -9 4 -17q0 -41 -18 -87q-19 -51 -46 -76q-14 -12 -31 -12z" glyph-name="semicolon" horiz-adv-x="159" unicode=";"/>
<glyph d="M239 -5q-7 0 -15 3q-71 25 -201 158q-13 14 -13 31q1 18 12 31q72 78 148 130q13 8 25 8q23 -1 37 -19q8 -13 8 -26q-1 -23 -19 -37q-56 -38 -103 -86q97 -93 136 -105q27 -13 29 -43q0 -10 -2 -15q-14 -26 -42 -30z" glyph-name="less" horiz-adv-x="293" unicode="&lt;"/>
<glyph d="M55 212q-29 0 -41 27q-2 5 -3 10q-1 4 -1 9q0 30 28 41q5 1 9 2q19 4 93 4q51 0 70 2q5 1 11 1q29 0 41 -27q1 -3 2 -5q2 -8 2 -13q-1 -33 -32 -43q-14 -4 -93 -5q-67 0 -78 -2q-4 -1 -8 -1zM208 307zM211 307zM61 65q-30 0 -41 28q-3 7 -3 15v2q0 30 28 42q8 3 15 3 q109 4 137 13q7 3 15 3q28 0 40 -25q1 -3 2 -5q2 -6 2 -15q-1 -32 -30 -43q-41 -14 -163 -18h-2z" glyph-name="equal" horiz-adv-x="276" unicode="="/>
<glyph d="M121 -46q-15 1 -26 7q-18 15 -19 37q1 14 8 26q36 53 118 129l33 30q-57 24 -61 26q-96 41 -143 70q-20 13 -21 38q1 14 7 24q15 21 38 22q11 0 24 -7q39 -24 130 -64q84 -36 121 -57q18 -10 23 -30q0 -1 1 -4v-4q-1 -16 -10 -29q-22 -27 -81 -82q-72 -65 -105 -113 q-14 -18 -37 -19z" glyph-name="greater" horiz-adv-x="363" unicode="&gt;"/>
<glyph d="M194 66q-13 0 -32 2q-72 9 -90 65q-2 10 -1 20q5 37 71 125q5 5 9 11q24 34 27 37q-14 4 -27 5q-36 5 -96 7q-30 0 -42 28q-3 9 -3 17q0 30 28 42q9 3 17 3q79 -2 125 -10q82 -15 100 -59q6 -14 3 -26q-5 -25 -56 -92l-4 -6q-21 -26 -44 -60q-6 -10 -11 -17q11 -2 20 -2 q30 0 78 5h2h4q29 0 41 -27q3 -7 4 -14v-4q0 -30 -28 -42q-7 -2 -13 -3h-2q-50 -5 -80 -5zM202 318zM159 -63q-27 1 -39 23q-6 11 -6 22q1 26 23 39l28 15q11 6 22 6q27 -1 39 -23q6 -11 6 -22q-1 -26 -23 -39l-28 -16q-9 -5 -22 -5z" glyph-name="question" horiz-adv-x="327" unicode="?"/>
<glyph d="M230 29q-8 0 -11 1q-52 0 -91 22q-40 21 -67 56q-51 67 -51 160v5q2 88 66 148q33 29 75 44q41 15 86 15h8q72 0 118 -24q61 -31 70 -84l1 -1q3 -21 3 -40q-1 -62 -32 -99q-22 -25 -55 -34q-5 -10 -10 -16q-15 -20 -39 -30q-32 -15 -69 -15h-7q-60 0 -83 54q-9 22 -9 48 v2q2 46 23 79q31 48 80 49h1q36 -1 57 -21q19 -20 19 -51q0 -7 -3 -14q1 0 3 1h3q16 -1 21 7q10 13 10 40q0 7 -2 24q-3 11 -21 20q-29 15 -80 15h-5q-61 -1 -102 -36q-36 -34 -37 -82v-5q1 -61 32 -104q35 -43 88 -43h15q81 0 95 22q14 23 39 24q13 -1 21 -5q24 -13 25 -40 q0 -10 -5 -20q-26 -46 -85 -62q-42 -10 -95 -10zM225 227h2h5q15 0 31 6q7 4 7 7q0 6 2 13h-5q-22 1 -36 18q-8 -15 -8 -31q0 -9 2 -13z" glyph-name="at" horiz-adv-x="447" unicode="@"/>
<glyph d="M378 66q6 -11 6 -22q-1 -26 -24 -39q-11 -6 -22 -6q-26 1 -39 23l-34 62l-128 -14q-2 -3 -5 -10q-7 -10 -9 -15q-27 -46 -44 -58q-10 -7 -24 -7q-24 1 -38 21q-7 10 -7 24q1 20 16 34q7 8 38 66l7 14q3 8 11 24q6 13 9 19q46 104 46 140v2v4q1 33 31 43q10 2 14 2 q27 -1 39 -23zM187 166l31 4l-20 34q-2 -5 -4 -16q-4 -15 -7 -22z" glyph-name="A" horiz-adv-x="393" unicode="A"/>
<glyph d="M308 -64q-46 0 -107 25q-7 4 -16 11q-9 -8 -18 -11q-6 -2 -14 -2q-30 0 -42 27q-1 3 -1 4t-18 56q-63 196 -80 244q-2 8 -2 14q1 14 7 24q11 17 31 21q11 5 113 14q38 3 67 3h18q58 -3 77 -29q26 -32 26 -67q0 -9 -2 -20q-10 -36 -41 -66q16 -4 32 -13q69 -38 76 -103v-1 q1 -7 1 -18q0 -25 -6 -45q-12 -31 -35 -49q-27 -19 -66 -19zM218 48q11 -1 17 -4q43 -18 73 -18h5t3.5 0.5t3.5 1.5h1q5 5 3 29v2q-3 19 -27 32q-43 22 -118 22h-1q-9 0 -13 2q15 -48 25 -78q13 11 28 11zM115 267q3 -9 10 -29q11 -35 17 -53q7 9 17 14q86 37 99 68q1 1 1 2 q-1 4 -2 6h-7q-13 1 -21 1q-30 0 -76 -4q-6 -1 -18 -2q-14 -2 -20 -3z" glyph-name="B" horiz-adv-x="424" unicode="B"/>
<glyph d="M180 41q-69 1 -113 32q-52 38 -57 116v8q9 66 56 107q48 40 123 46h4q29 0 41 -27q3 -7 4 -14v-2q0 -31 -28 -43q-7 -3 -14 -4q-86 -7 -96 -69q3 -32 20 -45l1 -1q20 -13 60 -13q49 0 114 17q5 1 11 1q30 0 42 -27q1 -4 2 -7q1 -5 1 -11q0 -29 -27 -41q-4 -1 -7 -2 q-79 -20 -129 -20h-3q-4 -1 -5 -1z" glyph-name="C" horiz-adv-x="360" unicode="C"/>
<glyph d="M139 27h-4q-30 0 -42 29l-2 8q-25 134 -74 213q-7 10 -7 23q0 11 5 22q14 22 38 24h19q14 1 20 1q96 0 162 -21q91 -29 129 -98q2 -3 2 -5q11 -28 11 -54q0 -34 -20 -64q-55 -78 -237 -78zM128 256q27 -61 44 -138q105 6 130 38q4 9 4 13q0 9 -4 19q-20 35 -75 52 q-40 13 -99 16z" glyph-name="D" horiz-adv-x="405" unicode="D"/>
<glyph d="M146 -24q-11 0 -24 2q-58 10 -93 69q-4 7 -5 10q-6 20 -6 41q0 29 10 53q8 22 21 41q-39 38 -39 93q0 9 2 26q2 10 6 17q35 54 99 61q2 0 5 1h6q25 0 54 -12q33 -16 61 -46q11 -12 11 -30q-1 -22 -14 -33q-14 -12 -31 -12q-20 1 -33 15q-25 26 -48 27h-3q-15 -2 -25 -12 v-3q2 -28 34 -40q25 -9 31 -35q0 -1 1 -4v-4q-1 -23 -18 -36q-39 -30 -40 -68q0 -6 1 -9q13 -19 28 -21q4 -1 10 -1q25 1 63 21q11 6 22 6q26 -1 39 -24q6 -11 6 -22q-1 -26 -24 -39q-59 -32 -107 -32z" glyph-name="E" unicode="E"/>
<glyph d="M311 136l-139 -20q2 -34 2 -50v-18q0 -30 -28 -41q-9 -3 -17 -3h-1q-31 1 -41 31q-3 8 -3 15v17q0 120 -48 209q-9 16 -17 27q-9 13 -9 28q0 9 3 16q10 23 35 28q36 5 73 5q94 0 164 -17q29 -14 33 -44q0 -8 -1 -11q-7 -28 -35 -33q-4 -1 -8 -1q-8 0 -11 1 q-56 13 -133 15q14 -35 24 -70l3 -15l141 20q1 0 3.5 0.5t3.5 0.5q31 0 42 -30q1 -5 2 -9v-6q0 -29 -27 -41q-6 -3 -11 -4z" glyph-name="F" horiz-adv-x="359" unicode="F"/>
<glyph d="M285 17l-10 10q-5 6 -8 9q-48 -28 -103 -28q-9 0 -22 2q-56 12 -90 44q-40 41 -40 95q0 83 79 174l2 2l4 4q33 27 57 37q21 9 40 9q10 0 25 -4q43 -13 57 -65q1 -1 1 -2q1 -5 1 -11q0 -29 -27 -41q-4 -1 -7 -2q-5 -1 -11 -1q-29 0 -41 26q-2 5 -3 8q-11 -4 -31 -20 q-57 -66 -58 -112q4 -39 55 -51q1 -1 2 -1h4q53 1 77 31q13 16 34 17q24 -1 37 -18q6 -8 9 -11q16 -21 25 -32q9 -10 13 -11q28 0 40 -26q4 -8 4 -16v-2q-3 -44 -43 -45q-37 0 -68 28q-3 2 -4 3z" glyph-name="G" horiz-adv-x="409" unicode="G"/>
<glyph d="M362 -2q-8 -2 -14 -2q-30 0 -41 28q-1 2 -1 3q-12 36 -27 89l-1 2q-59 0 -89 -21t-36 -60q-5 -29 -34 -37q-6 -1 -11 -1h-4q-30 4 -39 32q-2 7 -2 13v2v17q0 119 -49 229q-4 9 -4 18q1 29 27 41q9 4 18 4q29 -1 41 -27q33 -75 47 -153q45 27 108 32q-20 61 -35 89 q-5 10 -5 20q1 27 25 40q9 5 21 5q27 -1 40 -25q28 -57 68 -194q12 -44 26 -87q2 -6 2 -14q0 -30 -27 -42q-3 -1 -4 -1z" glyph-name="H" horiz-adv-x="403" unicode="H"/>
<glyph d="M143 31q-30 1 -42 29q-3 8 -9 26q-7 18 -10 26q-44 120 -67 164q-5 12 -5 21q1 27 24 40q12 5 21 5q27 -1 40 -25q27 -52 71 -174q3 -9 10 -25q6 -18 9 -26t3 -16q-1 -32 -29 -42q-8 -3 -16 -3z" glyph-name="I" horiz-adv-x="198" unicode="I"/>
<glyph d="M153 -63q-15 0 -32 3l-72 10q-29 4 -37 31q-2 7 -2 13v6q5 30 34 38q6 1 11 1h6l73 -10h2q21 -5 29 0v4q-1 17 -9 35v1q-44 108 -124 210q-9 13 -9 27q1 22 17 36q12 10 28 10q22 -1 35 -18q74 -92 125 -206q6 -13 11 -25q16 -39 16 -66v-5q-1 -33 -19 -60 q-31 -34 -83 -35z" glyph-name="J" horiz-adv-x="265" unicode="J"/>
<glyph d="M473 2q-14 -17 -37 -18q-16 1 -26 8q-70 50 -225 99l15 -93v-4q1 -3 1 -4q0 -31 -29 -42q-5 -1 -9 -2h-7q-30 0 -42 28q-2 5 -3 10q-33 209 -68 283q-11 23 -23 38q-10 12 -10 28q1 21 17 35q12 10 28 10q21 -1 35 -17q42 -55 71 -161q45 64 68 143q9 27 36 31q4 1 7 1 q6 0 13 -2q31 -11 32 -43q0 -6 -2 -13q-22 -80 -69 -152q142 -46 217 -100q17 -13 18 -36q-1 -17 -8 -27z" glyph-name="K" horiz-adv-x="491" unicode="K"/>
<glyph d="M190 -20q-50 0 -123 23q-26 9 -30 35q-27 150 -27 243q0 19 2 48t30 38q8 3 15 3h4q29 -2 38 -30q3 -8 3 -15v-4q-2 -26 -2 -41q0 -66 21 -199q44 -11 69 -11q15 0 22 3q14 5 20 19q13 27 42 28q10 0 17 -3q26 -13 28 -41q0 -10 -4 -18q-24 -56 -77 -72q-21 -6 -48 -6z " glyph-name="L" horiz-adv-x="328" unicode="L"/>
<glyph d="M55 -24q-14 1 -26 9q-18 15 -19 37q1 14 8 26q34 48 40 197q1 11 1 24q1 24 22 38q11 6 23 6q10 0 21 -5q58 -32 113 -88q25 49 34 99q4 23 26 33q9 4 19 4q13 -1 23 -7q58 -38 89 -172q6 -25 16 -77q1 -2 1 -8q2 -6 2 -8q1 -4 1 -9q0 -29 -26 -41q-6 -2 -10 -3t-9 -1 q-29 0 -41 27q-2 5 -3 10q0 3 -2 8q-1 6 -1 8q-14 73 -27 120q-24 -53 -55 -87q-14 -15 -35 -15q-21 3 -33 18q-33 40 -62 65q-4 -47 -7 -65q-14 -78 -46 -124q-15 -18 -37 -19z" glyph-name="M" horiz-adv-x="459" unicode="M"/>
<glyph d="M55 11q-11 0 -20 4q-24 13 -25 40q0 10 5 20q28 60 37 235v7q2 31 31 41q2 1 4 1q4 1 10 1q26 -1 39 -23q2 -2 5 -8l3 -6q55 -96 72 -120q26 -37 45 -50l25 -3q13 1 22 6q19 16 21 71q-7 64 -42 91q-3 3 -6 5q-18 15 -19 37q1 15 8 25q15 19 37 20q13 -1 25 -8 q40 -29 59 -65q22 -41 27 -100q1 -3 1 -5q-4 -101 -57 -143q-27 -20 -60 -23q-6 -1 -16 -1q-26 0 -51 7q-1 1 -5 2q-42 17 -88 83q-4 6 -11 17q-13 -86 -36 -133q-12 -24 -40 -25z" glyph-name="N" horiz-adv-x="428" unicode="N"/>
<glyph d="M202 13h-2q-81 3 -125 30q-63 40 -65 116q0 7 1 10q14 64 47 108q31 39 73 56q8 3 16 3q27 -1 40 -23h20q55 0 96 -24q55 -33 68 -97v-10q-2 -78 -47 -119q-33 -29 -112 -49h-5q-4 -1 -5 -1zM100 156q3 -25 21 -36q23 -14 76 -17q62 15 75 37q8 14 9 40q-5 20 -23 31 q-22 12 -54 12q-35 0 -70 -12q-8 -2 -13 -2q-15 -25 -21 -53z" glyph-name="O" horiz-adv-x="381" unicode="O"/>
<glyph d="M96 23q-65 123 -82 190v4q-1 3 -1 4v5q-1 5 -1 7q-2 20 -2 30q0 27 9 46q21 48 86 69q34 10 58 10q45 -1 84 -25q53 -37 58 -97v-7q-9 -87 -69 -114q-31 -13 -71 -13q-5 0 -13 1h-12q6 -11 18 -34l17 -34q5 -9 5 -21q-1 -27 -24 -40q-9 -5 -21 -5q-26 1 -39 24zM140 224 q20 -2 29 -2q18 0 30 5q12 4 16 32v3q-5 16 -19 26q-16 10 -33 10q-15 0 -31 -6q-26 -8 -30 -18q-2 -5 -2 -14q0 -12 1 -18q1 -2 1 -6q1 -3 1 -5q1 -7 21 -7h16z" glyph-name="P" horiz-adv-x="315" unicode="P"/>
<glyph d="M384 22q16 -15 17 -36q-1 -15 -9 -27q-34 -42 -81 -44q-45 1 -79 39q-6 4 -12 -1t-8 -6q-18 -15 -46 -46q-13 -14 -33 -15q-18 1 -30 12q-15 14 -15 33q1 18 11 30q40 44 61 59q-85 10 -121 50q-29 34 -29 81q0 11 1 17q10 100 100 154q10 6 19 11q10 5 20 5 q25 -1 38 -22q13 5 30 8q27 5 46 5q28 0 52 -10q54 -24 76 -85q3 -5 3 -11q1 -7 1 -18q-1 -71 -48 -122q-29 -30 -76 -49q9 -5 17 -10l9 -9q10 -12 18 -6q3 2 5 4q20 18 36 18q15 -1 27 -9zM106 130q17 -19 89 -22q90 10 107 71q4 13 4 26v4q-10 22 -24 27q-10 4 -23 4 q-33 -1 -97 -31q-9 -4 -19 -4q-13 1 -23 6q-17 -24 -20 -52q-2 -21 6 -29z" glyph-name="Q" horiz-adv-x="411" unicode="Q"/>
<glyph d="M379 -29q-20 1 -32 13q-69 69 -159 76q-7 0 -13 3q0 -7 2 -18v-6q0 -28 -26 -40q-6 -3 -13 -4h-6q-30 0 -41 27q-2 6 -3 12q-11 80 -63 213l-3 9q-2 5 -3 7t-3 7l-3 6q-3 8 -3 17q1 14 8 26q15 18 35 19h3h49q73 0 109 -8q65 -16 93 -67q4 -7 5 -10q8 -32 8 -57 q-1 -38 -18 -68l-1 -2l-1 -2q3 -1 14 -7q54 -26 97 -70q12 -14 13 -31q-1 -18 -14 -32q-14 -13 -31 -13zM122 248q26 -68 37 -111q9 8 20 11q36 11 46 26q5 11 5 22t-4 28q-14 21 -75 23q-13 1 -29 1z" glyph-name="R" horiz-adv-x="433" unicode="R"/>
<glyph d="M254 23q-56 0 -128 17q-29 7 -34 35q-1 4 -1 8q0 8 1 11q7 28 35 34q5 1 10 1q6 0 9 -1q62 -15 109 -15h8q4 0 8 0.5t7.5 1t6.5 1t5.5 1t4.5 1l4 1t3 1t2 1.5t2 1l1 1q-9 46 -39 68q-20 15 -43 15q-8 0 -12 -1q-1 0 -3 -1h-3q-59 0 -106 22q-59 28 -86 80q-5 10 -5 21 q0 10 5 20q12 20 34 24q57 7 78 26q13 21 38 22q11 0 22 -5q23 -14 24 -39q-1 -12 -6 -22q-16 -31 -59 -48q29 -11 56 -11q16 2 23 2q54 -1 96 -32q63 -48 76 -132v-3v-7q-1 -40 -31 -68q-36 -29 -106 -31h-6zM126 395z" glyph-name="S" horiz-adv-x="407" unicode="S"/>
<glyph d="M306 301q-8 -1 -23 -2l-24 -3q11 -87 11 -156q0 -52 -6 -102q-2 -28 -29 -37q-8 -3 -15 -3h-5q-29 4 -38 31q-2 7 -2 13v5q5 50 5 92q0 68 -11 152q-15 -1 -42 -1q-28 0 -75 2q-30 2 -40 31q-2 8 -2 15v2q3 31 30 40q8 2 14 2h4q42 -2 64 -2q70 0 174 10h6q28 0 40 -26 q2 -7 3 -13v-5q0 -30 -28 -42q-6 -2 -11 -3z" glyph-name="T" horiz-adv-x="355" unicode="T"/>
<glyph d="M227 0h-2q-52 2 -92 27q-39 24 -66 69q-45 76 -57 224v3q0 29 27 41q8 3 15 4h3q29 0 41 -27q3 -8 4 -15q9 -125 44 -184q30 -49 80 -52q30 5 36 15q9 14 9 49q0 36 -6 72q-1 2 -1 5q-2 4 -2 5q-17 50 -49 78q-15 15 -16 35q1 15 11 29q15 15 34 16q15 -1 29 -11 q56 -48 76 -120l3 -6l3 -12q9 -53 9 -91q-1 -65 -27 -102q-31 -41 -99 -52h-7zM347 257z" glyph-name="U" horiz-adv-x="369" unicode="U"/>
<glyph d="M207 34q-126 178 -178 217q-18 15 -19 38q1 13 8 25q15 18 37 19q14 -1 26 -9q49 -35 151 -171q37 108 37 206q0 30 28 42q8 3 17 3q29 0 41 -26q4 -10 4 -19q0 -148 -74 -317q-11 -26 -41 -27q-24 1 -37 19z" glyph-name="V" horiz-adv-x="368" unicode="V"/>
<glyph d="M125 25q-23 1 -36 18q-54 75 -76 206q-1 8 -2 14q0 1 -1 4v4q0 31 29 42q5 1 9 2q1 0 3.5 0.5t3.5 0.5q29 0 41 -28q2 -5 3 -10q17 -105 46 -155q41 18 78 70q13 19 39 20q25 -3 37 -23q20 -34 64 -53q35 20 40 78v3q-13 41 -42 44h-6q-30 0 -42 27q-3 9 -4 17 q0 31 27 43q9 3 17 3h5q54 -1 88 -30q38 -32 46 -96q1 -4 1 -8q-8 -129 -111 -172q-15 -5 -31 -1q-55 19 -91 52q-54 -57 -126 -72h-9z" glyph-name="W" horiz-adv-x="502" unicode="W"/>
<glyph d="M401 34q-14 -13 -32 -13q-19 1 -32 13q-62 62 -115 107q-24 -61 -50 -149q-13 -29 -44 -32q-8 0 -12 1q-28 8 -32 36q-1 4 -1 7q0 6 2 13q32 106 63 181q-54 38 -111 64q-26 12 -27 41q0 10 4 18q13 26 41 28q10 0 18 -4q56 -26 111 -62q17 36 52 103q14 23 39 24 q12 -1 22 -6q23 -14 24 -39q-1 -12 -6 -22q-32 -61 -57 -115q59 -48 143 -130q13 -14 13 -32q-1 -19 -13 -32z" glyph-name="X" horiz-adv-x="423" unicode="X"/>
<glyph d="M324 263q-26 -40 -80 -57q5 -40 5 -100q0 -48 -2 -74q-1 -30 -30 -39q-8 -3 -15 -3h-3q-27 1 -38 28q-4 9 -4 18v2q2 25 2 68q0 55 -5 90q-63 7 -98 41q-26 27 -37 67q-9 34 -9 77v13q1 28 28 40q9 3 17 3h2q28 -1 40 -27q3 -9 3 -17v-2v-10q1 -61 20 -80q17 -16 60 -16 h8q48 9 59 25q4 6 4 19q0 18 -9 46q-2 6 -2 14q0 30 27 42q3 1 4 1q6 2 14 2q30 0 41 -28q1 -2 1 -3q14 -44 14 -75q-1 -37 -17 -65z" glyph-name="Y" horiz-adv-x="350" unicode="Y"/>
<glyph d="M354 55q-30 -13 -57 -27q-80 -40 -114 -40q-17 0 -34 8q-4 2 -9 5q-49 40 -49 107q0 12 1 19q1 3 1 7h-6q-17 0 -32 6q-21 10 -31 32q-9 13 -9 27q1 19 14 33q14 12 31 12q20 -1 32 -14l5 -5q7 0 24 5q12 27 32 66q-30 -2 -43 -2q-37 0 -65 7t-34 35q-1 6 -1 10q0 6 1 9 q7 28 35 34q5 1 10 1q6 0 9 -1q24 -5 47 -5q51 0 118 19q9 2 13 2q24 -1 36 -18q9 -13 9 -27q-1 -14 -7 -24q-16 -24 -39 -66l24 9q22 10 34 14q8 3 17 3q31 -1 42 -28q3 -8 3 -16q-1 -31 -29 -43q-85 -34 -143 -52q-6 -20 -8 -39q0 -3 -1 -7v-6q0 -17 7 -26l18 6 q12 4 51 24q10 5 33 15q19 9 28 13t18 4q29 -1 41 -27q4 -9 4 -18q-1 -29 -27 -41z" glyph-name="Z" horiz-adv-x="390" unicode="Z"/>
<glyph d="M84 -19q-19 1 -31 12q-14 15 -14 33q-2 236 -28 332q-1 5 -1 10q1 18 10 29q13 16 33 17h3h18q65 0 99 12q6 2 14 2q30 0 42 -27q1 -3 1 -4q2 -6 2 -14q0 -30 -27 -42q-3 -1 -4 -1q-40 -13 -90 -15q15 -98 17 -251q47 5 86 15q8 2 12 2q31 0 42 -30q1 -2 1 -3q1 -5 1 -11 q0 -31 -28 -43q-3 -1 -5 -2q-67 -18 -151 -21h-2z" glyph-name="bracketleft" horiz-adv-x="280" unicode="["/>
<glyph d="M320 10q-22 1 -35 16l-16 20q-199 249 -240 280q-18 14 -19 36q0 15 9 27q13 18 36 19q14 -1 26 -9q44 -31 185 -204q20 -25 74 -92l15 -20q10 -13 10 -29q-1 -21 -17 -35q-13 -9 -28 -9z" glyph-name="backslash" horiz-adv-x="375" unicode="\"/>
<glyph d="M105 -28q-30 0 -42 27q-3 8 -3 16v2q0 29 28 41q8 3 15 3q43 3 76 10q-21 97 -23 257q-16 -2 -52 -2q-33 0 -51 1q-30 1 -40 29q-3 8 -3 15v2q1 29 28 40q9 3 17 3h2q7 0 21 -1h17q65 0 90 10q8 3 17 3q16 -1 25 -8q19 -13 20 -38q0 -9 -1 -25v-24q0 -180 31 -281 q2 -6 2 -14q-1 -13 -5 -21q-9 -15 -27 -22q-71 -20 -140 -23h-2z" glyph-name="bracketright" horiz-adv-x="289" unicode="]"/>
<glyph d="M55 226q-14 1 -24 7q-20 13 -21 38q1 14 7 24q58 90 116 151q14 13 32 13q16 -1 28 -9q103 -79 132 -122q8 -13 8 -25q-1 -23 -21 -38q-12 -7 -24 -7q-24 1 -38 20q-12 20 -77 74q-1 2 -2 2q-38 -45 -78 -107q-13 -20 -38 -21z" glyph-name="asciicircum" horiz-adv-x="342" unicode="^"/>
<glyph d="M55 226q-14 1 -24 7q-20 13 -21 38q1 14 7 24q58 90 116 151q14 13 32 13q16 -1 28 -9q103 -79 132 -122q8 -13 8 -25q-1 -23 -21 -38q-12 -7 -24 -7q-24 1 -38 20q-12 20 -77 74q-1 2 -2 2q-38 -45 -78 -107q-13 -20 -38 -21z" glyph-name="asciicircum" horiz-adv-x="342" unicode="̂"/>
<glyph d="M189 -46q-63 0 -146 23q-30 13 -33 43q0 5 2 12q7 27 36 32q4 1 8 1q7 0 11 -1q77 -20 123 -20q10 0 12 1q5 1 11 1q29 0 41 -26q2 -5 3 -8q1 -5 1 -11q0 -29 -27 -41q-4 -1 -7 -2q-14 -4 -35 -4z" glyph-name="underscore" horiz-adv-x="268" unicode="_"/>
<glyph d="M161 328q-18 1 -29 11q-70 60 -87 61q-28 7 -34 35q-1 6 -1 10q0 6 1 9q5 27 33 34q6 1 11 1q7 0 10 -1q41 -9 126 -81q15 -15 16 -34q-1 -17 -12 -30q-13 -15 -34 -15z" glyph-name="grave" horiz-adv-x="216" unicode="`"/>
<glyph d="M135 -10q-65 1 -98 38q-27 30 -27 72q0 13 3 29q15 74 79 112l4 2q32 17 69 18q40 0 79 -16q26 -13 28 -41q0 -10 -4 -18q-3 -6 -8 -13q1 0 3 1h3q27 -1 40 -23q25 -44 69 -58q7 -2 13 -3q29 -5 37 -34q1 -6 1 -11q0 -1 -0.5 -3.5t-0.5 -3.5q-5 -30 -34 -37q-5 -1 -10 -1 h-4q-3 1 -4 1q-55 9 -100 50q-10 -12 -16 -18q-36 -30 -96 -41h-3q-16 -2 -23 -2zM169 171q-16 0 -31 -8q-29 -17 -37 -52q-2 -16 2 -22q8 -9 32 -9h6q4 1 6 1q43 7 59 30q5 8 14 26q4 6 7 13l6 9q-12 -3 -24 3q-21 9 -40 9z" glyph-name="a" horiz-adv-x="435" unicode="a"/>
<glyph d="M439 164q9 -27 9 -51t-11 -47q-24 -47 -88 -69q-1 0 -4 -1h-4q-21 -4 -44 -4q-14 0 -37 2q-9 -8 -18 -11q-10 -2 -15 -2q-29 0 -41 26q0 3 -1 4q-8 2 -16 5q-26 14 -30 42q0 8 3 15q4 12 14 20q-66 173 -140 304q-6 11 -6 22q1 27 23 39q11 6 22 6q27 -1 39 -23 q52 -92 96 -194q30 22 66 24h1q57 0 109 -27q56 -32 73 -80zM356 105q5 10 -3 31q-7 16 -30 28q-30 17 -65 17q-17 -3 -30 -24q21 -56 26 -71q30 -4 43 -4q10 0 27 2q26 10 32 21z" glyph-name="b" horiz-adv-x="457" unicode="b"/>
<glyph d="M171 8q-66 0 -119 49l-5 5q-37 39 -37 81v3q1 53 55 97q31 23 64 35q28 8 51 8q14 0 27 -3q29 -7 34 -36q1 -4 1 -8q0 -7 -1 -10q-5 -27 -33 -34q-6 -1 -11 -1q-7 0 -10 1q-4 1 -9 1q-26 -1 -53 -21q-23 -17 -25 -30v-1q1 -8 11 -18q28 -27 60 -28q49 3 69 26 q15 16 35 17q17 -1 28 -10q16 -15 17 -35q-1 -15 -10 -28q-25 -29 -58 -43q-31 -14 -77 -17h-2h-2z" glyph-name="c" horiz-adv-x="329" unicode="c"/>
<glyph d="M164 -18q-62 1 -104 31q-49 38 -50 101q1 57 44 98q36 32 88 43q1 0 3 1q24 2 35 2q14 0 21 -1q-2 5 -7 13q-4 10 -6 14q-46 94 -47 117v2q0 30 28 42q8 3 15 4h2q29 0 41 -27q3 -7 4 -14q4 -14 38 -85q65 -141 68 -181v-4q-1 -74 -56 -118q-46 -36 -116 -38h-1zM159 167 q-47 -10 -57 -41q-2 -6 -2 -12q1 -19 13 -29q19 -13 45 -13h5q50 2 73 29q12 14 12 31q0 6 -2 15q-13 4 -22 12q-13 9 -46 9q-12 0 -19 -1z" glyph-name="d" horiz-adv-x="347" unicode="d"/>
<glyph d="M181 -26q-70 1 -120 45q-50 47 -51 111q1 58 41 107q47 54 127 68q1 0 2 1h3h11q42 0 65 -11q40 -18 50 -56q0 -2 1 -6v-6q-3 -42 -18 -65q-27 -38 -81 -39h-3l-100 1h-8q4 -36 45 -53q18 -7 36 -7q74 0 110 21q11 6 22 6q26 -1 39 -23q6 -11 6 -23q-1 -25 -23 -39 q-59 -32 -154 -32zM177 213h32q7 0 9 1q-13 2 -28 2q-2 0 -6 -2q-5 -1 -7 -1z" glyph-name="e" horiz-adv-x="368" unicode="e"/>
<glyph d="M300 208q28 -7 32 -36q1 -4 1 -7q0 -8 -1 -12q-7 -27 -36 -32q-4 -1 -8 -1q-7 0 -11 1q-14 4 -24 5q15 -28 22 -48q4 -9 4 -18q-1 -28 -28 -40q-9 -4 -17 -4q-30 1 -42 28q-19 45 -45 88l-33 -3h-6q-30 0 -42 27q-2 7 -3 12v5q1 32 28 42q-16 22 -28 37q-2 4 -8 11 q-4 5 -5 7l-1 1q-23 35 -32 68q-7 23 -7 45q0 21 6 39q22 52 77 70h1q21 6 39 6q67 -1 97 -70v-3q1 -2 1 -3q3 -14 3 -25q0 -25 -14 -45q-26 -35 -81 -43h-6q1 -2 2 -3q37 -48 61 -85q56 -2 104 -14zM101 393v-3q-1 -4 -1 -5q11 12 28 15q9 1 14 3l-4 5q-7 2 -18 -1 q-16 -5 -19 -14z" glyph-name="f" horiz-adv-x="343" unicode="f"/>
<glyph d="M343 -374q-57 0 -145 38q-110 50 -111 110q1 29 34 62q26 22 54 38q58 37 111 45l-24 110q-52 -36 -120 -36q-84 0 -118 59q-14 24 -14 51q1 46 61 101q61 52 115 53q68 -1 110 -54q30 -40 42 -101l49 -222q27 -100 27 -158q0 -45 -19 -70q-21 -25 -52 -26zM186 -227 q21 -15 62 -32q35 -14 76 -23q0 43 -18 113q-2 -1 -4 -1q-23 -1 -70 -26q-26 -15 -46 -31zM100 101q6 -17 42 -18q56 0 82 33q3 3 4 5q4 6 7 10q-18 36 -49 36q-18 -1 -49 -26q-26 -21 -37 -40z" glyph-name="g" horiz-adv-x="423" unicode="g"/>
<glyph d="M424 25q-28 1 -40 24q-41 79 -79 95q-5 2 -9 2h-1q-13 -2 -25 -17q-19 -26 -36 -75q-13 -28 -42 -29h-2q-29 0 -41 28q0 2 -1 4q-51 175 -119 266q-5 6 -9 11q-10 12 -10 28q1 22 17 36q13 9 28 9q22 -1 35 -17q64 -81 111 -203q18 22 37 33q25 16 56 16h1 q92 -1 169 -146q5 -9 5 -21q-1 -26 -24 -39q-9 -5 -21 -5z" glyph-name="h" horiz-adv-x="479" unicode="h"/>
<glyph d="M170 15q-32 2 -51 31q-9 14 -17 42q-11 38 -27 135q0 1 -0.5 3.5t-0.5 3.5q0 29 28 41q5 2 10 3q1 0 3.5 0.5t3.5 0.5q30 0 42 -28q2 -5 3 -10q11 -70 19 -103q3 -16 6 -25q12 6 41 32q14 12 31 12q20 -1 33 -15q12 -13 12 -29q-1 -21 -15 -34q-51 -46 -84 -55 q-17 -5 -37 -5zM102 335q-5 0 -14 2q-20 6 -33 6q-30 0 -42 28q-3 9 -3 17q0 30 28 42q8 3 17 3q30 0 61 -10q28 -14 31 -43q0 -9 -2 -14q-14 -28 -43 -31z" glyph-name="i" horiz-adv-x="315" unicode="i"/>
<glyph d="M168 -344q-62 1 -107 36q-50 41 -51 101q1 74 49 119q42 35 93 35h10h16q-1 1 -2 5q-77 186 -91 258q0 1 -0.5 3.5t-0.5 3.5q0 31 29 43l8 2t9 1q29 0 41 -27q2 -5 3 -10q11 -59 85 -240q46 -115 52 -137l1 -2q4 -18 4 -39q-1 -56 -32 -97q-45 -54 -116 -55zM170 -143h-8 h-10q-35 0 -47 -34q-5 -13 -5 -30q0 -27 35 -41q16 -6 33 -6q30 1 45 21q13 17 13 40q0 7 -2 18q-1 5 -7 23q-12 1 -23 8q-6 1 -24 1zM190 -141zM93 326q-16 1 -25 8l-26 17q-19 15 -20 37q1 14 8 26q15 18 37 19q14 -1 26 -8l25 -17q19 -15 20 -37q-1 -13 -8 -25 q-13 -19 -37 -20z" glyph-name="j" horiz-adv-x="326" unicode="j"/>
<glyph d="M446 46q13 -15 13 -32q-1 -18 -14 -32q-12 -13 -31 -13q-20 1 -32 13q-21 24 -135 40h-2q-8 2 -15 5q-12 -21 -31 -26q-5 -1 -11 -1q-30 0 -42 27q-1 4 -2 7q-63 261 -127 359q-7 12 -7 24q1 25 20 39q12 7 24 7q25 -1 39 -20q37 -59 73 -164q46 6 84 6q48 0 91 -10 q26 -6 33 -32q1 -2 1 -4v-5q1 -4 1 -6q-1 -31 -24 -81q-9 -19 -26 -48q86 -19 120 -53zM220 101q36 52 55 93h-12q-10 1 -15 1q-25 0 -53 -3q24 -88 25 -91z" glyph-name="k" horiz-adv-x="468" unicode="k"/>
<glyph d="M141 -12q-9 0 -26 4l-9 3q-35 18 -56 102q-3 16 -7 33q-17 88 -33 225v5q0 30 28 42q7 2 12 3h5q29 0 41 -27q3 -7 4 -13q16 -133 28 -200q11 -58 22 -85q14 3 42 15q19 8 37 15q8 3 16 3q30 -1 42 -29q3 -8 3 -16q-1 -30 -29 -42q-3 -1 -35 -14q-59 -24 -85 -24z" glyph-name="l" horiz-adv-x="299" unicode="l"/>
<glyph d="M434 -5q-29 0 -41 27q-2 4 -3 8l-6 30q-18 78 -21 87l-4 12q-8 -10 -12 -16q-31 -42 -50 -60q-14 -13 -32 -13q-1 0 -3.5 0.5t-3.5 0.5q-21 4 -33 25q-13 28 -31 53q-4 -11 -6 -17q-13 -36 -31 -98q-12 -29 -44 -32h-4q-27 3 -37 30q-2 6 -3 12q-8 116 -45 151 q-14 15 -14 33q1 18 12 31q15 14 33 14q18 -1 31 -12q23 -22 37 -51q4 7 13 21q24 32 58 32q12 -2 20 -7q26 -15 58 -62l2 2q39 52 65 68q5 3 9 5q11 5 19 5q10 0 19 -5q37 -18 60 -85q9 -31 26 -105q4 -20 6 -29q1 -5 1 -11q0 -28 -25 -40q-6 -2 -10 -3t-10 -1zM168 179z " glyph-name="m" horiz-adv-x="489" unicode="m"/>
<glyph d="M114 -25q-30 0 -42 29q-1 4 -2 7q-14 64 -25 102q-2 8 -4.5 14.5t-4.5 11.5t-4 8.5t-3 6t-2.5 4l-2.5 2.5v1q-14 15 -14 32q1 20 13 31q15 14 33 14q17 -1 30 -12q17 -18 32 -50q4 8 7 12q19 30 48 56q33 25 65 29q3 1 7 1q35 -1 59 -35q15 -21 27 -54q21 -62 30 -140v-6 q0 -30 -27 -41q-6 -2 -12 -3q-3 -1 -5 -1q-30 0 -42 28q-2 7 -3 12q-9 62 -21 104q-8 25 -15 40q-17 -11 -35 -38q-33 -52 -42 -126q-4 -28 -31 -37q-6 -2 -12 -2h-2z" glyph-name="n" horiz-adv-x="371" unicode="n"/>
<glyph d="M179 -19q-63 1 -111 39q-57 46 -58 114q1 60 57 109q53 43 112 43q18 -1 31 -13l2 1h4q50 -1 94 -48q44 -49 44 -101q-1 -61 -60 -105q-54 -39 -115 -39zM138 183q-8 -5 -13 -10q-24 -19 -25 -39q0 -37 44 -56q18 -7 35 -7q34 1 62 22q22 17 23 32q-1 18 -19 38 q-13 15 -26 20q-4 -4 -6 -7q-15 -16 -35 -17q-17 1 -28 10q-7 6 -12 14zM216 184z" glyph-name="o" horiz-adv-x="363" unicode="o"/>
<glyph d="M147 278q145 0 190 -89q15 -30 15 -64q-1 -58 -48 -104q-46 -45 -96 -46h-1h-2q-28 0 -47 3q1 -11 5 -32q3 -26 5 -39q9 -60 13 -83v-6q0 -30 -27 -42q-6 -2 -11 -3q-3 -1 -7 -1q-29 0 -41 27q-2 6 -3 11q-3 20 -13 84q-34 242 -66 321q-3 10 -3 17q1 31 28 42q8 3 16 3 q19 -1 32 -13q30 14 61 14zM241 85q20 21 21 40q-1 27 -21 41q-32 22 -94 22q-13 0 -26 -7l-2 -1q13 -49 21 -98q20 -17 64 -17h3h1q15 1 33 20z" glyph-name="p" horiz-adv-x="362" unicode="p"/>
<glyph d="M296 -344q-58 1 -97 30q-44 39 -45 103q0 21 7 129q4 46 5 70q-6 -1 -15 -1q-73 1 -113 41q-28 29 -28 68q1 52 45 95q52 54 116 64q9 1 17 1q6 0 9 -1q4 1 10 1q29 0 41 -27q2 -6 3 -11q3 -24 7 -64q11 -38 11 -53q0 -21 -10 -44q-1 -51 -7 -135q18 2 28 2 q56 -1 100 -41q45 -42 46 -95q-1 -55 -35 -91q-39 -41 -95 -41zM245 -174q0 -7 -1 -20v-17q0 -35 32 -41q9 -2 20 -2q31 0 38 30q2 6 2 12q0 19 -26 36q-15 10 -30 10q-17 0 -35 -8zM163 159q-23 -10 -44 -31q-18 -19 -19 -31v-1q1 -4 2 -5q15 -14 49 -14q11 1 19 7 q0 20 -2 55q-2 9 -5 20z" glyph-name="q" horiz-adv-x="436" unicode="q"/>
<glyph d="M104 50q-31 0 -43 29q-1 2 -1 4q-9 34 -34 57q-16 12 -16 34q1 18 10 29q14 16 35 16q9 0 16 -3q10 19 28 32q2 1 8 5q24 9 56 9q33 0 55 -11q23 -14 24 -40q-1 -13 -5 -21q-14 -23 -39 -24q-10 0 -21 5q-7 2 -28 0q0 -2 -2 -14v-13q0 -28 1 -46v-4q0 -30 -28 -41 q-5 -1 -9 -2q-3 -1 -7 -1zM177 171z" glyph-name="r" horiz-adv-x="252" unicode="r"/>
<glyph d="M145 -52q-75 0 -106 25q-5 4 -8 7q-13 12 -13 32q1 18 13 31q15 14 32 14q18 -1 32 -13q8 -6 50 -6q24 0 42 5q-2 2 -15 10q-8 4 -59 30q-37 17 -58 30q-44 27 -45 63q1 28 25 46q10 8 29 16q26 11 59 17q4 1 10 1q31 0 42 -27q1 -5 2 -9t1 -9q0 -29 -27 -41q-4 -1 -7 -2 q4 -2 7 -4q55 -25 81 -43q55 -37 56 -81q0 -51 -56 -76l-10 -4q-34 -12 -77 -12z" glyph-name="s" horiz-adv-x="297" unicode="s"/>
<glyph d="M326 55q-46 -67 -112 -81q-15 -3 -28 -3q-45 0 -75 18q-41 25 -53 77v2q-1 2 -1 3q-2 22 -2 35q-29 1 -41 27q-4 9 -4 18q1 29 27 41q3 2 11 4q8 4 11 5q0 3 1 10t1 10q4 62 4 85v14v4q0 30 28 41q7 2 14 3h2q31 0 43 -29q2 -7 3 -13v-16q0 -37 -3 -80q33 8 82 16 q1 0 3.5 0.5t3.5 0.5q30 0 41 -27q2 -6 3 -12q0 -1 0.5 -3.5t0.5 -3.5q0 -29 -29 -41q-5 -2 -10 -3q-50 -7 -102 -21q0 -37 2 -53q4 -17 20 -20q8 -2 19 -2q32 0 60 37q3 4 5 7q15 19 37 20q14 -1 26 -8q19 -15 20 -38q-1 -13 -8 -24z" glyph-name="t" horiz-adv-x="343" unicode="t"/>
<glyph d="M158 -24q-36 1 -67 25q-25 19 -43 52q-30 58 -38 135v4q0 30 28 42q7 2 13 3h5q29 0 41 -28q2 -6 3 -12q9 -87 42 -122q9 -8 16 -9q21 0 27 50q1 10 1 19q-2 28 -18 49q-16 15 -17 35q1 13 10 28q15 16 36 17q15 -1 27 -9q36 -29 49 -89q3 -17 3 -31q0 -100 -59 -141 q-27 -18 -59 -18zM169 184z" glyph-name="u" unicode="u"/>
<glyph d="M175 3q-18 1 -30 11q-34 30 -89 105q-31 44 -42 70q-4 9 -4 18q1 29 27 41q9 4 18 4q29 -1 41 -27q13 -31 74 -105q18 44 18 117q0 30 28 42q8 3 17 3q30 0 42 -28q3 -9 3 -17q-1 -153 -72 -222q-14 -12 -31 -12z" glyph-name="v" horiz-adv-x="288" unicode="v"/>
<glyph d="M83 -25q-24 1 -40 15q-5 4 -8 8q-22 31 -25 107v14q0 72 22 114q13 24 40 25q10 0 20 -5q24 -13 25 -40q0 -10 -5 -20q-12 -28 -12 -72v-8q0 -12 2 -27q2 3 5 6q21 32 26 64q4 29 32 37q5 1 8 1h4q31 0 42 -27q1 -2 1 -3q22 -60 39 -61q12 0 15 5q7 9 7 30q0 25 -26 43 q-5 3 -10 5q-28 8 -32 36q-1 4 -1 7q0 6 2 13q13 29 43 32q8 0 12 -1q42 -13 71 -49q31 -41 31 -86q0 -87 -63 -115q-23 -10 -49 -10q-44 1 -76 32q-32 -49 -73 -65q-15 -5 -27 -5zM110 48z" glyph-name="w" horiz-adv-x="380" unicode="w"/>
<glyph d="M349 37q-13 -9 -27 -9q-22 1 -36 19q-24 33 -59 69l-40 -80q-4 -10 -12 -25q-13 -24 -41 -25q-11 0 -19 4q-25 14 -26 40q0 10 5 20q4 10 12 25q27 56 53 106q-16 16 -29 26q-5 -4 -11 -10q-16 -19 -20 -34q-5 -29 -34 -36q-6 -1 -11 -1q-1 0 -3.5 0.5t-3.5 0.5 q-28 5 -36 33q-1 6 -1 11q0 6 1 9q9 43 43 79q35 36 72 45h4q4 1 5 1q15 0 27 -9q23 -17 42 -34q29 46 51 70q15 13 32 13q18 -1 32 -13q13 -14 13 -32q-1 -19 -13 -32q-18 -17 -48 -69q54 -53 88 -99q8 -11 8 -26q-1 -23 -18 -37z" glyph-name="x" horiz-adv-x="377" unicode="x"/>
<glyph d="M275 -478q-12 0 -31 2q-10 0 -15 1h-2q-76 8 -118 42q-35 31 -46 80q-1 4 -1 9q0 66 76 129q50 41 104 57q-13 94 -21 191q-44 -29 -114 -29q-46 1 -74 43q-23 38 -23 103q0 55 20 97q13 24 40 25q10 0 20 -5q24 -13 25 -40q-1 -13 -5 -21q-10 -21 -10 -59v-6 q1 -29 10 -47q52 2 73 24q19 24 32 86q5 27 33 35q6 1 11 1h4q29 -3 39 -32q2 -7 2 -13q4 -264 57 -504l1 -2q8 -46 8 -68q-1 -46 -22 -72q-25 -27 -73 -27zM235 -386q11 0 15 -1q5 0 16 -1h13v9q0 21 -6 50q-7 32 -16 82q-35 -14 -68 -42q-31 -29 -36 -52q3 -14 14 -23 q20 -16 68 -22zM111 92h1h-1z" glyph-name="y" horiz-adv-x="379" unicode="y"/>
<glyph d="M205 -391q-58 1 -106 31q-62 42 -63 101q1 58 69 105q60 40 114 40q58 0 88 -8q-7 30 -15 51q-17 43 -37 59q-55 32 -108 32q-18 0 -35 -3h-6q-24 1 -37 18q-9 12 -9 27q0 11 4 19q14 28 70 97q2 3 11 14q-30 -4 -64 -4q-20 0 -30 1q-29 2 -39 30q-2 8 -2 15v4 q2 29 30 39q8 2 15 2h4q10 -1 27 -1q69 0 145 28q8 3 16 3q17 0 30 -12q14 -14 15 -32q0 -5 -2 -12q-8 -34 -77 -120q-5 -6 -9 -11l-12 -15q54 -10 109 -42q1 0 3 -1q43 -30 72 -102q25 -63 25 -122q0 -56 -8 -97q-10 -48 -32 -76q-45 -58 -156 -58zM126 -259q3 -12 21 -25 q27 -17 58 -17q68 0 85 23q13 18 18 58q-4 2 -5 3q-20 13 -84 13q-27 -1 -61 -23q-27 -18 -32 -32z" glyph-name="z" horiz-adv-x="410" unicode="z"/>
<glyph d="M164 -120q-44 1 -73 28q-1 2 -3 4q-3 4 -4 5q-17 27 -17 70q0 15 1 21q4 32 13 54q-14 4 -29 6q-30 1 -39 29q-1 4 -2 7q-1 4 -1 9q1 28 26 40q29 14 54 36q-22 15 -36 28q-31 33 -31 72q1 47 45 81q33 24 83 40q6 2 14 2q30 0 42 -26q1 -3 1 -4q2 -6 2 -14 q0 -30 -26 -42q-3 -1 -4 -1q-58 -20 -67 -36q2 -10 32 -29q31 -19 40 -38v-1q1 -2 1 -3q3 -10 3 -20q-1 -35 -35 -71q18 -13 24 -29q5 -12 5 -22q-1 -17 -11 -32q-12 -19 -15 -45q-1 -19 2 -28h3q2 -1 4 -1q18 0 49 13q6 2 15 2q31 0 42 -27q1 -1 1 -2q2 -6 2 -15 q0 -30 -27 -42q-1 -1 -2 -1q-52 -18 -82 -18z" glyph-name="braceleft" horiz-adv-x="285" unicode="{"/>
<glyph d="M75 -46q-28 0 -40 26q-3 8 -4 15q-16 161 -21 320v2q0 29 27 41q9 3 17 3h2q29 0 41 -28q3 -8 3 -15q5 -148 20 -315v-5q0 -29 -28 -41q-6 -2 -12 -3h-5z" glyph-name="bar" horiz-adv-x="130" unicode="|"/>
<glyph d="M110 -112q-30 0 -42 28q-3 9 -3 17q0 30 28 42q8 3 17 3q7 0 18 1h11q-13 64 -44 108q-3 4 -5 6q-10 14 -10 28q1 13 8 25q4 6 6 8q-1 1 -3 2q-4 2 -5 3q-21 13 -22 38q0 6 1 9q8 41 38 104q2 3 5 10q2 5 3 7q-31 0 -46 -3q-5 -1 -11 -1q-28 0 -40 25q-2 6 -3 10t-1 9 q0 31 28 43q4 1 7 2q24 5 54 5q5 0 14 -1h9q45 -4 69 -20l1 -1q19 -17 20 -41q-1 -26 -28 -83l-6 -15q-9 -19 -13 -29q24 -6 43 -14q23 -14 24 -41q0 -9 -3 -16q-11 -25 -44 -45q47 -87 47 -154q-1 -33 -30 -52q-15 -9 -36 -13q-27 -4 -55 -4h-1z" glyph-name="braceright" horiz-adv-x="242" unicode="}"/>
<glyph d="M55 134q-21 1 -33 14q-12 14 -12 30q1 19 14 33l3 3q37 33 65 38q9 1 17 1q25 0 53 -11l2 -1q16 -7 26 -7q14 1 28 13t30 12q21 -1 34 -15q12 -14 12 -30q-1 -21 -15 -34q-37 -31 -75 -36h-12q-33 1 -65 15q-12 5 -20 5q-3 -2 -18 -15l-3 -3q-14 -12 -31 -12z" glyph-name="asciitilde" horiz-adv-x="303" unicode="~"/>
<glyph d="M55 134q-21 1 -33 14q-12 14 -12 30q1 19 14 33l3 3q37 33 65 38q9 1 17 1q25 0 53 -11l2 -1q16 -7 26 -7q14 1 28 13t30 12q21 -1 34 -15q12 -14 12 -30q-1 -21 -15 -34q-37 -31 -75 -36h-12q-33 1 -65 15q-12 5 -20 5q-3 -2 -18 -15l-3 -3q-14 -12 -31 -12z" glyph-name="asciitilde" horiz-adv-x="303" unicode="̃"/>
<glyph d="M136 -185q-29 1 -42 28q-39 96 -48 231v4q0 29 27 41q8 3 15 3h3q29 0 41 -27q3 -7 4 -14q8 -125 42 -204q3 -8 3 -17q-1 -29 -28 -42q-8 -3 -17 -3zM63 174q-24 1 -38 21l-8 13q-7 12 -7 24q1 26 21 38q10 7 24 7q26 -1 38 -21l9 -14q7 -13 7 -23q-1 -25 -22 -39 q-11 -6 -24 -6z" glyph-name="exclamdown" horiz-adv-x="191" unicode="¡"/>
<glyph d="M258 135q-25 -10 -44 -15l-4 -49q-2 -29 -30 -39q-8 -2 -15 -2h-4q-29 2 -39 30q-2 8 -2 15v4l3 33q-34 5 -58 22q-3 2 -5 4q-36 33 -47 82q-3 15 -3 30q0 33 13 56l2 4q24 32 64 47q-10 25 -19 72v4q-1 3 -1 4q0 31 29 42q5 1 9 2t8 1q28 0 40 -26q3 -6 4 -11 q11 -60 27 -73q4 -2 7 -4q1 0 1 -0.5v-0.5h1q29 -4 37 -32q2 -7 2 -13v-2q-1 -28 -28 -40q-8 -3 -16 -3h-2h-19q-55 0 -68 -16q-1 -3 -1 -10q1 -26 18 -44q12 -6 31 -6q32 0 74 17q9 4 18 4q28 0 40 -26q1 -1 1 -2q4 -9 4 -17q-1 -30 -28 -42z" glyph-name="cent" horiz-adv-x="295" unicode="¢"/>
<glyph d="M350 14q-5 -29 -34 -37q-6 -1 -11 -1t-7 1q-42 6 -80 6q-62 0 -108 -16q-10 -2 -14 -2q-25 1 -37 20q-8 11 -8 25q1 18 10 29q17 22 17 57q0 14 -1 21l-4 -1q-8 -2 -10 -2q-31 0 -42 29q-1 4 -2 6q-1 4 -1 10q0 30 27 42q3 1 4 1q-12 21 -26 35q-13 15 -13 32q0 6 2 13 q21 72 85 97l12 4q15 4 32 4q43 -1 73 -27q14 -15 14 -33q-1 -18 -12 -31q-15 -14 -33 -14q-17 1 -30 12q-7 5 -20 2q-15 -6 -25 -19q17 -24 33 -58q32 5 57 5q19 0 41 -5q27 -14 30 -43q0 -10 -2 -15q-14 -27 -44 -30q-6 0 -13 2q-3 1 -13 1q-18 0 -31 -2q2 -13 2 -34 q0 -18 -1 -27q24 3 49 3q46 0 96 -9q30 -4 37 -32q2 -7 2 -12q0 -1 -0.5 -3.5t-0.5 -3.5z" glyph-name="sterling" horiz-adv-x="360" unicode="£"/>
<glyph d="M382 319q3 -8 3 -16q-1 -30 -29 -42q-6 -3 -26 -23q-2 -1 -4 -4q-3 -2 -4 -3q21 -30 21 -66q-1 -38 -21 -65l28 -56q5 -10 5 -20q-1 -27 -26 -40q-8 -5 -20 -5q-27 1 -40 25l-24 48q-25 -6 -60 -6h-3q-26 2 -52 13l-41 -47q-14 -15 -34 -15q-17 0 -30 12q-15 14 -15 33 q1 18 11 30l48 53q-9 23 -9 49q1 36 19 66q-13 28 -39 53q-14 15 -14 32q1 18 13 32q15 14 32 14q18 -1 31 -13q32 -31 52 -66l9 3q6 1 8 2q5 1 11 1q12 0 21 -6q27 0 46 -7q7 6 16 15q35 36 59 45q8 3 16 3q30 -1 42 -29zM244 147q9 8 9 18q-1 15 -16 27q-16 11 -36 11 q-13 0 -23 -4q-9 -3 -17 -3q-11 -8 -11 -22q0 -34 34 -38h3q38 0 57 11z" glyph-name="currency" horiz-adv-x="394" unicode="¤"/>
<glyph d="M235 39q-22 -2 -34 -3q-3 -32 -4 -37q-11 -33 -46 -35q-32 0 -41 26q-3 6 -3 14v2q0 1 0.5 4.5t0.5 4.5q2 12 2 19q-21 2 -38 6q-28 7 -33 35q-1 4 -1 8q0 8 1 11q4 18 20 28q-16 13 -17 35q0 6 2 13q8 28 36 32q4 1 7 1q6 0 13 -2q-25 14 -42 32q-43 49 -48 116v2 q0 37 33 45q6 1 12 1q32 0 42 -28q2 -7 3 -14q4 -37 24 -61q17 -18 38 -18q22 1 36 19q11 14 7 30q-1 4 -1 9q0 29 26 41q6 2 10 3t9 1q30 0 42 -28q2 -4 3 -8q2 -9 2 -25q-1 -46 -28 -80q-11 -13 -23 -22q15 -9 22 -22q4 -9 4 -19q-1 -28 -26 -41q-1 0 -13 -5q35 -2 43 -35 q1 -6 1 -11q0 -30 -28 -41q-6 -2 -13 -3z" glyph-name="yen" horiz-adv-x="306" unicode="¥"/>
<glyph d="M101 185q-29 0 -41 27q-2 4 -3 8q-19 75 -40 108q-7 10 -7 24q1 26 21 38q10 7 24 7q26 -1 38 -21q31 -50 52 -135q1 -5 1 -11q0 -29 -27 -41q-4 -1 -7 -2q-8 -2 -11 -2zM150 -63q-29 0 -41 27q-3 8 -3 15q-7 94 -25 145q-2 6 -2 14q0 30 26 42q3 1 4 1q6 2 15 2 q32 -1 42 -30q22 -60 29 -168v-4q0 -30 -28 -41q-7 -2 -14 -3h-3z" glyph-name="brokenbar" horiz-adv-x="205" unicode="¦"/>
<glyph d="M348 5q22 -23 22 -50q-1 -45 -34 -76q-34 -28 -84 -37q-22 -4 -52 -4q-14 0 -35 2q-29 4 -38 31q-2 7 -2 13v5q4 30 32 38q7 2 13 2h5q9 -1 25 -1q51 0 74 16q-3 1 -8 3q-8 3 -27 7q-12 3 -18 4q-61 15 -84 24q-61 29 -62 80q1 51 36 98q-18 3 -37 8q-63 20 -64 73 q1 55 47 96q38 33 97 44q2 0 4 1h4q31 0 42 -29q1 -5 2 -9q0 -1 0.5 -3.5t0.5 -3.5q0 -30 -28 -42q-5 -2 -10 -3q-49 -8 -65 -37q-1 -1 -1 -2q3 0 12 -2q17 -3 50 -7q64 -9 88 -16q66 -22 67 -79q0 -48 -22 -93l-12 -21l27 -9q21 -9 35 -21zM221 135q-26 -7 -45 -40 q-8 -14 -10 -26q7 -4 20 -9q36 22 43 75q1 2 1 4q-4 -2 -9 -4z" glyph-name="section" horiz-adv-x="380" unicode="§"/>
<glyph d="M81 294q-12 1 -22 6l-27 16q-21 15 -22 39q1 13 6 23q15 21 38 22q11 0 24 -7l26 -15q22 -15 23 -39q-1 -11 -7 -23q-13 -21 -39 -22zM235 303q-19 1 -32 13l-16 16q-13 14 -13 32q1 19 13 32q15 13 32 13q18 -1 32 -13l16 -16q13 -14 13 -32q-1 -19 -13 -32 q-14 -13 -32 -13z" glyph-name="dieresis" horiz-adv-x="290" unicode="¨"/>
<glyph d="M81 294q-12 1 -22 6l-27 16q-21 15 -22 39q1 13 6 23q15 21 38 22q11 0 24 -7l26 -15q22 -15 23 -39q-1 -11 -7 -23q-13 -21 -39 -22zM235 303q-19 1 -32 13l-16 16q-13 14 -13 32q1 19 13 32q15 13 32 13q18 -1 32 -13l16 -16q13 -14 13 -32q-1 -19 -13 -32 q-14 -13 -32 -13z" glyph-name="dieresis" horiz-adv-x="290" unicode="̈"/>
<glyph d="M268 -64q-108 1 -181 65q-77 67 -77 174q0 63 24 120q27 67 77 112q29 25 63 42q4 27 31 35q7 2 13 2q43 0 87 -11q3 0 36 -3q26 -4 36 -28q35 -20 62 -47q87 -88 87 -214q-1 -103 -74 -175q-77 -72 -184 -72zM291 385q-73 -2 -121 -45q-63 -55 -69 -149q-1 -9 -1 -16 q0 -83 70 -124q43 -25 98 -25q84 0 134 62q34 42 34 95q0 102 -76 165q-31 25 -69 37zM252 43q-65 1 -100 34q-34 35 -34 99q1 85 56 132q42 35 98 35q16 0 32 -3q30 -5 37 -34q1 -5 1 -10v-4q-1 -3 -1 -4q-5 -27 -31 -35q-7 -2 -13 -2q-5 0 -8 1q-6 1 -15 1q-25 -1 -42 -14 q-24 -21 -24 -63q1 -28 8 -35q9 -8 36 -8t36 15q2 3 3 5q15 21 39 22q11 -1 23 -7q21 -15 22 -39q-1 -11 -7 -23q-40 -62 -116 -63z" glyph-name="copyright" horiz-adv-x="535" unicode="©"/>
<glyph d="M111 231q-10 0 -14 1q-36 4 -59 25q-28 26 -28 64q0 12 3 24q2 4 2 6q28 64 99 100q44 22 85 22q30 0 42 -27q1 -3 1 -4q4 1 9 1q17 0 30 -12q55 -48 110 -72q27 -12 28 -40q0 -10 -4 -18q-13 -27 -42 -28q-10 0 -17 3q-44 20 -77 42q-7 -11 -21 -23q-31 -28 -92 -53h-1 q-29 -11 -54 -11zM102 322h3q2 -1 4 -1q12 0 24 5q46 19 65 36q13 12 11 21v0l-1 1q-3 -1 -9 -1q-42 0 -79 -38q-12 -12 -18 -23z" glyph-name="ordfeminine" horiz-adv-x="428" unicode="ª"/>
<glyph d="M207 -30q-23 1 -37 19q-43 58 -139 117q-20 15 -21 37q1 24 19 38q55 38 121 116q14 16 35 16q16 -1 29 -10q15 -15 16 -34q-1 -16 -11 -30q-49 -57 -87 -91q72 -53 111 -106q9 -13 9 -26q-1 -24 -19 -37q-13 -9 -26 -9zM432 -19q-22 1 -35 16q-55 66 -134 119 q-19 14 -20 37v3q3 25 25 37q80 41 112 83q13 17 36 18q15 -1 27 -9q16 -15 17 -36q-1 -17 -8 -27q-30 -38 -82 -74q56 -45 96 -93q11 -15 11 -30q-1 -20 -16 -34q-13 -10 -29 -10z" glyph-name="guillemotleft" horiz-adv-x="486" unicode="«"/>
<glyph d="M305 8q-29 0 -41 26q-2 6 -3 10q-12 61 -12 125v15q-50 -2 -80 -2q-49 0 -118 5q-29 2 -38 30q-3 8 -3 15v4q2 29 30 38q8 3 15 3h4q51 -4 107 -4q40 0 105 2q9 1 23 1h3q19 -1 31 -14q13 -14 13 -31v-3q-2 -21 -2 -58q0 -60 10 -108q1 -4 1 -9q0 -29 -26 -41 q-6 -2 -10 -3q-2 0 -4 -1h-5z" glyph-name="logicalnot" horiz-adv-x="359" unicode="¬"/>
<glyph d="M73 178h-21q-28 2 -39 30q-3 8 -3 16v2q1 29 29 39q8 3 15 3h4h16q34 0 87 9l24 3q19 3 28 4h4q30 0 42 -27q2 -7 3 -13v-5q0 -30 -28 -42q-6 -2 -11 -3t-16 -2q-22 -3 -32 -4q-64 -10 -102 -10z" glyph-name="uni00AD" horiz-adv-x="272" unicode="­"/>
<glyph d="M478 406q107 -75 108 -208q0 -97 -79 -176q-7 -6 -12 -11q-91 -79 -203 -80q-94 2 -184 75q-42 35 -69 81q-29 52 -29 105q1 140 89 215q42 35 102 55q12 4 19 6q13 9 29 8h4q32 7 72 10h2q30 0 42 -26q1 -3 2 -5q64 -19 107 -49zM435 78q60 55 61 120q-1 85 -69 134 q-65 44 -168 53q-64 -15 -101 -46q-58 -50 -58 -147q1 -49 45 -97q0 7 1 11q5 39 5 67q0 52 -13 112q-1 5 -1 11q0 28 25 40q6 2 10 3q13 2 25 -2q7 2 8 2q26 4 55 4q76 -1 113 -32q26 -25 27 -56q-1 -28 -20 -54q-13 -16 -33 -31q27 -16 41 -30q12 -14 12 -31 q-1 -19 -14 -33q-14 -12 -31 -12q-19 1 -33 14q-19 19 -75 35q-5 2 -9 3l-3 -24q-6 -29 -33 -37q-4 -1 -7 -1q55 -33 97 -33q78 1 143 57zM235 253q4 -28 5 -43q40 23 43 25q11 7 18 14q-26 5 -46 5h-9q-7 -1 -11 -1z" glyph-name="registered" horiz-adv-x="596" unicode="®"/>
<glyph d="M55 338q-30 0 -42 27q-2 7 -3 12v5q0 30 28 42q6 2 11 3q116 15 348 15q30 0 42 -28q3 -9 3 -17q0 -30 -28 -42q-8 -3 -17 -3q-222 0 -336 -14h-6z" glyph-name="macron" horiz-adv-x="451" unicode="¯"/>
<glyph d="M383 127q0 -30 -28 -42q-8 -3 -17 -3q-58 0 -124 -7q-18 -2 -33 -4t-23.5 -4t-14.5 -4l-9 -3l-2 -1h-1q-10 -7 -24 -7q-24 1 -38 20q-7 12 -7 25q1 24 20 38q28 18 102 27q-1 19 -9 73q-67 -13 -106 -27q-8 -2 -14 -2q-31 1 -43 30q-2 6 -2 14q1 33 31 43q43 16 118 30 q-4 18 -12 53q-1 5 -1 11q0 29 27 41q4 1 7 2q5 1 11 1q30 0 42 -27q1 -4 2 -7q5 -22 13 -61q56 4 87 4q29 0 41 -26q4 -10 4 -19q0 -30 -28 -42q-9 -3 -17 -3q-36 0 -71 -3q6 -37 10 -77q44 2 64 2q30 0 42 -28q3 -9 3 -17z" glyph-name="plusminus" horiz-adv-x="392" unicode="±"/>
<glyph d="M193 209q-29 0 -58 11q-51 19 -71 57q-3 6 -5 16q-1 5 -1 12q1 33 25 65q-12 3 -43 13q-28 13 -30 42q0 9 3 16q13 27 41 30q9 0 16 -3q46 -16 65 -16q17 0 35 7q8 3 15 3q22 -1 36 -19q8 -13 8 -26q-1 -15 -9 -27q-20 -27 -47 -54q-20 -22 -22 -25q9 -4 14 -6 q20 -8 29 -6h6q32 0 42 -28q2 -5 3 -10q0 -1 0.5 -3.5t0.5 -3.5q0 -29 -27 -41q-6 -2 -11 -3q-6 -1 -15 -1z" glyph-name="uni00B2" horiz-adv-x="255" unicode="²"/>
<glyph d="M145 219q-29 0 -70 7h-5q-3 1 -4 1q-30 5 -37 32q-2 7 -2 12q0 1 0.5 3.5t0.5 3.5q4 30 32 37q7 2 12 2q1 0 3.5 -0.5t3.5 -0.5q2 0 5 -1h3q32 -4 42 -5q-15 11 -25 15q-26 10 -30 38v4q1 15 10 28q-16 0 -23 -1q-1 0 -3.5 -0.5t-3.5 -0.5q-29 0 -41 28q-2 6 -3 12v5 q0 29 26 41q7 3 13 4q24 2 39 2q16 0 24 -1q49 -5 70 -23q20 -21 20 -44v-2q-2 -25 -10 -41l5 -5q37 -38 37 -78q-1 -31 -23 -52q-25 -20 -66 -20z" glyph-name="uni00B3" horiz-adv-x="243" unicode="³"/>
<glyph d="M55 296q-13 1 -23 6q-21 15 -22 40q1 12 6 22q39 64 88 97q2 2 4 3q13 8 26 8q23 -1 37 -20q7 -10 7 -24q-1 -24 -20 -38q-38 -28 -64 -72q-15 -21 -39 -22z" glyph-name="acute" horiz-adv-x="188" unicode="´"/>
<glyph d="M55 296q-13 1 -23 6q-21 15 -22 40q1 12 6 22q39 64 88 97q2 2 4 3q13 8 26 8q23 -1 37 -20q7 -10 7 -24q-1 -24 -20 -38q-38 -28 -64 -72q-15 -21 -39 -22z" glyph-name="acute" horiz-adv-x="188" unicode="́"/>
<glyph d="M55 -183q-12 1 -22 6q-22 13 -23 39q1 12 6 22q70 127 105 327v3q5 29 34 36q6 1 11 1h6q29 -5 37 -34q1 -6 1 -11v-5q-3 -29 -3 -51q0 -41 7 -76q8 0 28 3q43 21 46 106q3 30 30 40q8 3 15 3h1q29 0 40 -27q4 -9 4 -17q3 -87 30 -116q12 -14 12 -31q-1 -19 -14 -33 q-13 -11 -31 -11q-21 1 -33 14q-12 15 -17 23q-24 -25 -55 -37q-2 -1 -4 -1q-4 -1 -5 -1q-30 -4 -47 -4q-13 0 -19 1q-19 3 -33 11q-29 -87 -68 -156q-14 -23 -39 -24z" glyph-name="mu" horiz-adv-x="430" unicode="µ"/>
<glyph d="M406 9v-2q0 -30 -28 -42q-8 -3 -15 -3h-2q-30 0 -42 27q-3 8 -3 15q-8 159 -40 266h-33q33 -126 33 -265q0 -30 -28 -42q-8 -3 -17 -3q-30 0 -42 28q-3 9 -3 17q0 32 -4 89h-12q-21 0 -52 4q-52 10 -79 36q-29 28 -29 67q1 55 58 102q51 39 112 50h1q52 7 83 7 q12 0 48 -2q29 -4 39 -30q45 -123 55 -319zM100 200q6 -11 53 -15q8 -1 17 -1q-7 35 -15 67q-17 -8 -30 -19q-24 -18 -25 -31v-1z" glyph-name="paragraph" horiz-adv-x="415" unicode="¶"/>
<glyph d="M55 167q-22 1 -34 16q-11 15 -11 29q1 20 16 34l21 18q12 10 29 10q22 -1 35 -16q10 -12 10 -28q-1 -22 -16 -35l-21 -18q-13 -10 -29 -10z" glyph-name="periodcentered" horiz-adv-x="131" unicode="·"/>
<glyph d="M147 234q-29 0 -41 28q-1 4 -2 7q-10 41 -10 84q-7 -5 -16 -10q-11 -6 -23 -6q-25 1 -39 22q-6 11 -6 23q1 25 22 39q59 35 95 52q10 5 20 5q14 -1 26 -9q18 -13 19 -35v-4q-1 -3 -1 -4q-7 -48 -7 -79q0 -27 7 -58q1 -5 1 -11q0 -29 -27 -41q-4 -1 -7 -2q-5 -1 -11 -1z " glyph-name="uni00B9" horiz-adv-x="202" unicode="¹"/>
<glyph d="M135 227q-52 1 -85 29q-39 37 -40 92q1 59 36 93q9 9 22 18q13 21 35 23q9 1 23 1q63 -1 105 -37q35 -32 36 -76q-1 -56 -34 -96q-38 -46 -98 -47zM140 392q-36 -10 -39 -32q-1 -6 -1 -12q6 -29 35 -31q17 1 29 14q13 17 13 39q-1 5 -6 9q-15 10 -31 13z" glyph-name="ordmasculine" horiz-adv-x="276" unicode="º"/>
<glyph d="M86 -48q-17 1 -27 9q-17 13 -17 35q1 16 9 28q42 56 114 119q-44 26 -117 36q-28 4 -36 32q-2 7 -2 13v6q5 28 33 36q7 2 13 2h6q132 -21 206 -89q15 -14 15 -35q-1 -21 -17 -33q-96 -79 -144 -142q-15 -16 -36 -17zM398 -14q-10 0 -19 3q-26 13 -27 42q0 10 4 18 q26 57 81 118q-68 36 -92 56q-15 14 -15 34q1 16 11 30q15 15 34 16q17 -1 30 -12q21 -18 87 -50q28 -14 42 -22q19 -12 23 -33v-6q-1 -20 -13 -33q-78 -74 -105 -135q-14 -25 -41 -26z" glyph-name="guillemotright" horiz-adv-x="567" unicode="»"/>
<glyph d="M83 224q-30 1 -41 26q-26 54 -32 119v4q0 30 28 42q7 2 13 3h4q30 0 42 -28q2 -7 3 -13q4 -47 23 -89q4 -9 4 -20q-1 -29 -25 -40q-10 -4 -19 -4zM147 19q-12 1 -22 6q-22 14 -23 40q0 11 6 21q71 129 87 234q4 28 32 36q6 2 13 2h6q30 -5 37 -33q2 -6 2 -11 q0 -1 -0.5 -3.5t-0.5 -3.5q-20 -124 -98 -265q-14 -22 -39 -23zM505 -35q-27 1 -40 25l-9 21q-21 -4 -36 -4h-11q-40 0 -70 8q-25 8 -32 33q-9 38 -9 115q0 29 26 41q10 4 19 4q30 0 42 -28q3 -9 3 -17q0 -48 2 -66q3 0 10 -1h9q10 0 27 3q5 23 6 64v2v6q0 30 28 41 q9 3 17 3h1q28 0 40 -27q4 -9 4 -18v-9v-43q0 -60 14 -88q5 -10 5 -20q-1 -27 -26 -40q-8 -5 -20 -5zM433 91z" glyph-name="onequarter" horiz-adv-x="560" unicode="¼"/>
<glyph d="M67 230h-2q-29 1 -40 28q-3 9 -3 17v2v13q0 28 -6 40q-6 11 -6 22q1 27 23 40q12 5 21 5q28 -1 41 -23q17 -33 17 -83v-18q-3 -30 -30 -40q-8 -3 -15 -3zM96 24q-10 0 -21 5q-23 14 -24 40q1 13 5 21q72 142 107 273q7 28 36 33q4 1 8 1q8 0 11 -1q29 -14 33 -44 q0 -8 -1 -11q-39 -147 -114 -292q-13 -24 -40 -25zM331 -39q-41 0 -71 19q-21 12 -23 35v11q1 43 30 88q-3 0 -7 2q-5 1 -7 1q-27 7 -33 35q-1 5 -1 9q0 8 1 11q5 26 32 33q6 1 11 1q8 0 11 -1q7 -2 18 -4q32 -9 43 -9h3q2 1 3 1q4 1 9 1q25 -1 39 -22q6 -11 6 -23 q-1 -15 -11 -29q-37 -45 -50 -68q10 0 20 3q6 2 14 2q30 0 42 -27q1 -3 1 -4q2 -8 2 -13q0 -30 -27 -42q-3 -1 -4 -1q-27 -9 -51 -9z" glyph-name="onehalf" horiz-adv-x="422" unicode="½"/>
<glyph d="M130 158q-31 0 -56 4q-28 4 -37 31q-2 7 -2 13q0 1 0.5 3.5t0.5 3.5q4 28 30 37q7 2 13 2q1 0 3.5 -0.5t3.5 -0.5q22 -3 39 -3q-18 8 -31 10q-29 7 -34 36q-1 4 -1 8q1 14 7 24h-7h-4q-30 0 -42 28q-2 7 -3 13v4q0 31 29 42q6 2 12 3q11 1 28 1t42 -2q38 -6 58 -24 q18 -17 18 -41q0 -21 -5 -36l9 -6q47 -34 47 -77q-1 -28 -22 -47q-25 -22 -74 -25q-8 -1 -22 -1zM216 -37q-6 0 -13 2q-31 11 -32 43q0 6 2 13q11 37 47 121q53 121 73 207q5 27 33 34q6 1 11 1q6 0 9 -1q30 -7 35 -37q1 -4 1 -8q0 -6 -1 -9q-22 -95 -78 -223v-1 q-30 -65 -44 -110q-11 -31 -43 -32zM522 -37q-30 0 -42 27q-2 7 -3 12q0 7 -2 16q-13 -2 -30 -2q-55 3 -82 24q-10 10 -15 23q-4 14 -4 27q0 15 6 38q5 20 9 46q4 30 32 37q7 2 12 2h6q29 -4 37 -31q2 -7 2 -13v-6q-3 -25 -10 -55v-1h5q4 -1 6 -1q11 0 21 2q1 2 1.5 6.5 t0.5 6.5q1 15 5 51q5 29 34 37q6 1 11 1h6q29 -4 37 -32q2 -7 2 -13v-5q-1 -9 -3 -26q-2 -14 -2 -21q-1 -10 -1 -27q0 -37 6 -72v-6q0 -29 -27 -41q-7 -3 -12 -4h-6z" glyph-name="threequarters" horiz-adv-x="576" unicode="¾"/>
<glyph d="M115 219q-6 0 -8 1q-16 -3 -29 4q-24 13 -25 40q0 10 5 20q17 33 49 33q31 -2 48 -33q5 -10 5 -20q-1 -27 -25 -40q-12 -5 -20 -5zM167 -268q-51 0 -91 23q-61 42 -66 107q1 54 36 99q28 33 71 52q1 9 1 22q0 31 -10 55q-3 8 -3 17q1 31 28 41q10 3 17 3q31 -1 42 -28 q16 -43 16 -90q0 -25 -5 -61q-6 -30 -34 -37q-52 -12 -66 -54q-3 -10 -3 -19q2 -18 20 -29q21 -11 48 -11q29 0 48 12q10 7 24 7q25 -1 38 -22q7 -13 7 -23q-1 -25 -22 -39q-44 -25 -95 -25h-1zM158 -21h1h-1z" glyph-name="questiondown" horiz-adv-x="294" unicode="¿"/>
<glyph d="M179 348.578q-18 0.931641 -29 10.248q-70 55.8984 -87 56.8301q-28 6.52148 -34 32.6074q-1 5.58984 -1 9.31641q0 5.58984 1 8.38477q5 25.1543 33 31.6758q6 0.931641 11 0.931641q7 0 10 -0.931641q41 -8.38477 126 -75.4629q15 -13.9746 16 -31.6758 q-1 -15.8379 -12 -27.9492q-13 -13.9746 -34 -13.9746zM378 61.8496q6 -10.4746 6 -20.9492q-1 -24.7598 -24 -37.1387q-11 -5.71387 -22 -5.71387q-26 0.952148 -39 21.9023l-34 59.041l-128 -13.332q-2 -2.85742 -5 -9.52246q-7 -9.52344 -9 -14.2842 q-27 -43.8047 -44 -55.2324q-10 -6.66602 -24 -6.66602q-24 0.953125 -38 19.998q-7 9.52246 -7 22.8545q1 19.0459 16 32.377q7 7.61816 38 62.8506l7 13.3311q3 7.61816 11 22.8545q6 12.3799 9 18.0938q46 99.0361 46 133.317v1.90527v3.80859q1 31.4248 31 40.9482 q10 1.9043 14 1.9043q27 -0.952148 39 -21.9023zM187 157.077l31 3.80859l-20 32.3779q-2 -4.76172 -4 -15.2363q-4 -14.2842 -7 -20.9502z" glyph-name="Agrave" horiz-adv-x="393" unicode="À"/>
<glyph d="M182.808 336.569q-12.4814 0.910156 -22.083 5.46387q-20.1631 13.6602 -21.123 36.4287q0.959961 10.9277 5.76074 20.0352q37.4453 58.2852 84.4922 88.3389q1.9209 1.82129 3.84082 2.73145q12.4824 7.28613 24.9639 7.28613q22.083 -0.911133 35.5254 -18.2148 q6.7207 -9.10645 6.7207 -21.8564q-0.959961 -21.8574 -19.2021 -34.6064q-36.4863 -25.5 -61.4492 -65.5713q-14.4023 -19.125 -37.4463 -20.0352zM378 57.1113q6 -9.85156 6 -19.7031q-1 -23.2871 -24 -34.9297q-11 -5.37402 -22 -5.37402q-26 0.895508 -39 20.5996 l-34 55.5293l-128 -12.5391q-2 -2.6875 -5 -8.95605q-7 -8.95703 -9 -13.4346q-27 -41.1992 -44 -51.9473q-10 -6.26953 -24 -6.26953q-24 0.896484 -38 18.8086q-7 8.95605 -7 21.4951q1 17.9131 16 30.4512q7 7.16504 38 59.1123l7 12.5381q3 7.16504 11 21.4951 q6 11.6436 9 17.0176q46 93.1455 46 125.388v1.79199v3.58203q1 29.5557 31 38.5117q10 1.79199 14 1.79199q27 -0.895508 39 -20.5996zM187 146.675l31 3.58203l-20 30.4521q-2 -4.47852 -4 -14.3301q-4 -13.4346 -7 -19.7041z" glyph-name="Aacute" horiz-adv-x="393" unicode="Á"/>
<glyph d="M62.7344 273.179q-13.6777 0.974609 -23.4473 6.82031q-19.54 12.665 -20.5176 37.0205q0.977539 13.6396 6.83887 23.3818q56.666 87.6826 113.331 147.111q13.6777 12.665 31.2637 12.665q15.6318 -0.974609 27.3555 -8.76855q100.631 -76.9648 128.963 -118.857 q7.81641 -12.665 7.81641 -24.3564q-0.977539 -22.4072 -20.5166 -37.0205q-11.7246 -6.82031 -23.4482 -6.82031q-23.4473 0.974609 -37.126 19.4854q-11.7236 19.4844 -75.2275 72.0938q-0.977539 1.94824 -1.9541 1.94824q-37.126 -43.8408 -76.2051 -104.244 q-12.7012 -19.4844 -37.126 -20.459zM378 63.8057q6 -10.4678 6 -20.9355q-1 -24.7412 -24 -37.1123q-11 -5.70898 -22 -5.70898q-26 0.951172 -39 21.8867l-34 58.999l-128 -13.3223q-2 -2.85547 -5 -9.5166q-7 -9.51562 -9 -14.2734q-27 -43.7734 -44 -55.1934 q-10 -6.66113 -24 -6.66113q-24 0.952148 -38 19.9834q-7 9.5166 -7 22.8389q1 19.0322 16 32.3545q7 7.6123 38 62.8057l7 13.3223q3 7.6123 11 22.8379q6 12.3711 9 18.0811q46 98.9658 46 133.224v1.90332v3.80566q1 31.4033 31 40.9189q10 1.90332 14 1.90332 q27 -0.951172 39 -21.8867zM187 158.966l31 3.80566l-20 32.3545q-2 -4.75781 -4 -15.2256q-4 -14.2734 -7 -20.9346z" glyph-name="Acircumflex" horiz-adv-x="393" unicode="Â"/>
<glyph d="M91 363q-21 1 -33 14q-12 14 -12 30q1 19 14 33l3 3q37 33 65 38q9 1 17 1q25 0 53 -11l2 -1q16 -7 26 -7q14 1 28 13t30 12q21 -1 34 -15q12 -14 12 -30q-1 -21 -15 -34q-37 -31 -75 -36h-12q-33 1 -65 15q-12 5 -20 5q-3 -2 -18 -15l-3 -3q-14 -12 -31 -12z M378 64.9893q6 -10.832 6 -21.6631q-1 -25.6016 -24 -38.4023q-11 -5.9082 -22 -5.9082q-26 0.984375 -39 22.6475l-34 61.0498l-128 -13.7852q-2 -2.9541 -5 -9.84668q-7 -9.84668 -9 -14.7705q-27 -45.2949 -44 -57.1113q-10 -6.89258 -24 -6.89258 q-24 0.984375 -38 20.6777q-7 9.84668 -7 23.6328q1 19.6934 16 33.4785q7 7.87793 38 64.9893l7 13.7852q3 7.87793 11 23.6328q6 12.8008 9 18.709q46 102.406 46 137.855v1.96875v3.93848q1 32.4951 31 42.3418q10 1.96875 14 1.96875q27 -0.984375 39 -22.6475z M187 163.457l31 3.93848l-20 33.4795q-2 -4.92383 -4 -15.7549q-4 -14.7705 -7 -21.6631z" glyph-name="Atilde" horiz-adv-x="393" unicode="Ã"/>
<glyph d="M109 379q-12 1 -22 6l-27 16q-21 15 -22 39q1 13 6 23q15 21 38 22q11 0 24 -7l26 -15q22 -15 23 -39q-1 -11 -7 -23q-13 -21 -39 -22zM263 388q-19 1 -32 13l-16 16q-13 14 -13 32q1 19 13 32q15 13 32 13q18 -1 32 -13l16 -16q13 -14 13 -32q-1 -19 -13 -32 q-14 -13 -32 -13zM378 66q6 -11 6 -22q-1 -26 -24 -39q-11 -6 -22 -6q-26 1 -39 23l-34 62l-128 -14q-2 -3 -5 -10q-7 -10 -9 -15q-27 -46 -44 -58q-10 -7 -24 -7q-24 1 -38 21q-7 10 -7 24q1 20 16 34q7 8 38 66l7 14q3 8 11 24q6 13 9 19q46 104 46 140v2v4q1 33 31 43 q10 2 14 2q27 -1 39 -23zM187 166l31 4l-20 34q-2 -5 -4 -16q-4 -15 -7 -22z" glyph-name="Adieresis" horiz-adv-x="393" unicode="Ä"/>
<glyph d="M238 319l140 -253q6 -11 6 -22q-1 -26 -24 -39q-11 -6 -22 -6q-26 1 -39 23l-34 62l-128 -14q-2 -3 -5 -10q-7 -10 -9 -15q-27 -46 -44 -58q-10 -7 -24 -7q-24 1 -38 21q-7 10 -7 24q1 13 16 34q19 27 38 65q1 1 2 5q3 7 5 10q7 13 20 43q38 87 45 126q-22 6 -31 16 q-20 19 -20 50q1 46 57 80v3q0 19 20 27q6 2 11 2q44 0 75 -18q35 -24 36 -60q-1 -40 -22 -68q-10 -12 -24 -21zM154 363q9 -2 20 -2h4q16 2 25 6q20 11 20 41q-1 7 -11 12q-31 -9 -51 -26l-5.5 -5.5t-3.5 -4t-2.5 -3.5t-2 -3t-1.5 -2v-2q0 -6 2 -8q0 -1 4 -2q1 -1 2 -1z M183 166l35 4l-20 34q-2 -7 -9 -23z" glyph-name="Aring" horiz-adv-x="393" unicode="Å"/>
<glyph d="M440 63q30 -5 37 -34q1 -5 1 -10v-4q-1 -3 -1 -4q-5 -27 -31 -35q-7 -2 -13 -2q-5 0 -8 1q-38 6 -68 6q-35 0 -87 -8q-3 -1 -7 -1q-18 1 -31 12q-14 15 -14 34v4q1 7 1 22q0 24 -3 60q-74 -29 -123 -104q-15 -19 -38 -20q-13 1 -24 7q-20 13 -21 38q1 13 6 23 q80 136 135 289q12 28 43 30h5l12 -2q106 -11 135 -11q31 0 52 4q4 1 9 1q29 0 41 -26q2 -6 3 -10t1 -9q0 -29 -27 -41q-5 -2 -10 -3q-33 -6 -69 -6q-30 0 -61 3q6 -35 8 -56h21q53 0 114 -10q29 -5 36 -33q2 -6 2 -11q0 -1 -0.5 -3.5t-0.5 -3.5q-5 -30 -33 -37 q-6 -2 -11 -2q-1 0 -3.5 0.5t-3.5 0.5q-58 9 -98 9h-11q0 -7 1 -20q2 -23 2 -33q27 3 51 3q35 0 81 -8zM190 191q2 1 8 2q5 2 7 2q-1 4 -2 12q-2 7 -2 10q-2 -7 -11 -26z" glyph-name="AE" horiz-adv-x="487" unicode="Æ"/>
<glyph d="M293 -287q-19 0 -54 4q-29 4 -38 31q-2 7 -2 13q0 1 1 3v3q4 30 32 37q7 2 12 2h6q26 -3 44 -3q30 0 41 9q10 10 10 40q-1 16 -16 27q-19 13 -46 13q-20 0 -39 -7q-8 -3 -16 -3q-14 1 -27 10q-17 14 -18 34q0 1 1 2v3q1 12 1 27q-1 35 -20 73q-3 6 -4 11q-55 3 -94 31 q-52 38 -57 116v8q9 66 56 107q48 40 123 46h4q29 0 41 -27q3 -7 4 -14v-2q0 -31 -28 -43q-7 -3 -14 -4q-86 -7 -96 -69q3 -32 20 -45l1 -1q20 -13 60 -13q49 0 114 17q5 1 11 1q30 0 42 -27q1 -4 2 -7q1 -5 1 -11q0 -29 -27 -41q-4 -1 -7 -2q-29 -8 -62 -13q14 -32 19 -67 h10q54 -1 96 -29q54 -40 55 -101q-1 -72 -41 -107q-35 -32 -101 -32z" glyph-name="Ccedilla" horiz-adv-x="360" unicode="Ç"/>
<glyph d="M146.999 365.232q-16.9941 0.916016 -27.3789 10.0693q-66.0859 54.9209 -82.1357 55.8359q-26.4346 6.40723 -32.0996 32.0371q-0.943359 5.49219 -0.943359 9.15332q0 5.49219 0.943359 8.23828q4.7207 24.7139 31.1553 31.1211q5.66504 0.916016 10.3848 0.916016 q6.60938 0 9.44141 -0.916016q38.708 -8.2373 118.955 -74.1426q14.1621 -13.7305 15.1055 -31.1221q-0.943359 -15.5605 -11.3291 -27.46q-12.2725 -13.7305 -32.0986 -13.7305zM146 -23.9561q-11 0 -24 1.91309q-58 9.56543 -93 65.998q-4 6.69531 -5 9.56445 q-6 19.1299 -6 39.2158q0 27.7383 10 50.6934q8 21.043 21 39.2158q-39 36.3467 -39 88.9531q0 8.6084 2 24.8682q2 9.56445 6 16.2607q35 51.6494 99 58.3447q2 0 5 0.957031h6q25 0 54 -11.4785q33 -15.3037 61 -43.998q11 -11.4775 11 -28.6943q-1 -21.042 -14 -31.5635 q-14 -11.4785 -31 -11.4785q-20 0.957031 -33 14.3477q-25 24.8682 -48 25.8252h-3q-15 -1.91309 -25 -11.4775v-2.87012q2 -26.7812 34 -38.2588q25 -8.6084 31 -33.4775q0 -0.956055 1 -3.8252v-3.82617q-1 -21.999 -18 -34.4336q-39 -28.6943 -40 -65.041 q0 -5.73828 1 -8.60742q13 -18.1738 28 -20.0869q4 -0.956055 10 -0.956055q25 0.956055 63 20.0859q11 5.73926 22 5.73926q26 -0.957031 39 -22.9561q6 -10.5215 6 -21.042q-1 -24.8691 -24 -37.3027q-59 -30.6084 -107 -30.6084z" glyph-name="Egrave" unicode="È"/>
<glyph d="M95.959 339.482q-12.7539 0.870117 -22.5645 5.21875q-20.6025 13.0488 -21.584 34.7949q0.981445 10.4385 5.88672 19.1377q38.2617 55.6719 86.335 84.3779q1.96191 1.73926 3.92383 2.60938q12.7549 6.95898 25.5088 6.95898q22.5645 -0.870117 36.2998 -17.3975 q6.86719 -8.69922 6.86719 -20.877q-0.980469 -20.877 -19.6211 -33.0557q-37.2812 -24.3564 -62.7891 -62.6309q-14.7168 -18.2666 -38.2627 -19.1367zM146 -25.7236q-11 0 -24 1.89355q-58 9.46777 -93 65.3311q-4 6.62793 -5 9.46875q-6 18.9365 -6 38.8203 q0 27.458 10 50.1826q8 20.8301 21 38.8203q-39 35.9795 -39 88.0557q0 8.52148 2 24.6182q2 9.46777 6 16.0957q35 51.1299 99 57.7578q2 0 5 0.946289h6q25 0 54 -11.3623q33 -15.1494 61 -43.5537q11 -11.3623 11 -28.4053q-1 -20.8311 -14 -31.2461 q-14 -11.3623 -31 -11.3623q-20 0.947266 -33 14.2031q-25 24.6182 -48 25.5645h-3q-15 -1.89355 -25 -11.3623v-2.83984q2 -26.5117 34 -37.874q25 -8.52148 31 -33.1396q0 -0.946289 1 -3.78711v-3.78711q-1 -21.7773 -18 -34.0859q-39 -28.4053 -40 -64.3848 q0 -5.68164 1 -8.52246q13 -17.9893 28 -19.8828q4 -0.947266 10 -0.947266q25 0.947266 63 19.8838q11 5.68066 22 5.68066q26 -0.946289 39 -22.7236q6 -10.415 6 -20.8311q-1 -24.6172 -24 -36.9268q-59 -30.2979 -107 -30.2979z" glyph-name="Eacute" unicode="É"/>
<glyph d="M14.0381 322.521q-12.4824 0.780273 -21.3984 5.4668q-17.832 10.1543 -18.7236 29.6807q0.891602 10.9355 6.24121 18.7461q51.7129 70.2959 103.426 117.94q12.4824 10.1543 28.5312 10.1543q14.2656 -0.78125 24.9648 -7.0293q91.835 -61.7051 117.691 -95.29 q7.13281 -10.1543 7.13281 -19.5273q-0.891602 -17.9639 -18.7236 -29.6807q-10.6992 -5.4668 -21.3984 -5.4668q-21.3984 0.780273 -33.8809 15.6211q-10.6992 15.6211 -68.6533 57.7988q-0.891602 1.5625 -1.7832 1.5625q-33.8809 -35.1484 -69.5449 -83.5742 q-11.5908 -15.6221 -33.8809 -16.4023zM144 -25.8398q-11 0 -24 1.90332q-58 9.5166 -93 65.6641q-4 6.66211 -5 9.5166q-6 19.0332 -6 39.0186q0 27.5977 10 50.4375q8 20.9365 21 39.0186q-39 36.1631 -39 88.5039q0 8.56543 2 24.7432q2 9.5166 6 16.1787 q35 51.3896 99 58.0508q2 0 5 0.952148h6q25 0 54 -11.4199q33 -15.2266 61 -43.7764q11 -11.4199 11 -28.5498q-1 -20.9365 -14 -31.4053q-14 -11.4199 -31 -11.4199q-20 0.952148 -33 14.2754q-25 24.7432 -48 25.6943h-3q-15 -1.90332 -25 -11.4199v-2.85449 q2 -26.6465 34 -38.0664q25 -8.56543 31 -33.3086q0 -0.951172 1 -3.80664v-3.80664q-1 -21.8877 -18 -34.2598q-39 -28.5498 -40 -64.7129q0 -5.70996 1 -8.56445q13 -18.082 28 -19.9854q4 -0.951172 10 -0.951172q25 0.951172 63 19.9844q11 5.70996 22 5.70996 q26 -0.951172 39 -22.8398q6 -10.4678 6 -20.9365q-1 -24.7432 -24 -37.1143q-59 -30.4531 -107 -30.4531z" glyph-name="Ecircumflex" unicode="Ê"/>
<glyph d="M77 390.056q-12 0.939453 -22 5.63379l-27 15.0234q-21 14.085 -22 36.6201q1 12.2061 6 21.5957q15 19.7188 38 20.6572q11 0 24 -6.57227l26 -14.085q22 -14.084 23 -36.6191q-1 -10.3291 -7 -21.5967q-13 -19.7178 -39 -20.6572zM231 398.507 q-19 0.938477 -32 12.2061l-16 15.0234q-13 13.1455 -13 30.0469q1 17.8408 13 30.0469q15 12.207 32 12.207q18 -0.939453 32 -12.207l16 -15.0234q13 -13.1455 13 -30.0469q-1 -17.8398 -13 -30.0469q-14 -12.2061 -32 -12.2061zM146 -24q-11 0 -24 2q-58 10 -93 69 q-4 7 -5 10q-6 20 -6 41q0 29 10 53q8 22 21 41q-39 38 -39 93q0 9 2 26q2 10 6 17q35 54 99 61q2 0 5 1h6q25 0 54 -12q33 -16 61 -46q11 -12 11 -30q-1 -22 -14 -33q-14 -12 -31 -12q-20 1 -33 15q-25 26 -48 27h-3q-15 -2 -25 -12v-3q2 -28 34 -40q25 -9 31 -35 q0 -1 1 -4v-4q-1 -23 -18 -36q-39 -30 -40 -68q0 -6 1 -9q13 -19 28 -21q4 -1 10 -1q25 1 63 21q11 6 22 6q26 -1 39 -24q6 -11 6 -22q-1 -26 -24 -39q-59 -32 -107 -32z" glyph-name="Edieresis" unicode="Ë"/>
<glyph d="M74.6562 361.908q-17.5137 0.962891 -28.2178 10.5947q-68.1113 57.7881 -84.6523 58.751q-27.2451 6.74219 -33.083 33.71q-0.972656 5.77832 -0.972656 9.63086q0 5.7793 0.972656 8.66895q4.86523 26.0039 32.1094 32.7461q5.83887 0.962891 10.7041 0.962891 q6.81055 0 9.72949 -0.962891q39.8945 -8.66797 122.602 -78.0137q14.5947 -14.4473 15.5684 -32.7471q-0.973633 -16.373 -11.6768 -28.8936q-12.6494 -14.4473 -33.083 -14.4473zM143 31q-30 1 -42 29q-3 8 -9 26q-7 18 -10 26q-44 120 -67 164q-5 12 -5 21q1 27 24 40 q12 5 21 5q27 -1 40 -25q27 -52 71 -174q3 -9 10 -25q6 -18 9 -26t3 -16q-1 -32 -29 -42q-8 -3 -16 -3z" glyph-name="Igrave" horiz-adv-x="198" unicode="Ì"/>
<glyph d="M54.7227 353.817q-13.8799 0.952148 -24.5566 5.71289q-22.4219 14.2812 -23.4893 38.083q1.06738 11.4258 6.40625 20.9463q41.6396 60.9336 93.957 92.3525q2.13477 1.9043 4.27051 2.85645q13.8799 7.61621 27.7598 7.61621q24.5566 -0.952148 39.5049 -19.041 q7.47363 -9.52148 7.47363 -22.8506q-1.06738 -22.8496 -21.3535 -36.1797q-40.5723 -26.6582 -68.332 -68.5498q-16.0156 -19.9941 -41.6406 -20.9463zM143 31q-30 1 -42 29q-3 8 -9 26q-7 18 -10 26q-44 120 -67 164q-5 12 -5 21q1 27 24 40q12 5 21 5q27 -1 40 -25 q27 -52 71 -174q3 -9 10 -25q6 -18 9 -26t3 -16q-1 -32 -29 -42q-8 -3 -16 -3z" glyph-name="Iacute" horiz-adv-x="198" unicode="Í"/>
<glyph d="M-78.7393 298.323q-13.5566 0.953125 -23.2412 6.66992q-19.3672 12.3857 -20.3359 36.2041q0.96875 13.3389 6.7793 22.8662q56.166 85.749 112.332 143.867q13.5576 12.3857 30.9883 12.3857q15.4941 -0.953125 27.1152 -8.5752q99.7432 -75.2676 127.826 -116.236 q7.74707 -12.3857 7.74707 -23.8193q-0.967773 -21.9131 -20.3359 -36.2041q-11.6201 -6.66992 -23.2412 -6.66992q-23.2412 0.953125 -36.7988 19.0557q-11.6201 19.0547 -74.5654 70.5039q-0.967773 1.90527 -1.93652 1.90527q-36.7988 -42.874 -75.5342 -101.945 q-12.5889 -19.0547 -36.7988 -20.0078zM143 30.6992q-30 0.990234 -42 28.7188q-3 7.92188 -9 25.7471q-7 17.8252 -10 25.748q-44 118.835 -67 162.408q-5 11.8838 -5 20.7959q1 26.7383 24 39.6123q12 4.95117 21 4.95117q27 -0.990234 40 -24.7568 q27 -51.4961 71 -172.312q3 -8.91309 10 -24.7578q6 -17.8252 9 -25.7471q3 -7.92285 3 -15.8447q-1 -31.6895 -29 -41.5928q-8 -2.9707 -16 -2.9707z" glyph-name="Icircumflex" horiz-adv-x="198" unicode="Î"/>
<glyph d="M-34 354q-12 1 -22 6l-27 16q-21 15 -22 39q1 13 6 23q15 21 38 22q11 0 24 -7l26 -15q22 -15 23 -39q-1 -11 -7 -23q-13 -21 -39 -22zM120 363q-19 1 -32 13l-16 16q-13 14 -13 32q1 19 13 32q15 13 32 13q18 -1 32 -13l16 -16q13 -14 13 -32q-1 -19 -13 -32 q-14 -13 -32 -13zM143 31q-30 1 -42 29q-3 8 -9 26q-7 18 -10 26q-44 120 -67 164q-5 12 -5 21q1 27 24 40q12 5 21 5q27 -1 40 -25q27 -52 71 -174q3 -9 10 -25q6 -18 9 -26t3 -16q-1 -32 -29 -42q-8 -3 -16 -3z" glyph-name="Idieresis" horiz-adv-x="198" unicode="Ï"/>
<glyph d="M365 287q45 -40 45 -97q-1 -77 -63 -138q-64 -60 -139 -60h-8q-15 2 -25 10q-29 1 -39 29q-3 8 -3 15v2q0 39 -17 85q-11 -2 -45 -13q-7 -4 -16 -4q-30 1 -42 29q-3 8 -3 16q1 30 29 42q24 10 42 14q-4 9 -28 54q-6 11 -6 23q0 9 5 19q13 22 34 24q44 6 85 6q36 0 72 -5 q79 -13 122 -51zM285 117q34 36 35 73q-1 17 -15 30q-39 33 -134 33h-7q2 -3 5 -10q4 -9 6 -13q29 0 70 -5q28 -4 37 -31q2 -7 2 -13q0 -1 -0.5 -3.5t-0.5 -3.5q-4 -29 -31 -37q-6 -2 -12 -2q-1 0 -3.5 0.5t-3.5 0.5q-16 2 -24 2q5 -18 12 -55q35 7 64 34z" glyph-name="Eth" horiz-adv-x="419" unicode="Ð"/>
<glyph d="M62 367q-21 1 -33 14q-12 14 -12 30q1 19 14 33l3 3q37 33 65 38q9 1 17 1q25 0 53 -11l2 -1q16 -7 26 -7q14 1 28 13t30 12q21 -1 34 -15q12 -14 12 -30q-1 -21 -15 -34q-37 -31 -75 -36h-12q-33 1 -65 15q-12 5 -20 5q-3 -2 -18 -15l-3 -3q-14 -12 -31 -12zM55 -9 q-11 0 -20 4q-24 13 -25 40q0 10 5 20q28 60 37 235v7q2 31 31 41q2 1 4 1q4 1 10 1q26 -1 39 -23q2 -2 5 -8l3 -6q55 -96 72 -120q26 -37 45 -50l25 -3q13 1 22 6q19 16 21 71q-7 64 -42 91q-3 3 -6 5q-18 15 -19 37q1 15 8 25q15 19 37 20q13 -1 25 -8q40 -29 59 -65 q22 -41 27 -100q1 -3 1 -5q-4 -101 -57 -143q-27 -20 -60 -23q-6 -1 -16 -1q-26 0 -51 7q-1 1 -5 2q-42 17 -88 83q-4 6 -11 17q-13 -86 -36 -133q-12 -24 -40 -25z" glyph-name="Ntilde" horiz-adv-x="428" unicode="Ñ"/>
<glyph d="M215 334q-18 1 -29 11q-70 60 -87 61q-28 7 -34 35q-1 6 -1 10q0 6 1 9q5 27 33 34q6 1 11 1q7 0 10 -1q41 -9 126 -81q15 -15 16 -34q-1 -17 -12 -30q-13 -15 -34 -15zM202 13h-2q-81 3 -125 30q-63 40 -65 116q0 7 1 10q14 64 47 108q31 39 73 56q8 3 16 3 q27 -1 40 -23h20q55 0 96 -24q55 -33 68 -97v-10q-2 -78 -47 -119q-33 -29 -112 -49h-5q-4 -1 -5 -1zM100 156q3 -25 21 -36q23 -14 76 -17q62 15 75 37q8 14 9 40q-5 20 -23 31q-22 12 -54 12q-35 0 -70 -12q-8 -2 -13 -2q-15 -25 -21 -53z" glyph-name="Ograve" horiz-adv-x="381" unicode="Ò"/>
<glyph d="M159 346.393q-13 1.09961 -23 6.5957q-21 16.4902 -22 43.9727q1 13.1914 6 24.1846q39 70.3545 88 106.632q2 2.19824 4 3.29785q13 8.79395 26 8.79395q23 -1.09863 37 -21.9854q7 -10.9932 7 -26.3838q-1 -26.3828 -20 -41.7734q-38 -30.7803 -64 -79.1494 q-15 -23.085 -39 -24.1846zM202 3h-2q-81 3 -125 30q-63 40 -65 116q0 7 1 10q14 64 47 108q31 39 73 56q8 3 16 3q27 -1 40 -23h20q55 0 96 -24q55 -33 68 -97v-10q-2 -78 -47 -119q-33 -29 -112 -49h-5q-4 -1 -5 -1zM100 146q3 -25 21 -36q23 -14 76 -17q62 15 75 37 q8 14 9 40q-5 20 -23 31q-22 12 -54 12q-35 0 -70 -12q-8 -2 -13 -2q-15 -25 -21 -53z" glyph-name="Oacute" horiz-adv-x="381" unicode="Ó"/>
<glyph d="M66.8789 321.868q-13.7148 0.96875 -23.5107 6.7793q-19.5928 12.5898 -20.5723 36.8008q0.979492 13.5586 6.85742 23.2432q56.8174 87.1602 113.636 146.235q13.7139 12.5898 31.3477 12.5898q15.6738 -0.96875 27.4287 -8.7168q100.9 -76.5068 129.31 -118.149 q7.83691 -12.5898 7.83691 -24.2119q-0.980469 -22.2734 -20.5723 -36.8008q-11.7559 -6.7793 -23.5107 -6.7793q-23.5107 0.96875 -37.2256 19.3691q-11.7549 19.3691 -75.4297 71.665q-0.980469 1.93652 -1.95996 1.93652q-37.2246 -43.5801 -76.4092 -103.623 q-12.7354 -19.3691 -37.2256 -20.3379zM202 3h-2q-81 3 -125 30q-63 40 -65 116q0 7 1 10q14 64 47 108q31 39 73 56q8 3 16 3q27 -1 40 -23h20q55 0 96 -24q55 -33 68 -97v-10q-2 -78 -47 -119q-33 -29 -112 -49h-5q-4 -1 -5 -1zM100 146q3 -25 21 -36q23 -14 76 -17 q62 15 75 37q8 14 9 40q-5 20 -23 31q-22 12 -54 12q-35 0 -70 -12q-8 -2 -13 -2q-15 -25 -21 -53z" glyph-name="Ocircumflex" horiz-adv-x="381" unicode="Ô"/>
<glyph d="M94 340q-21 1 -33 14q-12 14 -12 30q1 19 14 33l3 3q37 33 65 38q9 1 17 1q25 0 53 -11l2 -1q16 -7 26 -7q14 1 28 13t30 12q21 -1 34 -15q12 -14 12 -30q-1 -21 -15 -34q-37 -31 -75 -36h-12q-33 1 -65 15q-12 5 -20 5q-3 -2 -18 -15l-3 -3q-14 -12 -31 -12zM202 13h-2 q-81 3 -125 30q-63 40 -65 116q0 7 1 10q14 64 47 108q31 39 73 56q8 3 16 3q27 -1 40 -23h20q55 0 96 -24q55 -33 68 -97v-10q-2 -78 -47 -119q-33 -29 -112 -49h-5q-4 -1 -5 -1zM100 156q3 -25 21 -36q23 -14 76 -17q62 15 75 37q8 14 9 40q-5 20 -23 31q-22 12 -54 12 q-35 0 -70 -12q-8 -2 -13 -2q-15 -25 -21 -53z" glyph-name="Otilde" horiz-adv-x="381" unicode="Õ"/>
<glyph d="M122 350q-12 1 -22 6l-27 16q-21 15 -22 39q1 13 6 23q15 21 38 22q11 0 24 -7l26 -15q22 -15 23 -39q-1 -11 -7 -23q-13 -21 -39 -22zM276 359q-19 1 -32 13l-16 16q-13 14 -13 32q1 19 13 32q15 13 32 13q18 -1 32 -13l16 -16q13 -14 13 -32q-1 -19 -13 -32 q-14 -13 -32 -13zM202 13h-2q-81 3 -125 30q-63 40 -65 116q0 7 1 10q14 64 47 108q31 39 73 56q8 3 16 3q27 -1 40 -23h20q55 0 96 -24q55 -33 68 -97v-10q-2 -78 -47 -119q-33 -29 -112 -49h-5q-4 -1 -5 -1zM100 156q3 -25 21 -36q23 -14 76 -17q62 15 75 37q8 14 9 40 q-5 20 -23 31q-22 12 -54 12q-35 0 -70 -12q-8 -2 -13 -2q-15 -25 -21 -53z" glyph-name="Odieresis" horiz-adv-x="381" unicode="Ö"/>
<glyph d="M289 80q-13 -11 -29 -11q-21 1 -34 15q-32 36 -64 67q-14 -26 -21 -40q-12 -25 -40 -26q-11 0 -20 4q-24 13 -25 41q0 11 4 19q18 38 34 63q-34 27 -65 50q-18 15 -19 37q1 14 9 26q13 18 36 19q14 -1 26 -9q35 -25 64 -49q15 19 42 52l2 3q14 16 35 16q17 -1 28 -10 q16 -15 17 -35q-1 -16 -10 -29l-3 -2q-6 -8 -19 -24l-24 -30q34 -32 80 -83q12 -14 12 -30q-1 -20 -16 -34z" glyph-name="multiply" horiz-adv-x="314" unicode="×"/>
<glyph d="M302 297q75 -47 76 -128q-1 -69 -64 -122q-59 -49 -128 -49q-18 0 -39 5q-3 -7 -9 -20q-6 -14 -9 -20q-12 -26 -41 -27q-10 0 -18 4q-26 12 -27 41q0 10 3.5 17.5t10.5 23.5t10 23q-57 50 -57 124q0 92 85 137q11 6 21 10q12 23 40 24h5l39 -6q9 17 24 41q13 21 38 22 q13 -1 24 -7q21 -13 22 -38q-1 -11 -7 -23q-10 -16 -14 -24q6 -3 15 -8zM148 232q-47 -21 -48 -63q0 -16 6 -31q18 42 42 94zM186 88q44 0 80 37q21 23 22 44q-2 31 -33 51q-1 1 -5 3t-5 3q-33 -65 -62 -138h3z" glyph-name="Oslash" horiz-adv-x="387" unicode="Ø"/>
<glyph d="M159.097 333.81q-17.4521 0.969727 -28.1172 10.6592q-67.8682 58.1357 -84.3496 59.1045q-27.1475 6.78223 -32.9648 33.9131q-0.969727 5.81348 -0.969727 9.68848q0 5.81445 0.969727 8.7207q4.84766 26.1611 31.9951 32.9434q5.81738 0.969727 10.665 0.969727 q6.78613 0 9.69531 -0.969727q39.751 -8.71973 122.162 -78.4834q14.543 -14.5342 15.5127 -32.9434q-0.969727 -16.4717 -11.6348 -29.0684q-12.6035 -14.5342 -32.9639 -14.5342zM227 0h-2q-52 1.94922 -92 26.3145q-39 23.3906 -66 67.248q-45 74.0703 -57 218.312 v2.92383q0 28.2637 27 39.959q8 2.92383 15 3.89844h3q29 0 41 -26.3145q3 -7.79688 4 -14.6191q9 -121.826 44 -179.328q30 -47.7559 80 -50.6797q30 4.87305 36 14.6191q9 13.6445 9 47.7559q0 35.0859 -6 70.1719q-1 1.94922 -1 4.87305q-2 3.89844 -2 4.87305 q-17 48.7305 -49 76.0195q-15 14.6191 -16 34.1113q1 14.6191 11 28.2637q15 14.6191 34 15.5938q15 -0.974609 29 -10.7207q56 -46.7812 76 -116.953l3 -5.84766l3 -11.6953q9 -51.6543 9 -88.6895q-1 -63.3496 -27 -99.4102q-31 -39.959 -99 -50.6797h-7zM347 250.475z " glyph-name="Ugrave" horiz-adv-x="369" unicode="Ù"/>
<glyph d="M135.938 350.958q-11.8027 0.868164 -20.8828 5.20898q-19.0674 13.0215 -19.9746 34.7246q0.907227 10.417 5.44727 19.0977q35.4102 55.5586 79.9004 84.2061q1.81641 1.73633 3.63184 2.60449q11.8037 6.94434 23.6074 6.94434q20.8828 -0.867188 33.5938 -17.3613 q6.35645 -8.68164 6.35645 -20.835q-0.908203 -20.834 -18.1592 -32.9873q-34.5029 -24.3076 -58.1094 -62.5039q-13.6201 -18.2305 -35.4111 -19.0986zM227 0h-2q-52 1.96973 -92 26.5879q-39 23.6338 -66 67.9473q-45 74.8398 -57 220.582v2.9541q0 28.5576 27 40.374 q8 2.95508 15 3.93945h3q29 0 41 -26.5879q3 -7.87793 4 -14.7715q9 -123.093 44 -181.192q30 -48.252 80 -51.2061q30 4.92383 36 14.7705q9 13.7871 9 48.2529q0 35.4502 -6 70.9014q-1 1.96875 -1 4.92383q-2 3.93848 -2 4.92285q-17 49.2373 -49 76.8105 q-15 14.7705 -16 34.4658q1 14.7705 11 28.5576q15 14.7705 34 15.7559q15 -0.985352 29 -10.832q56 -47.2676 76 -118.169l3 -5.90918l3 -11.8164q9 -52.1914 9 -89.6113q-1 -64.0088 -27 -100.444q-31 -40.374 -99 -51.2061h-7zM347 253.078z" glyph-name="Uacute" horiz-adv-x="369" unicode="Ú"/>
<glyph d="M52.6875 320.68q-13.4121 0.759766 -22.9912 5.31738q-19.1592 9.875 -20.1172 28.8662q0.958008 10.6357 6.70605 18.2314q55.5605 68.3682 111.122 114.706q13.4111 9.87598 30.6543 9.87598q15.3271 -0.759766 26.8223 -6.83691q98.6689 -60.0117 126.449 -92.6768 q7.66309 -9.875 7.66309 -18.9912q-0.958008 -17.4717 -20.1162 -28.8662q-11.4961 -5.31738 -22.9912 -5.31738q-22.9902 0.759766 -36.4023 15.1924q-11.4951 15.1934 -73.7617 56.2139q-0.958008 1.51953 -1.91602 1.51953q-36.4014 -34.1836 -74.7197 -81.2822 q-12.4531 -15.1924 -36.4014 -15.9521zM227 -6h-2q-52 1.89844 -92 25.6289q-39 22.7812 -66 65.4961q-45 72.1406 -57 212.625v2.84766q0 27.5273 27 38.918q8 2.84766 15 3.79688h3q29 0 41 -25.6289q3 -7.59375 4 -14.2383q9 -118.652 44 -174.656 q30 -46.5117 80 -49.3594q30 4.74609 36 14.2383q9 13.2891 9 46.5117q0 34.1719 -6 68.3438q-1 1.89844 -1 4.74609q-2 3.79688 -2 4.74609q-17 47.4609 -49 74.0391q-15 14.2383 -16 33.2227q1 14.2383 11 27.5273q15 14.2383 34 15.1875q15 -0.949219 29 -10.4414 q56 -45.5625 76 -113.906l3 -5.69531l3 -11.3906q9 -50.3086 9 -86.3789q-1 -61.6992 -27 -96.8203q-31 -38.918 -99 -49.3594h-7zM347 237.949z" glyph-name="Ucircumflex" horiz-adv-x="369" unicode="Û"/>
<glyph d="M79 380q-12 1 -22 6l-27 16q-21 15 -22 39q1 13 6 23q15 21 38 22q11 0 24 -7l26 -15q22 -15 23 -39q-1 -11 -7 -23q-13 -21 -39 -22zM233 389q-19 1 -32 13l-16 16q-13 14 -13 32q1 19 13 32q15 13 32 13q18 -1 32 -13l16 -16q13 -14 13 -32q-1 -19 -13 -32 q-14 -13 -32 -13zM227 0h-2q-52 1.96484 -92 26.5186q-39 23.5723 -66 67.7705q-45 74.6455 -57 220.008v2.94629q0 28.4834 27 40.2695q8 2.94629 15 3.92871h3q29 0 41 -26.5186q3 -7.85742 4 -14.7324q9 -122.772 44 -180.721q30 -48.127 80 -51.0732 q30 4.91016 36 14.7324q9 13.75 9 48.127q0 35.3584 -6 70.7168q-1 1.96387 -1 4.91016q-2 3.92871 -2 4.91113q-17 49.1094 -49 76.6104q-15 14.7324 -16 34.376q1 14.7324 11 28.4834q15 14.7324 34 15.7148q15 -0.982422 29 -10.8047q56 -47.1445 76 -117.861l3 -5.89258 l3 -11.7861q9 -52.0557 9 -89.3779q-1 -63.8418 -27 -100.183q-31 -40.2695 -99 -51.0732h-7zM347 252.42z" glyph-name="Udieresis" horiz-adv-x="369" unicode="Ü"/>
<glyph d="M164 372.898q-13 0.996094 -23 5.97754q-21 14.9434 -22 39.8506q1 11.9551 6 21.918q39 63.7617 88 96.6396q2 1.99219 4 2.98828q13 7.9707 26 7.9707q23 -0.99707 37 -19.9258q7 -9.96289 7 -23.9111q-1 -23.9102 -20 -37.8584q-38 -27.8955 -64 -71.7314 q-15 -20.9219 -39 -21.918zM324 257.703q-26 -39.1943 -80 -55.8525q5 -39.1943 5 -97.9854q0 -47.0332 -2 -72.5098q-1 -29.3955 -30 -38.2148q-8 -2.93945 -15 -2.93945h-3q-27 0.980469 -38 27.4365q-4 8.81836 -4 17.6367v1.95996q2 24.4971 2 66.6309 q0 53.8916 -5 88.1865q-63 6.85938 -98 40.1748q-26 26.4561 -37 65.6504q-9 33.3154 -9 75.4492v12.7383q1 27.4355 28 39.1943q9 2.93945 17 2.93945h2q28 -0.980469 40 -26.4561q3 -8.81934 3 -16.6582v-1.95996v-9.79785q1 -59.7715 20 -78.3887 q17 -15.6777 60 -15.6777h8q48 8.81836 59 24.4961q4 5.87891 4 18.6172q0 17.6377 -9 45.0732q-2 5.87988 -2 13.7188q0 29.3955 27 41.1533q3 0.980469 4 0.980469q6 1.95996 14 1.95996q30 0 41 -27.4365q1 -1.95996 1 -2.93945q14 -43.1143 14 -73.4893 q-1 -36.2549 -17 -63.6904z" glyph-name="Yacute" horiz-adv-x="350" unicode="Ý"/>
<glyph d="M321 300q47 -43 48 -110q-1 -64 -40 -115q-45 -56 -113 -57q-31 0 -51 5q2 -14 4 -39v-3q0 -29 -27 -41q-8 -3 -15 -4h-3q-29 0 -41 27q-3 8 -4 15q-12 157 -67 362q-2 9 -2 13q0 28 26 40q4 1 7 2q9 2 13 2q28 0 40 -26q1 -4 2 -7q4 -15 16 -62q48 32 98 32 q66 -1 109 -34zM216 108q35 0 54 43q9 19 9 39q0 48 -53 53q-7 1 -14 1q-38 0 -75 -42q11 -55 14 -73l5 -5q20 -16 60 -16z" glyph-name="Thorn" horiz-adv-x="378" unicode="Þ"/>
<glyph d="M186 -64q-30 0 -42 28q-3 9 -3 17q0 30 28 42q8 3 17 3q27 0 47 10l-6 3q-10 4 -31 10q-22 6 -38 13q-38 19 -38 55q1 25 21 38q45 31 46 44q0 40 -25 47q-11 3 -27 3q-13 -1 -18 -7q-17 -21 -17 -88q0 -52 11 -124q0 -1 0.5 -3.5t0.5 -3.5q0 -29 -28 -41q-5 -2 -10 -3 q-1 0 -3.5 -0.5t-3.5 -0.5q-30 0 -42 29q-2 5 -3 10q-12 79 -12 138q1 99 39 146q33 38 86 38q73 -1 111 -44q31 -36 31 -96q-1 -40 -29 -72q17 -6 34 -15q45 -30 46 -80q-1 -47 -53 -75q-40 -21 -89 -21z" glyph-name="germandbls" horiz-adv-x="337" unicode="ß"/>
<glyph d="M167 290q-18 1 -29 11q-70 60 -87 61q-28 7 -34 35q-1 6 -1 10q0 6 1 9q5 27 33 34q6 1 11 1q7 0 10 -1q41 -9 126 -81q15 -15 16 -34q-1 -17 -12 -30q-13 -15 -34 -15zM135 -10q-65 1 -98 38q-27 30 -27 72q0 13 3 29q15 74 79 112l4 2q32 17 69 18q40 0 79 -16 q26 -13 28 -41q0 -10 -4 -18q-3 -6 -8 -13q1 0 3 1h3q27 -1 40 -23q25 -44 69 -58q7 -2 13 -3q29 -5 37 -34q1 -6 1 -11q0 -1 -0.5 -3.5t-0.5 -3.5q-5 -30 -34 -37q-5 -1 -10 -1h-4q-3 1 -4 1q-55 9 -100 50q-10 -12 -16 -18q-36 -30 -96 -41h-3q-16 -2 -23 -2zM169 171 q-16 0 -31 -8q-29 -17 -37 -52q-2 -16 2 -22q8 -9 32 -9h6q4 1 6 1q43 7 59 30q5 8 14 26q4 6 7 13l6 9q-12 -3 -24 3q-21 9 -40 9z" glyph-name="agrave" horiz-adv-x="435" unicode="à"/>
<glyph d="M151 276q-13 1 -23 6q-21 15 -22 40q1 12 6 22q39 64 88 97q2 2 4 3q13 8 26 8q23 -1 37 -20q7 -10 7 -24q-1 -24 -20 -38q-38 -28 -64 -72q-15 -21 -39 -22zM135 -10q-65 1 -98 38q-27 30 -27 72q0 13 3 29q15 74 79 112l4 2q32 17 69 18q40 0 79 -16q26 -13 28 -41 q0 -10 -4 -18q-3 -6 -8 -13q1 0 3 1h3q27 -1 40 -23q25 -44 69 -58q7 -2 13 -3q29 -5 37 -34q1 -6 1 -11q0 -1 -0.5 -3.5t-0.5 -3.5q-5 -30 -34 -37q-5 -1 -10 -1h-4q-3 1 -4 1q-55 9 -100 50q-10 -12 -16 -18q-36 -30 -96 -41h-3q-16 -2 -23 -2zM169 171q-16 0 -31 -8 q-29 -17 -37 -52q-2 -16 2 -22q8 -9 32 -9h6q4 1 6 1q43 7 59 30q5 8 14 26q4 6 7 13l6 9q-12 -3 -24 3q-21 9 -40 9z" glyph-name="aacute" horiz-adv-x="435" unicode="á"/>
<glyph d="M56 246q-14 1 -24 7q-20 13 -21 38q1 14 7 24q58 90 116 151q14 13 32 13q16 -1 28 -9q103 -79 132 -122q8 -13 8 -25q-1 -23 -21 -38q-12 -7 -24 -7q-24 1 -38 20q-12 20 -77 74q-1 2 -2 2q-38 -45 -78 -107q-13 -20 -38 -21zM135 -10q-65 1 -98 38q-27 30 -27 72 q0 13 3 29q15 74 79 112l4 2q32 17 69 18q40 0 79 -16q26 -13 28 -41q0 -10 -4 -18q-3 -6 -8 -13q1 0 3 1h3q27 -1 40 -23q25 -44 69 -58q7 -2 13 -3q29 -5 37 -34q1 -6 1 -11q0 -1 -0.5 -3.5t-0.5 -3.5q-5 -30 -34 -37q-5 -1 -10 -1h-4q-3 1 -4 1q-55 9 -100 50 q-10 -12 -16 -18q-36 -30 -96 -41h-3q-16 -2 -23 -2zM169 171q-16 0 -31 -8q-29 -17 -37 -52q-2 -16 2 -22q8 -9 32 -9h6q4 1 6 1q43 7 59 30q5 8 14 26q4 6 7 13l6 9q-12 -3 -24 3q-21 9 -40 9z" glyph-name="acircumflex" horiz-adv-x="435" unicode="â"/>
<glyph d="M84 272q-21 1 -33 14q-12 14 -12 30q1 19 14 33l3 3q37 33 65 38q9 1 17 1q25 0 53 -11l2 -1q16 -7 26 -7q14 1 28 13t30 12q21 -1 34 -15q12 -14 12 -30q-1 -21 -15 -34q-37 -31 -75 -36h-12q-33 1 -65 15q-12 5 -20 5q-3 -2 -18 -15l-3 -3q-14 -12 -31 -12zM135 -10 q-65 1 -98 38q-27 30 -27 72q0 13 3 29q15 74 79 112l4 2q32 17 69 18q40 0 79 -16q26 -13 28 -41q0 -10 -4 -18q-3 -6 -8 -13q1 0 3 1h3q27 -1 40 -23q25 -44 69 -58q7 -2 13 -3q29 -5 37 -34q1 -6 1 -11q0 -1 -0.5 -3.5t-0.5 -3.5q-5 -30 -34 -37q-5 -1 -10 -1h-4 q-3 1 -4 1q-55 9 -100 50q-10 -12 -16 -18q-36 -30 -96 -41h-3q-16 -2 -23 -2zM169 171q-16 0 -31 -8q-29 -17 -37 -52q-2 -16 2 -22q8 -9 32 -9h6q4 1 6 1q43 7 59 30q5 8 14 26q4 6 7 13l6 9q-12 -3 -24 3q-21 9 -40 9z" glyph-name="atilde" horiz-adv-x="435" unicode="ã"/>
<glyph d="M93 284q-12 1 -22 6l-27 16q-21 15 -22 39q1 13 6 23q15 21 38 22q11 0 24 -7l26 -15q22 -15 23 -39q-1 -11 -7 -23q-13 -21 -39 -22zM247 293q-19 1 -32 13l-16 16q-13 14 -13 32q1 19 13 32q15 13 32 13q18 -1 32 -13l16 -16q13 -14 13 -32q-1 -19 -13 -32 q-14 -13 -32 -13zM135 -10q-65 1 -98 38q-27 30 -27 72q0 13 3 29q15 74 79 112l4 2q32 17 69 18q40 0 79 -16q26 -13 28 -41q0 -10 -4 -18q-3 -6 -8 -13q1 0 3 1h3q27 -1 40 -23q25 -44 69 -58q7 -2 13 -3q29 -5 37 -34q1 -6 1 -11q0 -1 -0.5 -3.5t-0.5 -3.5 q-5 -30 -34 -37q-5 -1 -10 -1h-4q-3 1 -4 1q-55 9 -100 50q-10 -12 -16 -18q-36 -30 -96 -41h-3q-16 -2 -23 -2zM169 171q-16 0 -31 -8q-29 -17 -37 -52q-2 -16 2 -22q8 -9 32 -9h6q4 1 6 1q43 7 59 30q5 8 14 26q4 6 7 13l6 9q-12 -3 -24 3q-21 9 -40 9z" glyph-name="adieresis" horiz-adv-x="435" unicode="ä"/>
<glyph d="M204 405q-45 -14 -72 -38l-5.5 -5.5t-4 -4.5t-3.5 -4t-3 -4t-2 -3.5t-1.5 -2.5l-1 -2t-0.5 -2v-1q0 -10 2 -13l18 -5q10 -1 20 -1h6q53 6 60 47q2 10 2 21q-1 10 -15 18zM169 171q-16 0 -31 -8q-29 -17 -37 -52q-2 -16 2 -22q8 -9 32 -9h6q4 1 6 1q43 7 59 30q5 8 14 26 q4 6 7 13l6 9q-12 -3 -24 3q-21 9 -40 9zM135 -10q-65 1 -98 38q-27 30 -27 72q0 13 3 29q16 74 80 113q-25 8 -41 22q-28 29 -28 74q0 56 65 105q8 6 16 11v4q0 26 26 38q9 4 18 4q65 0 106 -26q50 -33 51 -87q-1 -59 -31 -99q-18 -23 -47 -37q2 -1 8 -3t8 -3 q26 -13 28 -41q0 -10 -4 -18q-3 -6 -8 -13q1 0 3 1h3q27 -1 40 -23q25 -44 69 -58q7 -2 13 -3q29 -5 37 -34q1 -6 1 -11q0 -1 -0.5 -3.5t-0.5 -3.5q-5 -30 -34 -37q-5 -1 -10 -1h-4q-3 1 -4 1q-55 9 -100 50q-10 -12 -16 -18q-36 -30 -96 -41h-3q-16 -2 -23 -2z" glyph-name="aring" horiz-adv-x="435" unicode="å"/>
<glyph d="M383 -44q-27 0 -52 9q-46 16 -72 52q-1 -2 -3 -5l-3 -6q-33 -45 -88 -46q-44 1 -71 15q-50 26 -51 81q1 43 38 72q27 19 66 30h2v1q-48 22 -94 22q-30 0 -42 28q-3 9 -3 17q0 30 28 42q8 3 17 3q77 0 145 -37q27 -15 42 -29q13 34 32 53q1 1 3 2l3 3q45 32 84 32h4 q46 -3 79 -39q3 -3 4 -5q12 -20 12 -43q0 -18 -8 -38q-28 -59 -99 -72q-3 -1 -32 -5q1 -5 3 -14q8 -21 33 -29q13 -4 24 -4q29 1 57 21q11 8 26 8q23 -1 37 -18q9 -13 9 -27q-1 -23 -19 -36q-52 -38 -111 -38zM134 55q13 -5 31 -5q9 1 14 8q5 8 8 17q-42 -10 -53 -20z M336 192q-2 -3 -5 -7q2 0 5 1h3t1 0.5v0.5h1q19 3 30 16q-3 2 -5 2q-13 -1 -30 -13z" glyph-name="ae" horiz-adv-x="522" unicode="æ"/>
<glyph d="M265 -297q-19 0 -56 4q-30 4 -38 30q-2 7 -2 12q0 4 1 6q2 27 31 36q7 2 14 2q4 0 6 -1q25 -3 45 -3q30 0 41 9q11 10 11 39q-1 15 -17 26q-18 12 -47 12q-20 0 -39 -7q-12 -2 -17 -2q-15 0 -27 9q-17 14 -18 33v4q2 22 2 27q-1 30 -21 70l-2 4q-51 15 -85 49 q-37 39 -37 81v3q1 53 55 97q31 23 64 35q28 8 51 8q14 0 27 -3q29 -7 34 -36q1 -4 1 -8q0 -7 -1 -10q-5 -27 -33 -34q-6 -1 -11 -1q-7 0 -10 1q-4 1 -9 1q-26 -1 -53 -21q-23 -17 -25 -30v-1q1 -8 11 -18q28 -27 60 -28q49 3 69 26q15 16 35 17q17 -1 28 -10q16 -15 17 -35 q-1 -15 -10 -28q-25 -29 -58 -43q-14 -6 -22 -8q11 -26 15 -55h10q55 -1 98 -28q56 -39 57 -97q-1 -69 -42 -103q-37 -31 -103 -31z" glyph-name="ccedilla" horiz-adv-x="329" unicode="ç"/>
<glyph d="M200 328q-18 1 -29 11q-70 60 -87 61q-28 7 -34 35q-1 6 -1 10q0 6 1 9q5 27 33 34q6 1 11 1q7 0 10 -1q41 -9 126 -81q15 -15 16 -34q-1 -17 -12 -30q-13 -15 -34 -15zM181 -26q-70 1 -120 45q-50 47 -51 111q1 58 41 107q47 54 127 68q1 0 2 1h3h11q42 0 65 -11 q40 -18 50 -56q0 -2 1 -6v-6q-3 -42 -18 -65q-27 -38 -81 -39h-3l-100 1h-8q4 -36 45 -53q18 -7 36 -7q74 0 110 21q11 6 22 6q26 -1 39 -23q6 -11 6 -23q-1 -25 -23 -39q-59 -32 -154 -32zM177 213h32q7 0 9 1q-13 2 -28 2q-2 0 -6 -2q-5 -1 -7 -1z" glyph-name="egrave" horiz-adv-x="368" unicode="è"/>
<glyph d="M159 316q-13 1 -23 6q-21 15 -22 40q1 12 6 22q39 64 88 97q2 2 4 3q13 8 26 8q23 -1 37 -20q7 -10 7 -24q-1 -24 -20 -38q-38 -28 -64 -72q-15 -21 -39 -22zM181 -26q-70 1 -120 45q-50 47 -51 111q1 58 41 107q47 54 127 68q1 0 2 1h3h11q42 0 65 -11q40 -18 50 -56 q0 -2 1 -6v-6q-3 -42 -18 -65q-27 -38 -81 -39h-3l-100 1h-8q4 -36 45 -53q18 -7 36 -7q74 0 110 21q11 6 22 6q26 -1 39 -23q6 -11 6 -23q-1 -25 -23 -39q-59 -32 -154 -32zM177 213h32q7 0 9 1q-13 2 -28 2q-2 0 -6 -2q-5 -1 -7 -1z" glyph-name="eacute" horiz-adv-x="368" unicode="é"/>
<glyph d="M63 276.323q-14 0.953125 -24 6.66992q-20 12.3857 -21 36.2041q1 13.3389 7 22.8662q58 85.749 116 143.867q14 12.3857 32 12.3857q16 -0.953125 28 -8.5752q103 -75.2676 132 -116.236q8 -12.3857 8 -23.8193q-1 -21.9131 -21 -36.2041q-12 -6.66992 -24 -6.66992 q-24 0.953125 -38 19.0557q-12 19.0547 -77 70.5039q-1 1.90527 -2 1.90527q-38 -42.874 -78 -101.945q-13 -19.0547 -38 -20.0078zM181 -26q-70 1 -120 45q-50 47 -51 111q1 58 41 107q47 54 127 68q1 0 2 1h3h11q42 0 65 -11q40 -18 50 -56q0 -2 1 -6v-6q-3 -42 -18 -65 q-27 -38 -81 -39h-3l-100 1h-8q4 -36 45 -53q18 -7 36 -7q74 0 110 21q11 6 22 6q26 -1 39 -23q6 -11 6 -23q-1 -25 -23 -39q-59 -32 -154 -32zM177 213h32q7 0 9 1q-13 2 -28 2q-2 0 -6 -2q-5 -1 -7 -1z" glyph-name="ecircumflex" horiz-adv-x="368" unicode="ê"/>
<glyph d="M111 332q-12 1 -22 6l-27 16q-21 15 -22 39q1 13 6 23q15 21 38 22q11 0 24 -7l26 -15q22 -15 23 -39q-1 -11 -7 -23q-13 -21 -39 -22zM265 341q-19 1 -32 13l-16 16q-13 14 -13 32q1 19 13 32q15 13 32 13q18 -1 32 -13l16 -16q13 -14 13 -32q-1 -19 -13 -32 q-14 -13 -32 -13zM181 -26q-70 1 -120 45q-50 47 -51 111q1 58 41 107q47 54 127 68q1 0 2 1h3h11q42 0 65 -11q40 -18 50 -56q0 -2 1 -6v-6q-3 -42 -18 -65q-27 -38 -81 -39h-3l-100 1h-8q4 -36 45 -53q18 -7 36 -7q74 0 110 21q11 6 22 6q26 -1 39 -23q6 -11 6 -23 q-1 -25 -23 -39q-59 -32 -154 -32zM177 213h32q7 0 9 1q-13 2 -28 2q-2 0 -6 -2q-5 -1 -7 -1z" glyph-name="edieresis" horiz-adv-x="368" unicode="ë"/>
<glyph d="M147 306q-18 1 -29 11q-70 60 -87 61q-28 7 -34 35q-1 6 -1 10q0 6 1 9q5 27 33 34q6 1 11 1q7 0 10 -1q41 -9 126 -81q15 -15 16 -34q-1 -17 -12 -30q-13 -15 -34 -15zM170 15q-32 2 -51 31q-9 14 -17 42q-11 38 -27 135q0 1 -0.5 3.5t-0.5 3.5q0 29 28 41q5 2 10 3 q1 0 3.5 0.5t3.5 0.5q30 0 42 -28q2 -5 3 -10q11 -70 19 -103q3 -16 6 -25q12 6 41 32q14 12 31 12q20 -1 33 -15q12 -13 12 -29q-1 -21 -15 -34q-51 -46 -84 -55q-17 -5 -37 -5z" glyph-name="igrave" horiz-adv-x="315" unicode="ì"/>
<glyph d="M118 304q-13 1 -23 6q-21 15 -22 40q1 12 6 22q39 64 88 97q2 2 4 3q13 8 26 8q23 -1 37 -20q7 -10 7 -24q-1 -24 -20 -38q-38 -28 -64 -72q-15 -21 -39 -22zM170 15q-32 2 -51 31q-9 14 -17 42q-11 38 -27 135q0 1 -0.5 3.5t-0.5 3.5q0 29 28 41q5 2 10 3q1 0 3.5 0.5 t3.5 0.5q30 0 42 -28q2 -5 3 -10q11 -70 19 -103q3 -16 6 -25q12 6 41 32q14 12 31 12q20 -1 33 -15q12 -13 12 -29q-1 -21 -15 -34q-51 -46 -84 -55q-17 -5 -37 -5z" glyph-name="iacute" horiz-adv-x="315" unicode="í"/>
<glyph d="M-3.55273 272.288q-12.5859 0.885742 -21.5771 6.20312q-17.9805 11.5215 -18.8799 33.6768q0.899414 12.4072 6.29395 21.2695q52.1445 79.7607 104.289 133.821q12.5869 11.5205 28.7695 11.5205q14.3848 -0.885742 25.1738 -7.97559q92.6016 -70.0127 118.674 -108.12 q7.19238 -11.5215 7.19238 -22.1562q-0.898438 -20.3828 -18.8799 -33.6768q-10.7881 -6.20312 -21.5771 -6.20312q-21.5771 0.885742 -34.1641 17.7246q-10.7881 17.7246 -69.2266 65.5811q-0.898438 1.77246 -1.79785 1.77246q-34.1641 -39.8809 -70.126 -94.8271 q-11.6875 -17.7246 -34.1641 -18.6104zM170 15q-32 2 -51 31q-9 14 -17 42q-11 38 -27 135q0 1 -0.5 3.5t-0.5 3.5q0 29 28 41q5 2 10 3q1 0 3.5 0.5t3.5 0.5q30 0 42 -28q2 -5 3 -10q11 -70 19 -103q3 -16 6 -25q12 6 41 32q14 12 31 12q20 -1 33 -15q12 -13 12 -29 q-1 -21 -15 -34q-51 -46 -84 -55q-17 -5 -37 -5z" glyph-name="icircumflex" horiz-adv-x="315" unicode="î"/>
<glyph d="M54 309q-12 1 -22 6l-27 16q-21 15 -22 39q1 13 6 23q15 21 38 22q11 0 24 -7l26 -15q22 -15 23 -39q-1 -11 -7 -23q-13 -21 -39 -22zM208 318q-19 1 -32 13l-16 16q-13 14 -13 32q1 19 13 32q15 13 32 13q18 -1 32 -13l16 -16q13 -14 13 -32q-1 -19 -13 -32 q-14 -13 -32 -13zM170 15q-32 2 -51 31q-9 14 -17 42q-11 38 -27 135q0 1 -0.5 3.5t-0.5 3.5q0 29 28 41q5 2 10 3q1 0 3.5 0.5t3.5 0.5q30 0 42 -28q2 -5 3 -10q11 -70 19 -103q3 -16 6 -25q12 6 41 32q14 12 31 12q20 -1 33 -15q12 -13 12 -29q-1 -21 -15 -34 q-51 -46 -84 -55q-17 -5 -37 -5z" glyph-name="idieresis" horiz-adv-x="315" unicode="ï"/>
<glyph d="M293 324q66 -61 66 -185q-1 -79 -62 -132q-54 -45 -115 -45q-54 1 -88 42q-30 37 -30 83q1 48 39 85q11 11 24 19q-1 1 -3 2q-24 13 -25 39q0 9 3 16q-10 -8 -16 -13q-12 -13 -32 -13q-18 1 -31 13q-13 14 -13 31q1 19 14 33q56 56 134 63q14 1 28 1h3q31 26 74 47 q9 4 19 4q28 -1 41 -26q4 -9 4 -19q-1 -28 -25 -41q-6 -2 -9 -4zM182 52q36 0 65 31q7 9 12 17l-1 1q-8 19 -57 21h-2q-30 0 -43 -27q-2 -5 -2 -8q0 -24 17 -33q6 -2 11 -2zM201 212q34 0 61 -9q-14 48 -44 63q-18 -23 -34 -53l-1 -2q7 1 17 1h1z" glyph-name="eth" horiz-adv-x="369" unicode="ð"/>
<glyph d="M59 298q-21 1 -33 14q-12 14 -12 30q1 19 14 33l3 3q37 33 65 38q9 1 17 1q25 0 53 -11l2 -1q16 -7 26 -7q14 1 28 13t30 12q21 -1 34 -15q12 -14 12 -30q-1 -21 -15 -34q-37 -31 -75 -36h-12q-33 1 -65 15q-12 5 -20 5q-3 -2 -18 -15l-3 -3q-14 -12 -31 -12zM114 -25 q-30 0 -42 29q-1 4 -2 7q-14 64 -25 102q-2 8 -4.5 14.5t-4.5 11.5t-4 8.5t-3 6t-2.5 4l-2.5 2.5v1q-14 15 -14 32q1 20 13 31q15 14 33 14q17 -1 30 -12q17 -18 32 -50q4 8 7 12q19 30 48 56q33 25 65 29q3 1 7 1q35 -1 59 -35q15 -21 27 -54q21 -62 30 -140v-6 q0 -30 -27 -41q-6 -2 -12 -3q-3 -1 -5 -1q-30 0 -42 28q-2 7 -3 12q-9 62 -21 104q-8 25 -15 40q-17 -11 -35 -38q-33 -52 -42 -126q-4 -28 -31 -37q-6 -2 -12 -2h-2z" glyph-name="ntilde" horiz-adv-x="371" unicode="ñ"/>
<glyph d="M183 322q-18 1 -29 11q-70 60 -87 61q-28 7 -34 35q-1 6 -1 10q0 6 1 9q5 27 33 34q6 1 11 1q7 0 10 -1q41 -9 126 -81q15 -15 16 -34q-1 -17 -12 -30q-13 -15 -34 -15zM179 -19q-63 1 -111 39q-57 46 -58 114q1 60 57 109q53 43 112 43q18 -1 31 -13l2 1h4q50 -1 94 -48 q44 -49 44 -101q-1 -61 -60 -105q-54 -39 -115 -39zM138 183q-8 -5 -13 -10q-24 -19 -25 -39q0 -37 44 -56q18 -7 35 -7q34 1 62 22q22 17 23 32q-1 18 -19 38q-13 15 -26 20q-4 -4 -6 -7q-15 -16 -35 -17q-17 1 -28 10q-7 6 -12 14zM216 184z" glyph-name="ograve" horiz-adv-x="363" unicode="ò"/>
<glyph d="M147 310q-13 1 -23 6q-21 15 -22 40q1 12 6 22q39 64 88 97q2 2 4 3q13 8 26 8q23 -1 37 -20q7 -10 7 -24q-1 -24 -20 -38q-38 -28 -64 -72q-15 -21 -39 -22zM179 -19q-63 1 -111 39q-57 46 -58 114q1 60 57 109q53 43 112 43q18 -1 31 -13l2 1h4q50 -1 94 -48 q44 -49 44 -101q-1 -61 -60 -105q-54 -39 -115 -39zM138 183q-8 -5 -13 -10q-24 -19 -25 -39q0 -37 44 -56q18 -7 35 -7q34 1 62 22q22 17 23 32q-1 18 -19 38q-13 15 -26 20q-4 -4 -6 -7q-15 -16 -35 -17q-17 1 -28 10q-7 6 -12 14zM216 184z" glyph-name="oacute" horiz-adv-x="363" unicode="ó"/>
<glyph d="M64 268.234q-14 0.964844 -24 6.75879q-20 12.5537 -21 36.6943q1 13.5195 7 23.1758q58 86.9072 116 145.811q14 12.5537 32 12.5537q16 -0.96582 28 -8.69043q103 -76.2861 132 -117.809q8 -12.5527 8 -24.1406q-1 -22.21 -21 -36.6943q-12 -6.75879 -24 -6.75879 q-24 0.964844 -38 19.3125q-12 19.3125 -77 71.457q-1 1.93164 -2 1.93164q-38 -43.4541 -78 -103.323q-13 -19.3135 -38 -20.2783zM179 -19q-63 1 -111 39q-57 46 -58 114q1 60 57 109q53 43 112 43q18 -1 31 -13l2 1h4q50 -1 94 -48q44 -49 44 -101q-1 -61 -60 -105 q-54 -39 -115 -39zM138 183q-8 -5 -13 -10q-24 -19 -25 -39q0 -37 44 -56q18 -7 35 -7q34 1 62 22q22 17 23 32q-1 18 -19 38q-13 15 -26 20q-4 -4 -6 -7q-15 -16 -35 -17q-17 1 -28 10q-7 6 -12 14zM216 184z" glyph-name="ocircumflex" horiz-adv-x="363" unicode="ô"/>
<glyph d="M82 302q-21 1 -33 14q-12 14 -12 30q1 19 14 33l3 3q37 33 65 38q9 1 17 1q25 0 53 -11l2 -1q16 -7 26 -7q14 1 28 13t30 12q21 -1 34 -15q12 -14 12 -30q-1 -21 -15 -34q-37 -31 -75 -36h-12q-33 1 -65 15q-12 5 -20 5q-3 -2 -18 -15l-3 -3q-14 -12 -31 -12zM179 -19 q-63 1 -111 39q-57 46 -58 114q1 60 57 109q53 43 112 43q18 -1 31 -13l2 1h4q50 -1 94 -48q44 -49 44 -101q-1 -61 -60 -105q-54 -39 -115 -39zM138 183q-8 -5 -13 -10q-24 -19 -25 -39q0 -37 44 -56q18 -7 35 -7q34 1 62 22q22 17 23 32q-1 18 -19 38q-13 15 -26 20 q-4 -4 -6 -7q-15 -16 -35 -17q-17 1 -28 10q-7 6 -12 14zM216 184z" glyph-name="otilde" horiz-adv-x="363" unicode="õ"/>
<glyph d="M105 310q-12 1 -22 6l-27 16q-21 15 -22 39q1 13 6 23q15 21 38 22q11 0 24 -7l26 -15q22 -15 23 -39q-1 -11 -7 -23q-13 -21 -39 -22zM259 319q-19 1 -32 13l-16 16q-13 14 -13 32q1 19 13 32q15 13 32 13q18 -1 32 -13l16 -16q13 -14 13 -32q-1 -19 -13 -32 q-14 -13 -32 -13zM179 -19q-63 1 -111 39q-57 46 -58 114q1 60 57 109q53 43 112 43q18 -1 31 -13l2 1h4q50 -1 94 -48q44 -49 44 -101q-1 -61 -60 -105q-54 -39 -115 -39zM138 183q-8 -5 -13 -10q-24 -19 -25 -39q0 -37 44 -56q18 -7 35 -7q34 1 62 22q22 17 23 32 q-1 18 -19 38q-13 15 -26 20q-4 -4 -6 -7q-15 -16 -35 -17q-17 1 -28 10q-7 6 -12 14zM216 184z" glyph-name="odieresis" horiz-adv-x="363" unicode="ö"/>
<glyph d="M55 144q-29 0 -41 28q-1 3 -2 5q-2 9 -2 13q0 29 27 41q3 1 5 2q87 25 160 33q32 3 61 3q49 0 91 -7q29 -5 37 -34q1 -6 1 -11q0 -1 -0.5 -3.5t-0.5 -3.5q-5 -28 -33 -36q-6 -1 -11 -1h-8q-46 7 -77 7q-80 0 -194 -34q-10 -2 -13 -2zM215 317q-16 1 -28 9l-13 13 q-24 9 -29 34q-1 4 -1 9q0 29 27 41q5 2 10 3q4 1 10 1q18 0 32 -10q10 -6 17 -17l3 -3q16 -15 17 -35q-1 -17 -10 -28q-15 -16 -35 -17zM243 397zM215 54q-22 1 -34 16q-13 15 -17 33q-8 10 -8 26q1 17 8 27q14 17 37 18q16 -1 26 -8q23 -17 26 -43q7 -10 7 -24 q-1 -21 -16 -35q-13 -10 -29 -10zM174 93z" glyph-name="divide" horiz-adv-x="401" unicode="÷"/>
<glyph d="M356 174q7 -27 7 -54q-1 -47 -23 -83q-42 -57 -128 -68q-12 -2 -18 -2q-3 -7 -8 -21q-4 -8 -5 -11l-9 -24q-12 -27 -42 -28q-9 0 -16 3q-28 12 -29 42q0 9 3 17l9 23q2 4 4 9q-8 4 -12 5q-32 16 -50 40q-21 26 -27 62q-2 14 -2 22q1 46 27 83q38 50 106 67q12 2 25 -1 q20 5 36 5q8 24 13 53q5 28 33 36q5 1 11 1t9 -1q29 -5 36 -34q1 -6 1 -11q0 -1 -0.5 -3.5t-0.5 -3.5q-2 -12 -13 -53q45 -23 62 -65q0 -1 1 -3v-2zM101 99q6 -25 26 -35q1 0 3.5 -1.5t3.5 -1.5q28 73 38 101q-26 -11 -39 -31q-13 -17 -33 -21q0 -7 1 -11zM265 88q9 14 9 32 q0 13 -4 28q-2 4 -5 7q-15 -42 -33 -90q24 9 33 23z" glyph-name="oslash" horiz-adv-x="373" unicode="ø"/>
<glyph d="M121.556 262q-17.3906 1 -28.0186 11q-67.6338 60 -84.0586 61q-27.0537 7 -32.8506 35q-0.96582 6 -0.96582 10q0 6 0.96582 9q4.83105 27 31.8848 34q5.79688 1 10.6279 1q6.7627 0 9.66113 -1q39.6143 -9 121.74 -81q14.4922 -15 15.459 -34 q-0.966797 -17 -11.5947 -30q-12.5605 -15 -32.8506 -15zM158 -24q-36 1 -67 25q-25 19 -43 52q-30 58 -38 135v4q0 30 28 42q7 2 13 3h5q29 0 41 -28q2 -6 3 -12q9 -87 42 -122q9 -8 16 -9q21 0 27 50q1 10 1 19q-2 28 -18 49q-16 15 -17 35q1 13 10 28q15 16 36 17 q15 -1 27 -9q36 -29 49 -89q3 -17 3 -31q0 -100 -59 -141q-27 -18 -59 -18zM169 184z" glyph-name="ugrave" unicode="ù"/>
<glyph d="M113 290q-13 1 -23 6q-21 15 -22 40q1 12 6 22q39 64 88 97q2 2 4 3q13 8 26 8q23 -1 37 -20q7 -10 7 -24q-1 -24 -20 -38q-38 -28 -64 -72q-15 -21 -39 -22zM158 -24q-36 1 -67 25q-25 19 -43 52q-30 58 -38 135v4q0 30 28 42q7 2 13 3h5q29 0 41 -28q2 -6 3 -12 q9 -87 42 -122q9 -8 16 -9q21 0 27 50q1 10 1 19q-2 28 -18 49q-16 15 -17 35q1 13 10 28q15 16 36 17q15 -1 27 -9q36 -29 49 -89q3 -17 3 -31q0 -100 -59 -141q-27 -18 -59 -18zM169 184z" glyph-name="uacute" unicode="ú"/>
<glyph d="M20.3652 256.447q-13.3301 0.935547 -22.8506 6.5498q-19.042 12.1621 -19.9941 35.5527q0.952148 13.0986 6.66504 22.4541q55.2207 84.2051 110.442 141.277q13.3291 12.1631 30.4668 12.1631q15.2334 -0.935547 26.6582 -8.4209q98.0645 -73.9131 125.676 -114.144 q7.61621 -12.1631 7.61621 -23.3906q-0.952148 -21.5186 -19.9941 -35.5527q-11.4248 -6.5498 -22.8496 -6.5498q-22.8506 0.935547 -36.1797 18.7119q-11.4248 18.7129 -73.3105 69.2354q-0.952148 1.87109 -1.9043 1.87109q-36.1787 -42.1025 -74.2627 -100.11 q-12.377 -18.7119 -36.1787 -19.6475zM158 -24q-36 1 -67 25q-25 19 -43 52q-30 58 -38 135v4q0 30 28 42q7 2 13 3h5q29 0 41 -28q2 -6 3 -12q9 -87 42 -122q9 -8 16 -9q21 0 27 50q1 10 1 19q-2 28 -18 49q-16 15 -17 35q1 13 10 28q15 16 36 17q15 -1 27 -9 q36 -29 49 -89q3 -17 3 -31q0 -100 -59 -141q-27 -18 -59 -18zM169 184z" glyph-name="ucircumflex" unicode="û"/>
<glyph d="M63 272q-12 1 -22 6l-27 16q-21 15 -22 39q1 13 6 23q15 21 38 22q11 0 24 -7l26 -15q22 -15 23 -39q-1 -11 -7 -23q-13 -21 -39 -22zM217 281q-19 1 -32 13l-16 16q-13 14 -13 32q1 19 13 32q15 13 32 13q18 -1 32 -13l16 -16q13 -14 13 -32q-1 -19 -13 -32 q-14 -13 -32 -13zM158 -24q-36 1 -67 25q-25 19 -43 52q-30 58 -38 135v4q0 30 28 42q7 2 13 3h5q29 0 41 -28q2 -6 3 -12q9 -87 42 -122q9 -8 16 -9q21 0 27 50q1 10 1 19q-2 28 -18 49q-16 15 -17 35q1 13 10 28q15 16 36 17q15 -1 27 -9q36 -29 49 -89q3 -17 3 -31 q0 -100 -59 -141q-27 -18 -59 -18zM169 184z" glyph-name="udieresis" unicode="ü"/>
<glyph d="M161 288q-13 1 -23 6q-21 15 -22 40q1 12 6 22q39 64 88 97q2 2 4 3q13 8 26 8q23 -1 37 -20q7 -10 7 -24q-1 -24 -20 -38q-38 -28 -64 -72q-15 -21 -39 -22zM275 -478q-12 0 -31 2q-10 0 -15 1h-2q-76 8 -118 42q-35 31 -46 80q-1 4 -1 9q0 66 76 129q50 41 104 57 q-13 94 -21 191q-44 -29 -114 -29q-46 1 -74 43q-23 38 -23 103q0 55 20 97q13 24 40 25q10 0 20 -5q24 -13 25 -40q-1 -13 -5 -21q-10 -21 -10 -59v-6q1 -29 10 -47q52 2 73 24q19 24 32 86q5 27 33 35q6 1 11 1h4q29 -3 39 -32q2 -7 2 -13q4 -264 57 -504l1 -2 q8 -46 8 -68q-1 -46 -22 -72q-25 -27 -73 -27zM235 -386q11 0 15 -1q5 0 16 -1h13v9q0 21 -6 50q-7 32 -16 82q-35 -14 -68 -42q-31 -29 -36 -52q3 -14 14 -23q20 -16 68 -22zM111 92h1h-1z" glyph-name="yacute" horiz-adv-x="379" unicode="ý"/>
<glyph d="M315 198q52 -46 53 -106q-1 -56 -45 -92q-43 -34 -105 -34q-30 0 -54 8q8 -55 11 -101v-2q0 -30 -28 -42q-7 -3 -14 -4h-3q-30 0 -42 27q-3 8 -3 15q-4 67 -43 250q-32 149 -32 224v12q1 29 28 41q8 3 16 3h2q30 -1 41 -29q3 -8 3 -15v-2v-8q0 -41 14 -117q37 15 93 15h1 q58 -1 107 -43zM218 56q53 0 59 30q1 3 1 6q0 27 -34 48q-19 11 -36 11h-1q-46 0 -62 -10q-8 -5 -10 -13q1 -6 3 -19q3 -13 4 -19q3 -1 4 -2q38 -29 61 -31q5 -1 11 -1z" glyph-name="thorn" horiz-adv-x="377" unicode="þ"/>
<glyph d="M170 15q-32 2 -51 31q-9 14 -17 42q-11 38 -27 135q0 1 -0.5 3.5t-0.5 3.5q0 29 28 41q5 2 10 3q1 0 3.5 0.5t3.5 0.5q30 0 42 -28q2 -5 3 -10q11 -70 19 -103q3 -16 6 -25q12 6 41 32q14 12 31 12q20 -1 33 -15q12 -13 12 -29q-1 -21 -15 -34q-51 -46 -84 -55 q-17 -5 -37 -5z" glyph-name="dotlessi" horiz-adv-x="315" unicode="ı"/>
<glyph d="M161 328q-18 1 -29 11q-70 60 -87 61q-28 7 -34 35q-1 6 -1 10q0 6 1 9q5 27 33 34q6 1 11 1q7 0 10 -1q41 -9 126 -81q15 -15 16 -34q-1 -17 -12 -30q-13 -15 -34 -15z" glyph-name="gravecomb" horiz-adv-x="216" unicode="̀"/>
</font>
</defs>
</svg>
