<?xml version="1.0" encoding="UTF-8"?>
<!DOCTYPE svg  PUBLIC '-//W3C//DTD SVG 1.1//EN'  'http://www.w3.org/Graphics/SVG/1.1/DTD/svg11.dtd'>
<svg version="1.1" xmlns="http://www.w3.org/2000/svg">
<defs>
<font id="UnaNota" horiz-adv-x="427">
<font-face font-family="Una" font-weight="400" ascent="800" bbox="-181 -153 1007 789" cap-height="752" descent="-200" panose-1="2 0 5 3 0 0 0 0 0 0" underline-position="-100" underline-thickness="50" unicode-range="U+0020-007E" units-per-em="1000" x-height="470"/>
<missing-glyph/>
<glyph glyph-name="space" horiz-adv-x="330" unicode=" "/>
<glyph d="M183 624v-317q-2 -33 -27 -34h-4q-13 1 -38 2q-36 1 -53 4q-13 1 -22 18q-3 6 -3 9q-7 140 -10 317v11q0 3 3 69q0 4 -2 11q-2 5 -2 7q-1 2 -2 7q-1 4 -2 6t-1 5.5t1 3.5q7 9 22 7q75 -8 115 -14q10 -1 17 -16q1 -3 1 -5q1 -16 1 -45v-46h6zM147 689q-2 2 -6 7l-6 6 q-10 -9 -29 -26q-37 -34 -54 -51q-2 -3 -2 -18t2 -46q1 -31 1 -46q1 -8 5 -23l6 6q9 8 12 12t6 15q2 6 3 8q-12 2 -13 8q1 3 9 15q3 7 21 34q0 1 6 19q-12 -4 -19 -7q-3 -1 -11 -4q-8 -2 -11 -3q6 21 7 24q7 11 20 22q18 17 53 48zM124 591q22 8 33 45q3 11 3 20 q-1 10 -5 17q-5 4 -9 2q-47 -38 -49 -40q1 -1 3 -2q1 -2 2 -2q6 1 17 5q12 3 17 4q-1 -6 -4 -17q-5 -21 -8 -32zM54 404q1 -5 9 -27q13 8 15 10q17 15 23 24q9 12 20 33q-22 -10 -32 -16q-5 -3 -16 -11q-13 -9 -19 -13zM161 368q-5 15 -9 26q-13 -10 -14 -12 q-17 -19 -29 -36q-5 -7 -14 -25q22 11 26 14q8 6 40 33zM90 509l7 -7q8 7 24 19q22 16 32 25q2 3 2 24q-10 0 -11 -1zM158 492q-2 12 -4 19q-9 -3 -12 -5q-21 -19 -35 -36q-1 -2 0 -12q28 17 51 34zM92 385l2 -2q2 -2 3 -2q7 5 21 16q23 17 34 26q2 3 4 20h-5q-5 -1 -6 -2 q-28 -28 -53 -56zM87 681q21 12 30 18q5 3 16 15l-9 3q-22 -5 -27 -8q-3 -2 -9 -25q-1 -2 -1 -3zM97 349q-10 5 -11 5q-10 -10 -27 -29q1 -1 9 -10q5 7 16 19q9 10 13 15zM69 686q-2 2 -5 4q-5 4 -6 5q-2 -2 -5 -7q-5 -7 -7 -10q-1 -2 2 -7q2 -4 3 -5q5 6 18 20zM85 464 l-8 8l-9 -12q-6 -7 -9 -11q0 -1 4 -6l11 11q8 7 11 10zM75 714v3q-1 4 -1 5q-10 -1 -27 -5q0 -5 2 -7q19 2 26 4zM116 100q-74 3 -75 70v10q3 28 40 51q22 13 41 13q6 0 13 -2q42 -13 49 -63q1 -5 1 -11q0 -42 -36 -61q-15 -7 -31 -7h-2zM118 132q43 14 47 39q0 4 -4 10 l-1 1l-7 -1l-1 -1q-6 -8 -17 -24q-12 -16 -17 -24zM110 206q-2 2 -5 4l-5 5q-30 -32 -35 -39q0 -2 3 -13q9 3 12 6q11 12 30 37zM92 123q5 6 13 17q6 7 8 10l-5 5l-33 -18q5 -3 17 -14zM116 189l3 -3q2 -3 3 -4q11 9 25 20q-4 6 -7 7q-9 -7 -24 -20z" glyph-name="exclam" horiz-adv-x="204" unicode="!"/>
<glyph d="M76 745l42 3q27 1 40 2h4q26 -2 27 -26v-6q-4 -24 -21 -80q-1 -3 -18 -39q-5 -10 -8 -13q-10 -6 -23 -6q-36 0 -58 25q-5 6 -7 12q-12 35 -29 80q-5 13 -5 22q2 25 35 26h3h18zM119 700l18 4q-4 -14 -14 -39q22 15 45 45q2 4 -5 12q-1 2 -2 2q-5 1 -12 1q-23 -2 -30 -25z M40 713q6 -11 14 -24q12 17 13 21q2 4 -10 11q-2 1 -3 1q-2 -1 -14 -9zM123 629q-28 0 -38 -1q-2 -1 -8 -6q3 -1 9 -5q9 -7 13 -7q3 0 20 15q2 3 4 4zM143 656q-9 -15 -22 -36q5 -5 5 -3q8 11 21 32l-1 1zM207 679q3 45 14 52q10 6 38 6q12 0 37 2q26 2 39 2h3q25 -2 26 -22 q0 -3 -2 -12q-24 -83 -28 -95q-14 -35 -61 -35h-5q-39 3 -47 40q0 4 -14 60v2zM296 722q-21 -24 -41 -50q0 -1 1 -6q1 0 4 1q5 1 7 2l42 36q4 4 8 12q-9 2 -21 5zM236 631q4 -5 11 -13q8 -9 12 -13q4 -2 13 2q1 1 -1 8q0 3 -1 10q-1 15 -2 21q0 3 -4 9l-1 1q-4 -4 -14 -13 q-8 -8 -13 -12zM345 708q-5 4 -11 10q-7 -10 -22 -28q-14 -20 -21 -29q3 -2 7 -5q29 33 47 52zM246 721q-16 -23 -17 -26q0 -4 8 -19q3 5 9 16q7 10 10 15q-1 2 -10 14zM325 633q-7 9 -11 13q-3 -5 -9 -13q-9 -13 -13 -20l8 -6l12 12q9 10 13 14z" glyph-name="quotedbl" horiz-adv-x="384" unicode='"'/>
<glyph d="M309 284h-27q-38 0 -50 -15q-9 -10 -27 -51q-10 -19 -10 -31q1 -18 18 -31q11 -10 10 -25q-1 -2 -1 -3q-5 -12 -25 -16h-2q-10 0 -32 2q-22 3 -33 3q-12 0 -36 -3t-37 -3q-8 0 -32 13q-4 2 -5 9q14 8 21 13q19 15 23 21q20 41 40 95q6 15 6 23q0 11 -26 13h-4 q-6 0 -43 10l-2 1q41 8 45 8q38 0 49 12q9 11 23 48q12 34 65 163q7 19 7 22q-2 11 -20 12h-7h-6q-4 -1 -6 -1q-15 0 -40 4q-4 1 -19 12q17 8 18 8q5 0 15 1h15h14q10 -1 15 -1h6q32 0 38 18q4 10 5 28q0 13 1 14q14 13 15 21q0 9 -20 24q-5 4 -7 6t-17 28q-1 1 -1 2 q35 11 36 11h2q3 0 56 -10q6 -1 10 -2q14 -1 42 -1q19 -1 28 -1q7 0 20 -2q0 -2 -1 -7q-1 -9 -2 -13l-18 -42q-1 -2 1 -9q1 -5 1 -7q-3 -7 -5 -11q-5 -7 -15 -22q-11 -14 -16 -21l28 -9q3 0 111 -3q7 0 12 3q17 13 21 59v10q0 15 -4 22q-14 25 -14 38q0 22 45 27h2 q38 2 57 2h38q26 -1 39 -1q6 -2 8 -14v-4q-3 -9 -11 -26q-6 -12 -8 -18q-1 -3 -4 -9q-6 -10 -6 -15q0 -9 14 -14q1 -1 2 -1l1 -7l-1 -1q-8 -5 -14 -7q-2 -1 -8 -1q-6 -1 -7 -2q-6 -14 -17 -46q2 0 6 -2q5 -2 7 -2q44 0 66 -2q3 -1 14 -14l3 -3l-6 -3q-9 -6 -13 -6 q-36 0 -54 3q-6 1 -13 1q-29 -2 -43 -35q-13 -34 -80 -195q-4 -8 -4 -15q2 -12 21 -12h20q14 0 20 -1q1 0 12 -11q1 -2 2 -2q-2 -2 -8 -7q-5 -4 -7 -6h-2q-7 0 -25 2t-25 2q-15 -1 -20 -6q-18 -22 -41 -90q-2 -5 -3 -9q-1 -3 14 -19l4 -4q15 -20 15 -26q0 -11 -19 -18 q-4 -1 -7 -1q-53 -3 -155 -3q-4 0 -18 13q-2 1 -3 2q12 8 17 12q8 7 11 11l51 129q2 6 -7 14q-2 2 -3 2q-11 1 -32 1h-32zM401 569q-6 -1 -15 -1h-13q-26 -2 -34 -22q-40 -102 -87 -214q-3 -6 -3 -11q2 -8 16 -10q16 0 47 -2q46 -2 69 -2q16 1 22 13q15 37 46 112 q31 74 46 111q3 6 3 10q-2 8 -16 10q-56 4 -81 6zM541 434l9 3q-4 32 -17 110q0 1 -2 2.5t-7 2.5l-5 2q-2 -7 -7 -21q-10 -25 -10 -36q0 -1 0.5 -3.5t0.5 -3.5q3 -14 32 -48q4 -5 6 -8zM580 635q2 -1 8 -2q16 -5 26 -8q-5 11 -14 32q-9 19 -13 28q-1 2 -7 4h-1q-2 -7 -7 -21 q-10 -30 -10 -45t26 -41l5 -5t20 -9v11q0 13 -2 17q-5 8 -31 39zM196 463q23 -39 28 -46q2 -2 5 -10q6 -12 10 -13q6 0 14 16q1 1 1 2q1 3 7 10q5 8 5 10q-19 32 -33 45q-1 1 -2 1t-30 -13q-3 -1 -5 -2zM272 481q20 0 21 1q7 10 0 21q-13 17 -36 37q-9 5 -19 1 q-8 -16 -5 -25q8 -14 42 -62q-1 19 -3 27zM130 276q11 -16 34 -47q1 -2 3 -3.5t5 -3.5l4 -3q7 18 7 20q-4 20 -15 48q-3 8 -17 31q-7 -11 -18 -32q-1 -1 -1 -4q-1 -4 -2 -6zM227 353q-14 49 -15 52q-3 5 -21 17q-9 -28 -9 -30v-2l1 -2q3 -8 26 -39q1 -2 2 -3t10 -6q4 9 6 13 zM306 544q-24 51 -27 56q-2 2 -11 8l-8 -11q-5 -10 -5 -17q0 -13 22 -34q8 -8 11 -12q4 -5 12 -4q2 2 6 14zM328 591q-11 36 -18 51q-3 5 -17 16q-1 -4 -5 -11q-5 -12 -4 -17q4 -12 25 -44q2 -2 11 -8q5 6 8 13zM639 653q-2 6 -6 20q-8 25 -13 37q-2 3 -24 9q-1 1 -2 1 l3 -21q11 -25 26 -53q2 -3 12 -12q2 11 4 19zM422 336q30 -48 35 -55q1 -1 9 -2q0 1 1 4v6q-5 19 -17 52q-3 7 -14 22q-8 -17 -14 -27zM158 352q25 -53 33 -67q2 -3 11 -5q2 1 3 4l-27 78q-3 4 -11 3q-2 -2 -9 -13zM383 217q22 -24 35 -37q1 -1 7 -1h1h1q-1 6 -4 18t-4 18 q-2 7 -5 12q-6 8 -17 19q-8 -17 -14 -29zM568 516l9 3q-19 59 -25 76q-2 3 -10 9q-8 -17 -8 -16v-2q11 -25 34 -70zM102 191l-3 -3q-2 -3 -3 -4q16 -14 24 -20q2 -2 8 -4q6 -3 8 -5q5 -4 11 -12q12 12 12 13q1 8 -6 13q-18 8 -51 22zM522 442q-2 -1 -6 -2q-5 -2 -7 -3 q10 -25 19 -47q2 -4 7 -7q1 1 3 4q4 4 4 5q-4 12 -20 50zM424 296q-3 -5 -12 -16q-7 -10 -8 -12q0 -7 35 -28q3 -2 5 -3q-7 22 -20 59zM315 651q10 -18 25 -47l8 6q-11 20 -25 41h-6h-2zM152 207q-20 27 -30 41q-1 -1 -2.5 -3t-2.5 -4t-2 -3.5t-1 -3.5l-1 -1q12 -14 28 -29 q1 0 11 3zM677 712q-4 1 -10 4q-7 4 -11 4l-11 -9q3 -5 10 -14q4 -6 6 -8q1 2 16 23zM480 314q-2 0 -4 -2q-3 -2 -4 -2q3 -8 8 -22q6 -15 9 -22q1 1 4 3t5 3l2 2q-7 15 -20 40zM585 568l-10 -5q3 -7 9 -19q6 -13 9 -19q1 2 4 4q4 5 4 6q-2 7 -9 20q-5 9 -7 13zM563 457 q2 1 6 1q4 1 6 1q-3 8 -7 23q-6 16 -8 24q-2 0 -5 -2q-4 -1 -5 -1q2 -7 6 -23q5 -16 7 -23zM396 140q1 0 3.5 2t3.5 2q-7 13 -20 36q-1 1 -9 5l-2 -11q6 -9 24 -34zM423 156q-1 -1 -5 -2q-3 -2 -4 -3l6 -12q5 -8 7 -12q1 1 3.5 3t4.5 4l2 1q-5 8 -14 21zM363 151 q-3 -4 -7 -9q-5 -7 -7 -10q10 -7 11 -7q8 5 10 12q0 3 -7 14zM554 694q7 18 8 23q0 1 -2 2.5t-4 2.5l-3 1q-8 -10 -9 -13q1 -2 10 -16zM315 710l-6 -6q-4 -3 -5 -4q12 -8 13 -8q4 1 14 10q-2 1 -7 3q-6 4 -9 5zM510 359l-4 -2q-4 -1 -5 -2q2 -4 7 -13t7 -13l6 4q-2 7 -11 26 zM467 221l6 3l-8 16q-5 11 -8 16q-1 0 -4 -2t-4 -2q3 -5 9 -16zM97 145q0 1 1 4v4l-19 3q0 -1 -2 -8q3 0 10 -2q7 -1 10 -1zM468 440q-20 -30 -20 -45q1 -17 15 -31q8 -8 30 -37q-6 51 -6 52q-5 22 -19 61zM468 440l36 -27q-3 18 -7 29q-2 5 -18 25q-2 -5 -5 -13 q-4 -10 -6 -14z" glyph-name="numbersign" horiz-adv-x="761" unicode="#"/>
<glyph d="M148 191v32v8q0 34 -21 47q-7 4 -13 6q-62 24 -77 84q-1 5 -1 13q0 42 24 67q8 7 15 10q66 24 67 86v3.5v3.5t-0.5 3t-0.5 4v3.5t-1 4.5v3q0 3 9 16q1 -2 4 -5q5 -7 5 -10v-27q-1 -18 -1 -27v-13q1 -8 10 -13q50 -20 76 -28q10 -3 19 5q11 8 18 8q11 -2 14 -19 q3 -22 3 -65q0 -6 -9 -11q-2 -1 -3 -1q-6 -1 -13 7q-3 4 -8 14q-6 11 -9 15t-14 10q-1 1 -3 2q-3 2 -4 3q-7 22 -40 35q-12 5 -21 5q-5 0 -10 -2q-4 -3 -5 -10q1 -55 5 -157q1 -9 9 -14q18 -9 55 -27t55 -27q2 -1 8 -21q1 -1 1 -2q5 -14 5 -32q-1 -32 -25 -57q-5 -4 -16 -18 q-7 -7 -9 -7h-15h-26q-16 0 -24 -1q-9 -2 -18 -17q-1 -1 0 -18v-4q-2 -9 -8 -24q-1 3 -5 8q-6 10 -7 15q-3 36 -12 43q-8 6 -37 14q-6 1 -13 -4q-1 0 -3 -3q-3 -2 -4 -3q-8 -4 -22 -13q-16 -9 -23 -13q-1 17 -5 46q0 6 -2 18q-2 17 -2 26q1 5 7 17q3 -1 9 -4l8 -4l24 -18 q31 -24 48 -33q15 -8 20 -8q11 2 13 27v48h-1zM165 186h-1v-30q0 -21 1 -31q0 -5 9 -11q2 -1 3 -1q5 3 14 9q9 8 14 10q26 14 27 36q0 4 -2 13q-2 10 -7 29l-6 21q-4 20 -35 28q-6 2 -7 2q-5 0 -8 -9q-1 -1 -1 -2q-1 -22 -1 -64zM143 368h1q-1 15 -2 46l-3 45q0 2 -3 5 q-1 3 -2 4q-3 -3 -10 -7q-10 -8 -13 -12q-19 -31 -19 -60q1 -38 34 -70q2 -2 8 -4q5 -2 7 -3q0 2 2 6q2 6 2 9q0 7 -1 21q-1 13 -1 20zM53 387q4 -9 10 -18q11 19 11 21q0 3 -6 16q-10 -12 -15 -19zM43 144l-2 -16q1 -4 9 -19q7 6 16 15q-8 8 -23 20zM259 149 q-11 -10 -28 -25l4 -2q9 8 26 21l-2 4v2zM272 424q1 0 4 1q2 1 3 1l-3 12q-1 8 -2 12q-2 -1 -3.5 -1.5t-2.5 -1.5l-2 -1q1 -4 6 -22zM249 169l6 -4q6 9 15 22q-6 0 -6 1q-2 -3 -8 -10q-5 -6 -7 -9z" glyph-name="dollar" horiz-adv-x="316" unicode="$"/>
<glyph d="M506 697h-7q-29 0 -40 -30q-1 -2 -2 -6q-3 -7 -4 -10t-180 -414q-19 -41 -27 -66q-1 -3 8 -25q1 -2 1 -3q3 -6 7 -17q5 -12 7 -18q-33 -8 -35 -8q-22 1 -68 4q-24 1 -36 2q-18 3 -19 15q0 6 3 13q31 71 94 213l93 213q22 48 44 114q2 6 -7 22q-2 4 -20 26q4 2 12 7 q16 9 23 11q17 4 36 4q24 0 101 -17q13 -2 22 -4q5 -2 7 -13v-3q-2 -3 -5 -5l-6 -4zM423 603q-3 7 -7 18q-35 25 -44 31q-10 -13 -10 -16q27 -29 39 -38q1 -1 20 4q1 1 2 1zM303 484q-16 -13 -17 -15q-1 -9 3 -13q16 -15 39 -31q2 0 9 5q-22 34 -34 54zM395 709q-8 -6 -8 -7 q-2 -16 -2 -23q0 -9 2 -12q3 -5 28 -15q1 -1 2 -1l-3 24q-3 7 -19 34zM278 298q-17 5 -20 7q-2 1 -12 16q-6 6 -11 7q-6 -1 -12 -4q19 -30 22 -33q11 -11 19 -12q10 2 14 19zM251 370l-11 -8q-1 -4 1 -9q12 -13 34 -35q6 -5 10 -4q5 9 4 11q-8 10 -38 45zM177 163l3 3 q1 2 2 3q1 -2 3 -5q3 -4 4 -6v-9q0 -9 1 -12q2 -1 18 -1q-2 6 -7 16q-5 11 -7 16q-3 4 -7 8l-21 12q-5 -15 -5 -17q2 -3 16 -8zM310 375l7 12q-2 14 -8 28q-2 1 -13 3q1 -4 2 -12l3 -12q3 -9 9 -19zM379 590q-1 0 -5 -2q-4 -1 -5 -1q4 -18 11 -41q5 0 10 2q-3 15 -11 42z M379 530q-21 7 -22 7q-4 -2 -6 -9q3 -6 13 -20q13 20 15 22zM363 592q-3 4 -7 11q-4 6 -5 8q-1 -1 -3 -4q-6 -6 -6 -9q1 -3 12 -18zM201 258q-1 0 -5 -2q-3 -2 -4 -2l6 -12q4 -7 6 -11l2 1q4 1 5 1zM225 258q5 4 7 6q-12 14 -18 20q-2 0 -7 -2zM273 602v-2q0 -64 -52 -104 q-39 -30 -91 -30h-2q-48 1 -83 52q-23 34 -25 72v5q0 69 49 120q35 34 71 35h6q98 -10 121 -109q5 -19 6 -39zM197 584q-15 87 -21 108q-8 23 -24 24q-14 -1 -27 -17q-31 -44 -31 -99q0 -30 7 -56q4 -19 26 -29q5 -2 9 -3h4q21 1 36 21q5 7 19 46q1 3 2 5zM198 514 q3 -2 5 -4l30 39q2 3 3 9q0 6 1 8q-2 -1 -7 -2q-11 -4 -13 -7q-7 -12 -19 -43zM204 647q25 -10 28 -11q5 1 9 8q-2 6 -11 22q-3 -2 -8 -6q-11 -8 -18 -13zM219 585q31 1 32 18q-1 8 -7 21q-3 -5 -25 -39zM80 644q-2 2 -5 4.5t-5 3.5l-1 1q-8 -8 -21 -23q1 -1 5 -6 q17 12 27 20zM307 225q4 9 11 26q10 28 18 37q32 38 72 67q23 17 51 17q41 -1 70 -34q38 -44 38 -103q-1 -66 -47 -111q-24 -23 -80 -23q-61 1 -80 26q-14 18 -47 87q-4 6 -6 11zM497 232l6 6q-45 73 -55 86q-3 3 -12 3q-13 0 -20 -5q-29 -27 -29 -90q1 -47 17 -70 q15 -19 38 -20q27 1 38 25q6 16 17 65zM499 143q39 36 44 80q-1 15 -5 23q-17 -42 -39 -103zM486 344l-4 -4q-4 -3 -5 -4q3 -6 10 -17q11 -20 17 -29q1 -1 14 -13q1 3 4 9q4 9 3 11q-9 12 -39 47zM339 233q1 -1 5 -2q3 -2 4 -2l15 36l-6 2q-3 -5 -9 -17t-9 -17z" glyph-name="percent" horiz-adv-x="587" unicode="%"/>
<glyph d="M30 243q4 88 34 126q16 20 39 33q3 2 -3 19q-3 4 -4 5q-60 18 -73 100q-3 18 -3 36q1 68 29 104q70 83 163 84q30 0 59 -7q72 -17 108 -82q16 -29 19 -60v-5q1 -4 1 -6q0 -60 -51 -109q-22 -21 -47 -32q-12 -5 -37 -15q-24 -9 -36 -14q-4 -2 -15 -11q2 -1 5 -5q4 -5 6 -6 q50 -27 116 -104q3 -3 8 -9q7 -8 10 -11q18 -20 29 -21q12 2 22 18l9 15q6 9 9 14l-12 3q-12 3 -17 4q-44 7 -55 54q-3 11 -3 23q0 25 12 50q22 43 61 46h10q55 0 68 -49q3 -12 3 -24q0 -9 -4 -28q-9 -32 -53 -105q-13 -21 -20 -35q-5 -13 1 -22q49 -52 128 -72 q15 -3 54 -22q2 -2 9 -12q-1 -1 -5 -3q-6 -6 -10 -5q-121 12 -158 20q-17 3 -67 30q-12 6 -20 9q-16 6 -30 -2q-93 -55 -151 -60h-13q-33 0 -63 11q-24 9 -47 56q-14 27 -15 48v28zM111 530q1 0 4 -1l9 -74q3 -14 16 -22q2 -1 3 -1h1q58 12 84 25q59 30 65 100v11v3 q-5 105 -88 139q-14 6 -25 6q-25 -2 -34 -31q-10 -37 -35 -155zM110 265q6 -21 17 -58q9 -29 13 -43q12 -33 39 -34q7 0 15 3q13 5 108 53q3 2 5 3q5 6 2 15q-62 105 -113 149q-11 9 -20 16q-9 6 -22 -1l-3 -3q-8 -16 -41 -100zM115 676q0 1 -3 7l-9 -9q-2 -2 -23 -26 l-27 -24q-2 -4 -2 -12q1 -1 7 -2q23 2 45 34q11 18 12 32zM403 370q2 -4 4 -7q60 37 61 38q2 2 -3 24q-1 1 -1 2q-1 2 -7 1q-9 -10 -27 -29q-18 -20 -27 -29zM323 539q32 27 54 47q1 2 -3 16q-14 -3 -15 -4q-24 -24 -35 -37q-1 -3 -1 -22zM254 719q29 -40 31 -43q7 -5 23 -3 q5 1 14 8q-12 14 -16 16q-21 10 -52 22zM316 629q14 12 35 27q-14 11 -16 11q-5 -3 -31 -21q4 -6 12 -17zM294 488q3 -3 13 -10q20 32 29 48q-2 1 -4 3q-3 2 -4 3q-6 -8 -17 -22q-12 -15 -17 -22zM106 205q-2 8 -4 17l-13 3q-7 -8 -16 -23q1 -4 7 -8q9 3 26 11zM94 600 q-1 3 -5 8q-7 -4 -21 -14t-21 -14q1 -3 5 -8q7 4 21 14t21 14zM399 380q-1 1 -2 3q-2 2 -2 3q-4 -2 -29 -16q2 -2 4 -6q4 -3 5 -5zM102 318q-3 3 -8 6q-7 -10 -20 -27l8 -4q9 11 20 25zM380 210q-15 -18 -16 -19t6 -6q4 -4 6 -5q8 12 11 19q-1 2 -7 11zM431 337q4 -2 7 -5 q11 16 19 29q-1 0 -2 1q-4 2 -5 3q-2 -3 -7 -10zM117 164q-5 4 -13 10l-3 -6q-3 -6 -4 -9q1 -2 6 -9zM86 353l5 -5q5 4 17 12q12 9 17 13l-3 3q-1 3 -2 4q-6 -4 -17 -14q-12 -9 -17 -13z" glyph-name="ampersand" horiz-adv-x="628" unicode="&amp;"/>
<glyph d="M20 687q2 46 14 54q9 5 37 5q13 0 38 2q26 2 38 2q29 -2 30 -22q0 -4 -2 -12q-22 -78 -29 -96q-14 -34 -60 -34h-6q-40 3 -46 40q-1 5 -14 61zM109 731q-31 -35 -42 -50q0 -2 2 -7q8 3 10 4l21 18q15 12 22 18q2 2 5 7q2 4 3 5q-9 2 -21 5zM49 639q22 -25 23 -25 q2 -1 12 2v8l-3 30q-1 2 -6 11q-3 -2 -26 -26zM158 717q-2 1 -6 5q-3 3 -5 4q-7 -10 -22 -28q-15 -19 -22 -28q1 -1 3 -2q3 -2 4 -3q8 9 24 26q16 18 24 26zM58 730q-14 -20 -16 -26q0 -4 7 -20q18 29 20 32q-1 2 -11 14zM138 642l-11 13q-9 -12 -22 -33l8 -6q16 17 25 26z " glyph-name="quotesingle" horiz-adv-x="196" unicode="'"/>
<glyph d="M21 317v20q1 127 62 237q19 35 83 93q39 36 56 56q24 27 57 27q13 0 37 -4q26 -5 38 -5h4q7 -1 15 -18q2 -5 -7 -12q-1 -1 -2 -1q-169 -77 -190 -256q-5 -44 -5 -78q1 -174 96 -320q2 -3 43 -54q5 -6 8 -11q10 -13 8 -21q-3 -7 -20 -12q-26 -8 -46 -8q-30 0 -59.5 17.5 t-43.5 33.5t-40 50l-1 1q-74 97 -93 220q-1 5 -1 13v13q1 12 1 19zM83 253v-14h74q-1 18 -5 51q0 3 -6 33q-15 45 -52 49q-9 0 -19 -3q-5 -1 -21 -17l-3 -3q15 -8 21 -10q4 -1 13 -1q13 -2 18 -3q3 -1 21 -15q-6 -7 -15 -16q-3 -3 -12 -7l10 -10q3 -2 11 -5q7 -3 10 -5 q6 -4 13 -11q-13 -10 -17 -11q-8 -1 -24 -1q-12 -1 -17 -1zM144 435q4 12 4 15q-2 16 -32 20q-3 1 -16 15l-2 2l-9 8q-8 -1 -11 -6q-1 -8 2 -13q3 -2 10 -6q8 -4 11 -6q6 -5 17 -15q7 -8 11 -11h-13q-10 1 -14 1h-7q-7 -1 -20 -6q-9 -3 -13 -4q18 -12 28 -17q2 -2 9 -2 q7 -2 9 -3q15 -9 24 -9q13 2 13 23v6q-1 6 -1 8zM144 555q-2 1 -4 3q-4 3 -5 4q-3 0 -10 -2q-7 -1 -10 -1q20 -22 26 -26q9 -6 20 1q2 1 3 2q9 14 19 43q1 7 -5 13q-2 1 -16 3q0 -11 -1 -12q-9 -15 -17 -28zM211 1q15 6 40 18q-3 5 -11 13q-7 9 -10 13q-6 -5 -16 -17 q-11 -12 -16 -17q1 -1 4 -3q6 -5 9 -7zM133 132q0 -1 0.5 -4t0.5 -4q29 0 44 1q7 1 12 10q-2 6 -10 17q-4 7 -6 10q-7 -5 -20 -15zM131 219q-8 0 -22 1h-16q-11 0 -16 -1q-5 -2 -13 -13q2 -1 8 -6q9 -6 12 -6q14 5 47 25zM143 162l-16 4q-3 -1 -36 -15q14 -17 15 -17 q15 9 37 28zM222 74q-5 3 -11 9q-7 5 -8 5q-15 -9 -40 -26q1 -1 4 -3q4 -5 5 -4q16 5 50 19zM165 116q-10 -6 -24 -15q-11 -7 -16 -10q3 -3 8 -9q6 -6 8 -9q20 18 28 27q1 2 -4 16zM112 195v-6q12 -2 37 -5q17 -2 26 -3q-1 2 -3 8q-5 11 -7 12q-2 0 -53 -6zM102 523v-3 q-1 -2 -1 -3q5 -3 16 -10q15 -9 22 -12q5 -2 14 6q2 4 -3 13q-3 1 -48 9zM301 707l-20 9q-8 -3 -21 -10q2 -1 5 -5q7 -6 9 -7q6 1 27 13zM107 385q-15 8 -17 8q-22 2 -34 2q0 -1 -2 -9q6 0 17 -2q12 -1 17 -1q2 0 7 1q7 1 12 1zM65 285q-13 -13 -14 -16q0 -2 5 -13q4 3 12 8 q9 5 13 8q-2 1 -5 4q-7 6 -11 9z" glyph-name="parenleft" horiz-adv-x="393" unicode="("/>
<glyph d="M332 370q-13 -229 -148 -377q-31 -32 -61 -33h-8h-5q-4 0 -39 -9q-3 -1 -5 -1q-12 -1 -21 5q-5 5 -1 17q1 1 1 2q66 78 90 224q4 23 10 69l6 42q7 51 7 89q0 79 -26 143q-2 5 -5 15q-10 28 -23 40q-5 5 -9 34q-3 12 -6 18q-7 10 -47 57q-7 7 -11 13q-5 7 -11 24q3 1 8 3 q10 6 15 5q58 -12 125 -30q12 -4 19 -14q10 -17 32 -50q55 -85 74 -130q16 -37 35 -137q2 -12 4 -19zM151 117q77 0 117 58q22 32 23 71q0 6 -12 11h-2q-26 -18 -53 -38q11 -3 24 1q10 2 23 4l-12 -24q-3 -4 -11 -9q-6 -3 -8 -5q-15 -12 -44 -34q-30 -24 -45 -35zM188 260 q0 -1 2 -3.5t2 -3.5q7 3 22 9q22 9 33 13q58 23 59 70q0 14 -7 38l-7 9q-25 -18 -43 -32q-2 -3 0 -8q2 -1 7 -1q4 -1 10 -2q8 -2 11 -2q-2 -3 -5 -8q-7 -13 -11 -17q-29 -25 -73 -62zM187 436q1 -2 4 -5q3 -4 4 -5q6 3 17 10q17 11 25 15q3 1 27 6q0 -5 1 -13t1 -12v-6 q1 -5 1 -7q2 0 5 1q5 0 6 1q7 25 7 27q-2 8 -18 59q-5 -2 -8 -5zM124 33q2 -2 4 -7q3 -4 4 -6q17 10 50 32t50 32q-2 2 -4 8q-4 6 -5 8q-17 -11 -49 -34q-34 -22 -50 -33zM240 375l-4 4q-4 -2 -14 -5q-23 -8 -31 -15q-5 -4 -8 -30q0 -5 -1 -7h11q10 11 31 34q11 13 16 19z M227 589q-2 3 -6 8q-6 8 -7 7q-22 -8 -31 -15q-4 -4 -17 -22l2 -4q33 11 35 12q5 2 14 8q7 4 10 6zM259 531q-13 16 -14 17q-3 1 -9 -4q-3 -4 -11 -11q-12 -13 -17 -19q-1 -2 0 -12l21 12q20 11 30 17zM216 556q-7 -3 -17 -6q-12 -4 -15 -7q-4 -5 -11 -24q0 -1 4 -9 q15 13 17 15q5 6 22 31zM192 642q-4 2 -7.5 5.5t-5.5 4.5l-2 1q-12 -9 -31 -26q2 -2 4 -3.5t4 -2.5l2 -1q13 7 36 22zM205 226q-1 2 -3 4q-1 3 -2 4q-5 -3 -14 -9q-15 -9 -22 -14q-1 -2 -3 -18q13 6 14 6zM169 83q-1 1 -3 5t-3 5q-7 -5 -21 -16q-15 -11 -22 -16q2 -2 4 -5 q4 -4 5 -6q7 6 20 16q14 12 20 17zM144 137q1 -1 4 -3q2 -1 3 -2q5 5 13 16q9 10 13 15q-2 1 -5 4q-4 3 -6 4q-4 -5 -11 -17q-8 -12 -11 -17zM214 405q-1 1 -2 3l-3 3q-5 -3 -13 -10q-10 -7 -14 -10l4 -6q16 11 28 20z" glyph-name="parenright" horiz-adv-x="351" unicode=")"/>
<glyph d="M117 670q3 20 8 49q4 23 26 29q5 2 10 2q15 -1 26 -14q9 -14 8 -26q-2 -12 -14 -60q-2 -10 -2 -15q2 1 6 2q4 2 6 2q56 18 65 19h5q26 0 35 -23q2 -6 2 -11q0 -7 -3 -13q-8 -16 -31 -24q-5 -2 -46 -4q-4 -1 -6 -1q-4 0 -11 -2q4 -5 8 -8q38 -26 40 -68q-1 -21 -17 -22h-2 q-28 5 -39 15q-5 6 -35 49q-2 4 -4 6q-3 4 -8 9q-1 -1 -3 -4t-3 -4q-45 -60 -81 -79q-3 -2 -5 -3q-3 -1 -6 -1q-16 0 -19 17q-1 3 -1 5q1 22 17 43q6 7 40 33q3 2 4 3l6 6q-1 1 -4 1q-3 2 -4 2q-28 6 -42 10q-20 10 -23 30v2q1 2 1 3q3 12 20 22q7 4 11 4h2q27 -6 54 -15 q10 -4 11 2v5v27h-2zM82 524q1 6 5 15q1 3 5 8q1 -1 1.5 -2l1.5 -3l1 -2q1 -2 3 -5q2 -4 3 -5q1 2 4 4q4 5 5 7q1 6 -3 16q-3 4 -9 3q-18 -12 -19 -25q0 -7 2 -11zM237 632q1 -1 3 -2q2 -2 3 -2q1 1 3 2q3 2 4 3q1 3 1 7q-6 2 -9 1q-22 -7 -25 -17q-1 -3 -1 -5q0 -3 -2 -10 t-2 -10l6 9q5 5 7 8t6 8t6 8zM228 511q-1 3 -2 7q-1 3 -1 4q-1 0 -4 -2q-3 -1 -4 -1q-1 -1 -4 -3q-7 -8 -10 1q-1 2 -1 3q-1 2 -5 1l-3 -7l24 -18zM71 521q-1 2 -3 5q-1 4 -2 6q-2 -2 -5 -6q-4 -3 -5 -5q-1 -3 -1 -8q1 -3 1 -11q2 -9 2 -12q2 3 5 10q4 6 5 9t3 12zM160 738 q-12 -14 -17 -21l3 -4l27 18q-1 1 -5 3q-5 2 -8 4zM160 586l-5 -11q5 -7 12 -16q6 10 6 9q-2 4 -13 18zM252 611q1 -1 4 -2q2 5 6 14l7 14q1 1 0 3l-1 1l-6 -3q-4 -10 -10 -27zM134 669q1 -8 3 -15l4 4q5 6 6 9q0 2 -7 13q-4 -8 -6 -11zM173 594l10 15l-4 4q-3 -2 -7 -7 q-6 -4 -8 -6q1 0 3 -2q4 -3 6 -4zM177 725q-10 -14 -15 -22q19 6 20 12q-1 6 -5 10zM201 527q2 3 7 9t7 9q-1 1 -3 5q-2 -3 -8 -8q-5 -5 -7 -8q1 -2 4 -7zM286 623l-4 4q-1 2 -2 3q-2 -3 -4 -8q-4 -6 -5 -9q1 -2 3 -4q9 10 12 14zM120 560l15 15l-4 3l-18 -12q5 -4 7 -6z M177 675q-1 1 -3 2q-1 2 -2 2q-2 -3 -8 -10t-8 -10l2 -2q2 -2 3 -2q3 3 8 10q6 7 8 10zM208 619l-3 3l-2 1q-1 -2 -3 -5q-3 -4 -4 -6q1 -2 3 -4q4 4 9 11zM105 599l-3 6l-4 1q-5 -4 -8 -8q1 0 4 -3q1 0 11 4zM235 596l6 14l-2 4l-6 -9q0 -1 1 -3q1 -4 1 -6z" glyph-name="asterisk" horiz-adv-x="318" unicode="*"/>
<glyph d="M75 493q99 -7 107 -7t15 13q2 4 2 6q-2 19 -8 57l-6 42q0 3 6 22q18 -14 19 -16q12 -66 13 -101q5 -26 23 -28h8q85 7 153 8q4 0 18 -13q2 -1 3 -2q-3 -1 -9 -4q-10 -5 -14 -6q-18 -1 -55 -4q-73 -5 -108 -8q-7 0 -11 -14q-1 -3 -1 -5q2 -19 5 -56q4 -38 5 -56 q0 -6 -6 -19q-2 -2 -11 -8q-7 10 -7 13q-6 74 -8 115q-3 32 -29 34q-14 0 -43 1q-59 1 -87 2q-2 0 -27 11q-1 1 -2 1q21 16 25 17q8 2 19 4z" glyph-name="plus" horiz-adv-x="448" unicode="+"/>
<glyph d="M70 184h1q29 0 41 -30q4 -10 4 -20q0 -13 -6 -25q-24 -45 -48 -57q-2 -1 -3 -1q-4 -1 -14 1l6 12q3 3 8 9q10 10 14 15q7 10 -7 10q-36 0 -44 31q-2 7 -2 13q0 23 27 36q11 6 21 6h2zM71 114q16 4 25 24q2 5 2 9q0 1 -1 4q-1 2 -2 3q-1 0 -2 -2l-1 -1l-12 -21 q-6 -11 -9 -16zM81 164q-3 -4 -7 -14l-7 -14q-1 -1 -2 -3.5t-1 -3.5q1 1 3 2q3 2 4 3q3 6 13 25q1 2 1.5 4.5t-0.5 2.5q-8 4 -14 5q-1 -1 -2 -5q2 -1 6 -1.5t6 -0.5zM63 169q-25 -9 -26 -24q0 -5 1 -7q21 26 25 31zM45 116q13 21 19 32q1 0 0 3v3l-6 -3q-6 -8 -15 -23 q0 -2 2 -12z" glyph-name="comma" horiz-adv-x="135" unicode=","/>
<glyph d="M231 460q-132 0 -198 1q-4 1 -13 8q9 9 8 8q1 1 2 1q60 2 92 2q33 0 99 1t99 1q4 0 17 -5l-15 -12q-1 -1 -2 -1q-19 -2 -58 -4q-21 -1 -31 -2v2z" glyph-name="hyphen" horiz-adv-x="357" unicode="-"/>
<glyph d="M108 142q0 -33 -37 -40q-7 -1 -14 -1q-24 0 -34 24q-3 8 -3 16q0 17 29 34q14 8 24 8q21 0 32 -25q3 -8 3 -16zM65 123q-1 0 -1 1h-1q2 6 7 18q4 11 6 17q0 1 -1 7q-1 0 -3 -1q-4 -1 -5 -2q-10 -21 -17 -38q-1 -4 4 -7q2 0 5 -1h3q26 2 27 28q0 7 -1 10q-22 -30 -23 -32z M51 150l-6 3q-7 -15 -8 -17q0 -1 3 -3l1 -1q1 3 5 9t5 9z" glyph-name="period" horiz-adv-x="127" unicode="."/>
<glyph d="M179 100q-99 4 -145 7q-2 0 -12 9q-1 1 -2 1q13 10 14 10h7q21 0 30 24q2 5 4 12q6 20 59 154q5 13 9 24q62 171 101 287q1 4 1 10q0 14 -7 31q-2 5 -19 28q-13 20 -13 31q2 17 40 19q17 0 49 1q64 2 96 2q11 -1 17 -10q0 -6 -9 -19q-3 -5 -9 -14q-14 -21 -18 -32 q-38 -105 -88 -250q-7 -21 -29 -71q-51 -124 -53 -175q1 -6 14 -27q4 -6 11 -18q8 -13 11 -19q-11 -3 -40 -10h-19v-5zM324 589q-28 28 -36 34q-5 3 -24 8q0 -5 -2 -17q-1 -12 -1 -17v-6q0 -17 20 -24q4 -1 9 -3l17 -4q11 0 15 20q1 4 2 9zM290 673q-2 -1 -6 -1q-3 -1 -5 -1 q-1 -2 -2 -8q-2 -5 -2.5 -7.5t-1 -6.5t1.5 -4q12 -12 44 -33q3 0 15 10q-8 8 -22 26q-15 17 -22 25zM272 435q-33 26 -47 36q-2 1 -16 0l3 -17q11 -13 32 -34q6 -6 17 -13q6 15 11 28zM146 122l15 23q-30 24 -47 35l-2 -1l-2.5 -2.5t-3 -3.5t-2.5 -3l-1 -2q7 -8 43 -46z M176 347q-2 -1 -6 -1q-3 -2 -5 -2q-5 -19 -4 -20q15 -19 41 -41q2 0 14 6q-7 9 -20 29t-20 29zM336 717q8 0 11 -1q6 -2 13 -6l2 7q-10 7 -14 7h-8q-5 1 -7 1q-7 0 -20 -2l-9 -8q28 -33 34 -39q2 -1 16 4l-8 16q-6 11 -9 16q0 3 -1 5zM248 571q-6 -26 -6 -27q17 -17 40 -35 q1 1 8 6zM195 412q-1 0 -3.5 -1.5t-3.5 -1.5q4 -16 3 -15q14 -18 33 -37q3 -3 14 -9q-3 15 -4 16q-11 16 -22 28q-3 4 -8 10q-6 7 -9 10zM343 656q-8 6 -22 18q-18 15 -26 22q-2 2 -7 -3q0 -10 1 -11q17 -16 34 -31q4 -3 14 -3q1 1 6 8zM184 379l-9 -12l36 -39q1 1 7 5 q-6 7 -17 23q-11 15 -17 23zM237 525l-3 -3q-1 -2 -2 -3q40 -34 41 -35q1 0 12 -2q-3 12 -4 13q-8 6 -44 30zM273 709l-20 11q-2 0 -15 -8q-1 -1 -2 -1l23 -23zM212 252q-12 10 -27 23q-4 -5 -5 -6q12 -16 19 -23q2 1 13 6zM139 285q4 -2 9 -5q6 -3 8 -3t4 1l6 3l4 2 q-2 3 -8 8q-5 6 -7 8q-2 -2 -16 -14zM291 553q-1 -1 -2 -3q-2 -1 -2 -2q3 -2 8 -8q6 -5 8 -7l6 9l-9 6q-6 3 -9 5zM148 213q6 -1 17 -5q12 -4 17 -5q-1 4 -2 13q-3 19 -7 23q-5 5 -34 12q-4 1 -7 2q8 -28 9 -29q2 -3 8 -11h-1zM148 213q-5 -1 -14 -3q-10 -3 -15 -4 q24 -22 36 -32q2 -1 11 -1l-12 27l-3 6q-2 5 -3 7z" glyph-name="slash" unicode="/"/>
<glyph d="M21 359q0 5 -1 13v13q1 162 110 269q78 75 143 89q32 6 61 6q123 -1 183 -110q50 -89 50 -158q0 -10 -2 -29q-23 -147 -60 -219q-21 -40 -49 -72q-41 -45 -123 -57q-25 -4 -52 -4q-97 1 -173 59q-61 48 -80 144q-2 11 -7 56zM464 460h4q3 1 4 1q-27 135 -31 150 q-32 109 -129 110q-9 0 -24 -2q-57 -9 -102 -66q-54 -71 -64 -200q-2 -17 -4 -53q-2 -32 -3 -47v-13q0 -42 22 -119q15 -52 43 -72q33 -22 76 -22q72 0 125 49q23 21 34 46q50 114 50 213q0 4 -1 13v12zM531 373q-1 1 -4 3q-3 1 -4 2q-3 -4 -11 -15q-12 -17 -13 -20 q0 -3 4 -9q3 -6 3 -8q0 -6 -14 -20q-3 -4 -5 -6q-3 -4 -10 -13l-18 -24q-3 -5 -7 -20q16 3 21 5q36 19 47 72q9 46 11 53zM87 445q-27 -15 -29 -16q-15 -14 -18 -42q1 -8 4 -10q3 -1 5 -1q5 0 31 11q12 5 16 13q1 3 6 33q-4 -2 -11 -7q-8 -4 -11 -6h-3q2 3 5 11q3 9 5 14z M383 140q6 0 8 1q44 20 59 62q1 3 3 11t3 11q-21 -11 -23 -13q-14 -19 -50 -72zM548 452q0 1 -3 8q-9 -3 -10 -4q-5 -4 -13 -13q-10 -9 -14 -13q-8 -5 -10 -5q-3 0 -9 4l-1 1q0 -18 1 -27q1 -3 6 -5h1q24 0 43 27q9 14 9 27zM99 252l-6 6q-2 -2 -7 -5q-12 -9 -13 -15 q1 -7 5 -13q21 -28 25 -32q5 -4 28 -18q-8 22 -13 33q-2 3 -4 4q-18 4 -19 17q0 8 4 23zM492 466l7 -7q35 27 38 31q2 3 3 27v3q-8 -1 -9 -1q-7 -9 -19 -27q-14 -17 -20 -26zM88 497q-24 -11 -26 -13q-4 -5 -10 -19q2 -1 7 -3q8 -5 11 -4q11 4 32 19q1 2 3 9q-2 0 -5 1 q-4 1 -6 0q-5 -1 -16 -8q2 3 5 9t5 9zM59 263h8q4 8 13 23q8 15 12 23q0 1 -1 10q-18 -10 -26 -16q-10 -8 -11 -13q0 -6 5 -27zM106 577q1 -1 4 -3l3 -3q2 3 51 78q-29 -2 -40 -32q-10 -32 -15 -37zM418 710q-1 -1 -2 -3l-3 -3q24 -33 30 -40q4 -2 18 0l2 11q-7 6 -23 17 q-15 12 -22 18zM98 341v4q-1 3 -1 4l-9 6q-16 2 -22 -1q-8 -4 -20 -19q0 -2 3 -12q8 3 25 9zM87 515q10 10 27 25q-1 1 -5 3q-6 4 -8 4q-3 -2 -33 -21q2 -1 6 -4q9 -4 13 -7zM499 537q1 -1 3 -4l4 -4q10 10 25 27q-1 1 -5 6q-4 -4 -14 -12zM497 573l23 20l-4 4t-4 3 q-4 -3 -12 -10q-9 -6 -13 -9q2 -2 10 -8zM503 375l-3 3q-3 2 -4 3l-17 -20q0 -2 6 -10zM478 625q1 -1 2 -3q2 -2 2 -3q2 3 8 7l7 7q-1 1 -3 5q-2 -2 -8 -6q-6 -5 -8 -7z" glyph-name="zero" horiz-adv-x="586" unicode="0"/>
<glyph d="M249 725q-1 -9 -4 -26q-4 -29 -5 -43q-1 -15 -2 -45q0 -30 -1 -45q-3 -40 -7 -119q-6 -80 -8 -119q-3 -59 -10 -104v-7q0 -21 24 -53q8 -10 11 -15q10 -17 11 -30q0 -4 -1 -5q-10 -13 -35 -14q-28 0 -85 2q-38 2 -56 2h-19q-15 6 -42 20q2 3 5 10q8 18 15 22q49 27 55 94 q1 11 2 31t2 29q3 34 16 282q1 14 1 40v16q-2 5 -13 6q-7 -4 -22 -12t-22 -11q-6 -1 -6.5 -1.5t-8.5 0.5l-7 2q6 17 7 18q96 53 176 95q10 5 15 5q14 -2 14 -25zM183 559l-3 3q-1 2 -2 3q-4 -4 -14 -11q-21 -15 -27 -25q-5 -8 -5 -23v-11q1 -8 1 -11q0 -6 1 -20v-19 q17 14 32 29q1 2 5 11l-12 -3q-3 0 -9 -1q-7 -1 -10 -1q1 2 2 6q2 7 3 10q13 22 38 63zM168 261q-6 -2 -19 -5q-31 -7 -36 -22q-1 -5 -1 -10q0 -7 1 -10l3 -12q1 1 4 2q5 2 6 3zM225 708l-2 4q-2 3 -2 4q-10 -5 -29 -14q-29 -13 -43 -21q-3 -3 -5 -17q7 -2 10 -1q12 7 36 23 q23 15 35 22zM167 324q-5 -2 -17 -6q-29 -8 -32 -22q-1 -3 -1 -6q0 -9 2 -14q2 -4 10 -5q21 28 38 53zM138 206q1 -1 3 -4t3 -4q37 28 48 38q1 2 0 20q-2 -1 -6 -2q-7 -2 -10 -4q-8 -9 -25 -28q-9 -11 -13 -16zM153 182q-33 -8 -34 -8q-8 -6 -10 -23q1 -4 11 -16 q16 14 17 15q5 8 16 32zM192 622q-7 -3 -19 -8q-19 -9 -27 -14q-5 -4 -7 -27q0 -1 2 -4t2 -4q16 11 17 12q6 8 17 24zM178 184q-18 -29 -18 -30q-3 -12 4 -20q1 -2 3.5 -3t8.5 -1l6 -1q0 3 2 8q2 9 2 13q-1 8 -8 34zM154 287q1 -1 4 -3q2 -3 3 -4q36 31 40 35q1 2 0 16 q-2 -1 -6 -2q-6 -2 -8 -3q-3 -3 -33 -39zM207 401q-8 -7 -22 -20q-15 -14 -22 -20q31 4 36 8q9 8 9 22q0 7 -1 10zM162 524q1 -1 3 -4l3 -3q28 18 41 28q1 2 3 17q-7 0 -9 -1q-16 -14 -41 -37zM184 658q-1 1 -3 2l-3 3q-6 -5 -16 -16q-12 -11 -17 -16l5 -5q6 6 17 16 q12 11 17 16zM217 498l-10 8q-5 -4 -11 -12l-1 -1q1 0 5 -6q11 7 17 11zM125 347l3 -3q3 -1 4 -2l15 21l-8 3q-4 -5 -14 -19zM170 418q27 9 36 14q0 1 2 14q-13 -4 -12 -3q-10 -9 -26 -25zM170 418q1 4 2 14q1 9 2 13l-12 -6q-7 -4 -11 -6q-15 -8 -17 -11q-2 -6 -4 -30 q16 6 18 7q12 10 22 19z" glyph-name="one" horiz-adv-x="278" unicode="1"/>
<glyph d="M187 632h8q42 -2 52 -44q5 -24 5 -42q-1 -37 -21 -60q-21 -23 -62 -23q-50 1 -84 31q-16 15 -16 44q1 41 27 68q100 101 194 133q22 7 45 7q70 0 124 -54q17 -18 26 -35q22 -43 22 -86q0 -42 -21 -81q-38 -70 -105 -144q-34 -38 -173 -177q-14 -13 -24 -24q-1 -2 -6 -13 q8 -4 13 -4q89 0 133 3q14 2 33 23q13 13 37 39q17 20 26 29q3 3 21 10q1 -3 4 -9q6 -10 6 -15v-23q0 -23 -2 -64q-2 -11 -14 -18q-2 -1 -4 -1q-140 -3 -278 -3q-55 0 -111 3q-14 1 -21 13q-4 9 6 21q122 143 177 205q19 22 58 65q39 44 58 66q3 4 13 30q1 3 2 4q5 10 9 12 q32 16 33 46q0 12 -4 22q-1 5 2 9q2 3 7 9q6 8 6 10q-15 30 -28 40q-23 15 -62 15q-71 -1 -111 -37zM398 534q4 -7 11 -21q12 -22 18 -31q2 -2 18 -9q2 -1 3 -2q1 4 4 12q5 12 5 16q-1 3 -1 4q-7 13 -34 42q-6 8 -13 7q-2 -1 -9 -15q-2 -2 -2 -3zM122 501q20 6 52 16 q24 7 35 10l12 4q2 4 3 13q1 6 2 9l-16 -4q-2 -1 -7 -5q-8 -5 -11 -5q-6 2 -14 2q-17 0 -39 -24q-11 -11 -17 -16zM205 239l12 6l11 -11q3 -2 8 -4v9q-11 25 -26 53q-5 7 -11 9q-5 0 -11 -8q-1 -1 -1 -2q2 -7 18 -52zM381 382q-32 51 -39 61q-5 2 -15 -2q-6 -13 -2 -20 q8 -10 27 -28q11 -12 16 -17q4 -3 7 -2q2 2 6 8zM448 621q10 7 17 13q-3 3 -8 9q-13 16 -20 20q-1 0 -4 1q-3 0 -24 -9q-3 -1 -4 -2l24 -18q13 -10 19 -14zM477 582v5q-1 24 -20 24q-2 0 -7 -1h-6q-9 1 -13 4q-2 0 -13 -5l48 -33q1 -1 8 4l2 2h1zM187 215q-5 25 -6 27 q-2 5 -14 18q-1 -3 -4 -10q-5 -12 -6 -17q0 -7 8 -21q3 -4 12 -13q2 4 6 10q3 4 4 6zM163 571l-3 3q-1 2 -2 3q-47 -31 -53 -36q-1 -2 -3 -18h14l24 24q15 16 23 24zM284 318q-3 3 -33 39l-9 -9q9 -18 26 -49q9 11 16 19zM358 693q0 1 0.5 5.5t0.5 5.5q-13 1 -40 2 q-27 2 -40 3v-11q13 -1 39 -2q27 -2 40 -3zM377 428q-1 -2 -3 -4l-4 -4q2 -1 5 -3.5t5 -4.5t5 -4t5 -4t4 -3l4 -2l1 -1q7 0 32 38q3 3 4 5l-6 3q-4 3 -6 4q-16 -26 -18 -29q-6 -7 -17 -4q-3 2 -11 13zM302 339q-2 6 -4 18q-4 15 -6 22q-1 5 -8 13q-1 -1 -5 -4q-7 -6 -7 -8 q1 -3 21 -48q4 4 9 7zM229 330l-8 -15q8 -16 23 -45q10 13 10 15q-1 3 -25 45zM178 579q2 -2 5 -7q4 -4 5 -6q22 14 32 22q-1 1 -8 13q-6 -3 -17 -11q-12 -8 -17 -11zM113 140q1 0 4 1t4 1q-3 15 -11 42q-1 0 -9 -1q1 -7 4 -19q3 -13 4 -19q1 -2 4 -5zM308 360l-6 -3 q3 -6 9 -19l9 -18q1 -1 9 2q0 1 -16 35q-2 2 -5 3zM430 569q33 -29 35 -30q3 -3 10 1q2 10 1 13l-24 9q-14 4 -22 7zM112 580q0 -1 2 -3t2 -3q8 4 23 12q16 9 23 13q0 1 -1.5 3.5t-1.5 3.5q-7 -4 -23 -13q-17 -9 -24 -13zM90 140q-3 4 -7 9q-3 4 -4 5l-6 -6q-4 -5 -6 -7 q1 -1 3 -4t4 -3q4 1 16 6zM214 506q0 1 -2 4t-3 4q-5 -2 -13 -8q-9 -6 -13 -8q1 -1 2.5 -3.5t1.5 -3.5zM386 130q3 2 14 7l-4 4q-5 4 -7 5q-3 -1 -15 -9q4 -2 12 -7z" glyph-name="two" horiz-adv-x="526" unicode="2"/>
<glyph d="M351 320q-12 14 -25 29l-2.5 2.5l-2.5 2.5l-1 2q4 8 4 15q0 12 -21 28q-7 5 -10 8q-17 19 -40 19q-22 -1 -43 -15q-64 -47 -122 -86q-2 -1 -17 0v8q1 13 4 17q32 32 61 53q73 52 74 53q34 29 53 59q21 34 21 70q-1 30 -15 49q-13 16 -55 37q-5 3 -44 11q-3 1 -4 1 q3 -6 8 -17q9 -18 13 -27q5 -12 5 -25q-1 -43 -31 -69q-18 -16 -42 -16q-18 0 -38 8q-60 23 -61 66v5q1 3 1 4q5 37 31 61q4 3 7 5q62 37 144 65q20 6 41 6q60 0 88 -35q3 -4 5 -7q29 -51 29 -93q-1 -41 -24 -70q-20 -26 -20 -34q0 -10 28 -21q4 -2 9 -4q67 -27 83 -99 q4 -17 4 -35q-1 -97 -80 -187q-3 -4 -10 -12q-19 -23 -29 -26q-77 -23 -96 -25q-10 -1 -18 -1q-33 1 -61 15q-16 9 -61 45q-2 2 -1 21h8q12 -1 15 -4q36 -43 85 -44q58 0 94 54q4 6 7 12q9 17 49 115q2 3 3 6zM414 311l1 -3q-1 3 -1 5q-1 0 -3 -1q-4 0 -5 -1 q-24 -24 -46 -49q-1 -3 8 -11q40 9 45 42q1 6 1 13v5zM309 551l15 -3q5 26 13 77q0 1 -4 8q-6 -5 -7 -6q-11 -45 -17 -76zM94 590q11 8 13 10q26 26 38 40q1 2 3 12h-14q-22 -24 -41 -47q-1 -3 1 -15zM143 594q-4 6 -8 13q-2 4 -3 5l-39 -42q1 0 10 -10q5 4 40 34zM364 228 q-1 1 -4 3.5t-4 3.5q-21 -24 -24 -28q-20 -28 -29 -42q-1 -3 -5 -8l-4 -8q17 6 19 8q9 11 51 71zM65 578q32 52 49 82q-33 -8 -41 -45q-8 -36 -8 -37zM408 406q-12 16 -17 23q-5 -7 -15 -20q-11 -14 -16 -20q1 -1 4 -3q3 -4 4 -3q8 4 25 14zM162 605l-6 3q-4 -7 -10 -20 q-8 -14 -11 -21q1 -1 4 -3q3 -1 4 -2q3 7 9 22q7 14 10 21zM277 662q16 21 19 27q0 3 -7 12q-16 -16 -18 -19q0 -2 6 -20zM344 442q-7 6 -8 7q-12 -8 -17 -12l7 -9q8 6 18 14zM314 448q12 11 14 12l-12 6q-4 -1 -13 -9q3 -3 11 -9z" glyph-name="three" horiz-adv-x="466" unicode="3"/>
<glyph d="M41 359q-17 1 -21 8q-1 15 8 24q30 27 92 81q63 54 93 81q15 13 43 42q29 29 44 42q55 49 122 105q5 4 29 8q-1 -5 -2 -14q-1 -10 -2 -15q-1 -7 -4 -21q-5 -24 -6 -36q-15 -209 -23 -325q-6 -76 -6 -113v-13q1 -18 23 -40q5 -5 18 -12q24 -17 25 -32q0 -1 -0.5 -3.5 t-0.5 -3.5q-1 -9 -13 -13q-2 -1 -3 -1q-10 1 -26 1q-50 0 -107 -16q-10 -3 -21 -3t-70 11q-6 1 -10 2q-4 0 -4 17q1 3 1 4q3 7 15 15q46 32 46 93q0 18 -4 53v7q0 12 4 35q1 5 1 12q-2 20 -21 21q-6 0 -9 -1q-9 -1 -26 -1q-123 0 -185 1zM182 384v3q8 0 24 -1h24l36 2 q13 1 22 16q2 3 2 5q7 61 17 180q0 1 -3 13q-14 -7 -11 -5q-8 -7 -23 -21t-23 -21q-22 -19 -66 -58q-65 -57 -96 -85q-4 -4 -12 -19q22 -8 23 -8q30 -1 86 -1zM368 666q5 -1 14 -2q10 -1 15 -2q-2 -3 -5 -9q-6 -13 -10 -18q-9 -9 -45 -43q34 0 57 13q20 13 20 40v11 q-1 8 -1 11q0 11 3 20q0 2 -3 10q-7 -5 -23 -15q-15 -11 -22 -16zM389 251q-1 7 -3 16q-2 6 -2 8q-15 -8 -18 -10q-26 -21 -32 -28q-1 -1 -26 -35q6 2 20 8q14 5 20 7q18 7 23 12q2 2 18 22zM329 498q13 18 36 47q15 18 21 26q2 3 4 10q-2 0 -5 1q-5 1 -7 0q-38 -7 -46 -36 q-3 -13 -3 -32v-16zM364 206q-1 0 -3 2t-3 2q-4 -3 -13 -8q-23 -14 -30 -23q-4 -6 -4 -19v-17v-5l17 3q6 9 36 65zM331 288q44 6 56 24q4 8 6 17q0 4 -2 12l-8 -3q-19 -17 -52 -50zM383 183q-1 1 -4 1q-3 2 -4 2q-20 -31 -23 -36q0 -1 1 -17q22 6 23 8q2 6 7 42zM352 472 q0 -1 2 -3t2 -3q37 21 48 29q2 2 4 19q-13 -6 -14 -6zM368 439q-2 1 -4 5l-5 5q-23 -13 -26 -16q-3 -2 -13 -22q-1 -2 -2 -3q4 2 11 6q8 5 11 7q11 7 28 18zM390 379q10 16 12 21q0 2 -6 10q-4 -4 -12 -10q-7 -8 -11 -11q5 -3 17 -10zM382 544q1 -2 4 -4q2 -3 3 -4 q12 11 22 22q-1 1 -4 10q-5 -4 -13 -12zM364 636q-1 1 -4 2l-3 3q-4 -5 -13 -15l-12 -15l3 -3q2 -1 3 -2q4 5 13 15t13 15zM344 307l-6 6q-5 4 -7 6l-21 -27l4 -4q5 3 15 10zM318 335l5 -5q4 4 12 10l12 9l-3 3q-2 3 -3 4q-4 -4 -11 -10q-8 -8 -12 -11zM304 238l9 -6 q3 4 8 12q6 8 8 11l-3 3q-2 1 -3 2q-3 -4 -9 -11q-7 -8 -10 -11z" glyph-name="four" horiz-adv-x="493" unicode="4"/>
<glyph d="M53 544v169q0 1 1 1v1q-2 18 -2 21q4 11 16 12h9q10 -1 16 -1q35 -2 101 -2q56 0 83 1q6 0 178 9h2q29 -3 31 -29q0 -24 -15 -103q-2 -5 -15 -5q-4 0 -5 1q-12 10 -22 26q-43 74 -131 75h-14q-16 -1 -47 -1q-32 0 -47 -1q-8 0 -14 -12q-1 -2 -1 -3q-1 -25 -2 -74 q-1 -75 -3 -112v-10q2 -11 11 -12q7 0 10 1q114 12 122 13h16q15 0 38 -2q88 -9 115 -107l4 -20q3 -19 3 -36q0 -91 -56 -167q-44 -59 -104 -76q-27 -7 -60 -7q-20 0 -38 3q-100 20 -187 82q-26 20 -26 57q1 46 30 81q23 25 67 25q38 -1 61 -19q31 -26 31 -67 q-1 -34 -22 -62q-4 -5 -11 -10q-22 -17 -29 -22q32 -17 34 -18q17 -5 32 -5q56 0 92 42q2 3 4 5q50 68 50 142q0 24 -7 55q-16 60 -103 78q-17 3 -32 3q-68 -1 -121 -64q-3 -4 -14 -12q-1 2 -5 5q-8 9 -9 13q-5 47 -13 138h-2zM113 187q49 0 67 38q3 7 4 13q2 12 2 18 q-1 33 -28 51q-15 8 -33 8q-43 -1 -61 -25q-4 -7 -4 -17v-11q1 -8 1 -11q0 -4 -1 -11v-9q0 -35 27 -42q11 -2 26 -2zM293 133h3q27 0 76 51q30 31 38 52q-36 -5 -69 -49q-33 -43 -48 -54zM466 710l-2 4q-4 12 -7 12q-11 0 -45 -7q2 -4 7 -13q5 -8 7 -12t5 -7q4 -5 11 -15 l12 -15q2 7 6 20q4 14 6 20v13zM386 295q0 -1 2 -3.5t3 -3.5q41 19 50 26q6 4 22 29q2 3 3 4l-9 6q-48 -38 -71 -58zM152 627q-1 5 -2 12q-1 4 -1 6q-8 -2 -11 -4q-15 -13 -40 -38q-1 -2 -3 -9l8 -2q34 24 49 35zM140 704q-19 -18 -54 -49q5 -5 7 -5q6 4 19 11q23 12 33 19 q2 2 4 18l-2 2q-5 2 -7 4zM146 538q-36 -50 -44 -60q44 11 46 41q0 12 -2 19zM434 215q-1 1 -2 3l-3 3l-27 -27q-19 -18 -28 -27q1 -1 2 -3l3 -3l27 27q19 18 28 27zM101 558l11 -11q7 7 22 19q14 14 21 20q-2 2 -5 6l-5 5q-7 -7 -22 -19q-15 -14 -22 -20zM122 538l-25 -14 q-5 -6 -11 -26q0 -3 4 -8q15 15 17 18q3 4 7 13q5 11 8 17zM409 277q-1 1 -3 4t-3 4q-7 -6 -20 -19q-14 -12 -20 -18q1 -2 3 -4q3 -2 4 -3zM333 474v11q-5 -1 -17 -1q-12 -1 -17 -1l3 -9h31zM424 364l5 -5q11 10 30 29q-1 1 -4 8q-5 -4 -14 -12q-10 -8 -14 -12q-1 -1 -2 -4z M410 375q-2 1 -4 3q-4 3 -5 4q-12 -16 -17 -24q-1 -1 3 -7l1 -1q4 4 11 12q8 9 11 13zM90 697q3 3 8 7q6 4 8 6q-10 6 -16 7q-4 -1 -10 -7q1 -1 4 -5q4 -6 6 -8zM82 613q1 -1 4 -3q3 -1 4 -2q2 4 8 12q6 7 8 11q-1 1 -3 2q-2 2 -3 2q-3 -4 -9 -11t-9 -11z" glyph-name="five" horiz-adv-x="511" unicode="5"/>
<glyph d="M435 649q1 3 1 8q0 27 -31 47q-5 3 -10 5q-38 18 -80 18q-85 0 -135 -60q-25 -32 -33 -73q-1 -7 -7 -21q-7 -19 -7 -27q0 -5 1 -7q3 -9 3 -17q0 -3 -8 -39q-2 -7 -2 -12t11 -9h3q9 3 26 12q12 6 17 8q58 24 107 24q69 -1 128 -43q20 -14 48 -68q10 -18 16 -28l6 -12 q1 2 5 5q3 4 4 6q1 1 2 3q2 3 3 4q3 0 10 -3q-3 -10 -4 -11q-23 -7 -26 -39q-1 -1 -1 -5q-1 -7 -1 -10q-25 -159 -192 -208q-6 -2 -16 -2q-17 0 -75 21q-7 2 -12 4q-121 40 -155 167q-11 40 -11 83q0 44 11 86q26 95 73 182q40 70 148 107q35 11 66 11q46 0 86 -20 q53 -28 54 -87v-7q-3 -61 -52 -101q-34 -27 -71 -27h-7q-35 3 -72 28q-11 8 -11 37q0 49 20 69q4 3 7 5q54 26 96 28h1q14 0 54 -25q7 -4 12 -7zM378 244q-2 0 -6 2q-3 2 -5 2q14 26 14 52q0 20 -17 80q-5 17 -7 29l-19 5q-3 0 -4 1q-13 6 -19 14q-2 4 -5 13q-5 13 -9 16 q-22 15 -47 15q-24 0 -80 -24q-6 -3 -9 -4q-28 -11 -39 -36q-2 -4 -3 -7q0 -1 -1 -3v-3q0 -6 13 -42q2 -6 3 -11q2 -7 2 -24q1 -25 6 -35q30 -55 81 -127q21 -27 53 -28q26 1 43 20q14 17 47 81q5 8 8 14zM303 557q10 -12 12 -13q8 -3 13 -3q8 0 13 17q1 1 1 2q4 15 32 57 q6 9 10 16q1 3 3 17q-19 -3 -20 -4q-3 -4 -33 -31q-29 -27 -31 -58zM187 145q-25 43 -32 52q-2 2 -16 7q-2 1 -3 1q0 -3 -2 -9q-3 -13 -1 -15q6 -5 54 -36zM403 288q5 6 17 17q20 20 29 31q1 2 6 18q-2 0 -6 -1q-7 0 -10 -1q-36 -13 -36 -56v-8zM353 647l-15 6q-15 0 -18 -2 q-8 -7 -34 -33q2 -1 5 -3q7 4 22 11q24 12 40 21zM418 438q-3 -4 -9 -11q-9 -11 -11 -16q-1 -3 6 -17q5 2 16 7q10 5 15 7l-9 15q-5 10 -8 15zM45 367q1 0 3 -1q3 -1 4 -1q17 33 20 38q2 5 4 14h-14q-3 -9 -10 -28q-5 -15 -7 -22zM379 200q1 -4 3 -11t3 -10q16 20 23 31 q0 2 -5 11zM455 282q-2 2 -5 4q-4 3 -5 4q-5 -6 -16 -20q-11 -13 -16 -19q1 -1 5 -3l4 -4q6 6 16 19q12 13 17 19zM146 226l-18 11q-10 -6 -16 -17q0 -2 5 -11q3 2 9 5q12 7 20 12zM371 466q-1 -2 -5 -6q-5 -6 -5 -9q3 -10 12 -13q2 0 16 6l2 1q-10 10 -20 21zM74 433 q19 19 21 22q0 2 -3 12q-4 -3 -11 -11q-8 -7 -11 -10q1 -2 4 -13zM76 508l8 -8l12 12q7 8 11 12l-7 7q-4 -4 -12 -11zM116 275q-2 2 -4 5q-4 5 -5 6q-3 -2 -8 -6q-6 -5 -8 -7q1 -1 2.5 -3t2.5 -4l2 -1q3 1 18 10zM437 362q15 8 17 10q0 2 -6 12l-12 -9q-1 -3 1 -13z" glyph-name="six" horiz-adv-x="533" unicode="6"/>
<glyph d="M109 483h79h39q11 1 17 12q39 104 72 199q3 8 3 13q-2 11 -17 12h-6q-21 -2 -63 -5q-70 -5 -105 -9q-13 -2 -31 -27q-8 -12 -23 -36q-8 -14 -12 -20q-6 -8 -13 -10q-3 0 -8 8q-1 3 -1 4q-8 78 -8 86v7q0 9 18 19q6 2 10 3q124 8 223 11h19q41 0 120 -4q40 -3 41 -35 q0 -12 -2 -18q-1 -4 -17 -37q-2 -4 -3 -7q-15 -39 -46 -117t-46 -117q-60 -149 -80 -194q-7 -18 -7 -26q1 -17 15 -33q5 -5 16 -37q1 -1 1 -2q-4 -2 -13 -5q-19 -8 -28 -9q-93 -9 -188 -15q-17 -1 -30 6q-3 2 -14 18q-1 1 -1 2q2 1 6 4q9 6 13 6q39 3 59 41q22 46 69 138 q35 69 52 103q1 2 10 39q1 3 1 4q-7 0 -21 -0.5t-21 -0.5h-89h-44q-3 0 -12 14l-2 2q2 1 5 4q7 5 10 5h18h35v4zM189 193q1 1 1 3q1 1 1 2l-33 15l-6 -7q-6 -9 -5 -13q7 -15 35 -64h2q20 16 28 25q2 2 -11 15l-2 2q-10 8 -39 26q14 -2 29 -4zM300 398l-30 25q-9 7 -12 7 q-7 -2 -12 -16q-3 -8 -3 -15q0 -17 25 -38q7 -6 10 -9q2 -2 16 -3h2q0 3 1 8q0 14 -2 18q-2 3 -22 16q-1 2 -2 2l15 3q9 1 14 2zM352 590q-12 17 -16 21q-4 3 -20 12q0 -3 -2 -9q-2 -14 0 -18q15 -26 38 -52q3 -2 21 1l-6 20q-2 2 -45 25h30zM303 490l-28 -14q9 -6 25 -20 q17 -14 25 -20q1 3 5 9q5 11 4 14q-3 5 -28 28zM244 235q12 16 12 17q1 9 -4 14q-24 13 -46 21q-2 -1 -11 -9q6 -5 16 -15q22 -19 33 -28zM401 725q-12 -6 -21 -12q39 -22 41 -23q2 0 17 11q-14 9 -37 24zM386 683q-7 -3 -15 -8q-9 -4 -12 -6q7 -7 21 -19l21 -18q1 2 5 5 q5 5 5 6q-4 7 -14 22q-7 12 -11 18zM227 196l9 7q-1 14 -2 15q-24 12 -55 24q-2 -1 -6 -8q9 -6 27 -19t27 -19zM232 287q4 2 9 5q3 2 4 3q-25 20 -33 25q-3 0 -15 -13q6 -3 17 -10q12 -7 18 -10zM349 642q-1 -2 -3 -4q-3 -2 -4 -3q4 -4 12 -13q15 -17 23 -25q2 -1 14 0 q0 10 -2 13q-11 9 -40 32zM285 494q5 3 13 8q7 5 10 7q-4 4 -10 11q-8 8 -11 12l-5 -10q-5 -10 -7 -15q1 -2 10 -13zM240 339q-1 -1 -2 -3q-2 -2 -2 -3q3 -3 9 -10q11 -13 17 -19q3 -3 13 -5h1q0 18 -1 19q-6 4 -35 21zM57 679q1 -1 5 -1q4 -2 5 -2q3 6 11 18q8 13 11 19 q-22 0 -24 -2q-4 -6 -8 -32zM141 131q-3 6 -8.5 15.5t-7.5 13.5l-12 -24q-1 -2 6 -6q4 -3 8 -4q2 0 14 5zM320 540l-2 -2q-2 -2 -3 -2l27 -30q2 0 7 3q-16 20 -24 29q-1 1 -5 2zM250 136l11 9l-15 15q-6 -10 -8 -15q1 -1 12 -9zM353 713q-1 0 -3.5 -0.5t-3.5 -0.5 q0 -4 -1 -14q-1 -9 -1 -13l11 1q0 10 -2 27z" glyph-name="seven" horiz-adv-x="483" unicode="7"/>
<glyph d="M225 90q-102 17 -112 19q-55 14 -81 74q-12 29 -12 58v9q7 90 82 190q4 6 4 20q-1 16 -5 19q-41 28 -50 93q-1 8 -1 22q0 76 55 124q30 25 68 34q17 4 39 4q81 0 139 -57q43 -44 48 -99q0 -3 1 -9v-8q-1 -69 -50 -109q-10 -10 -11 -14q2 -6 14 -11q56 -18 83 -108 q12 -41 12 -81q0 -28 -5 -44q-18 -64 -93 -99q-43 -20 -90 -22h-34v-3q-1 -1 -1 -2zM138 253q6 -32 7 -35t14 -16q5 -5 6 -9q12 -46 55 -55q8 -2 15 -2t18 2q31 7 57 48q2 2 4 6q6 10 9 14q7 12 7 16q-2 8 -17 9q0 1 -1 14q21 17 21 48q0 13 -1 20q0 1 -9 12q-1 1 -1 2 q-8 12 -9 19q-1 5 -1 17q-1 17 -5 23q-15 18 -50 44q-15 10 -29 10q-25 -1 -40 -25q-50 -81 -50 -154v-8zM275 606q-1 4 -4 15q-9 28 -12 44q-6 36 -56 49q-3 0 -5 1h-1q-6 0 -31 -46q-3 -4 -4 -7q-5 -10 -5 -25v-8q1 -17 5 -51q5 -35 6 -52q4 -32 38 -36q7 -1 18 -1 q34 2 41 30q2 8 9 82q1 3 1 5zM426 257q0 2 -1 9q-2 8 -2 11q-2 16 -4 41q-15 -9 -40 -26q-3 -3 -12 -14q14 0 20 1l6 3q4 1 6 2q3 1 14 3q-1 -15 -1 -16q-6 -7 -18 -19t-17 -18q-17 -20 -33 -44q0 -4 5 -10h1q22 0 54 35q21 24 22 42zM359 616q-25 -19 -57 -49q-3 -5 1 -13 q1 0 4 -1q20 0 49 28q17 18 18 30q0 1 -2 2t-5 2t-5 1h-3zM66 330q-10 -6 -17 -55q-2 -13 -2 -24q0 -14 2 -20q2 -3 11 -12q2 4 7 12t7 12q-14 9 -15 15q0 4 13 20q5 7 6 11q0 3 2 9q2 8 1 11q-1 2 -12 17q-2 3 -3 4zM369 569q-39 -41 -58 -62q-1 -2 -3 -14q15 1 16 1 q33 23 41 42q4 11 4 24v9zM145 655l-21 6q-31 -19 -42 -28q-3 -3 -5 -23l10 -3h1q10 8 31 26q17 14 26 22zM291 453q-1 -1 -2 -4q-2 -3 -2 -4q27 -25 33 -28q4 -2 24 2h3q0 1 -1 9q-12 6 -55 25zM378 173q-2 1 -4 5q-3 4 -4 5q-9 -6 -27 -17l-27 -18q-2 -2 -6 -11 q11 -3 12 -2q27 17 56 38zM78 164q7 2 17 5q15 4 21 6q8 5 9 15q0 2 -7 16l-17 -9q-4 -5 -23 -33zM155 708l-2 4q-2 2 -2 3q-5 -3 -16 -7q-19 -9 -27 -14q-2 -3 -2 -16l9 -3l2 1q20 15 38 32zM367 327l3 -3q1 -2 2 -3l31 20q1 3 1 18q-15 -3 -16 -4q-8 -9 -21 -28zM246 730 q20 -22 27 -28q9 -6 14 -5q2 1 12 9l-4 4q-5 6 -8 8q-2 1 -41 12zM136 546q-17 11 -18 11q-9 -8 -20 -23q1 0 7 -6q5 2 17 9q9 6 14 9zM320 636l6 -9q6 3 16 9q12 7 17 10l-6 10q-12 -7 -33 -20zM129 153l-10 14l-9 -9q-7 -5 -10 -8q12 -8 18 -10q1 -1 6 6q4 5 5 7zM352 380 q1 -2 3 -5q2 -4 3 -5q5 3 16 8l15 9l-7 9q-5 -2 -15 -8t-15 -8zM152 403q0 1 -2 5q-2 3 -2 4q-6 -3 -17 -9q-12 -6 -17 -9q0 -1 1.5 -3.5t1.5 -3.5q6 3 17 8q12 6 18 8zM113 240q-1 1 -3.5 4t-3.5 4q-4 -4 -10 -12q-8 -7 -11 -11l4 -5q4 4 12 10q8 7 12 10z" glyph-name="eight" horiz-adv-x="467" unicode="8"/>
<glyph d="M317 328v62q0 42 -1 63q-3 15 -13 16q-5 -1 -14 -5q-34 -21 -81 -21q-78 0 -131 49q-11 10 -19 21q-24 34 -24 80q1 76 53 126q42 39 96 39q40 0 103 -23q97 -35 131 -146q4 -14 8 -30q17 -75 17 -132q-1 -96 -43 -175q-70 -127 -221 -152q-45 -7 -57 -7q-35 1 -63 20 q-37 28 -38 76q1 47 38 70q41 25 81 27h3q56 0 63 -60q1 -8 1 -16q0 -22 -4 -40q-1 -6 -1 -28q3 2 10 4q14 7 19 11q54 51 87 171zM122 600q5 -23 19 -90q1 -3 8 -7l1 -1q52 -24 69 -25q16 1 32 9q50 28 56 42q2 4 2 6v11q0 40 -22 94q-28 68 -73 69q-13 0 -23 -4 q-35 -12 -55 -62q-2 -7 -14 -42zM334 293q8 4 20 12q18 11 25 11h2q4 -1 9 -1q14 0 17 19v3q1 4 1 5q1 9 -1 25l-12 -6q-18 -10 -25 -16q-6 -6 -32 -46zM95 145q1 -2 3 -7q3 -4 4 -6l21 9q28 10 40 18q4 2 8 25q0 4 1 6q-3 -1 -10 -1q-13 -1 -17 -4q-8 -6 -50 -40zM303 217 q66 11 73 62q1 5 1 10v6q-13 -14 -37 -39q-25 -26 -37 -39zM115 201q43 18 58 26q4 2 -4 19q-2 3 -3 5q-7 7 -20 4q-2 -1 -3 -2q-10 -9 -31 -37q-6 -9 -6 -10q1 -1 9 -5zM354 391q0 -2 2 -5q2 -4 2 -6q48 24 53 27q2 2 4 15q-13 0 -15 -1q-17 -11 -46 -30zM150 725l-3 3 q-2 3 -3 4l-45 -39l7 -6q8 7 22 19q15 13 22 19zM364 498l21 7q11 11 22 27q-1 1 -4 8q-23 -18 -26 -21q-2 -2 -6 -9.5t-7 -11.5zM347 662q-20 16 -31 23q-2 0 -9 -6l6 -9q7 -11 11 -15q2 0 23 7zM384 597q-3 -4 -9 -11q-8 -10 -10 -14q0 -2 6 -10q16 12 23 19q-1 2 -10 16z M96 167l-4 4q-2 3 -3 4l-27 -24l8 -7q4 3 26 23zM67 237q1 -1 3 -5q1 -4 2 -5q7 3 20 10q14 7 21 10q-1 1 -2.5 3.5t-1.5 3.5q-7 -3 -21 -8zM98 514q2 0 6 1q3 1 5 1q-1 6 -4 17q-3 12 -4 17q-1 0 -5 -1t-5 -1q1 -6 3 -17q3 -12 4 -17zM375 470l-7 7q-4 -3 -10 -10 q-8 -7 -11 -10l8 -8q3 3 10 11z" glyph-name="nine" horiz-adv-x="462" unicode="9"/>
<glyph d="M119 145q0 -37 -41 -44q-8 -1 -16 -1q-27 0 -38 28q-3 9 -4 17q0 18 30 36q17 11 30 11q22 0 34 -26q5 -11 5 -21zM71 124q-1 0 -1 0.5v0.5h-1q9 22 14 40q0 2 -2 8q-7 -3 -8 -4q-7 -15 -19 -42q-1 -5 4 -8q2 0 4 -1h4q31 2 32 32q0 7 -1 11q-4 -5 -11 -16 q-11 -14 -15 -21zM55 155q-1 1 -3.5 2.5t-3.5 1.5q-2 -3 -4 -10q-4 -7 -5 -10q0 -1 3 -3l1 -1q2 3 6 10t6 10zM20 426q0 37 41 44q8 1 16 1q27 0 38 -28q3 -9 4 -17q0 -18 -30 -36q-17 -11 -30 -11q-22 0 -34 26q-5 11 -5 21zM68 447l1 -1h1q-9 -22 -14 -40q-1 -3 1 -8 q8 3 9 4q7 15 19 42q1 5 -4 8h-4q-3 1 -4 1q-30 -3 -32 -31q0 -7 1 -11q4 6 12 17q10 13 14 19zM84 416q1 0 3.5 -2t3.5 -2q1 4 5 10q3 7 4 10q0 1 -3 3l-2 1l-5 -10q-4 -7 -6 -10z" glyph-name="colon" horiz-adv-x="138" unicode=":"/>
<glyph d="M21 415q0 36 40 44q8 2 17 2q27 0 38 -28q3 -9 4 -17q0 -18 -30 -36q-17 -11 -30 -11q-23 0 -35 27q-4 10 -4 19zM69 437q1 0 1 -1h1q-9 -22 -14 -40q-1 -3 1 -8q7 3 8 4q14 28 20 42q1 5 -4 8h-4q-3 1 -4 1q-31 -2 -32 -32q0 -7 1 -11q4 5 11 16q11 14 15 21zM85 406 q1 0 3.5 -2t3.5 -2q2 4 4 10q4 7 5 10q0 1 -3 3l-2 1q-2 -4 -6 -10q-3 -7 -5 -10zM73 190h1q29 0 42 -30q5 -12 5 -23q0 -14 -6 -26q-26 -49 -54 -61q-4 -1 -15 1q6 11 7 13q3 4 11 13t11 13q3 8 -7 9q-37 0 -46 31q-2 7 -2 14q0 26 28 40q12 6 23 6h2zM73 116q17 4 26 25 q3 6 3 10q0 1 -1 4q-1 2 -3 3q-2 -1 -3 -2q-8 -14 -22 -40zM84 169q-2 -5 -8 -15q-5 -9 -7 -14q-1 -3 -3 -8q10 7 8 5q5 9 13 26q1 2 1.5 5t-0.5 3q-12 4 -14 5q-1 -1 -2 -5q2 -1 6 -1.5t6 -0.5zM65 174q-27 -8 -27 -24q0 -5 1 -8q3 4 9 11q11 14 17 21zM46 119q4 7 20 33 q1 3 1 6q-1 0 -3 -1q-3 -1 -4 -2q-2 -3 -15 -24q0 -3 1 -12z" glyph-name="semicolon" horiz-adv-x="140" unicode=";"/>
<glyph d="M20 464l6 11q18 21 56 61q37 41 55 61q8 9 23 27q15 19 23 28q2 1 17 3q-3 -15 -4 -16q-24 -28 -71 -85q-48 -56 -71 -84q-3 -6 0 -14q20 -26 60 -76l60 -75q1 -3 -4 -20q-11 3 -12 4q-68 105 -132 162q-2 3 -6 13z" glyph-name="less" horiz-adv-x="219" unicode="&lt;"/>
<glyph d="M231 462h-132h-66q-4 1 -13 8q1 1 3 4q5 5 7 6q31 1 92 1l198 3q4 0 17 -5l-6 -6q-7 -7 -11 -8q-19 -2 -58 -4q-21 -1 -31 -2v3zM129 355q137 0 205 -1q2 -1 13 -8q-1 -1 -4 -5q-4 -4 -6 -5q-62 -2 -95 -2q-34 0 -102 -1t-102 -1q-5 0 -18 5q2 1 5 5q9 8 13 9q1 0 91 6 v-2z" glyph-name="equal" horiz-adv-x="367" unicode="="/>
<glyph d="M30 641q2 -2 10 -4q10 -4 11 -10q0 -4 -1 -6q-1 -7 7 -19q56 -78 91 -107q7 -6 14 -11q5 -5 3 -14q-19 -28 -56 -84q-38 -55 -56 -83q-1 -2 -2 -9t-3 -10q-5 -5 -19 -13q-1 0 -9 1l3 17q11 17 35 49q24 33 35 49q24 35 49 76q2 5 -2 12l-33 39q-41 49 -61 73 q-10 12 -23 35q-3 7 -2 13q2 3 9 6z" glyph-name="greater" horiz-adv-x="185" unicode="&gt;"/>
<glyph d="M428 602q-1 -96 -67 -151q-42 -35 -165 -127q-2 -1 -19 -3q1 3 2 8q3 10 6 13q9 7 28 20q27 19 39 29q86 76 86 189q0 54 -48 94q-20 17 -43 24q-20 6 -38 6q-66 -2 -104 -54q-5 -8 -6 -13q2 -6 15 -8q55 -9 72 -66q3 -11 3 -21q-1 -39 -41 -70q-16 -11 -38 -11 q-39 1 -61 22q-29 30 -29 60q1 25 17 57q63 122 168 147q15 3 30 3q42 0 104 -21q79 -27 89 -127zM47 531l3 -3q2 -3 3 -4q3 2 8 6q6 4 8 6q46 34 57 41q2 1 17 0q-2 -1 -5 -5q-4 -4 -6 -5q-42 -34 -62 -52q-2 -3 -4 -14q1 0 5 -1q7 -1 9 0q35 23 71 50q10 10 10 19 q-13 17 -29 29q-2 0 -18 -11q-2 -2 -7 -4q-7 -5 -10 -7q-9 -8 -25 -22q-17 -16 -25 -23zM119 482q35 33 45 43q1 2 0 16q-11 -3 -13 -4q-3 -2 -48 -36q-1 -1 -9 -13q14 -3 25 -6zM410 573q1 3 4 7q2 6 3 8q-3 1 -9 4q-13 5 -16 4q-6 -4 -26 -25l-3 -3q2 -2 7 -8 q11 -11 13 -11q4 2 24 21zM354 635q13 9 30 22q-18 13 -17 13h-4q-5 -1 -22 -16q-2 -1 -3 -2q5 -6 16 -17zM344 464q8 10 21 25q9 10 13 15l-10 8q-4 -4 -11 -13q-11 -13 -16 -19q0 -3 3 -16zM60 568q9 8 24 20q12 10 17 14q-1 0 -3 2t-3 2q-8 -7 -24 -20q-9 -8 -13 -11 l2 -5v-2zM328 703l-11 -15q1 -7 10 -11q2 -1 3 -1q2 0 18 11q1 1 2 1l-9 6q-9 6 -13 9zM206 100q-22 0 -40 27q-9 14 -9 26q0 31 35 55q21 15 40 15q20 0 39 -27q10 -14 10 -26q-6 -67 -75 -70zM237 174q1 -1 2 -4q-42 -36 -43 -37q-2 -1 -3 -5t-1 -5q11 0 12 1q3 2 57 39 q2 3 4 10l-3 1h-2q-6 -2 -11 -5q1 3 2 7q2 4 2 6q2 7 1 10q-4 4 -9 5q-2 -1 -6 -8l-3 -5q-30 -5 -50 -34q-6 -9 -8 -16l36 24q16 11 23 16zM225 196h-3q-45 -1 -46 -36q23 17 49 36zM216 121q0 -1 2 -3q2 -3 2 -4q4 3 13 8q14 8 21 13q1 2 1 12q-1 0 -4 -1q-4 0 -5 -1 q-3 -2 -30 -24z" glyph-name="question" horiz-adv-x="447" unicode="?"/>
<glyph d="M359 405q0 -17 1 -53v-52q0 -2 3 -12q1 1 5 4q5 3 6 4q34 52 34 108q-1 47 -24 94q-10 21 -13 39q-5 35 -48 70q-17 13 -37 13q-23 0 -52 -15q-78 -37 -105 -114q-36 -104 -40 -160q0 -3 -1 -7v-8q1 -69 45 -146q24 -39 94 -46q7 0 16 -1q28 -2 41 -2q43 1 70 16 q8 4 55 41q3 3 5 4q6 4 13 7q3 -22 3 -21q-1 -1 -1 -2q-50 -66 -149 -66q-21 0 -31 1q-103 7 -152 61q-1 2 -2 3q-55 65 -70 168q-5 34 -5 62q0 30 6 57q21 80 79 125q86 63 182 63h8q48 -2 82 -28q83 -66 98 -137q4 -21 4 -44q0 -94 -62 -153q-34 -31 -78 -42q-7 -2 -18 -2 q-30 1 -45 34q-3 4 -14 4q-27 -10 -47 -10q-27 1 -46 14q-34 25 -34 76q0 17 1 25q6 65 53 82q4 1 7 2t7 1q46 2 135 8h3q18 -2 19 -20v-45h-1zM271 368h1v12q1 9 1 13q0 8 -1 12q-7 23 -18 28q-6 2 -12 2q-16 -1 -23 -7q-22 -21 -22 -59q0 -51 33 -74q4 -2 7 -4q3 -1 6 -1 q10 0 24 8q7 4 8 17q0 11 -2 32q-2 14 -2 21zM80 506q-4 0 -7 -3q1 -7 5 -16q7 -14 6 -16q-4 -3 -12 -4q-23 -2 -24 -7q1 -5 11 -22q3 -8 -2 -17q-2 -1 -16 -6q11 -13 13 -15q11 -9 12 -16q-2 -7 -11 -13q-3 -1 -1 -10q1 -2 1 -3q3 -4 13 -12q1 2 3 5l3 9q22 95 28 116 q2 10 2 12q-2 15 -24 18zM290 433l7 -15q4 -1 13 3q16 7 21 11q3 3 7 15l-28 3h-4q-4 -1 -5 -1q-3 -2 -11 -16zM324 359q17 5 17 29v16q-1 1 -7 12q-2 -3 -7 -7q-8 -8 -8 -14q0 -8 5 -36zM341 317q-2 7 -3 14q-1 3 -1 4q-1 -1 -5 -1q-5 -2 -6 -3q-10 -11 -23 -30 q-1 -2 4 -10q24 18 34 26zM460 469q-3 3 -6 7q-4 5 -5 6q-17 -17 -25 -26l5 -7q11 7 31 20zM432 326q-11 5 -12 4q-13 -15 -19 -24q1 -1 4 -6q17 17 27 26zM378 592q-1 0 -3 -2l-3 -3q7 -15 16 -29q2 -1 11 -3v10zM152 392q2 -3 6 -7q3 -5 4 -6q2 2 8 7q6 4 8 6q-1 1 -4 5 q-4 4 -6 5q-5 -1 -16 -10zM462 426q-2 4 -5 8q-1 3 -2 4q-10 -14 -14 -21q1 -2 6 -7q10 10 15 16zM413 544q-9 -9 -11 -13q0 -2 7 -8q9 5 17 11q-2 2 -6 4q-5 4 -7 6zM89 205q1 1 4 2l-3 15q-3 7 -9 13q-1 0 -7 -1l6 -15q2 -3 4 -7q4 -5 5 -7zM150 565q-2 1 -5 4q-5 5 -7 5 q-6 -3 -8 -9q1 -2 9 -11zM320 280q-1 0 -2 2q-2 1 -3 1q-2 -3 -7 -9q-4 -5 -6 -8q2 -1 4 -3q3 -2 4 -3zM63 298q1 0 3 1q3 1 4 1q-1 2 -2 8q-2 10 -4 14q-1 0 -9 -1q1 -4 4 -11q3 -8 4 -12zM176 292q5 15 5 18q0 2 -3 4l-2 2l-10 -10q-1 -1 3 -5q5 -6 7 -9zM115 517l9 12 q-1 4 -8 7q-4 1 -8 -4q1 -3 3 -8q3 -5 4 -7z" glyph-name="at" horiz-adv-x="499" unicode="@"/>
<glyph d="M94 104q-39 0 -59 1q-3 1 -15 9q10 13 12 14q6 3 13 2q11 -3 19 -3q27 0 45 36q3 6 8 19q11 27 99 210q7 15 13 27q70 148 102 224q1 3 1 7q-1 8 -14 41q-1 3 -24 48q46 7 54 8h10q3 0 60 -3q2 0 8 -1q12 0 14 2q12 14 28 14l41 -12q10 -4 14 -16q13 -37 29 -97 q3 -11 8 -34q6 -28 10 -42q72 -216 101 -298q13 -36 49 -123q6 -13 6 -21q-2 -10 -20 -10h-7h-7q-13 0 -74 -12q-5 -1 -8 -2q-5 -1 -13 1q-38 12 -49 16q-3 1 -15 12q14 11 15 11h5q19 1 20 14q0 9 -4 18l-93 276q-6 15 -25 21q-4 1 -7 1q-50 2 -76 2t-75 -2q-17 0 -28 -14 q-1 -3 -2 -4q-88 -183 -108 -233q-1 -3 -2 -5q-2 -5 -2 -14q0 -17 17 -64q3 -9 3 -15q-4 -10 -20 -10h-57v1zM369 485h50q35 3 37 12q-1 6 -9 28q-3 6 -6 20q-2 8 -3 11q-9 28 -44 122q0 1 -4 1.5t-8 0.5t-4 -1q-37 -71 -87 -177q-3 -4 7 -13l6 -3q12 -1 32 -1h33zM666 229 q-2 3 -5 9q-7 11 -11 14q-5 2 -19 -8q-30 -26 -42 -41q-3 -6 -1 -27h8q9 1 12 2q15 11 44 36q6 5 14 15zM543 571q-13 21 -16 25q-3 2 -15 -6q-30 -26 -37 -36q-2 -4 -2 -11q0 -9 2 -24l8 -6q10 10 30 29t30 29zM604 360q-7 -9 -23 -27q-23 -27 -34 -41q-1 -3 7 -17 q4 -2 12 4q40 36 51 47q5 6 5 22q-2 3 -18 12zM565 247l8 -19q5 -2 13 3q32 24 47 38q1 1 2.5 4t2.5 6t1.5 5.5t-0.5 2.5q-20 14 -25 13l-14 -14t-11 -11.5t-13 -15.5zM624 133q41 28 55 39q1 1 -8 25q-1 2 -1 3q-2 -1 -7 -2q-7 -2 -9 -3q-9 -8 -42 -41q-3 -3 -9 -14 q2 -1 7 -2q9 -3 14 -5zM579 472q-3 3 -7 8l-6 6q-13 -1 -22 -6q-20 -15 -39 -35q-5 -6 -2 -17q0 -2 2.5 -5t4.5 -5l3 -1q26 20 66 55zM613 394q-27 6 -29 5q-22 -19 -50 -50q-3 -6 4 -18q4 -3 15 3q9 7 46 39q3 4 14 21zM486 484l7 -7q1 -2 1 -6q1 -4 1 -6q12 4 10 3 q23 22 48 50q6 7 2 20q-2 5 -13 5q-1 0 -2 -1q-19 -19 -54 -58zM459 566q58 54 63 58l-6 6t-7 6l-3 3q-30 -25 -51 -46q-1 -1 3 -21q1 -3 1 -6zM443 619q7 5 22 15q26 18 37 27q5 3 3 14q-1 1 -1 2q-14 11 -22 10q-21 -25 -42 -56q0 -1 3 -12zM525 380q2 -2 7 -4q4 -3 6 -4 q8 10 25 31t25 31q-1 1 -3 2.5t-4 2.5t-3.5 2t-3.5 1l-1 1q-33 -31 -48 -48q-1 -2 0 -15zM420 684q2 -5 4 -11l3 -6q16 8 13 6q24 26 27 31q4 7 1 15q-5 5 -14 4q-8 -8 -34 -39zM348 730q-2 -1 -4 -3t-4 -3t-3.5 -2.5l-2.5 -2.5v-1q4 -7 16 -23q12 17 13 21q1 2 -9 9 q-4 4 -6 5z" glyph-name="A" horiz-adv-x="746" unicode="A"/>
<glyph d="M338 101q-187 0 -280 1q-4 1 -18 13q9 7 17 14q2 2 6 5q12 12 13 18q2 70 2 208q2 186 2 280q0 51 -4 76q-1 3 -22 13q-2 1 -3 2q-5 3 -15 7q-11 6 -16 8q32 11 34 11q21 -1 62 -1q124 -2 185 -9q81 -10 150 -48q47 -27 53 -94v-12q-1 -58 -35 -92q-23 -23 -24 -32 q2 -11 37 -25q73 -31 101 -104q12 -30 12 -61q0 -28 -9 -53q-28 -77 -128 -115q-21 -8 -104 -22q-9 -2 -15 -3q0 2 -1 8v7zM500 284h3q0 9 1 26v27q0 15 -2 40q-2 21 -19 33q-2 1 -3 2q-69 41 -197 48q-12 1 -35 2q-34 1 -50 2q-7 0 -12 -12q-1 -2 -1 -3q-1 -37 -1 -112 q-1 -112 -3 -167v-7q7 -39 38 -42q9 0 13 1q72 9 96 9q19 0 37 -3q16 -2 23 -2q37 0 100 30q10 5 11 15q1 39 1 113zM317 482q6 1 22 1q36 2 54 6t28 24q2 4 3 7q1 7 3 88q1 16 2 28v9q-2 39 -36 47q-29 7 -89 18q-50 9 -74 14q-5 1 -11 1q-23 -2 -32 -32q-1 -5 0 -30v-71 v-36q0 -30 3 -60q1 -5 12 -6q13 -1 115 -8zM522 295v-57v-24q0 -4 4 -13q2 -6 3 -8l18 12q23 28 23 76q-1 54 -28 85q-3 3 -12 7q-4 -8 -4 -12q-1 -17 -3 -48q-1 -13 -1 -18zM158 603q-3 3 -12 16l-12 -9q-20 -16 -26 -25q-4 -8 -4 -18q0 -4 1 -13v-11l2 -1q2 -2 5 -2l2 -1 q4 3 11 8q28 18 32 37q1 7 1 13v6zM103 332h-3l6 -18l8 3q0 3 -1 8q-1 6 -1 8q3 17 5 20q5 6 15 17q12 12 17 19q2 4 4 28v2q-1 0 -2.5 0.5t-5 1t-3.5 -0.5q-30 -21 -34 -26q-9 -11 -9 -25q0 -5 2 -14q1 -4 1 -14q1 -6 1 -9zM451 648v-105q0 -3 3 -13q11 6 13 8q13 14 13 39 q-1 42 -29 71zM144 291q-5 6 -9 11q-3 -3 -11 -9q-18 -14 -22 -23q-2 -7 -2 -10q0 -6 3 -19l3 -15l30 39q2 3 4 13q3 9 4 13zM162 514q-5 20 -6 28q-2 -1 -7 -3q-8 -3 -11 -5q-22 -16 -29 -24q-5 -6 -5 -23q2 -4 10 -6q20 13 48 33zM124 159q-1 0 -2 1h-3l18 54 q-23 -11 -28 -24q-1 -3 -3 -36v-2q34 5 40 8q3 2 5 27q-2 -2 -7 -6q-9 -6 -12 -9q-2 -3 -8 -13zM106 664q7 4 19 11q13 7 19 11q5 3 13 14q-18 8 -19 8q-10 -6 -37 -29q0 -1 5 -15zM138 476l-37 -37q0 -2 8 -16q14 14 37 39q0 2 -8 14zM128 645q-2 1 -4 3q-3 2 -4 3 q-2 -3 -6 -11q-5 -8 -7 -11l4 -4q3 3 9 10q5 7 8 10z" glyph-name="B" horiz-adv-x="614" unicode="B"/>
<glyph d="M320 750h13q111 -1 209 -67q9 -6 15 -6q9 2 14 19q10 36 23 43q7 4 16 4h6q11 -2 16 -13q1 -2 1 -3q1 -45 1 -134q0 -13 -4 -15q-13 -1 -19 3q-5 3 -14 10q-34 24 -43 39q-19 34 -76 58q-25 11 -28 12q-28 12 -63 12q-26 0 -42 -5q-70 -21 -123 -90q-53 -71 -53 -156 q0 -52 19 -110q12 -38 19 -56q48 -121 149 -150q44 -11 72 -11q65 1 109 43q5 5 56 62q7 8 13 14q2 2 21 9q1 -2 3 -7q4 -8 4 -12q-2 -78 -4 -117q-1 -9 -13 -18q-5 -2 -16 4q-3 2 -8 7q-1 0 -1 1l-1 1q-18 23 -38 23q-15 -1 -34 -12q-76 -45 -162 -45q-57 0 -117 18 q-93 29 -141 97q-54 79 -56 177v8q1 6 1 9q0 18 -17 22h-2q-5 1 -5 20v8q0 107 103 209q9 9 18 17q54 49 82 62q22 10 45 12q8 0 26 2t26 2zM184 612q-9 3 -31 8q5 3 13 10q9 6 13 9q2 1 7 1q4 1 6 2q13 7 38 23q16 10 23 14q-1 1 -3 5q-1 4 -2 5q-46 -23 -54 -25 q-55 -16 -97 -82q-6 -9 -17 -29q-12 -20 -18 -29q-2 -6 5 -15q6 -4 16 0q12 6 62 32q5 3 16 14h-20q-8 0 -23 2l3 9q5 13 9 17q4 3 48 26zM66 389q1 -3 5 -16q2 1 7 2q8 2 12 4q34 18 49 29q8 6 6 20q-3 19 -10 22h-2q-17 0 -48 -31q-18 -19 -19 -30zM117 223l9 4l24 39 q16 25 24 38q-16 6 -14 6q-27 -21 -59 -51q-3 -3 4 -20l1 -1q3 -5 11 -15zM236 185q-20 21 -23 22q-9 0 -45 -29q-3 -2 -4 -3l9 -6q16 -10 24 -10h1q6 1 29 19q5 4 9 7zM64 462q3 -6 7 -13l4 -8q36 20 65 39q2 2 2 21l-9 -3q-6 -3 -9 -4q-22 -8 -32 -13q-6 -3 -28 -19z M93 276q14 21 33 52q1 2 0 12q-4 -3 -11 -8q-12 -8 -17 -12q-9 -11 -14 -26q0 -3 9 -18zM78 333q19 12 52 33q2 2 10 13l-18 2q-20 -13 -48 -35q-3 -3 -2 -8q2 -3 6 -5zM147 186q15 21 36 52q-1 2 -4 5l-45 -39q1 -2 13 -18zM316 124v4q1 4 1 5l-48 3q0 -1 -2 -7 q16 -3 45 -7zM606 171l-11 13q-3 -1 -16 -9l9 -9q5 -7 8 -10q2 2 10 15zM600 684h-7q-2 -26 -2 -39q1 -1 10 -3q2 24 2 34q0 2 -3 8zM242 711v-3q1 -1 1 -2q7 2 21 4q14 3 21 4q-1 1 -1 4q-1 3 -1 4l-21 -6q-13 -3 -20 -5zM133 327q1 -1 2 -5q2 -3 2 -4q16 10 24 16 q1 1 -1 6v1l-1 1q-5 -2 -13 -8q-9 -5 -13 -7z" glyph-name="C" horiz-adv-x="654" unicode="C"/>
<glyph d="M85 213v182v254q0 45 -4 67q-1 3 -19 11l-6 3q-9 6 -22 15q3 1 8 5q11 7 16 7q182 -7 245 -13q121 -14 191 -101q59 -74 107 -179q18 -40 18 -88q0 -99 -57 -182q-28 -39 -60 -60q-45 -29 -96 -35q-27 -3 -155 -5h-6q-66 -2 -99 -2q-29 0 -44 1t-75 17q-2 1 -3 1 q-4 3 -4 9q13 12 16 12q11 -3 19 -3q23 2 24 30v11q-1 9 -1 13q0 3 3 30h4zM220 417h-9v-180v-90q1 -17 10 -22q63 -12 80 -12q3 0 7 1h7q58 7 153 31q17 5 27 20q1 4 2 6q3 36 5 154v41v74q0 45 1 68q0 6 1 17v17q-1 56 -32 87q-67 64 -198 90q-5 0 -8 1q-6 1 -13 1 q-32 -2 -33 -42v-87v-175zM97 243l24 -7q29 7 38 15q26 24 27 38q0 1 -0.5 1h-0.5v1q-6 10 -13 11q-4 0 -24 -14q-3 -1 -4 -2q-15 -8 -25 -16q-4 -4 -22 -27zM108 566v-3q-1 -2 -1 -3q1 -10 8 -11q6 1 15 5q8 4 23 10q22 9 32 15q3 3 8 21q-1 2 -11 5q-2 0 -7 1q-11 1 -15 2 h-4q-22 0 -40 -23q-8 -10 -8 -19zM129 123q6 5 20 15q25 19 37 29q0 1 -1 15q-2 -1 -6 -4l-6 -3q-1 -1 -3 -1.5t-4 -1.5t-3.5 -2t-2.5 -1h-2q-10 11 -18 12q-7 0 -21 -16q-8 -8 -13 -10q-4 0 -1 -15q0 -3 1 -4q1 -2 20 -11q2 -1 3 -2zM119 359q57 11 69 15q4 2 4 25 q-2 3 -10 5q-38 -14 -64 -25q-4 -2 -13 -14q8 -4 14 -6zM131 627q49 4 58 22q5 11 5 31v5q0 2 -6 38q-14 -11 -25 -22q-1 -2 -11 -14q13 0 19 -1q3 0 9 -2q5 -1 8 -1q-7 -14 -9 -16q-8 -7 -27 -23q-14 -11 -21 -17zM561 419q-5 -5 -14 -15q-14 -16 -20 -24l10 -17 q18 11 51 32q-15 13 -27 24zM103 424q8 0 20 -2q10 -1 14 -1q6 0 9 1q17 7 44 24l-5 12q-51 -20 -82 -34zM551 307q-23 -28 -25 -31q-1 -3 5 -18q5 6 14 18q10 12 14 18q-1 2 -8 13zM159 315q24 22 32 30q-1 1 -7 11q-13 -11 -34 -30q1 -2 9 -11zM113 515q1 -1 3 -4 q11 5 32 17q22 12 33 17q-1 2 -3 5q-3 4 -4 6q-10 -7 -30 -20q-21 -14 -31 -21zM560 243l-23 -12q-1 -1 -2.5 -3t-2 -3t-2 -3.5t-1.5 -3t-1 -4.5l-2 -3q0 -2 5 -9q13 14 15 16q2 3 6 11q5 9 8 14zM143 496l-13 13q-8 -13 -21 -38q0 -2 3 -7q5 6 16 16q10 11 15 16zM585 447 q-19 11 -18 11q-2 -2 -22 -19l8 -5q9 3 32 13zM199 493q-3 2 -6.5 5.5t-5.5 4.5l-2 1q-4 -3 -11 -10q-6 -5 -8 -7q2 -1 5 -3q6 -4 9 -3q4 1 19 12zM134 320l-9 6q-17 -18 -20 -21q0 -2 5 -8q9 8 24 23zM137 203q-1 1 -3 5q-1 3 -2 4q-4 -3 -13 -8q-9 -6 -13 -9l4 -6 q10 5 27 14zM149 716q0 2 -1 5v5q-6 -1 -16 -2q-12 -2 -17 -3q1 -1 1.5 -2.5t1.5 -2.5l2 -2q10 0 29 2z" glyph-name="D" horiz-adv-x="638" unicode="D"/>
<glyph d="M173 149q2 -23 25 -24q34 0 100 -1h101q68 0 101 1q19 2 52 35q7 6 46 54q6 8 11 13q8 8 21 5q6 -3 8 -19q5 -52 5 -93q0 -12 -13 -21q-3 -2 -5 -2q-92 -2 -273 -2q-17 0 -52 3q-34 3 -51 3q-22 0 -45 -5q-19 -4 -39 -4q-17 0 -50 2h-3q-9 0 -26 -5q-16 -3 -23 -4 q-7 0 -14 11q-2 3 -2 5q1 56 1 167q2 112 2 167q0 17 -2 53q-1 35 -1 52q0 4 1 13v13q0 3 12 129q0 2 1 5v3q-2 16 -17 17h-7q-3 -1 -15 11q-1 2 -2 2q2 2 6 7q8 7 11 8q214 2 320 2q4 0 157 -3q16 0 49 -1q50 0 74 -1q8 0 15 -15q2 -4 2 -7q0 -43 -6 -83q-2 -12 -18 -24 q-4 -2 -20 11l-74 74q-19 15 -43 17q-73 5 -212 9h-9q-34 0 -79 -7q-9 -2 -13 -12q-1 -3 -1 -4l-3 -90q-2 -59 -3 -89v-3q4 -24 28 -25q42 1 123 1h51q4 0 21 -13q2 -1 3 -2q-3 -1 -8 -5q-12 -8 -18 -8q-10 0 -30 -1q-39 -2 -59 -2q-33 0 -58 4q-7 1 -17 1q-34 0 -37 -32 v-10v-9q1 -7 1 -10q1 -13 1 -37v-38q-1 -25 -1 -37v-97v-53zM90 698q22 13 28 15q3 0 25 -3q-11 -15 -13 -17q-6 -4 -51 -31q19 -6 36 -6q30 2 39 30q5 15 5 23q-2 16 -22 17q-4 0 -13 1q-10 2 -14 2q-19 -2 -20 -25v-6zM617 155q-6 28 -8 33q-15 -15 -21 -22q-3 -5 -7 -12 q-2 -4 -6 -14t-6 -14h12q18 1 25 4q4 2 10 23zM95 114q7 8 19 23q15 18 21 26q0 1 2 11q-5 -2 -17 -6q-13 -5 -18 -7q-2 -1 -6 -1q-5 -2 -7 -3q-13 -12 -14 -18q0 -3 15 -19q3 -4 5 -6zM130 233l-5 5q-4 -3 -13 -7q-23 -13 -31 -21q-3 -3 -5 -29v-2q2 1 8 2q9 3 11 5 q7 8 20 27q10 14 15 20zM64 275q4 -7 10.5 -15.5t8.5 -12.5q6 7 18 22t18 22q-1 0 -7 6q-12 -5 -48 -22zM628 697q-5 3 -12 8q-10 7 -15 8q-3 0 -25 -6q6 -5 17 -16q12 -11 17 -16zM159 401l-14 14q-4 -5 -13 -13q-8 -10 -12 -14l6 -3q6 -3 8 -3q5 3 25 19zM127 572 q-3 3 -9 8l-9 9q-20 -22 -27 -32q1 -2 6 -6zM117 556q1 -2 4 -4q3 -4 4 -5q21 17 25 21q0 2 -3 14q-5 -4 -15 -13t-15 -13zM118 499q2 -1 4 -5q2 -3 3 -4q4 4 13 12l12 12q0 2 -3 7q-5 -3 -15 -11q-9 -8 -14 -11z" glyph-name="E" horiz-adv-x="674" unicode="E"/>
<glyph d="M146 348q0 -13 1 -39t1 -39q0 -5 -1 -14v-12v-6q1 -32 33 -59q22 -20 38 -46q5 -9 5 -14q-2 -15 -24 -17h-27h-55q-7 -1 -10 -3q-17 -18 -32 -18q-14 0 -45 22q-6 5 -10 7q-2 3 6 20q1 3 4 8q5 9 6 13q1 3 -2 8q-2 5 -2 7q5 281 5 335v48q0 61 -12 91q-5 15 -5 24 q0 14 14 51q6 17 7 29q1 6 13 7q306 6 307 6q58 0 169 -4q48 -2 83 -8q12 -2 20 -15q1 -3 1 -4q-3 -42 -13 -101q-1 -3 -19 -3q-10 0 -15 3q-14 13 -40 41q-23 26 -35 37q-19 18 -43 20q-131 7 -295 10q-10 0 -19 -15q-3 -4 -3 -7q-3 -60 -3 -176q0 -9 13 -17q4 -2 6 -2h80 q54 -1 81 -1q4 0 27 -11q-14 -25 -19 -31q-2 0 -20 8q-2 1 -7 3q-8 4 -12 4q-70 0 -139 -3q-7 0 -11 -12q-1 -2 -1 -3v-36q0 -57 1 -86h-2zM134 522q-7 4 -16 11q-8 7 -11 7h-1q-8 -4 -41 -24q5 -6 13 -16q9 -11 13 -16q7 6 23 20q13 12 20 18zM124 242q0 1 -3 5q-4 7 -6 10 q-30 -34 -44 -52l8 -8q1 -1 2 -1q34 8 40 27q3 9 3 19zM88 416q-19 -25 -24 -34q-1 -1 7 -14q1 -1 1 -2q24 35 26 38q-1 2 -10 12zM129 392q-1 2 -5 4l-5 5q-22 -24 -32 -36q-1 -2 -1 -8q-1 -4 -1 -5h8q6 6 18 20t18 20zM115 326q-24 -30 -30 -38q1 -1 4 -2.5l5 -2.5l2 -1 q18 18 26 28q0 3 -7 16zM130 150q-3 5 -8 12q-4 7 -6 9q-3 -5 -10 -15q-6 -11 -9 -16l2 -2q2 -3 5 -4l2 -2q5 2 13 9q7 6 11 9zM156 167q-2 -1 -6 -4q-3 -3 -5 -4q17 -24 21 -28q3 -1 17 4q-5 5 -13 16q-10 11 -14 16zM62 153q2 -5 6 -11q2 -4 3 -5q19 27 20 29q0 2 -6 9 q-9 -8 -23 -22zM124 588q-1 1 -3 4l-3 3q-6 -5 -16 -15q-11 -9 -16 -14q0 -1 2 -2q2 -2 2 -3q6 5 17 13q12 10 17 14z" glyph-name="F" horiz-adv-x="653" unicode="F"/>
<glyph d="M157 370q-1 -91 55 -164q43 -55 141 -70q16 -2 23 -2q61 1 112 43q32 27 46 70q11 34 21 118q1 5 -10 11q-3 2 -5 2q-34 1 -102 2t-102 2q-4 1 -19 11l6 6q8 8 11 9q20 3 57 3q23 0 67 -1h67h34q21 0 23 -16q1 -4 1 -6q1 -36 5 -110t5 -110q0 -7 -7 -26q-20 8 -23 10 q-18 15 -32 15q-14 -1 -31 -15q-54 -47 -154 -49q-14 0 -40 -3q-28 -2 -41 -2t-20 1q-32 4 -74 31q-90 57 -118 163q-25 92 -32 122q-1 6 -1 8q11 23 31 69q46 105 76 152q63 96 200 107q3 0 8 1h8q70 -1 133 -44l12 -6q8 -5 11 -7q10 -7 18 -7q12 0 17 18q1 1 1 2 q1 4 18 20l4 4q13 -24 14 -29q7 -44 12 -91q0 -6 -7 -25q-18 11 -20 13q-59 80 -159 108q-23 6 -52 10q-19 1 -30 -3q-106 -47 -132 -158q-2 -8 -36 -185q1 0 5 -1t5 -1zM136 500h5q1 2 1 4q2 3 2 4q2 6 5 20q4 14 5 20q1 0 0 6v5q-1 0 -4 -1q-5 -1 -7 -2q-34 -16 -38 -19 q-5 -4 -22 -29q-1 -2 -2 -3l4 -5q5 3 13 9q9 6 13 9q1 1 2 3l3 3q2 1 8 3q4 1 6 2q4 -10 5 -15t1 -14zM129 391q-3 -4 -7 -12q-7 -10 -11 -13q-3 -2 -11 -2q-8 -1 -11 -2q-8 -8 -20 -30l10 -9q2 -1 4 -1q19 0 37 31q10 17 10 32v3q-1 2 -1 3zM198 657q0 1 -2 4t-3 4l-18 -15 q-12 -11 -18 -16q0 -2 3 -6l18 12q11 8 17 12q2 2 3 5zM134 424v1v1h-1q-7 -6 -22 -19t-22 -19l6 -6zM95 450q-1 0 -3 2q-1 2 -2 2q-18 -13 -21 -16q-1 -2 -6 -18q13 6 14 7q5 5 18 23zM569 238q-1 0 -5 2q-4 1 -5 1q-2 -5 -6 -16t-6 -16q10 0 10 -1zM234 131q2 3 5 7 q2 3 3 4q-10 6 -15 7q-3 -1 -9 -7q5 -3 16 -11zM110 274l-6 6q-5 4 -7 6q-5 -13 -8 -23l7 -5q2 2 7 8t7 8zM184 183q-3 -4 -7 -10t-5 -8l8 -5q5 6 9 15q0 2 -5 8z" glyph-name="G" horiz-adv-x="613" unicode="G"/>
<glyph d="M515 745h99q22 -1 23 -15q-1 -8 -6 -15q-45 -58 -48 -165v-41q-1 -57 -6 -172q-4 -98 -5 -147q0 -9 15 -41q1 -2 1 -3q2 -5 8 -15q9 -15 11 -23q2 -7 -9 -15q-3 -2 -4 -2q-45 -1 -132 -1h-54q-7 0 -31 13q20 11 25 15q8 7 9 13q1 22 4 66q5 87 5 131q0 35 -1 52v5 q0 11 4 32t4 30q0 11 -2 17q-3 13 -16 21q-3 2 -5 2q-69 -1 -151 -8q-5 0 -11 -11q-1 -3 -1 -5q-5 -160 -6 -317q0 -6 18 -22l5 -5t6 -5l6 -6q-10 -10 -12 -11q-8 -4 -14 -4q-121 -10 -184 -13h-3q-9 0 -37 10q9 25 11 32q4 14 14 41q20 58 22 87q5 64 12 311q-1 5 -9 24 q-4 11 -2 15q15 27 15 45q-1 22 -28 53q-7 8 -28 41q7 1 20 3q21 3 31 4q118 4 178 4q5 0 25 -12q3 -1 4 -2q-3 -2 -10 -7q-10 -7 -15 -11q-11 -10 -12 -16q-6 -112 -6 -169q2 -22 22 -23h6q19 2 58 4q58 4 86 7q8 2 13 14q1 3 1 5q3 75 3 151q-1 7 -14 18q-9 8 -26 19 q26 13 27 13q2 1 4 1q17 1 46 1h47v2zM134 722v-13q4 0 13 2q15 2 21 2q13 0 36 -4q-3 -4 -9 -11q-9 -12 -14 -17q-11 -10 -73 -60h6q19 0 53 23q26 16 43 16q4 0 13 -2v30v18q-2 11 -10 15q-27 1 -79 1zM479 461q67 22 81 64q5 17 5 38q0 3 -1 9v9q0 2 -2.5 4.5t-5.5 4.5 l-2 2l-51 -42q9 -3 27 0q4 0 12 2q7 1 11 1q-8 -20 -11 -24q-20 -22 -62 -67zM441 203l5 -5q3 -4 4 -5q12 9 38 27q25 19 37 28q5 3 15 3q2 0 9 -3q0 29 -1 43l-8 2h-1q-17 -15 -49 -45q-33 -30 -49 -45zM174 347q15 -7 28 -13q-18 -20 -20 -22q-1 -1 -2 -1q-12 -7 -35 -19 q-24 -12 -35 -18q-4 -3 -13 -20q17 3 22 5q62 32 83 49q7 5 11 36q0 5 1 8q0 4 -5 13q-6 -3 -19 -10zM133 378l5 -5q6 3 19 9q23 11 34 15q25 9 26 30q0 8 -3 18q0 1 -2 2.5t-3.5 2t-3.5 0.5l-2 1q-4 -4 -70 -73zM510 114q26 24 35 31q-4 2 -12 8q-14 10 -18 11h-2 q-10 -5 -43 -33q-3 -2 -5 -4q6 -2 21 -6t24 -7zM477 300l6 -6q4 -5 6 -7q45 35 54 43q2 4 2 21l-6 -3q-6 -2 -9 -4q-9 -7 -26 -22q-18 -15 -27 -22zM151 325l-13 16q-24 -16 -43 -31q-1 -2 4 -15q9 5 29 16q15 10 23 14zM228 580l-10 16q-2 4 -3 5q-14 -13 -39 -38q1 0 7 -7 q9 4 26 14q13 7 19 10zM144 123q44 6 58 39q3 10 3 20q-16 -16 -61 -59zM506 392q0 1 -2 2q-2 2 -2 3q-6 -4 -19 -12q-20 -13 -29 -20q-1 -1 -4 -16q-1 -1 -1 -2q14 6 15 7q15 13 42 38zM449 582q1 0 3 -2t3 -2q9 8 27 23q19 16 28 23q-1 1 -4 3l-3 3zM96 524l6 -6t6 -5 q6 7 20 22t20 22q-2 1 -4 3l-4 4q-8 -6 -22 -20q-15 -14 -22 -20zM536 674l6 -3q3 -2 5 -3q3 6 8 18q6 12 8 18q0 3 -7 8q-2 1 -7 -5q-5 -12 -13 -33zM158 510q-1 1 -3 4q-27 -18 -49 -34q-3 -3 -5 -12l14 3q9 7 43 39zM154 238l6 -6q8 6 25 20q17 13 25 19q-1 1 -4 5 q-2 3 -3 4q-8 -7 -25 -21zM486 193q-1 1 -2 3q-2 2 -3 2q-7 -6 -21 -20t-21 -20l4 -4l4 -4q7 7 19 22q14 14 20 21zM550 225q-2 1 -4 3q-4 1 -5 2q-4 -6 -11 -17q-8 -12 -12 -17h14q4 5 18 29zM483 490q-1 2 -3 5q-3 4 -4 5q-18 -16 -26 -25q0 -1 4 -10q5 4 14 13zM131 381 q-1 2 -4 5q-3 4 -4 6q-3 1 -4 1t-3.5 0.5t-2.5 -0.5q-9 -8 -15 -17l6 -10q3 1 27 15zM213 507q1 4 5 10q3 8 4 12q0 2 -6 11q-4 -3 -10 -10q-7 -6 -10 -9q2 -1 5 -5zM136 131q-1 1 -3 4t-3 4q-5 -3 -15 -10t-15 -10q1 -1 3 -4t3 -4q5 3 15 10t15 10zM92 214l6 -6q4 -5 6 -7 q2 5 8 13q6 10 8 14l-4 4zM180 212l2 -4q2 -3 3 -4l24 15q-1 1 -4 9q-4 -2 -13 -8q-8 -6 -12 -8zM121 166q-3 2 -7 6l-6 6l-18 -21q1 -3 5 -6q6 2 16 9q7 4 10 6z" glyph-name="H" horiz-adv-x="657" unicode="H"/>
<glyph d="M76 580q0 45 -2 67q-2 11 -14 30q-7 10 -22 30q-8 11 -12 16q39 17 44 18q3 1 5 1q63 7 143 10h2q25 -1 26 -17q-1 -9 -7 -18q-36 -47 -37 -137v-14v-24q0 -43 -1 -129t-1 -129v-43q1 -29 1 -43q0 -10 20 -38q6 -8 9 -13q9 -17 9 -26q0 -16 -33 -18h-2q-31 -2 -95 -8 q-42 -3 -62 -5h-5q-21 1 -22 15q1 9 6 20q2 6 4 8q36 38 37 101v11v13q1 54 2 161q2 108 2 161h5zM173 277q-20 -25 -56 -71q-21 -26 -31 -39l12 -9q7 13 38 37q36 33 38 65q0 11 -1 17zM109 470q66 26 71 57q0 12 -6 27q-14 -18 -41 -52q-16 -22 -24 -32zM182 392q0 6 -1 9 l-3 9q-2 7 -3 10q-1 -4 -4 -10q-3 -7 -4 -10q-13 -32 -15 -34q-4 -5 -30 -33q-1 -3 -3 -11q2 0 5 -1h5q24 6 43 42q10 17 10 29zM97 478l13 28q0 2 -7 15q-2 3 -2 4q0 7 15 24l6 9q3 6 15 27q-37 -21 -43 -32q-4 -8 -4 -20q0 -13 7 -55zM106 268l9 -9q7 5 21 13q26 16 38 25 q3 2 5 26v2h-11q-10 -9 -31 -29q-21 -19 -31 -28zM124 666l11 -11l45 48q4 5 -1 10q-6 3 -11 0q-2 -2 -44 -47zM138 178q-6 -7 -18 -20t-18 -20q-1 -2 -2 -5q-2 -4 -3 -5q2 0 5 -2q5 -2 7 -2q25 1 27 25q1 4 1 12q0 12 1 17zM176 180q-1 0 -3.5 1.5t-3.5 1.5l-15 -39 q0 -4 6 -9q8 1 12 7q2 9 4 38zM145 628q1 -2 5 -4l4 -4q5 6 14 16q9 11 14 16q-1 1 -3 2q-6 -4 -17 -13t-17 -13z" glyph-name="I" horiz-adv-x="266" unicode="I"/>
<glyph d="M20 207q0 53 31 72q10 5 19 5h6q11 -1 40 -23q5 -3 8 -5q2 -1 7 -6q8 -7 10 -6q24 13 26 21q8 50 8 93q0 7 -13 39q-1 4 -2 6l-3 12q20 17 20 49q0 5 -1 15v15q0 9 1 13q2 15 3 47q0 31 2 46v6q1 3 1 5q0 38 -45 70q-6 4 -17 11q-4 3 -19 21q18 11 26 13q134 24 201 35h7 q7 0 22 -2q10 -2 14 -2l-9 -42q-2 -6 -4 -8q-45 -45 -45 -125q0 -11 1 -34t1 -34v-6v-30v-78q1 -52 1 -78q0 -49 -1 -73q-4 -75 -70 -113q-5 -3 -14 -10q-12 -10 -18 -13q-4 -2 -12 -8q-20 -14 -32 -14q-12 1 -24 11q-3 1 -18 1h-10q-75 0 -93 66q-5 18 -5 38zM85 136 q38 0 60 38q7 14 10 28q1 3 1 7.5v6.5t-1 8l-1 7q-4 -3 -12 -11q-8 -9 -12 -12q-15 -15 -44 -40q-5 -4 -22 -10q9 -10 21 -22zM209 451q1 -1 3 -4t3 -4q8 4 23 12q35 17 50 28q3 2 4 26v4q-1 0 -8 1zM210 512l7 -7q50 27 66 38q3 2 6 23q1 2 1 3q-1 0 -8 3zM209 216 q1 -2 4 -5q3 -4 4 -5q46 28 68 44q2 1 3 19v2q-1 0 -4 1q-5 1 -6 0q-24 -19 -69 -56zM227 388l6 -6q4 -3 6 -5q9 10 27 29l27 30q-2 1 -5 4t-6 4l-2 2q-36 -38 -53 -58zM240 290q1 -1 2 -3l3 -3l42 27q1 2 3 14l-11 2q-7 -6 -19 -19q-14 -12 -20 -18zM274 205l-6 6l-40 -40 q1 -1 4 -6l39 33q2 3 3 7zM70 203q9 7 20 16q9 7 13 10q-2 1 -5 5q-7 6 -9 6q-15 -5 -26 -16q0 -2 7 -21zM254 356q1 -2 2 -5q2 -4 3 -5q29 16 32 18q1 2 -5 17q-6 -5 -16 -13q-11 -8 -16 -12zM257 616q18 20 32 38l-3 3q-3 4 -4 5q-20 -20 -30 -31q0 -2 5 -15zM199 166 q-1 2 -5 5q-3 4 -4 5l-28 -25q0 -2 5 -10q5 4 16 13q11 8 16 12zM236 430q-20 -9 -21 -10q-4 -5 -13 -24q0 -2 5 -8q15 15 17 18zM239 647q-17 -8 -18 -9q-4 -4 -19 -25q1 -1 4 -5l10 10q8 7 11 10q2 2 5 8q4 7 7 11zM253 692q1 -2 3 -4l4 -4q18 16 26 24q0 2 -3 7 q-5 -4 -15 -11z" glyph-name="J" horiz-adv-x="392" unicode="J"/>
<glyph d="M215 383v-137v-68q0 -26 16 -32l6 -2q12 -3 27 -18q7 -8 4 -18q-3 -6 -16 -10q-3 -1 -7 -1q-3 0 -7 1h-8q-15 0 -18 -16v-2q-1 0 -13 1q-68 2 -102 2q-7 0 -21 -1q-13 -1 -19 -1q-2 0 -7 1h-6q-18 4 -24 13q1 21 12 30q44 36 45 81q0 12 -3 24q-6 23 -6 44q0 14 11 88 q4 25 4 43v9q0 5 -1 15v15q0 27 3 81t3 81q-1 10 -18 38q-3 6 -12 16q-11 14 -15 22q-7 13 -7 24q2 21 32 32q6 2 27 21q2 1 3 2q2 1 3.5 2t3.5 1l2 1q25 -20 61 -20q10 0 29 2q18 1 27 1h7q41 -2 42 -19q-1 -10 -12 -27q-34 -52 -34 -143v-22q1 -27 22 -51q26 -28 73 -66 q6 -6 19 0q3 1 4 2q82 133 148 247q4 9 -7 25q-1 1 -15 9q-3 2 -5 4q-5 7 -16 32q23 12 28 13q86 10 131 12q6 -1 24 -14l-7 -7q-12 -11 -18 -12q-40 -1 -47 -8q-6 -8 -12 -44q-2 -10 -6 -15l-93 -132q-28 -41 -77 -122q-7 -11 -1 -24q1 -1 1 -2l87 -102t86 -102 q28 -31 59 -32q14 0 25 4q4 1 23 -11q2 -1 3 -2l-7 -7q-9 -9 -14 -11q-54 -11 -120 -19h-4q-6 0 -18 2q-9 2 -13 2l3 9q3 12 6 16q13 19 13 37q-1 24 -25 47q-30 28 -220 216l-9 9q-2 1 -23 14q-5 -23 -5 -27v-15v-29h-5zM113 264q86 27 87 89q0 13 -3 26q-3 6 -12 9 q-58 -50 -86 -75q1 -1 4 -5l4 -4q6 3 17 11q18 11 27 16q6 3 26 7q-1 -3 -3 -10q-6 -15 -10 -20q-10 -10 -31 -28q-14 -11 -20 -16zM206 686q-8 -10 -19 -24q-7 -9 -10 -13q14 -8 15 -15q0 -5 -14 -16l-7 -7q-1 -2 -22 -29q41 7 49 21t8 58v25zM161 713h-21q-18 -3 -22 -8 q-1 -5 1 -24h11q12 0 17 2q1 0 22 11q2 2 3 2q22 8 33 11l-42 6h-2zM125 218q1 -1 3 -4q1 -2 2 -3q53 27 59 30q2 2 1 15l-7 3h-1q-20 -14 -57 -41zM143 405q50 11 52 31q0 6 -3 15q-18 -17 -49 -46zM145 424q-1 2 -4 6q-3 3 -4 5l-12 -9q-13 -10 -19 -15q-1 -1 1 -6t3 -7 q6 4 18 13q11 9 17 13zM146 185q0 -1 2 -3q1 -1 1 -2q22 9 24 10q3 2 14 19q1 1 1 2l-9 -3q-10 -3 -13 -5q-4 -3 -12 -11q-6 -5 -8 -7zM156 554q0 1 -2 2q-2 2 -2 3q-6 -5 -20 -17q-15 -11 -21 -16q1 -1 5 -6q6 6 20 17q14 12 20 17zM187 153q-1 1 -4 3l-4 4q-4 -5 -13 -15 l-12 -15q8 -5 9 -5q5 5 15 17q6 8 9 11zM132 127l-13 9q-10 -6 -20 -13q1 -1 3 -4q6 -6 7 -6q2 1 23 14zM107 462q1 0 4 -2q3 -1 4 -1q3 4 7 11q6 8 8 12q-14 3 -14 2q-1 -1 -9 -22zM85 709l-13 -15q2 -5 11 -16q1 2 3 4q4 5 4 7q0 4 -5 20zM111 565q1 -1 4 -1q3 -2 4 -2 l9 27q-2 1 -4 1q-3 2 -4 2z" glyph-name="K" horiz-adv-x="676" unicode="K"/>
<glyph d="M245 129q106 -6 155 -8h2q36 1 67 42q5 7 15 22q18 25 27 36q9 10 21 8q10 -3 13 -18q4 -50 4 -75v-16q0 -12 -12 -20q-3 -1 -4 -1q-36 -3 -104 -3q-79 0 -232 2q-9 0 -27 2q-18 1 -26 1h-6q-15 -1 -45 -4t-45 -4q-3 0 -25 9q-2 1 -3 1q10 24 11 25q37 25 37 79v21 q-1 15 -1 22q0 56 4 165l3 75q2 51 3 76v11q-1 8 -1 12q0 8 1 11q5 22 5 36q-2 47 -47 68q-2 1 -4 3t-3.5 4.5t-3 5.5t-2.5 5.5t-1.5 4.5t0.5 2q20 19 34 20q23 1 66 1l132 -1q17 -1 18 -11q0 -6 -6 -15q-13 -18 -24 -23q-36 -24 -38 -73q0 -30 -3 -91q-3 -48 -3 -72 q0 -4 9 -25q1 -3 2 -5q3 -9 2 -17q-2 -17 -8 -52q-8 -58 -11 -86q-1 -11 -1 -29v-30q1 -19 1 -29q0 -19 -1 -29v-8q2 -27 21 -28q4 0 13 2q0 1 10 0h11v1zM138 299q-3 -2 -8 -5q-9 -6 -13 -8q-4 -1 -19 -3q5 14 6 16q6 9 19 26q13 18 19 26q0 1 2 12q-6 0 -8 -1 q-36 -14 -42 -25t-8 -45q-1 -14 -1 -39q1 -37 16 -38q10 1 28 11q21 14 36 37q2 8 0 30q-3 -2 -10 -6t-10 -6q-1 0 -7 -2v20zM98 645q0 -1 2 -5q2 -8 4 -12q4 2 13 7q20 11 22 18q4 23 32 41q1 0 7 4q8 7 5 21q-3 8 -17 8h-2q-27 -5 -52 -43q-13 -21 -14 -39zM140 501 q-41 -15 -46 -25q-4 -8 -4 -20v-8q1 -7 1 -10v-19q1 -10 1 -30q1 -20 1 -30q5 6 15 17q19 21 28 32q2 3 6 16q-12 -2 -17 -2q-10 0 -25 2q5 18 7 22q7 12 33 55zM176 534q-16 -27 -27 -43q-24 -35 -27 -40q-1 -1 -2 -15v-2q2 0 6 1q6 0 8 1q45 24 45 72q0 13 -3 26zM150 602 q0 -1 2 -3t2 -3q3 2 11 4q15 7 17 11q3 10 5 56l-10 3h-1q-10 -7 -24 -19q1 -1 4 -3l5 -5q6 -14 5 -19q-2 -4 -16 -22zM164 127v38v18q0 4 -2 13q-2 6 -2 8q-21 -17 -25 -21q-6 -9 -1 -18q11 -16 30 -38zM136 207q-2 1 -4 3q-3 1 -4 2q-4 -3 -14 -9q-16 -10 -22 -17 q-2 -2 -3 -23v-3q20 6 19 5q1 2 2 2q11 13 26 40zM516 178q-4 -5 -12 -14q-14 -17 -19 -25q-2 -4 6 -13q1 -1 2 -1h4q24 1 25 19q0 5 -3 18q-2 11 -3 16zM101 494q28 42 39 60q1 1 -1 5q-1 4 -1 5q-28 -23 -32 -27q-6 -7 -12 -23q0 -4 7 -20zM91 588q3 -4 12 -20q6 8 18 22 q12 15 18 22q-1 0 -7 6q-6 -5 -19 -13q-15 -11 -22 -17zM135 527q29 9 33 12q9 7 14 21q1 4 -4 18q-20 -15 -21 -16q-4 -5 -11 -17t-11 -18zM166 368q-12 -16 -27 -39q1 -1 5 -6q11 12 28 33q0 2 -6 12zM178 416l-12 10q-14 -15 -26 -29l6 -6q13 9 32 25zM103 136v-11 q5 1 16 3t16 3q0 1 2 9q-5 0 -17 -2t-17 -2zM69 729l-7 -7q-4 -3 -5 -4q3 -4 9 -10l9 -9q5 8 5 10q-1 3 -11 20zM133 715q-1 1 -1 5q-1 4 -1 5q-4 -1 -12 -4q-10 -2 -14 -4q0 -1 1 -8z" glyph-name="L" horiz-adv-x="568" unicode="L"/>
<glyph d="M218 414q0 -175 1 -262q0 -4 14 -16l6 -6q7 -10 9 -18q0 -6 -9 -9q-2 -1 -3 -1q-117 -4 -173 -5h-6q-31 1 -32 12q0 9 15 27q34 43 34 114q0 5 -1 14v12q-1 16 -1 45q0 17 8 205q2 25 2 45q0 17 2 51q3 46 3 69q-2 22 -18 23q-5 0 -8 -1q-16 -2 -22 1t-19 14l18 12 q19 10 34 10q25 0 59 -33q18 -17 26 -23q36 -24 106 -75q58 -42 87 -62q6 -4 19 -4q14 1 19 5q46 37 189 157q4 3 10 12q13 15 19 17q10 2 26 2t45 -2q3 -2 5 -8q-5 -7 -10 -9h-2q-38 0 -44 -36q-2 -10 -2 -24q0 -11 -12 -410v-12v-31v-12q0 -3 -1 -8v-6q1 -23 19 -34 q10 -6 21 -28q4 -7 4 -14q-2 -10 -16 -11h-3h-1h-1h-1h-1h-1h-1h-1h-1h-1h-1h-1h-1h-1l-1 1h-1h-1h-1h-1h-1h-1h-1h-1h-1h-1h-1h-1h-1h-1h-1h-1h-1h-1h-1h-1h-1h-1h-1h-1h-2l-1 1h-1h-1h-1h-1h-1h-1h-1h-1h-1h-1h-1h-1h-1h-1h-1h-1h-1h-1h-1h-1h-1h-1h-1h-1h-1l-1 1h-1h-1 h-1h-1h-1h-1h-1h-1h-1h-1h-1h-1h-1h-11q-13 -12 -27 -12q-8 0 -24 4q-17 5 -25 5q-3 1 -16 12q10 12 14 13h4q32 8 34 39v14q-2 58 -2 88v21q1 20 5 58q4 33 5 49q4 70 10 217q0 5 -5 21q-2 -1 -7 -3q-9 -4 -12 -6q-53 -43 -100 -85q-2 -4 0 -18q0 -3 3 -15q-15 -2 -17 -2 q-25 3 -56 36q-24 26 -39 33q-14 7 -52 31q-9 -47 -10 -60q-1 -23 -1 -66v-65q-1 0 -5 1h-4zM532 434q1 -1 4 -3l3 -3q4 2 11 6q18 11 28 13q19 12 20 31q0 26 2 77q2 34 2 51v19q-1 13 -1 19q-5 -4 -17 -12q-11 -7 -16 -11l-2 -2q0 -3 -1 -9t-1 -9q11 2 13 2h17l-8 -16 q-6 -7 -20 -22q-13 -15 -19 -22q-1 -3 -3 -11q10 3 13 4q10 7 25 18l6 -6q-4 -5 -13 -16l-24 -30q-2 -2 -9 -18q3 1 9 2l9 3q10 4 34 13q-25 -27 -62 -68zM539 393l3 -3q1 -2 2 -3q10 10 13 11q4 2 13 3q6 1 8 2l-8 -16q-4 -5 -12 -16q-15 -20 -22 -30q-1 -3 2 -14 q6 4 20 11q28 16 35 28q6 12 6 32q0 6 -1 18v17l-10 9q-26 -24 -49 -49zM208 426l-2 9q-2 4 -2 6q-4 -2 -11 -7q-8 -4 -11 -6l-24 -15q-15 -10 -23 -15q-13 -8 -34 -23l3 -10q31 5 37 7.5t19 11.5q17 11 24 11h3q10 -2 12 -2q10 2 10 14t-1 19zM99 516q0 -2 -1 -6v-6 q16 -10 18 -10q41 22 85 51q3 2 7 12h-14q-41 -16 -77 -31q-3 -2 -9 -5q-6 -4 -9 -5zM587 179q-1 1 -7 15l-51 -51q16 -10 17 -10q33 3 39 23q2 7 2 16v7zM191 618q1 -1 5 -4q3 -2 4 -3l-6 -3q-3 -1 -5 -2q-50 -32 -74 -48q-2 -2 -8 -11q1 0 2.5 -1.5t2.5 -1.5l2 -1 q72 41 89 53q3 3 3 9q0 3 -1 12t-1 13q0 2 -6 1q-1 -2 -3 -5q-3 -5 -4 -8zM614 693q-24 2 -25 1q-25 -17 -44 -35q-2 -4 0 -20l7 -5q37 35 62 59zM107 466l2 -4q2 -4 2 -5q66 32 98 48q2 2 4 11q-12 2 -13 2q-16 -8 -46 -26q-32 -18 -47 -26zM180 617q-12 12 -13 12 q-21 -13 -60 -38q-1 -2 1 -10q2 1 5 1q4 2 5 2q9 4 26 14q18 9 27 13zM141 253h5q40 0 51 27q3 7 3 13q0 5 -2 11q-8 -3 -9 -4q-17 -16 -48 -47zM113 119q14 19 33 44q-5 5 -7 5q-28 -18 -42 -28q2 -2 4 -6q7 -9 12 -15zM594 329q-1 1 -4 5q-2 3 -3 4q-9 -9 -29 -27t-29 -27 q1 -2 4 -4q3 -4 4 -5zM165 232l-3 6q-6 -4 -17 -12q-18 -13 -27 -20q-3 -3 -5 -16q18 0 19 1q7 8 33 41zM151 314q1 -1 3 -4q1 -3 2 -4q39 25 43 28q2 2 4 11q-1 0 -7 1.5t-6 -0.5q-9 -7 -39 -32zM147 204l4 -8q28 10 41 17q1 2 3 18q-10 0 -13 -2q-24 -16 -35 -25zM166 149 q2 1 8 3t8 3q11 16 13 21q0 3 -7 13q-2 -3 -8 -8q-10 -11 -14 -17q-1 -2 0 -15zM170 363l-3 3q-2 3 -3 4q-10 -8 -30 -22q-20 -16 -29 -23l3 -3q1 -2 2 -3q10 7 30 22t30 22zM561 208q5 6 14 16q12 12 16 18q0 2 -6 9q-20 -18 -29 -28q1 -2 5 -15zM557 275q1 -2 3 -5 q3 -4 4 -6q20 16 30 25q1 2 -2 10l-18 -12q-11 -8 -17 -12zM133 254q-1 2 -3 5q-2 4 -3 5q-15 -11 -29 -23q0 -2 3 -14q5 5 16 13q11 10 16 14zM134 649l3 -9q6 2 17 7q12 5 18 7q-3 5 -4 6q-13 -3 -34 -11zM196 138q-2 3 -6 7q-3 5 -4 6q-1 -2 -4 -5q-7 -8 -9 -11 q0 -3 6 -6q1 -1 2 -1q7 3 15 10zM130 433q-1 1 -4 3l-3 3q-4 -3 -11 -10t-11 -10l3 -3q1 -2 2 -3q4 3 12 10t12 10z" glyph-name="M" horiz-adv-x="702" unicode="M"/>
<glyph d="M199 548q2 -70 6 -208q4 -139 6 -208q1 -4 5 -12q2 -4 11 -17q-19 -9 -25 -10q-4 -1 -13 2q-7 2 -11 2q-19 1 -58 3q-38 1 -57 2q-19 0 -22 1t-21 12q1 2 4 6q5 10 9 13q45 40 45 110v7v34q0 40 3 120q2 60 2 90q1 41 1 119q0 58 -1 87q0 3 -23 15q-1 1 -2 1q-4 3 -12 7 q-7 6 -11 8q16 8 25 11q14 4 18 4q17 0 37 -25q8 -9 12 -13q61 -66 155 -214q69 -108 106 -157q1 -1 2 -4l3 -3q26 -35 28 -37q0 6 2 18q2 18 2 27q-1 49 -3 145q-3 97 -4 145q0 29 -3 57q-5 32 -34 33q-5 1 -19 16q3 1 8 6q8 6 12 7q126 0 189 -1q9 -1 14 -7q-1 -21 -6 -26 q-40 -27 -40 -88q0 -26 1 -79v-79v-80q-1 -53 -1 -79q0 -78 -5 -134v-7q0 -24 22 -29l10 -2t17 -14l4 -4q-3 -1 -9 -4q-10 -5 -14 -6q-2 0 -6 -1h-5q-47 1 -77 48q-26 41 -192 292q-15 22 -45 65q-17 25 -26 38q-3 -1 -7 -1q-5 -2 -7 -2zM449 344q0 -1 2 -8l3 -12q3 2 10 5 q10 6 14 9q28 24 34 33q4 6 4 16q0 9 -2 20q0 4 -10 5h-2q-17 -2 -39 -35q-13 -19 -14 -33zM476 251q4 5 12 14q16 20 22 29q1 1 2 19v2q-17 -3 -18 -4q-36 -31 -44 -42q-7 -10 0 -25q2 -1 2 -2q8 -11 23 -10q3 1 4 1q7 2 25 20l3 3q-5 -1 -16 -3q-10 -1 -15 -2zM109 433 q11 8 30 21q21 14 30 21q6 6 4 16q-9 8 -17 5q-26 -18 -48 -39q-1 -3 1 -24zM449 541h13q27 21 46 38q4 5 4 14q-1 4 -8 5h-1q-19 0 -41 -28q-13 -16 -13 -29zM110 168l69 46q2 3 0 9q-6 5 -11 4q-42 -22 -62 -35q-4 -4 -4 -16q1 -3 8 -8zM458 591q34 26 51 40q5 5 2 14 q-9 7 -15 3q-17 -12 -46 -35q-3 -4 -3 -14q2 -1 11 -8zM180 288q-13 8 -14 7q-25 -13 -60 -36q0 -1 -2 -11q11 -2 12 -2q38 18 56 28q2 2 8 14zM525 536l-25 11q-18 -16 -49 -47l4 -7q23 14 70 43zM164 181q-10 -7 -32 -20q-17 -11 -26 -17q-1 -1 -2 -8q9 -2 11 -2 q9 4 61 30q4 2 3 11q-2 2 -15 6zM494 690q-6 -4 -18 -13q-20 -15 -29 -22q-2 -5 0 -12q5 -4 11 -1q36 19 45 25q6 5 6 12q-2 2 -15 11zM515 489q-3 1 -8 3l-3 1.5t-3 0.5h-2q-22 -10 -33 -19q-3 -3 -16 -28q4 2 14 5q9 4 13 6q14 6 21 12q3 3 17 19zM126 571q8 5 23 16 q19 13 28 19q-2 2 -4.5 5t-4.5 5l-2 2q-3 -2 -48 -36q1 -2 8 -11zM181 331q-2 1 -5.5 2.5t-4.5 1.5t-3.5 1t-2.5 0q-22 -10 -31 -17q-3 -2 -27 -27l-2 -2q22 9 39 17q6 3 37 24zM516 195q-2 6 -10 26q-4 -3 -14 -9q-11 -5 -15 -8q5 -6 14 -18q10 -12 14 -18q2 4 11 27z M110 409q1 -2 4 -5l3 -6q7 5 21 14q24 16 35 24q1 2 1 12h-12q-19 -14 -52 -39zM449 410q1 -2 3 -4l4 -4q45 31 49 34q1 1 4 15q1 1 1 2q-1 0 -4 1h-6q-11 -9 -51 -44zM509 704q-1 2 -1 5q-1 4 -1 5l-57 -6q-4 -2 -12 -10q2 -1 5 -4q7 -5 10 -5l36 9q14 4 20 6zM128 539 q15 9 46 26q4 2 3 7q-8 5 -9 5q-13 -5 -50 -24q-2 -2 -4 -9q1 0 3 -1q7 -3 11 -4zM179 531l-13 7l-51 -30q0 -1 3 -12q39 22 61 35zM106 339l6 -9q9 4 28 13q18 9 27 13q2 2 7 10q-11 6 -13 5q-20 -11 -55 -32zM162 638l-20 10q-9 -5 -29 -18q8 -10 9 -11q13 6 40 19z M128 234q0 -1 1.5 -3.5t1.5 -3.5q7 3 23 11t23 11q-1 1 -2 4q-2 3 -2 4q-7 -4 -23 -11q-15 -8 -22 -12zM188 129q-12 10 -13 10q-3 -1 -10 -10q11 -7 12 -8q2 1 11 8z" glyph-name="N" horiz-adv-x="607" unicode="N"/>
<glyph d="M20 421q6 33 22 118q24 121 136 186q59 34 112 34q43 -1 86 -22q98 -51 138 -111q4 -7 7 -12q65 -113 65 -206q0 -52 -19 -103q-10 -25 -55 -96q-3 -5 -5 -9q-27 -42 -39 -53q-26 -22 -60 -34q-59 -19 -111 -19q-41 0 -78 10q-131 37 -178 188q-5 18 -18 112q-2 9 -3 17z M493 408q-8 46 -26 147q-20 109 -92 153q-4 3 -8 5q-34 18 -75 18q-77 0 -121 -50q-6 -7 -11 -14q-34 -51 -44 -154q-1 -6 -2 -17q-1 -16 -2 -24q-2 -28 -2 -41q0 -45 9 -107q13 -87 41 -124q17 -22 41 -36q1 -1 6 -11q14 -18 16 -19h25h33q73 0 114 9q32 7 56 42 q8 12 11 22q11 40 27 171q2 17 4 30zM41 445q4 -5 10 -12q4 -5 5 -6q22 24 31 37q0 2 -8 17q-11 -11 -38 -36zM94 337q-7 13 -13 24q-25 -28 -28 -32q1 -1 12 -17q19 16 29 25zM565 350l-19 6q-13 -17 -34 -50q1 -2 8 -7q6 7 19 22q16 18 26 29zM91 402q-8 12 -11 15 q-20 -22 -31 -35q0 -2 10 -12zM97 524l-13 9q-12 -12 -31 -33q0 -2 8 -10q6 5 18 17q12 11 18 17zM472 645q-2 -1 -4 -3q-3 -1 -4 -2q13 -26 25 -46q1 -2 9 -4h1q2 10 2 11q-4 7 -29 44zM120 236q-3 4 -9 11q-6 8 -9 11l-12 -16q3 -6 17 -17q2 1 13 11zM106 574l-10 16 q-17 -20 -20 -24q0 -2 6 -10q10 8 24 18zM525 268l-6 3t-5 2q-12 -8 -19 -15q0 -2 5 -14q4 4 12 11q8 9 13 13zM519 541l-11 -20q0 -2 6 -12q12 10 17 16q-1 2 -12 16z" glyph-name="O" horiz-adv-x="605" unicode="O"/>
<glyph d="M71 684q-3 32 -32 38q-5 1 -16 17l-3 3l27 6q28 2 42 2h10q233 -17 289 -24q107 -14 129 -113q3 -13 3 -26q0 -61 -40 -101q-27 -26 -62 -28q-88 -4 -178 -6q-22 -6 -24 -21q0 -27 2 -80q2 -80 2 -120q1 -58 44 -78q11 -8 14 -27q0 -4 -1 -5q-12 -16 -33 -20 q-20 -1 -58 -1q-44 0 -129 2q-4 0 -21 10q-2 1 -3 2q3 1 9 4q10 4 14 7q10 7 11 14q2 81 4 236v78v156v50v25zM316 484q14 -3 27 -3q43 2 53 42q8 39 8 75q0 18 -1 27q-8 65 -51 75q-52 11 -136 18q-5 0 -10 -17q-1 -4 -1 -6q1 -21 5 -63q5 -41 6 -62v-8q1 -5 1 -7 q0 -7 -1 -21q-1 -15 -1 -22q0 -2 1 -8v-7q2 -11 15 -17q3 -1 5 -1q14 0 80 5zM93 291h-1v-56v-28q0 -4 8 -23q10 20 10 25q0 12 -3 36q-4 29 -4 43v14q0 3 3 87q-1 4 -7 12q-1 -2 -3 -5q-3 -6 -3 -9v-32v-64zM196 363q0 1 -1 5q-2 6 -3 8q-1 -1 -9 -2q-15 -17 -40 -50 q-1 -5 4 -11q22 0 40 26q9 13 9 24zM201 284l-10 20q-4 1 -11 -5q-13 -16 -34 -47q-2 -4 -2 -10q1 -3 7 -2l18 15q22 20 32 29zM145 599l3 -3q1 -2 2 -3q29 17 36 22q1 1 2 14v2q-12 0 -13 -1q-7 -6 -18 -19zM155 441q5 6 13 17q14 16 20 24q-1 1 -5 6l-37 -37q1 -2 9 -10z M165 655q1 1 5 3q11 8 12 13v3q1 2 1 3q0 3 -6 28h-8h-1q-6 -5 -7 -9q0 -7 2 -21q2 -13 2 -20zM182 119l8 4q5 3 7 4l4 4q6 7 6 9q-2 8 -10 26l-6 -9q-9 -12 -12 -18q0 -2 3 -20zM479 523l14 33q0 2 -6 9q-9 -9 -22 -26q0 -2 14 -16zM157 398l4 -4l25 16q2 3 4 20l-6 -3 q-7 -4 -10 -6q-10 -12 -17 -23zM151 128q2 5 6 13q6 12 8 17q-1 2 -8 8q-12 -16 -18 -25q2 -2 12 -13zM475 582q10 18 15 31q-1 2 -7 9q-4 -4 -13 -12q-8 -7 -12 -11zM136 698l-6 9q-25 -18 -31 -23q0 -1 2 -6q6 3 17 10q12 7 18 10zM186 589q-4 -6 -11 -14l-6 -6l12 -6 q4 3 11 15q-1 2 -6 11zM200 231q-2 1 -4 3q-4 1 -5 2q-7 -15 -13 -29l6 -3q7 10 16 27zM143 183q3 6 8 14q5 9 7 13q0 2 -3 9q-12 -12 -17 -19q0 -2 5 -17zM427 538q1 -1 5 -3t5 -3q3 5 8 14q6 10 8 15q-1 0 -3 0.5t-4 0.5l-2 1q-3 -4 -8 -13zM128 598q-2 2 -4 5l-3 3 q-12 -12 -13 -14q1 -1 7 -9q2 3 6.5 8t6.5 7z" glyph-name="P" horiz-adv-x="540" unicode="P"/>
<glyph d="M393 96q42 -27 46 -29q7 -2 18 8q24 25 59 25q25 -1 42 -13q22 -16 22 -41q0 -14 -6 -27q-15 -32 -52 -33h-8q-49 5 -82 48q-40 49 -104 50h-7q-28 -1 -161 -18q-8 -1 -14 -2q-6 0 -24 2q2 2 4 7q8 12 12 14q15 5 46 13q18 5 27 7l-1 2q-2 3 -3 4q-77 32 -130 129 q-11 19 -23 44q-34 70 -34 144q0 78 38 151q27 53 120 120q8 5 21 14q63 42 109 42q57 0 124 -66l22 -22q83 -87 107 -188q13 -61 13 -107q-1 -140 -101 -231q-12 -11 -64 -38q-10 -5 -16 -9zM335 118q7 1 20 3q27 5 39 9q37 13 42 17q13 10 15 26q14 130 15 148v17v12 q-1 8 -1 12q-3 58 -31 224q-1 5 -2 9q-12 66 -65 115q-16 14 -36 14q-9 0 -26 -3q-16 -2 -23 -3q-60 -4 -112 -62q-36 -41 -41 -80q-2 -16 -6 -46q-6 -41 -8 -61q-2 -30 -2 -45q0 -97 35 -183q2 -4 20 -16q4 -3 6 -5q3 -3 9 -8q20 -20 21 -28v-6q1 -30 35 -43q18 -7 87 -16 q5 0 9 -1zM46 500q3 -3 6 -6.5t5 -5.5t3.5 -4t2.5 -2l1 -1q18 12 26 19q-9 10 -10 11q-13 -3 -34 -11zM501 581q-22 16 -28 18q-4 1 -11 -10q-1 -3 -1 -4q0 -8 9 -13q1 -1 2 -1q5 0 29 10zM518 432q6 5 17 12q6 5 9 7q-2 2 -6 7q-3 4 -5 6l-20 -23q1 -2 5 -9zM70 462 q-3 -5 -9 -14q-6 -10 -8 -14q0 -2 7 -10q11 12 20 23q0 2 -10 15zM105 564q-4 1 -8 3t-7 3h-2q-5 -4 -17 -22l6 -6q17 13 28 22zM532 387q15 23 18 29q0 3 -5 10q-14 -18 -20 -27q1 -2 7 -12zM531 76q-4 -3 -9 -6q-4 -3 -6 -4l30 -15q1 0 8 4q-6 6 -23 21zM523 538l-16 12 q-5 -3 -17 -16l11 -5q7 2 22 9zM536 333q2 3 5 8q6 8 7 11q0 3 -5 12l-17 -20q2 -3 10 -11zM488 268q2 0 4 -2q3 -1 4 -1q2 5 6 16t6 16q-1 0 -3 0.5t-3 0.5l-2 1l-6 -15q-4 -11 -6 -16zM503 486q1 -1 3 -4l3 -3q3 3 11 10l10 10q0 2 -5 8l-11 -11q-8 -7 -11 -10zM81 356 q-2 0 -5 2q-4 1 -5 1l-3 -15q-2 -9 -3 -14q1 -2 7 -4zM89 272q1 0 3 1q3 1 4 1l-3 24q-2 -1 -5 -2t-5 -2l-2 -1q2 -8 8 -21zM545 279q-5 6 -9 12l-3 3q-10 -12 -14 -18q-1 -2 5 -7q14 6 21 10zM492 57l-4 4q-2 1 -3 2q-10 -12 -15 -19q1 -3 4 -6q3 3 8 9zM509 218 q-3 2 -6 4.5t-5 3.5t-3 2.5t-2 1.5h-1q-7 -6 -9 -12q-1 -4 5 -9q5 2 21 9z" glyph-name="Q" horiz-adv-x="599" unicode="Q"/>
<glyph d="M202 353q-1 -17 -2 -52q-1 -71 -4 -105v-9q1 -36 31 -52q4 -2 16 -23q1 -2 2 -3q-3 -1 -9 -5q-13 -8 -20 -8q-45 1 -130 7q-12 0 -19 4q-3 2 -14 16q2 1 7 4q7 6 11 6q19 0 22 10q1 4 1 10q0 310 3 465q-1 38 -24 58q-24 21 -45 45q-7 10 -8 15q2 10 18 13q4 1 14 1 q14 1 20 3q12 6 31 21q3 2 7 7q5 6 8 8l9 -9q3 -2 4 -3q2 -2 8 -6q14 -10 21 -11q68 -2 202 -2q65 0 133 -55q47 -40 62 -82q10 -30 10 -53q-1 -63 -52 -108q-22 -19 -92 -30q-8 -1 -12 -2q-10 -2 -28 -2q-9 0 -28 1t-28 1q-5 0 -12 -2q1 -1 2 -5q2 -5 3 -6q48 -32 92 -112 q31 -56 36 -64q15 -24 69 -78l12 -12q2 -2 6 -4q5 -3 6 -5q2 -5 3 -15q1 -7 2 -10h-18q-150 33 -247 191q-4 8 -30 26q-5 4 -8 7q-2 2 -6 8q-2 4 -3 5q-4 6 -13 17q-9 12 -13 17q-2 -6 -4 -16q-4 -11 -5 -16h1zM305 453v-1h21q15 1 22 1h11h7q55 1 88 61q12 22 12 31 q-2 13 -15 21q-3 4 -2 10q10 13 10 26t-19 42q-1 3 -2 4q-29 46 -48 58q-16 11 -34 13q-42 5 -127 9q-5 0 -10 -11q-1 -3 -1 -5q-8 -160 -10 -240q0 -10 13 -18q2 -1 4 -1q12 -1 34 -1q31 0 46 1zM124 248q1 -1 3 -2l3 -3q14 8 22 11q7 2 18 4q-1 -2 -2 -7q-2 -8 -3 -11 q-16 -30 -24 -46q-1 -3 1 -12q4 3 14 8q19 9 21 15q3 18 3 52v43q0 1 -2.5 2.5t-5.5 1.5l-3 1q-2 -3 -45 -57zM117 529q62 41 64 43q5 5 7 29q-1 3 -10 5q-36 -1 -54 -37q-7 -16 -7 -34v-6zM543 573q-10 39 -14 49q-1 2 -4.5 5t-6.5 5l-4 1q-8 -10 -24 -34l18 -6h5 q17 -1 18 -12q-1 -6 -5 -17q-2 -4 -6 -11t-5 -11v-4.5t1 -5.5l1 -5q17 6 18 8q0 2 8 38zM327 310q2 1 5 3q2 2 3 2q8 4 21 10q-2 -17 -1 -25q3 -7 10 -10q16 9 17 16q0 5 -14 20q-5 6 -6 9t-17 13q-3 2 -4 3q-11 -18 -19 -32q0 -2 5 -9zM130 425q2 -1 6 -5q5 -4 7 -5 q6 7 40 55q1 2 -2 9v1q-9 -3 -10 -4q-7 -8 -21 -26q-13 -17 -20 -25zM107 431q2 -1 7 -3q4 -3 6 -4q5 9 16 27l15 27q-2 1 -7 4l-6 3q-5 -9 -16 -27zM203 646q-4 2 -7 4.5t-4.5 4l-3 3t-2.5 1.5h-1q-14 -11 -37 -32q0 -2 4 -9q8 4 26 14q16 9 25 14zM113 640q8 -11 14 -18 q5 6 15 17q11 12 16 17l-2 2q-2 3 -4 4h-1q-10 -5 -38 -22zM105 709q-17 10 -28 15q-2 0 -9 -6q5 -5 14 -15t14 -15q5 11 9 21zM379 261l5 -10l4 -8q2 2 5 6q9 9 10 13q0 4 -13 18q-2 -4 -11 -19zM473 465q11 10 28 25l-4 4t-4 3q-11 -8 -30 -23q1 -1 3 -2zM107 336 q5 -10 11 -19q3 4 8 12t8 12l-13 6q-3 -1 -14 -11zM231 419q-1 -1 -2 -5q-2 -4 -2 -5q5 -3 15 -7q9 -6 14 -8q2 4 3.5 9t0.5 5q-5 2 -14 6q-10 3 -15 5zM139 709l16 16q-10 4 -13 4q-3 -1 -18 -12q9 -5 15 -8zM168 324q2 4 6 10q6 9 8 13q0 3 -5 11q-2 -3 -8 -8 q-8 -9 -11 -13q1 -2 10 -13zM168 412q-3 -5 -10 -13q-5 -6 -7 -9q1 0 3 -1.5t4 -2.5h2q3 2 21 15q-2 2 -6.5 5.5t-6.5 5.5zM172 152l-9 3q-1 -4 -5 -13q-5 -8 -6 -12q2 -1 6 -2l6 -3q2 5 4 13q3 10 4 14zM118 526q-5 -19 -5 -24q1 -2 6 -11q11 19 11 20q-1 3 -12 15z M331 373l-17 8q-6 -6 -12 -17q1 -2 6 -8q5 3 23 17zM134 211q-1 0 -4 1t-5 2h-2q-5 -6 -11 -17q0 -2 6 -9q2 2 5 8q7 9 11 15zM179 686q11 18 13 23q0 2 -4 6l-12 -15q0 -3 3 -14z" glyph-name="R" horiz-adv-x="586" unicode="R"/>
<glyph d="M20 207v41v21q0 2 1 4.5l2 5t3 3.5l1 2q16 -3 20 -8q10 -19 31 -57q28 -53 43 -79q7 -11 24 -12h15h29q86 1 127 27q39 25 57 80q0 3 1 5q11 38 11 69q-1 88 -75 150q-12 10 -35 10q-12 0 -17 -2q-19 -7 -38 -7q-25 0 -75 15q-66 17 -88 75q-8 21 -8 43q0 27 10 51 q28 66 120 92q31 8 58 8q48 -1 92 -25q4 -2 8 -2q15 0 25 8q42 33 67 34q9 0 13 -1q10 -2 15 -11q1 -3 1 -4q1 -14 1 -38q0 -36 -1 -53q0 -3 -9 -15q-2 -1 -2 -2q-1 2 -4 7q-5 8 -6 11q-1 7 -1 16v18v10q-1 4 -5 12q-9 -5 -10 -7q0 -16 2 -47q0 -7 2 -20l-21 3q-10 7 -31 21 q-46 30 -69 42q-38 19 -71 19q-62 -1 -86 -61q-5 -12 -5 -31q0 -57 37 -104q18 -22 37 -29q8 -2 12 -2q6 0 20 3q10 2 14 2q11 2 33 2q92 0 150 -48q20 -16 31 -36q18 -32 18 -67q0 -31 -13 -68q-40 -117 -140 -149q-4 -1 -6 -2q-106 -30 -164 -30q-51 0 -96 17q-12 5 -15 4 q-6 -1 -13 -1q-27 2 -27 30v12q1 9 1 13v32h-1zM443 346q1 -1 4 -3t4 -3q2 2 6 7q11 13 10 17q-4 13 -25 47l-9 -12q-12 -16 -15 -24t-5 -38q12 17 26 32q3 3 14 7q0 -2 1 -7q1 -6 0 -9q-3 -6 -11 -14zM383 185q2 2 7 4q7 4 9 6q6 9 17 27q12 19 18 28t11 19q-20 2 -31 2 q-6 -1 -10 -8q-14 -50 -21 -78zM111 519q16 -7 41 -17l8 5q-6 7 -17 23q-12 16 -17 23q-1 -3 -4 -9q-6 -14 -11 -25zM93 146q-4 5 -11 15q-13 18 -19 26q-1 -2 -4 -5.5t-5 -5.5l-1 -3q11 -13 32 -34q1 1 8 7zM121 686q-8 -19 -20 -46l7 -2q3 7 9 20l9 21l-3 5q-2 1 -2 2z M437 312q-1 1 -3 4l-3 3q-3 -4 -11 -13q-7 -8 -10 -12q1 -1 3 -5q4 4 12 11zM41 200h4v27h-4v-27z" glyph-name="S" horiz-adv-x="513" unicode="S"/>
<glyph d="M350 609q0 -301 -1 -452q0 -30 17 -33q4 -1 8 -1h8q5 0 22 -10q-3 -2 -8 -7q-12 -11 -18 -12q-15 -2 -44 -2l-43 1q-49 3 -95 9q-3 1 -13 15q-2 1 -2 2q19 9 20 9h17q23 0 26 11q2 7 3 34q1 55 4 164q3 110 4 164q0 3 -9 37v2l-2 8q16 34 16 83v31q-1 20 -1 30v13 q0 11 -16 20l-6 3q-28 7 -50 7q-12 0 -17 -1q-28 -6 -59 -31q-7 -6 -41 -46q-5 -6 -9 -10q-14 -14 -19 -11q-13 8 -15 20q-7 44 -7 76q0 9 13 17q4 2 6 2q121 4 270 4q14 0 41 -3q28 -4 42 -4q8 0 44 12q2 1 3 1l10 3q16 -19 43 -19q8 0 24 2t24 2h7q26 -3 28 -15q1 -3 1 -6 v-3q-1 -3 -1 -4q-3 -26 -5 -75q-3 -21 -16 -22q-8 1 -14 4q-14 8 -34 30q-6 6 -16 19q-24 30 -39 37q-18 7 -38 7q-16 0 -41 -4q-7 -2 -12 -44q-1 -8 -1 -21q0 -7 1 -22v-21h-10zM310 309l3 -3q2 -3 3 -4l21 27q2 3 -8 11q-2 1 -3 1q-36 -12 -52 -21q-2 -2 -4 -21l15 6 q2 0 3.5 0.5t3.5 1t3.5 0.5t4 0.5t3.5 0.5h4zM296 624q11 10 30 27l14 14q-3 1 -9 4q-14 6 -19 4q-15 -7 -29 -25q0 -3 13 -24zM307 735q-21 -23 -23 -27q-1 -3 7 -17q7 4 21 11q15 8 22 12q-4 3 -13 10t-14 11zM263 186l3 -12t3 -11q6 9 17 25q12 18 18 26q-1 3 -5 6 q-27 -7 -28 -8q-9 -6 -9 -17q0 -6 1 -9zM290 360q1 -1 2 -3q2 -2 2 -3q4 3 14 7q16 8 22 13q3 3 5 25q1 3 1 4l-21 -9q-3 -3 -25 -34zM289 114q5 3 17 9.5t17 9.5q-2 1 -6 4q-9 5 -12 5q-8 -2 -42 -17q15 -6 26 -11zM329 220q-17 -22 -21 -28t-12 -25l7 -2q23 21 26 25 q1 4 0 30zM306 277h-5q-32 -1 -33 -18q0 -8 5 -22q22 26 33 40zM42 704q2 -5 5.5 -14t5.5 -13q1 4 5 11q7 13 8 19q0 4 -13 16q-2 -4 -11 -19zM342 543q0 3 2 7q1 5 1 7l-14 2l-30 -30q7 -4 10 -4q6 3 31 18zM298 587q0 -1 2 -3t2 -3q3 2 10 4q14 7 19 11q2 3 7 21l-17 -6 q-9 -8 -23 -24zM519 735q-3 -2 -7 -5q-5 -4 -7 -6l-12 -9q3 -3 11 -9q8 -5 11 -8l4 4q4 6 5 8q0 6 -5 25zM549 697h-13q0 -22 1 -33q0 -2 6 -3q1 -1 2 -1h1q0 6 2 18q1 13 1 19zM342 447q-3 2 -6.5 4.5t-5.5 3.5l-2 1q-3 -2 -17 -17q8 -5 9 -5q3 2 22 13zM297 393q-1 1 -4 3 t-4 3q-3 -5 -10 -14q-7 -10 -10 -14q1 -1 4 -3q3 -1 4 -2q3 4 10 14q7 9 10 13zM307 555l-7 7q-3 -4 -10 -11q-6 -8 -9 -11l4 -3q3 3 11 9t11 9zM315 488q1 -1 4 -3t4 -3q3 3 7 8q5 6 7 9q-1 1 -4 5q-3 -2 -9 -8t-9 -8z" glyph-name="T" horiz-adv-x="595" unicode="T"/>
<glyph d="M556 750q20 1 59 2q40 2 59 3h2q23 -1 24 -19q0 -7 -3 -14q-12 -31 -25 -43q-28 -27 -30 -82q-1 -26 -2 -77q-4 -128 -13 -191q-8 -48 -66 -122q-83 -106 -212 -107h-13q-100 5 -182 61q-42 29 -64 94q-19 55 -23 64q-2 6 2 13q26 9 26 38v23v8q3 27 4 82q1 60 5 90 q1 7 1 17q0 46 -47 92q-6 6 -20 19q-3 2 -18 21l7 7q14 13 20 14q18 2 51 2h26h26q20 1 59 2q40 2 59 2q4 -1 17 -10q-2 -2 -6 -7q-8 -10 -11 -10q-2 0 -6 1h-4q-30 0 -34 -32q-2 -9 -2 -22q-1 -30 -2 -90q-2 -172 -12 -256q-2 -18 -2 -26q0 -69 63 -130q6 -6 12 -11 q28 -24 62 -24q54 1 91 60q12 20 36 90q7 21 13 34q34 79 38 206q1 26 4 77q3 68 4 102q-1 7 -22 19q-10 5 -43 18q5 1 15 5q19 7 28 8q6 1 16 1h17q11 -1 16 -1v-1zM586 563q1 -1 4 -3l3 -3l9 9q15 15 16 22q3 30 3 61q0 9 -1 25v25q-1 5 -13 21q-5 -5 -17 -14 q-11 -9 -16 -14l3 -3q4 -3 5 -3q17 2 18 2q12 -1 13 -7q0 -5 -14 -26q-2 -2 -2 -3q-4 -8 -36 -52q-2 -3 -3 -5l2 -2q2 -2 3 -2q5 3 16 9q22 12 38 20q-8 -14 -19 -34q-8 -16 -12 -23zM549 256q-50 -4 -79 -57q-5 -9 -20 -41q56 21 87 69q9 15 12 29zM570 503q27 -6 28 -18 q-1 -8 -4 -14q-1 -3 -5 -7q-4 -6 -5 -9q-1 -2 -1 -8q-1 -4 -1 -6h6q7 1 8 2q17 33 20 48v7q0 8 -5 36q-7 -5 -21 -16q-13 -10 -20 -15zM524 280q1 -2 4 -4l3 -3q6 6 37 19q30 14 31 42q0 10 -1 15q-12 -11 -35 -33q-27 -25 -39 -36zM191 550q-7 -10 -19 -31q-13 -21 -19 -31 q42 6 43 36q0 10 -5 26zM186 416l-45 -63q41 18 45 27q3 5 3 12q0 9 -3 24zM115 693q-20 16 -27 19q-3 0 -13 -7q4 -5 13 -17q8 -12 12 -17q1 2 4 6q7 9 11 16zM202 448q-12 11 -19 18l-15 -18q-11 -12 -16 -18l5 -6q27 14 45 24zM139 538q-3 -8 -9 -20q-8 -14 -10 -21 q0 -2 6 -12q24 35 26 38q-1 2 -13 15zM207 634l-9 18q-2 5 -3 7q-5 -5 -15 -16t-14 -16l10 -6q2 1 31 13zM156 672l6 -6q5 4 14 11q15 12 22 18q1 2 0 17q-14 -3 -15 -4q-2 -3 -27 -36zM151 207q31 15 32 25q0 9 -12 24q-6 -15 -20 -49zM129 275l4 -4q3 2 9 7q13 9 18 14 q2 2 2 19v3q-14 -9 -15 -10q-4 -5 -18 -29zM132 591q-1 -6 -4 -14q-3 -9 -3 -13q0 -2 6 -17q9 16 16 29q-1 3 -15 15zM617 409q-2 1 -5 3q-4 3 -6 4l-12 -18q-9 -12 -13 -18l4 -4q3 -2 4 -3q5 6 14 18q10 12 14 18zM572 381l-18 18q-4 -5 -11 -13q-8 -9 -11 -13l4 -8 q24 10 36 16zM228 151l6 6q-16 14 -26 22q-1 -1 -8 -6q4 -3 14 -11t14 -11zM127 682q2 -1 5 -2l6 -3q2 5 6 17q5 11 7 16q-3 1 -6 1.5t-3 -0.5q-2 -5 -8 -15q-5 -9 -7 -14zM116 321q-7 -20 -7 -23q1 -2 6 -11l12 21q-1 2 -11 13zM108 363q2 -3 5 -8q2 -5 3 -6q8 14 11 21 q0 3 -5 10q-5 -6 -14 -17zM533 430q1 -1 5 -2q3 -1 4 -2q3 5 8 15l9 15q-1 1 -5 2q-3 2 -4 3q-3 -5 -8 -15q-6 -11 -9 -16zM646 698q2 0 4 -2q4 -2 5 -2q1 4 5 12q3 9 4 13l-8 3q-4 -9 -10 -24zM200 600l-4 2q-3 2 -4 3q-2 -4 -8 -11q-5 -8 -7 -12l10 -3q6 8 13 21zM123 614 q1 0 5 -2t5 -2l13 26q-1 0 -3.5 2t-3.5 2q-3 -4 -8 -13q-6 -9 -8 -13zM537 319q-1 1 -3 2q-2 2 -3 2q-4 -5 -12 -17t-12 -17q1 -1 3 -1q1 -2 2 -2q4 6 12 16q9 12 13 17z" glyph-name="U" horiz-adv-x="720" unicode="U"/>
<glyph d="M562 670q-25 26 -32 35q-5 7 -25 45q6 1 19 3q25 3 37 3q14 0 42 1h40h40q28 -1 42 -1q14 -1 19 -5q3 -4 1 -16q-1 -4 -16 -31q-6 -11 -6 -19q0 -9 9 -21q-1 -1 -2 -3q-37 -20 -61 -80q-17 -44 -19 -49q-24 -51 -131 -302q-5 -11 -14 -35q-20 -52 -35 -75q-6 -10 -50 -15 q-6 -1 -9 -1h-9h-16q-10 1 -15 1q-11 0 -17 -2q-12 -3 -19 -3q-21 0 -27 27q-1 3 -2 9q-3 10 -4 15q-24 82 -95 312q-9 29 -9 31v23q2 -2 6 -5q10 -9 12 -14q11 -33 33 -100l18 -57q7 -20 19 -59q23 -70 35 -104q1 -3 13 -14l3 -3q5 15 7 19t8 13q7 10 9 15q11 25 31 75 l30 75l12 24q10 15 13 23q61 132 107 236q4 10 8 29zM480 218q3 4 8 9q5 7 7 10q1 3 24 54q3 8 1 12q-35 43 -43 51q-5 4 -19 4l-4 -9v-1q4 -10 12 -28q9 -19 13 -28q1 -3 6 -24q-3 1 -8 3q-9 3 -14 4q0 1 -11 1l-12 -1q8 -10 23 -32q11 -17 17 -25zM614 728q-2 -6 -7 -18 q-6 -14 -6 -18q1 -3 1 -4q11 -18 52 -63q4 -4 14 1q1 2 2 2q12 20 12 27q-2 13 -20 24q-3 2 -9 4q-23 13 -25 27q0 5 1 8q-2 1 -15 10zM577 640q38 -55 42 -60q2 -2 22 -11q2 -1 3 -1q0 4 2 11q2 12 2 17q0 4 -2 9q-9 16 -39 50q-2 1 -20 11q-1 -2 -10 -26zM450 147 q13 22 14 24q4 10 4 16q0 28 -22 42q-6 3 -11 4q-13 1 -25 -7q-4 -4 3 -20q7 -11 37 -59zM488 385q7 3 19 9l20 10q-6 7 -19 21l-18 21q-2 -4 -6 -11q-10 -17 -12 -26q-1 -3 13 -20q2 -2 3 -4zM546 588q-16 -39 -24 -62q-3 -12 4 -19q8 -2 20 -2h14q-9 20 -9 22 q-1 3 -1.5 5.5t-1 5.5t-1 5.5t-0.5 4.5t1 2q15 7 16 14q0 5 -14 20q-3 2 -4 4zM515 387l-24 -12q7 -8 21 -23q15 -15 22 -23q2 3 6 11q9 14 9 19q0 10 -28 25zM531 488q4 -5 9 -13q6 -9 9 -13q15 -17 31 -31q6 16 6 14q-13 19 -34 42q-1 1 -17 1h-4zM636 536q-44 49 -46 51 q-3 2 -11 6q0 -1 -1 -3.5t-1 -4t-0.5 -3.5t0.5 -2q13 -18 40 -49q3 -1 19 5zM523 459l-3 -3q-3 -1 -4 -2q26 -38 40 -57q2 -1 9 -3q0 1 1 3t1.5 3.5t1 3.5t-0.5 2q-8 11 -27 32zM562 735q-12 -7 -18 -9q4 -4 12 -14t12 -14q13 16 13 17q-3 4 -19 20zM436 132q0 2 2 4 q2 4 2 5q-9 5 -26 15l-27 15q-1 -2 -3 -7l-3 -6q9 -4 27 -13q19 -9 28 -13zM437 292l10 14q-3 6 -11 14l-8 -11q1 -3 9 -17zM360 129l15 10q-2 2 -6 7l-6 6q-8 -12 -9 -13q1 -2 6 -10zM191 748q3 0 22 -3q-1 -3 -1 -10q-2 -13 -5 -16q-39 -30 -39 -71q0 -26 20 -79 q3 -7 5 -40q-14 26 -17 35l-45 141q-6 12 -22 17q-3 1 -72 9q-4 1 -17 8l18 9q6 1 25 1q21 0 64 -0.5t64 -0.5zM162 727l-16 -14q-1 -2 -1 -3q1 -4 14 -16q3 4 9 10q6 7 9 10q-3 3 -15 13z" glyph-name="V" horiz-adv-x="765" unicode="V"/>
<glyph d="M722 90h-41q-27 0 -41 1q-7 1 -15 21q-2 3 -2 12q0 7 -1 9l-45 117q-30 77 -45 116q-5 12 -7 15q-2 2 -17 14q-1 -3 -4 -7q-5 -7 -6 -10q-60 -152 -75 -187q-6 -14 -6 -25q1 -17 15 -33q9 -12 10 -20q-2 -11 -22 -12q-66 -1 -195 -1q-2 1 -16 10q13 9 15 10q34 8 37 21 q1 3 1 5q0 11 -8 32q-13 38 -144 413q-6 16 -16 49q-18 52 -28 78q-3 6 -26 19q-1 1 -2 1q-8 5 -18 8q2 1 6 5q8 6 11 7q24 2 68 2q3 0 33 -3q21 -3 22 -5q1 -13 -4 -29q-2 -8 -10 -13q-34 -20 -35 -52q0 -17 15 -57q88 -246 133 -368q3 -8 26 -44q1 -2 2 -3q3 5 9 16 q13 21 18 32q82 204 122 307q6 16 6 26q0 6 -1 8q-17 53 -51 140q-3 5 -18 8q-6 0 -17 1q-18 0 -26 1q-6 2 -18 14q2 1 7 5q10 7 14 7q30 1 88 1q163 0 244 -1q5 0 22 -16l3 -3l-9 -3q-11 -4 -16 -6q-17 -10 -19 -14q-16 -35 -47 -105q-32 -71 -48 -106q-3 -6 -9 -19 q-9 -17 -13 -26q-6 -16 -6 -24q2 -18 18 -27q6 -4 12 -19q13 -35 40 -104q26 -70 39 -104q2 -4 14 -23l6 9q8 10 10 15q30 73 91 219q43 104 64 155q24 60 31 74q9 18 9 31q-1 23 -33 55q-2 2 -12 21q3 1 8 3q8 4 12 4q48 1 141 1q34 -1 35 -17q-1 -9 -8 -26 q-25 -54 -73 -163q-50 -109 -74 -163q-26 -58 -76 -173q-7 -18 -7 -29q2 -22 24 -35q5 -3 14 -26q1 -3 2 -4q-25 -11 -26 -11q-2 0 -61 -3v1zM458 725q-9 0 -13 1q-6 1 -12 1q-16 -2 -17 -15q0 -9 4 -19q5 -13 14 -39l15 -39q1 -1 9 -11q9 9 10 12q3 6 8 20q7 20 12 29 q16 30 16 41q0 17 -38 19h-8zM862 612q49 -38 52 -40l13 15q3 5 5 8q4 9 1 15q-10 8 -36 23q-15 7 -17 6q-4 -4 -18 -27zM385 149q-29 42 -30 43q-4 4 -28 18q-1 -2 -3 -8q-6 -12 -5 -16q2 -4 18 -19l4 -4q12 -12 18 -19q3 -4 10 -15q2 2 6 7q6 9 10 13zM912 539 q-44 37 -51 42l-14 -13q7 -9 23 -27t23 -27q11 15 19 25zM456 524q-2 -2 -5 -6q-7 -7 -9 -11q-2 -5 2 -13h5q18 0 32 -24q6 -11 8 -14q6 -6 21 -6q1 0 2.5 2t2.5 4t1 4l1 3q-29 30 -61 61zM536 513q-8 8 -24 25l-24 24q-3 2 -16 7q0 -20 1 -21q9 -10 45 -46q3 -3 10 -6l4 8 t4 9zM598 661l-14 18q-11 12 -30 31q-6 5 -17 10q0 -3 -2 -11q-3 -15 -1 -18q10 -8 53 -34q2 0 11 4zM573 599l-48 42q-2 2 -21 9q6 -25 7 -27q5 -6 37 -35l2 -2q6 -3 11 -2q5 4 12 15zM914 714q-2 -4 -5 -9.5t-4 -8.5l-1 -3q16 -15 45 -38q1 1 2.5 3t2.5 4t2 3.5t2 2.5v2z M845 388q2 8 6 18l1.5 4.5t1 3.5t-0.5 2q-17 25 -35 42q-3 1 -20 -4q8 -11 26 -36q13 -19 21 -30zM735 299q-1 -3 -3.5 -7t-3.5 -6.5l-2 -5t-2 -4.5v-1q15 -13 37 -27l2 1q2 1 5 5l3 3q-4 5 -13 15q-15 17 -23 27zM765 217q-19 15 -48 36q-2 -3 -5 -8q-4 -6 -6 -8l42 -27 q1 -1 6 2q7 4 11 5zM749 337q-1 -5 -3 -12q-2 -6 -1 -7q29 -29 44 -42q2 0 7 5q-29 35 -47 56zM600 735q-11 -8 -24 -17q4 -5 12 -14l12 -15q2 4 6 11q7 12 9 18q-1 3 -15 17zM693 185q-7 -9 -13 -17q-4 -6 -5 -7q7 -6 23 -17q15 -12 22 -18q2 1 7 5v3q-5 9 -17 26 q-11 16 -17 25zM871 446q-7 8 -19 25q-18 23 -27 34l-2 -1q-2 0 -4 -1l-2 -1q0 -6 4 -12q4 -5 38 -44q3 -4 8 -7q1 1 2 3q1 3 2 4zM832 359q-5 3 -14 7l-14 7q-6 4 -18 14q-10 8 -14 11q19 -27 21 -31q9 -18 20 -19q10 1 19 11zM319 118l22 11q-27 19 -31 21l-12 -12l10 -10 q8 -7 11 -10zM511 564q10 5 13 6q-15 25 -19 30q-4 4 -17 8q-2 -1 -5 -6q5 -6 14 -19q10 -13 14 -19zM107 739q-15 -13 -15 -14q-1 -1 -1 -2q0 -4 8 -21q4 4 13 12l12 12q-3 2 -9 7q-5 4 -8 6zM737 172q1 2 3 4q1 3 2 4q-6 4 -18 11q-11 8 -17 11q-1 -1 -2.5 -3.5t-1.5 -3.5 q5 -4 17 -11q12 -8 17 -12zM427 358q1 1 3 4l3 3q-5 5 -15 14q-9 10 -14 14l-3 -3q-2 -3 -3 -4q5 -4 14 -14q10 -10 15 -14zM449 467q-13 12 -15 11q-4 -2 -10 -10l3 -3q4 -3 6 -4q2 1 16 6zM862 504q0 -1 -2 -3t-2 -3q4 -3 10 -9q7 -6 10 -9q1 1 2 3q2 2 2 3q-4 3 -10 9 q-7 6 -10 9zM457 322q-7 2 -21 4q-13 3 -20 4q0 -1 3 -8q1 -6 3 -17q1 -12 2 -17q-4 4 -12 10q-7 8 -11 11q-1 1 -2 3l-4 4q-2 0 -6 1t-7 2t-6 1.5t-5 0.5t-2 -1q-9 -18 -21 -53q-1 -7 8 -13q1 -1 19 -6v15q0 11 -2 28q3 -1 11 -3q13 -4 18 -6q3 -1 7 -6q5 -6 8 -7 q10 -2 17 1q5 10 14 31zM457 322q22 43 26 50q5 11 3 15q-34 34 -52 49q-3 2 -22 1q3 -19 5 -22q5 -5 15 -14q15 -13 20 -20q6 -10 8 -36v-1q0 -3 -3 -22z" glyph-name="W" horiz-adv-x="1026" unicode="W"/>
<glyph d="M241 756q15 -1 51 -3q84 -6 128 -8q4 0 27 10q1 1 2 1t4 2q4 2 6 2q48 -4 70 -8q2 -1 20 -14q2 -1 3 -2q-18 -13 -22 -13q-31 -3 -32 -18q0 -6 3 -15q1 -3 -1 -7q-31 -22 -52 -80q-14 -40 -22 -54q-37 -68 -66 -143q-4 -11 -4 -27q0 -17 4 -27q38 -92 93 -205 q7 -12 29 -15h8l40 2q2 0 12 -12l2 -2q-12 -12 -11 -11q-1 -1 -2 -1q-122 -13 -162 -15q-7 0 -23 -1h-23q-3 0 -144 3q-107 3 -128 4q-6 1 -27 15q-3 2 -4 3q22 8 33 13q23 12 26 17q20 43 59 130q52 114 78 170q22 48 22 77q-1 31 -19 58q-44 65 -51 101q-9 40 -43 41 q-9 0 -26 -2q-3 1 -18 9l6 6q8 8 12 9q16 1 142 10zM333 126h27q30 2 43 33q5 11 5 21t-4 18l-57 120q-2 3 -15 18q-2 -2 -5 -7q-6 -7 -8 -11q-13 -30 -40 -90q-27 -59 -40 -89q-3 -7 -3 -12q0 -9 12 -9h3q17 1 49 5q23 2 33 3zM241 727q-6 1 -13 1q-33 -2 -34 -30 q1 -16 10 -33q11 -21 46 -90q2 -3 12 -15q10 14 11 15q10 23 46 109q11 25 11 32q-2 10 -22 10h-7q-8 -1 -12 -1h-9q-10 0 -39 2zM391 511q-47 63 -62 79q-3 2 -27 -4q9 -19 9 -20q6 -8 19 -23q25 -29 36 -44q1 -3 -1 -16l-16 7q-30 34 -46 50q-4 3 -22 5q3 -21 4 -22 q14 -17 42 -45q10 -11 10 -21q0 -7 -13 -34q-1 -2 -1 -3l-6 -15q-11 5 -16 8q-7 6 -21 17q-15 12 -22 18q-4 3 -17 9l6 -20q3 -3 66 -69h8h1q44 92 69 143zM178 172q2 -10 6 -31v-5v-5v-5q25 -5 28 -2q5 9 51 107q1 1 -1 5l-1 1q-22 27 -65 76q-1 1 -3.5 2t-4.5 1.5t-4.5 1 t-3.5 0.5h-2q-9 -24 -9 -27q1 -3 1 -4q4 -5 30 -23q4 -3 7 -5q19 -16 30 -32q1 -5 -1 -23q-4 2 -14 6q-9 5 -13 7q-3 1 -12 5l8 -18q3 -8 7 -23q5 -16 7 -23q-7 2 -21 7q-13 5 -20 7zM256 386q-1 0 -2 -2q-2 -1 -3 -1l21 -51q1 -3 3 -32q-29 11 -33 14q-3 2 -17 25 q-4 7 -7 10q-2 2 -21 6h-2q7 -18 7 -19q7 -6 21 -17q23 -18 31 -28q19 -21 22 -22q4 0 15 23q1 3 2 4q7 15 13 29q5 17 3 19q-9 8 -53 42zM361 628l-3 -11q12 -24 35 -69l12 4l1 1q1 2 1 4q0 21 -26 54q-12 15 -20 17zM386 660q-2 7 -5 20q-4 18 -6 26q-1 2 -6 11 q-11 -6 -13 -8q-9 -12 -9 -22q1 -17 23 -34q1 -1 13 -6q2 9 3 13zM251 378q-4 7 -11 20l-12 21q-2 -3 -7 -9q-10 -13 -11 -18q0 -8 25 -26q3 -3 5 -4q2 2 5 7zM193 197q-4 9 -10 24q-8 22 -13 30q-1 2 -4 3t-10 2h-7q0 -3 -1 -9q0 -13 2 -17q3 -4 40 -31q2 -1 3 -2zM433 618 l-12 18q-13 17 -19 26q-1 1 -8 2q-2 -8 -2 -10q3 -8 24 -46q1 -1 9 -5q1 2 3 5zM342 601l12 6q-3 7 -10 21l-9 21q-10 -7 -10 -8q8 -19 17 -40zM104 119q3 2 8 6q6 4 8 6q-11 9 -15 10t-9 -7q-1 -1 -1 -2q1 -4 9 -13zM274 469q2 1 4 3q4 1 5 2l-18 24l-5 -3q3 -6 14 -26z " glyph-name="X" horiz-adv-x="571" unicode="X"/>
<glyph d="M228 97h-74q-50 0 -74 1q-6 0 -25 14q-2 1 -3 2q3 1 8 4q12 7 18 7q23 0 33 24l2 4q14 33 43 97q30 66 44 98q14 33 50 136q3 9 -1 16q-117 169 -153 216q-7 9 -44 24q-8 4 -13 6q-8 5 -19 14q12 9 21 13q11 5 24 5q10 0 52 -12q16 -5 27 -5q9 0 17 3l7 -15v-2 q-17 -25 -17 -49q1 -33 36 -75q4 -4 55 -76q7 -10 12 -17q3 -5 14 0q2 1 3 2q8 16 21 50q8 20 12 29q16 35 18 38q8 15 8 24q-1 16 -19 29q-6 4 -26 30q-1 2 -2 3q5 1 15 4q20 5 30 5q82 0 164 -3q3 0 21 -9q-8 -18 -10 -22q-47 -91 -53 -105q-17 -37 -150 -338 q-35 -82 -38 -90q-1 -3 -1 -5q0 -5 9 -30q3 -8 9 -22q6 -12 8 -18l-39 -9q-8 -1 -20 -1v5zM353 535q-6 -33 -12 -69q-1 -4 -1 -12q-2 -8 -2 -11q-4 3 -11 7q-8 6 -11 8l-6 6q-3 4 -5 5q-1 1 -3.5 2t-3.5 1.5t-3.5 1.5t-3.5 1.5t-3 1t-2 -0.5q-13 -12 -13 -21q0 -7 13 -12 q4 -2 6 -2q24 0 29 -24q6 -20 7 -23q-13 -7 -15 -7l-17 17l-16 16q-3 2 -25 14v-8q1 -12 4 -16q7 -7 23 -20q18 -14 25 -22q8 -8 12 -8q3 2 9 14q44 101 57 124q14 25 14 42q-2 27 -40 48q1 -5 4 -12q3 -11 4 -16l3 -15q1 -10 2 -15q-5 1 -12 3q-6 2 -7 2zM285 260q1 2 2 6 q1 5 2 7q-46 48 -68 70q-1 -1 -11 -9q-2 -5 -2 -7q0 -25 24 -56q11 -13 19 -14h5q4 0 29 3zM185 249q-3 -1 -7 -3q-6 -1 -8 -2q0 -3 -2 -10q-3 -15 0 -19q18 -19 57 -48q2 0 19 12q-10 12 -30 35t-29 35zM375 659q27 -62 33 -76q2 -4 8 -2q2 5 8 16q16 30 16 46q0 8 -16 37 q-2 3 -3 5q-9 -8 -8 -12q1 -7 5 -23t5 -23q-6 4 -17 11q-19 14 -31 21zM229 248q-7 7 -17 20q-10 11 -14 16l-10 -10q6 -7 30 -31q2 1 11 5zM185 139q-20 30 -30 44l-9 -1l-1 -1q-2 -5 0 -10q2 -3 27 -36q3 -3 8 -3q2 1 5 7zM296 300l9 17q-7 9 -23 28l-1 1l-3 -3t-3 -4 l-1 -2q3 -6 22 -37zM247 395q-2 -1 -6 -1q-4 -1 -6 -1q3 -26 4 -30q1 -1 15 -6q-2 6 -4 19t-3 19zM363 670q-9 -18 -9 -19q4 -7 16 -23q5 12 5 14q-1 3 -12 28zM399 701q-12 11 -14 12q-3 0 -7 -7q-1 -2 -1 -3q2 -6 10 -12q2 1 12 10zM126 715q1 1 11 15q-7 4 -16 7 q-1 0 -2.5 -1.5t-2.5 -3.5l-1 -2q1 -3 6 -8q4 -5 5 -7zM206 145l-8 -10q7 -9 12 -11q3 0 10 5q-2 3 -7 8t-7 8zM348 599q-2 3 -6 7q-3 5 -5 7q-5 -8 -5 -9q1 -1 10 -15q1 1 2 4q3 4 4 6z" glyph-name="Y" horiz-adv-x="532" unicode="Y"/>
<glyph d="M263 114q203 5 241 7q21 2 38 22q12 14 33 44q13 19 20 28q3 3 22 10l9 -22q6 -58 6 -87q0 -10 -13 -19q-4 -2 -6 -2h-164l-397 1q-6 0 -28 12q-3 1 -4 2q22 12 29 12h2h6q24 0 45 29q2 4 6 10q6 9 88 123q16 21 27 38q27 40 79 122q38 60 57 89l51 75q36 50 52 75 q5 8 19 43q-6 1 -17 3q-20 4 -29 4q-39 0 -115 -1q-78 -1 -116 -1q-40 -1 -68 -45q-4 -6 -21 -25q-3 5 -7 14q-6 10 -8 14v2v36q-1 24 -1 36q8 -1 25 -2q33 -4 49 -4q53 -1 159 -2t159 -2l57 -3q39 -1 58 -2q1 0 10 11q2 3 4 4q4 3 26 12q0 -3 1 -8q0 -14 -2 -18 q-33 -46 -97 -137q-66 -92 -98 -138q-71 -100 -133 -197q-11 -17 -29 -51q-18 -35 -28 -51q-3 -6 -27 -25l-8 -8q-3 -4 -10 -20q3 0 11 -2t11 -3q5 -1 15 0q8 1 11 1v-4zM280 323q-2 1 -4 3l-4 4q3 2 7 7q8 8 13 11q4 1 19 -2q-2 6 -7 17q-4 12 -6 17q-2 -1 -8 -2 q-8 -3 -11 -6q-7 -10 -21 -29q-21 -30 -32 -44q-22 -29 -23 -44q2 -17 25 -32q9 -6 16 -11q11 16 10 15q1 2 1 3q-1 12 -8 55q-1 8 0 16l10 1h1q12 -8 19 -8q3 2 4 5q0 3 -1.5 10t-1.5 9q1 3 2 5zM418 557q3 -33 3 -34q2 -6 9 -16q4 -7 6 -10q3 2 8 6q10 7 13 11 q46 66 67 100q8 16 3 26q-3 6 -25 21q-1 2 -2 2v-34q0 -17 -2 -21q-5 -7 -14 -7q-13 9 -19 9q-5 -1 -5 -8q0 -3 1 -10t1 -9q0 -4 -6 -49q-7 5 -38 23zM239 185q-39 35 -50 44q-1 -1 -13 -12q25 -25 39 -37q3 -1 24 5zM549 653q5 8 15 20q11 14 14 21q5 10 0 19q-3 2 -23 9 q-1 -3 -3 -7q-3 -8 -3 -12v-9q-1 -8 -1 -12v-12q1 -11 1 -17zM161 152q7 -13 18 -34q2 3 7 9q9 13 9 19q0 8 -17 26q-3 3 -4 5q-5 -8 -13 -25zM352 434q-2 -1 -8 -2q-5 -2 -7 -3q3 -9 8 -28q6 -19 8 -28q3 2 9 5q7 4 8 5q-8 25 -18 51zM602 171q-2 1 -5 1q-4 2 -5 2 q-4 -8 -12 -26q-7 -18 -11 -26h26q2 9 7 49zM374 474q5 -8 14 -24q7 -11 10 -16l10 18v2q-3 6 -23 33q-3 -3 -11 -13zM538 707q-8 10 -11 15l-7 -7q-11 -11 -12 -17q-1 -4 13 -19l4 -4q8 20 13 32zM330 412l-10 14q-12 -18 -12 -19q1 -3 11 -12q4 6 11 17zM409 518 q-5 8 -12 19q-5 -14 -5 -16q1 -2 10 -16q4 9 7 13zM126 116q2 1 6 5q4 3 5 4q-13 10 -14 10q-2 -1 -12 -9q2 -1 6 -4z" glyph-name="Z" horiz-adv-x="667" unicode="Z"/>
<glyph d="M212 768q134 -7 173 -11q5 -1 17 -24q3 -5 4 -7q-3 0 -10 -2q-9 -2 -14 -2q-21 0 -62 2q-62 2 -93 2q-8 0 -15 -14q-2 -4 -2 -6v-92q-1 -61 -1 -91q-1 -17 -8 -90q-21 -238 -34 -374q-1 -6 -1 -14q0 -29 26 -32q6 -1 12 -1h7q40 2 60 2l111 -1q24 -1 25 -22q0 -9 -1 -13 q-3 -6 -28 -7q-36 -1 -108 -1q-73 -1 -109 -1q-13 0 -38 -1h-38l-38 1q-26 3 -27 15q1 9 11 21q9 10 11 35q16 238 18 319q4 107 4 241v60q-1 40 -1 60q7 41 35 44h5q13 -1 36 -1q12 0 37 1h36v4zM150 205l-13 -7q-38 -58 -56 -88q-1 -3 -1 -12q8 0 12 1q29 12 51 54 q11 23 11 40q0 2 -4 12zM167 274q-3 8 -5 16q-2 7 -3 9q-2 -1 -5 -2q-8 -2 -10 -4q-19 -28 -45 -72q-3 -5 1 -12l8 -1h1q9 10 26 29q22 26 32 37zM94 654l19 -22q7 5 56 41q-3 2 -9 7q-10 7 -13 7q-10 -5 -53 -33zM111 426q-1 3 -5 10q-11 -14 -11 -16q-3 -34 -3 -69 q0 -8 4 -21q2 2 6 5q8 7 9 11q1 9 1 25v25q-1 20 -1 30zM160 559q-8 -6 -25 -16q-30 -18 -35 -33q-2 -7 -2 -13q0 -8 1 -12t6 -16q1 1 5 4q6 5 8 8q10 18 42 78zM89 10q3 11 8 31q5 21 8 31h-11q-5 -19 -13 -54zM167 363q-2 1 -5 4q-4 3 -6 4q-5 -7 -16 -20q-10 -14 -15 -20 q1 -1 5 -3l4 -4zM137 43l-6 3q-4 1 -6 2q-2 -6 -7 -18q-4 -11 -6 -17l12 -3q5 12 13 33zM134 719q0 1 -1.5 5.5t-1.5 5.5l-30 -9q0 -1 3 -15l15 6q10 5 15 7z" glyph-name="bracketleft" unicode="["/>
<glyph d="M248 105h-18q-30 7 -40 10q4 6 11 19q8 12 11 18q14 23 14 27q0 52 -53 174q-22 52 -29 72q-29 85 -89 250q-4 9 -26 46q-9 15 -9 19q4 8 16 10q2 0 146 -3q39 -2 40 -19q-1 -12 -13 -31q-2 -3 -7 -9q-9 -13 -12 -19q-7 -18 -7 -31q0 -7 1 -10q39 -117 101 -287 q8 -22 26 -66q30 -75 42 -112q9 -29 22 -34q6 -2 12 -2h7q3 -1 14 -10q-2 -1 -5 -5q-6 -4 -9 -5q-47 -3 -145 -7q0 1 -1 2v3zM273 200q-2 -4 -5 -14q-4 -9 -6 -13q10 0 11 1q13 11 36 32q-5 1 -15 4q-9 2 -14 3q-1 -2 -4 -7zM138 564q24 7 27 19q1 4 1 8v6q0 5 -1 17t-1 17 q-21 -6 -24 -8q-10 -8 -36 -34q5 -26 13 -28q2 -1 4 -1q3 0 17 4zM94 622q13 -10 15 -10q33 22 44 33q2 2 -3 24q-1 1 -1 2q-2 1 -5 1q-4 1 -6 1q-8 -9 -22 -25q-15 -18 -22 -26zM167 407q12 8 17 13q22 22 32 34q1 2 3 17h-17q-9 -6 -46 -36q5 -15 11 -28zM325 168 q0 1 -2.5 4t-5.5 6l-3 2q-23 -15 -48 -35q1 -2 16 -23q38 40 43 46zM211 289q1 -1 4 -2.5t4.5 -2t4 -1.5t2.5 0q27 24 41 41q1 3 -4 20q-2 0 -5 2q-4 1 -6 1q-7 -9 -20 -29q-14 -20 -21 -29zM91 712q-3 -6 -9 -16q-5 -11 -8 -16q15 -5 16 -4q8 8 34 39q-1 0 -9 8 q-14 2 -20 2q-3 0 -7 -1h-8q-5 0 -13 -6l-1 -1q0 -2 2 -7q9 4 13 6q4 1 11 1q-1 -4 -1 -5zM137 515q1 -1 4 -3q3 -4 4 -3q28 22 41 35q0 3 -6 27q-10 -13 -26 -34q-12 -15 -17 -22zM216 392q-12 -13 -22 -28q-2 -3 -4 -16q13 8 14 9q20 20 33 37q1 1 2 13v2l-6 3 q-3 -4 -9 -10q-5 -7 -8 -10zM91 648q11 1 14 3q13 11 33 31q2 3 2 11q-1 3 -7 3q-9 -7 -26 -22q-15 -12 -22 -18zM209 333l7 -5q6 6 18 20l19 19q-1 2 -9 12q-5 -7 -15 -19q-14 -19 -20 -27zM147 495q-2 -3 -4 -13q2 0 5 1q5 0 7 1q5 4 41 35q-1 1 -2 3l-3 3 q-39 -26 -44 -30zM169 688l23 23l-18 9q-1 0 -16 -9q-2 -2 -3 -2q2 -4 14 -21zM229 246q8 8 19 23q-1 2 -5 6q-17 -14 -27 -23q3 -1 6 -3t5 -3h2zM273 299q-3 -3 -7 -8l-8 -8l13 -6q2 1 18 8zM119 542l6 -9q3 3 8 7l8 8l-5 5q-3 -2 -8 -5zM280 213h-1l8 11q2 4 9 29 q-5 -2 -16 -4q-20 -5 -26 -10q-3 -3 -7 -30q0 -4 -1 -6q6 1 17 5q12 4 17 5z" glyph-name="backslash" unicode="\"/>
<glyph d="M152 15h47q31 0 47 -1h5q29 2 31 34q2 42 7 127q8 167 11 250q1 27 1 77q0 28 -1 82v82v32q0 21 -18 24q-4 1 -9 1q-90 3 -162 10q-5 1 -22 13q-2 1 -3 2q3 2 8 7q14 12 20 13q39 -1 118 -4q53 -2 79 -3q15 0 46 -1q63 0 93 -2q12 -1 22 -19q3 -5 3 -8q0 -38 -17 -162 q-5 -32 -7 -55q-14 -185 -19 -320v-23q0 -25 2 -74q2 -48 2 -72v-12q0 -14 -19 -29q-7 -4 -12 -5q-112 -8 -266 -11h-16l-77 5q-5 1 -22 18l-4 4q21 16 25 17q2 1 3 1q19 1 52 1h52v1zM369 223l-3 3q-2 1 -3 2q-4 -3 -13 -8q-18 -9 -20 -15q-3 -9 -5 -60q-1 -4 -1 -7 q5 2 16 4q22 5 29 11q9 8 28 46q2 3 3 5q0 2 -5 8q-1 -2 -5 -4q-4 -3 -5 -4q-26 -35 -44 -58q17 45 28 77zM393 127q-46 -65 -57 -84q-3 -8 3 -18q17 -7 31 -7q30 2 31 43q0 2 -1 6v6l-3 27q-3 17 -4 27zM419 308q-1 2 -4 4q-3 4 -4 5l-3 12q-10 -3 -11 -4q-27 -36 -45 -63 q0 -1 1 -12q9 0 11 2q9 10 28 28q18 19 27 28zM418 398q-7 23 -8 25q-1 -1 -9 -2q-28 -30 -53 -59q0 -1 4 -13q46 34 66 49zM327 251q1 0 3.5 -0.5t3.5 -0.5q14 33 17 41q2 5 3 17q1 8 2 12q-3 -2 -10 -6q-14 -10 -17 -16q-3 -10 -3 -21v-13q1 -9 1 -13zM311 69 q7 -11 13 -20q11 19 22 43q0 2 -6 13l-15 -18t-14 -18zM335 576q2 -1 7 -3l6 -3l12 24q8 15 12 23h-16q-4 -6 -21 -41zM374 667l-9 10q-12 -8 -26 -19q1 -1 8 -12q12 9 27 21zM435 704q-1 1 -5.5 3t-5.5 3l-12 -18q-7 -11 -11 -17q11 -3 12 -2q4 5 22 31zM369 474q-1 1 -3 2 q-3 2 -4 3q-16 -22 -23 -33q0 -2 5 -8q4 4 10 14q8 10 11 14l2 4q1 3 2 4zM401 596q3 4 8 10q8 10 10 15q1 1 -3 3l-4 4q-3 -4 -10 -10q-6 -8 -9 -11q1 -2 8 -11zM377 538q3 -2 7 -7q6 -5 8 -7q4 4 12 14t12 14l-6 7z" glyph-name="bracketright" horiz-adv-x="495" unicode="]"/>
<glyph d="M411 494q-3 -3 -7 -9q-9 -11 -15 -15q-3 -3 -14 9l-3 3q-12 17 -94 139q-5 7 -16 21q-14 18 -20 28q-13 21 -25 22q-13 -1 -28 -20q-86 -112 -131 -166q-4 -6 -32 -15l-6 -3q1 4 2 11q4 18 8 24q28 36 83 107q56 71 83 107q11 12 20 13q11 -1 21 -14q23 -30 66 -91 q31 -44 47 -66q11 -14 31 -44q13 -18 19 -27q2 -3 11 -14z" glyph-name="asciicircum" horiz-adv-x="431" unicode="^"/>
<glyph d="M431 86q-232 -2 -349 -2q-32 0 -47 3q-3 0 -13 13l-2 2q2 1 6 5q8 6 12 7q101 0 298 -2h68q46 1 69 1q4 -2 16 -13l-6 -6q-7 -7 -11 -8q-5 -1 -13 -1q-9 0 -28 2v-1z" glyph-name="underscore" horiz-adv-x="509" unicode="_"/>
<glyph glyph-name="grave" horiz-adv-x="40" unicode="`"/>
<glyph d="M345 395q0 4 1 13q1 8 1 11q-2 18 -24 19h-2q-8 0 -13 11q-1 1 -1 2q-2 5 9 12q1 1 2 1q11 4 25 2q125 -9 127 -9q22 -2 23 -18q-1 -8 -7 -15q-42 -38 -42 -107q0 -11 1 -32q1 -22 1 -32v-10v-17q1 -11 1 -16v-8q0 -2 -1 -8v-7q1 -38 27 -60q4 -3 10 -30q1 -4 2 -6 q-26 -5 -29 -5q-44 -1 -128 -1q-11 1 -14 5q-10 18 -23 19q-6 0 -19 -4q-14 -5 -20 -5h-1h-24h-22q-52 0 -78 11q-73 31 -98 124q-5 22 -5 38q0 78 65 142q17 16 35 27q43 27 86 27q27 0 49 -10q15 -6 58 -42q7 -5 11 -8q2 -1 5 -5zM344 264h1v65q0 3 1 9v9q-1 11 -4 15 q-26 27 -72 62q-25 18 -55 18q-53 0 -79 -43q-4 -7 -7 -14q-15 -41 -15 -79q1 -73 51 -144q27 -37 76 -38q26 0 48 10q41 16 49 32q6 14 6 46v14v38zM365 412q-2 -2 -7 -6l-6 -6q17 -2 21 -1q13 5 53 24q-23 10 -27 10q-3 0 -9 1q-7 1 -11 1q-13 -2 -14 -16v-7zM109 221 q-4 5 -8 11q-3 5 -4 6q-5 -5 -15 -16l-15 -15l4 -4t4 -3q2 1 34 21zM398 259q-20 -6 -22 -7q-11 -8 -15 -15q0 -1 3 -14q1 -1 1 -2q2 2 6 5q8 6 11 9q4 5 16 24zM381 225l5 -5q3 -4 4 -5q24 14 34 23q1 3 1 18l-6 -3q-6 -3 -8 -5q-11 -8 -30 -23zM369 104q5 8 13 22 q9 15 13 23q-32 -8 -33 -24q1 -10 7 -21zM431 126q-2 3 -6 7q-5 6 -7 8l-18 -21q11 -10 13 -10q2 2 18 16zM388 174q0 -1 1 -2q1 -2 1 -3q3 1 8 3q12 3 16 6q3 3 10 24q-3 -1 -8 -4q-8 -4 -12 -7q-7 -6 -16 -17zM392 335l4 -4q2 -3 3 -4q5 4 13 11q10 8 14 12q-1 1 -5 7 q-5 -3 -15 -11q-9 -8 -14 -11zM359 266l9 -3q2 5 6 16q5 11 7 16q-8 -1 -9 -1q-4 -7 -13 -28zM64 266q1 -2 4 -4q2 -3 3 -4q3 2 8 7q11 9 15 13q0 2 -3 9zM335 134q-8 -7 -15 -14q14 -8 16 -9q3 0 6 7q1 2 1 3q-1 2 -8 13zM117 191q-10 -10 -14 -15l9 -6q7 3 13 11 q-1 2 -8 10zM413 284q6 8 13 19l-6 5q-3 -2 -16 -16q5 -5 9 -8zM75 365q1 -1 3 -4t3 -4q3 3 10 11t10 11l-3 3q-1 2 -2 3q-4 -3 -10 -10q-8 -7 -11 -10z" glyph-name="a" horiz-adv-x="512" unicode="a"/>
<glyph d="M76 733q84 -4 124 -8q9 -1 15 -15q1 -2 1 -4q-1 -17 -5 -50q-4 -41 -5 -61v-12q0 -23 3 -68q2 -34 2 -51q1 -18 9 -19q6 1 17 7q55 32 109 32q47 -1 92 -24q79 -44 80 -139q0 -46 -18 -98q-25 -72 -84 -105q-37 -21 -78 -21q-36 0 -91 18q-11 3 -19 -4q-11 -19 -34 -19 h-7h-13q-14 0 -41 -2q-19 -2 -28 -2h-9q-7 -1 -10 -1q-6 0 -13 2q-6 2 -33 17l18 30q2 5 7 14q14 28 14 42q-2 232 -10 433q-1 12 -22 46q-5 8 -8 13q-7 14 -19 39q8 2 22 7q16 4 23 6q0 1 5 0h6v-3zM222 216q-1 -6 -1 -15q2 -46 47 -65q24 -9 45 -9q49 1 68 44q13 30 25 96 l7 25q0 12 -19 14h-2v12q15 16 15 31q-1 15 -18 45q-26 43 -47 52q-10 4 -20 4h-3q-4 -1 -5 -1q-100 -13 -101 -98q0 -13 1 -19q2 -23 5 -70q2 -31 3 -46zM140 561q-2 1 -4 5q-3 4 -4 5q-4 -3 -15 -9q-22 -14 -26 -22q-4 -11 -4 -24q0 -8 2 -25q2 -12 2 -17q0 -2 9 -9l2 -2 q8 9 22 27q16 17 23 26q-2 0 -4 1h-3q-8 0 -24 -5h-17l9 15q6 7 19 21zM126 317l-6 3q-4 3 -6 4l-6 -12q-10 -18 -11 -27q-1 -10 -1 -28q0 -21 2 -62q0 -3 6 -21q6 3 7 4q9 19 10 25q1 9 1 23v24q0 3 -0.5 7t-1.5 7l-1 3q-16 1 -17 7q1 5 8 16q2 4 8 14q6 9 8 13zM171 689 q-10 -5 -30 -14q-32 -14 -47 -22q-3 -2 -5 -20q1 0 9 -3q44 20 80 39q4 2 6 12v1q-1 1 -13 7zM203 221l-6 18q-2 -1 -7 -3q-7 -3 -9 -5q-10 -11 -29 -33l-30 -33q-2 -4 -4 -11l12 3q54 40 66 49q3 3 7 15zM201 173q-1 1 -5 3q-4 1 -5 2q-7 -8 -20 -24q-14 -15 -20 -23 q7 -2 20 -5q14 -4 20 -6q2 9 5 26q3 18 5 27zM203 282l-4 14q-1 5 -2 7l-14 -6q-17 -16 -33 -35q-6 -9 -14 -26q21 11 25 13q9 7 26 20q11 9 16 13zM461 218q-3 0 -8 2q-5 1 -7 1q-14 -3 -17 -7q-3 -7 -19 -49q-1 -4 -1 -14q2 1 6 2q6 2 8 3q8 11 22 36q10 17 16 26z M155 412q-8 -4 -23 -9q-20 -8 -28 -13q-9 -7 -11 -21q0 -4 5 -19q2 2 6 4q5 4 7 5q3 -3 8 -9q6 -6 8 -9q50 34 64 46q2 4 1 26q-2 0 -5 -1q-5 0 -7 -1q-11 -8 -32 -25l-33 -24l2 2q19 23 38 48zM203 456q-9 12 -15 19q-8 -6 -22 -18q-15 -12 -22 -18q-1 -1 -1 -2.5v-4.5v-3 l2 -1q9 4 26 13q21 9 32 15zM130 484l2 -4q2 -4 3 -5q43 23 52 29q3 3 5 20l-17 -3q-18 -14 -45 -37zM136 588q41 24 46 28q1 0 2 17v2q-12 -3 -14 -4q-14 -10 -39 -29q-2 -2 -4 -9q2 -2 9 -5zM98 714q-11 -23 -11 -24q0 -7 9 -13q1 -1 2 -1q6 2 38 14q-23 14 -38 24z M143 631q-40 -15 -47 -19q-7 -5 -7 -18q0 -3 6 -16q2 1 5 4q7 5 9 7q8 9 34 42zM387 455q-1 -1 -3 -5l-4 -4l18 -18q13 -12 19 -18q2 3 7 9l6 9q-7 4 -22 14q-14 9 -21 13zM437 348l4 -4q24 8 36 13q7 5 8 11q-2 10 -8 16q-5 1 -13 -6q-2 -3 -27 -30zM143 309l3 -3 q1 -2 2 -3q25 18 43 32q1 1 2 14v2q-1 0 -5 -1q-6 -1 -8 -2q-14 -14 -37 -39zM88 406q2 -1 7 -3t7 -3q4 7 10 22l9 21q-13 0 -14 -1q-5 -9 -19 -36zM147 552q1 -1 2 -3q2 -2 2 -3q30 15 35 19q1 1 2 16v2q-15 -3 -16 -4q-6 -6 -25 -27zM453 254q1 -2 4 -4q3 -4 4 -5l29 29 l-4 4zM462 314l13 -13q10 18 14 27q0 1 -4 7q-4 -3 -11 -11q-8 -7 -12 -10z" glyph-name="b" horiz-adv-x="537" unicode="b"/>
<glyph d="M345 174q6 -66 6 -67q-1 -4 -10 -19q-2 1 -6 4q-7 4 -9 7q-14 24 -47 25q-11 0 -21 -3q-11 -4 -84 -17q-10 -2 -18 -4q-12 -3 -24 -3q-46 1 -74 40q-32 47 -37 103v9q-1 7 -1 10q0 49 17 106q19 57 86 88q39 17 78 17q52 -1 84 -29q12 -10 18 -10q7 0 17 18q2 3 3 4 q2 3 18 15q1 2 2 2q8 -22 8 -23q2 -35 4 -102q0 -1 -2 -3.5t-5 -3.5l-2 -2q-4 2 -11 7q-23 14 -27 22q-12 38 -54 64q-23 14 -41 14q-1 0 -4 -1h-4q-38 -8 -73 -52q-22 -30 -24 -56v-12q-1 -7 -1 -11q0 -35 8 -102q1 -7 19 -26l6 -6l4 -4l9 -12q14 -20 22 -22q14 -2 22 -2 q52 1 84 38q2 2 28 44q4 5 6 9q9 11 20 10q7 0 11 -14q1 -1 1 -2q1 -6 1 -16v-16q-1 -11 -1 -16h-2zM330 162l-10 25q-14 -20 -19 -31q-1 -1 11 -9q4 -4 6 -5q8 14 12 20zM79 258q-21 -8 -22 -9q-6 -8 -12 -23q0 -2 5 -9l16 16q2 3 6 12q5 9 7 13zM91 206q-6 8 -11 15 q-10 -12 -14 -18q-1 -2 6 -7q8 3 19 10zM65 266q10 16 13 24q-1 2 -6 8q-2 -4 -6 -10q-4 -7 -6 -10q0 -2 5 -12z" glyph-name="c" horiz-adv-x="374" unicode="c"/>
<glyph d="M371 641q10 3 26 9q12 5 18 7q-16 -26 -23 -39q-12 -21 -20 -38q32 16 36 19q14 13 16 25q1 16 2 48q0 33 1 49q1 5 10 19q1 -2 5 -7q7 -10 7 -14q-1 -31 -3 -91q-1 -61 -2 -91q-7 -304 -7 -390q0 -37 -14 -50q-3 -2 -4 -3q-2 -1 -22 -9q-4 15 -5 25q0 2 1 6q1 3 1 4 q-9 -3 -27 -10q-25 -10 -37 -14q-6 -1 -13 8q-1 1 -1 2q1 6 1 13q-1 15 -8 16q-3 0 -23 -14q-3 -2 -5 -3q-38 -21 -93 -21q-77 1 -115 39q-49 50 -53 142v11q0 62 25 103q61 88 154 92q47 -1 93 -24q13 -7 19 -7q9 2 9 26q0 123 3 246q0 5 10 22q2 2 2 3q1 -3 5 -9 q5 -11 6 -16q4 -28 18 -29q9 1 21 7q6 3 37 10q-11 -19 -22 -34q-18 -24 -29 -38zM318 288h2l2 1q-1 11 -4 33q-5 56 -13 82q-22 41 -74 45q-42 -1 -72 -23q-68 -52 -69 -139q1 -76 50 -130q26 -28 59 -29q12 0 22 3q6 2 18 5q49 13 63 34q7 12 10 27q1 7 6 87v4zM340 286 q9 27 23 75q11 34 16 50q-40 -10 -44 -53q-1 -7 -1 -15q0 -23 6 -57zM410 277q-8 -11 -25 -32q-22 -29 -33 -43q-3 -4 -1 -9q2 -2 7 -2q34 7 49 43q5 14 5 26t-2 17zM421 318q-3 13 -8 27l-15 -9q-6 -7 -30 -38q0 -2 3 -12q34 22 50 32zM93 147q2 1 5 3l6 3l-39 99l-6 6 q-6 -10 -6 -9q7 -17 20 -51q14 -34 20 -51zM359 127l7 -7q4 3 13 10q21 15 28 23q3 4 3 13v20q-2 -2 -8 -5q-9 -6 -12 -9q-8 -10 -31 -45zM359 432l3 -3q1 -2 2 -3q42 21 47 25q3 2 5 26q1 3 1 4h-11q-8 -8 -24 -25q-15 -16 -23 -24zM382 488q-42 -12 -43 -32q0 -8 5 -20 q7 9 21 28q11 16 17 24zM374 521q1 -1 3 -4t3 -4q30 21 38 28q2 2 3 19v2q-15 -5 -18 -8q-12 -12 -29 -33zM331 215q2 -1 5 -3l6 -3q4 7 12 23q9 15 13 22q-2 1 -7 4l-6 3q-4 -7 -12 -23q-7 -16 -11 -23zM422 401l-6 3q-5 3 -7 4q-4 -6 -11 -20q-8 -14 -12 -20h10 q11 12 26 33zM367 169q-2 1 -6 4t-6 4l-18 -33q-1 -2 3 -8l1 -1q4 5 13 17t13 17zM338 522l4 -4q3 -2 4 -3q4 5 14 16t14 16q2 3 2 8h-9q-5 -5 -15 -17q-9 -11 -14 -16zM66 307q-2 1 -5 1q-4 1 -5 1q-1 -5 -4 -15q-3 -11 -4 -16l8 -1q2 5 5 15q4 10 5 15zM366 665q-2 1 -4 3 l-4 4q-14 -19 -15 -22q0 -3 5 -10l9 12q6 9 9 13z" glyph-name="d" horiz-adv-x="468" unicode="d"/>
<glyph d="M94 241q5 -10 14 -30q21 -43 34 -61q19 -19 46 -21q5 0 7 1q62 18 84 37q15 14 24 31q2 5 18 17l4 4q2 -14 4 -31q1 -21 1 -60q0 -10 -2 -25q-3 1 -9 1q-11 2 -15 4q-20 13 -33 13q-15 -1 -30 -10q-29 -17 -64 -17q-37 0 -81 19q-17 7 -43 47q-6 10 -10 15q-23 33 -23 96 q0 72 28 110q60 79 130 88q7 1 18 1q69 0 115 -46q31 -33 35 -76v-8q0 -16 -14 -18q-6 -1 -14 -1h-18q-71 0 -157 -10q-31 -4 -37 -29q-3 -13 -3 -36q-1 -1 -5 -2q-3 -2 -4 -3zM260 412q-1 1 -2 3q-12 12 -20 15q-11 4 -25 4q-50 0 -81 -43q-7 -9 -11 -19t-4 -13q2 -8 14 -8 h3q9 0 27 2q27 2 40 2q3 0 8 -1h8h7q31 0 35 30q1 8 1 17v11zM93 154h3q2 1 3 1q-5 11 -8 20q-2 5 -5 17t-5 17q-2 2 -11 4q3 -9 8 -25q6 -17 9 -25q1 -2 6 -9zM287 408q0 -26 1 -28q4 -8 16 -24q2 -1 10 2q-1 3 -3 10q-3 11 -5 15q-2 3 -7 10q-8 9 -12 15zM84 268l-12 20 q-4 -6 -10 -16q-8 -11 -11 -16l5 -8q5 3 16 11z" glyph-name="e" horiz-adv-x="365" unicode="e"/>
<glyph d="M174 635q19 2 28 4v10q-16 -6 -24 -10q-3 -2 -4 -4zM173 635q-1 3 -2.5 6l-2.5 5l-2 3q-37 -9 -36 -46q9 6 25 18q12 10 18 14zM399 624q-20 54 -49 61q-6 1 -12 1q-26 -1 -60 -16q-62 -28 -68 -100v-12q0 -18 5 -41q5 -21 5 -51v-21q-1 -45 -4 -135q-3 -91 -4 -136 q1 -8 11 -18q4 -4 14 -10q12 -9 16 -14q7 -9 7 -16q-2 -13 -21 -15q-81 -6 -158 -9q-6 1 -25 14q2 1 7 4q9 5 12 8q11 12 12 19q1 29 4 87q7 133 7 200q-2 36 -30 37q-7 0 -11 -1q-16 -2 -20 0q-2 1 -15 16q-2 1 -2 2q15 11 16 11q14 -2 17 -2q28 0 32 35q1 4 1 13 q1 11 2 16q14 92 47 134q4 6 8 10q37 40 116 44h11q44 0 77 -15q75 -36 78 -110q2 -36 2 -54q0 -29 -5 -47q-7 -29 -51 -38q-11 -2 -21 -2q-14 0 -24 3q-55 19 -56 63v5q1 3 1 4q4 35 42 61q20 14 39 15h16h31zM168 392h2q26 2 27 28q0 7 -2 18q-1 3 -11 17 q-15 -17 -15.5 -18.5t-0.5 -2.5q-1 -5 -1 -14q0 -4 1 -14v-14zM197 349q-4 16 -6 25l-8 -3q-6 -6 -17 -18q-17 -17 -25 -26q-1 -2 3 -13q26 17 53 35zM135 246q31 7 52 13q5 3 6 6q-1 6 -2 17q-2 12 -2 18l-9 -3q-21 -24 -45 -51zM337 582q-1 1 -4 3t-4 3q-2 -4 -9 -12 q-18 -25 -19 -37q1 -8 22 -31q2 -1 13 -1q-1 1 -2 5q-2 6 -4 8q-14 17 -15 27q1 11 12 20q3 3 10 15zM187 245q-47 -64 -52 -70q5 3 17 9q30 15 35 32q2 7 2 14q0 5 -2 15zM165 521q-1 1 -4 5l-4 4q-24 -8 -35 -14q-4 -3 -11 -14q14 -8 15 -8q3 2 39 27zM154 294 q-5 -2 -12 -4q-11 -4 -15 -7q-7 -8 -11 -20q0 -2 6 -12q2 2 6 5q8 7 10 10q5 7 16 28zM158 591q-35 -1 -37 -13q-1 -3 -1 -5q0 -11 4 -22q22 26 34 40zM372 595q-3 -5 -10 -14q-7 -10 -10 -15l2 -2q1 -2 3 -4l2 -1l30 21q-11 9 -17 15zM380 528q11 11 26 28q-1 1 -7 8 q-5 -4 -13 -13q-10 -9 -14 -13q1 -1 8 -10zM148 545q28 26 33 31q0 2 -3 7l-30 -27v-8v-3zM243 708q-10 -8 -13 -11l12 -11q3 2 17 14q-8 3 -16 8zM137 206l-10 6q-7 -4 -11 -11q0 -3 5 -10q3 2 7 7q6 5 9 8z" glyph-name="f" horiz-adv-x="447" unicode="f"/>
<glyph d="M339 163q-14 -8 -37 -22q-41 -25 -60 -33q-36 -14 -72 -14q-40 0 -80 17q-69 31 -70 122q1 116 66 185q51 52 104 52q38 0 81 -24q29 -16 33 -17q9 -3 26 -5q-1 4 -3 14q-4 17 -6 24q-3 7 -8 16q16 8 17 8q89 7 112 7q10 0 20 -17q3 -6 3 -10q0 -42 -3 -126 q-4 -102 -4 -152q0 -110 -26 -172q-41 -97 -140 -135q-10 -4 -31 -13q-21 -8 -31 -12q-15 -6 -30 -6q-35 1 -57 32q-17 26 -17 49q1 20 13 37q32 41 57 52q17 6 31 6q46 0 60 -52q2 -9 3 -18q1 -5 8 -18q1 2 4 6q6 7 7 11q20 134 30 208zM334 345q1 1 2 1q2 1 3 1 q-2 4 -6 13q-9 21 -16 26q-56 38 -94 50q-5 1 -13 1q-34 -1 -48 -18q-36 -52 -51 -135q-2 -12 -2 -17q0 -24 23 -74q10 -23 13 -37q9 -33 50 -34q15 0 31 5q103 36 109 119v12q0 14 -1 21q-1 8 -1 22q0 7 1 22v22zM167 -97l-6 6q26 35 30 40q3 6 -1 12q-13 0 -29 -28 q-8 -15 -8 -23q4 -22 26 -27q6 0 19 3q13 4 19 4q4 0 9 -2q9 -1 22 14q13 18 23 41q1 5 -1 23l-6 -3q-7 -4 -10 -6q-5 -5 -13 -15q-6 -7 -8 -10l-4 4q2 9 6 21q-13 -11 -37 -29q-21 -17 -31 -25zM354 429q1 -5 3 -13q2 -9 3 -13l21 18l5 5q6 6 9 8q9 4 26 10v-26q0 -2 -1 -7 v-7q9 3 11 5q4 15 10 52l-30 3q-5 0 -15 -2q-10 -3 -15 -3q-27 -3 -28 -23q0 -1 0.5 -3.5t0.5 -3.5zM387 92l-4 4q25 31 26 32t2 3.5t1.5 3.5t1.5 5l2 3q-13 -3 -16 -5q-4 -2 -11 -8q-9 -7 -14 -9q-19 -7 -19 -25v-6q1 -5 1 -7q0 -1 -1 -4v-4q35 3 40 4q11 3 26 14q5 4 9 15 q1 5 -4 10q-12 -3 -17 -6q-12 -10 -23 -20zM416 73q-35 -40 -70 -82q-2 -4 -2 -13h7q6 0 8 1q57 28 58 82q0 2 -1 6v6zM445 303q-2 6 -4 14q-2 7 -3 10q-16 -8 -13 -6q-8 -9 -39 -47q-1 -2 2 -9v-1q11 7 33 22q16 12 24 17zM440 178q-6 19 -7 19q-7 2 -12 -3 q-31 -34 -36 -40q0 -2 5 -11q34 24 50 35zM439 243q-2 14 -4 21q-2 -1 -5 -2q-6 -2 -8 -3q-16 -18 -27 -34q0 -3 4 -11q9 6 40 29zM408 196q-1 0 -2 2q-2 2 -3 2q-4 -3 -13 -8q-20 -12 -28 -19q-3 -5 -2 -25l8 -2h1q14 17 39 50zM124 135q-12 23 -19 34q-4 -3 -12 -8 q-8 -6 -12 -8q5 -3 15 -11q9 -8 14 -11q2 0 14 4zM380 -31l-9 9q-32 -26 -47 -39q-1 -2 -3 -14h9q8 7 25 22t25 22zM390 298q0 2 -2 4q-2 3 -2 4q-3 -2 -10 -5q-14 -6 -17 -10q-2 -5 1 -30q4 5 12 13q8 9 11 13q4 4 7 11zM446 377q-2 1 -6 4q-3 3 -5 4l-42 -48q1 -1 5 -3 l4 -4q8 8 22 24q15 15 22 23zM89 205l-3 3l-4 4q-24 -21 -27 -26q0 -3 13 -18q4 6 10 18q8 13 11 19zM202 -14q-2 2 -4 5q-3 4 -4 5q-18 -8 -20 -10q-4 -4 -15 -25q4 2 11 7q7 4 11 6zM356 197l6 -3q4 -1 5 -2q3 7 9 20q5 14 8 21q-9 3 -9 2zM61 276l9 -6l21 30q-1 1 -9 7 q-4 -5 -10 -15q-8 -11 -11 -16z" glyph-name="g" horiz-adv-x="485" unicode="g"/>
<glyph d="M187 181q-1 -5 -1 -15v-15q-5 -34 -6 -37q-2 -4 -4 -6q-14 -13 -45 -13h-20q-44 0 -71 5q-19 4 -20 21q1 12 11 19q36 23 39 76q0 5 1 17q0 17 1 25q2 15 4 89q8 236 8 281q-1 69 -47 85q-6 2 -6 14q1 2 1 3q10 17 19 17q23 1 71 1q47 1 70 2h3q15 -2 16 -16 q0 -33 -12 -190q-5 -57 -5 -97q1 -14 8 -15q5 1 16 7q46 29 88 29q15 0 34 -5q60 -17 109 -75q28 -34 28 -81q0 -15 -4 -47q-4 -31 -4 -46q0 -2 1 -8v-7q1 -7 1 -18v-7q0 -40 21 -57q2 -1 3 -2q3 -2 -7 -19q-2 -4 -3 -4q-69 3 -154 11q-3 1 -15 11q16 11 15 10q2 1 3 1h5 q18 1 19 15q0 2 -3 17q-1 5 2 26q0 3 2 8q2 10 2 14q-1 9 -6 29q-8 36 -8 53q0 4 2 14t2 15q0 57 -8 98q-5 22 -31 23q-8 0 -12 -1q-64 -8 -87 -32l-3 -3q-17 -21 -19 -58q-1 -28 -1 -81v-81h-3zM136 283q3 5 10 13q6 10 9 14q-29 -6 -43 -20q-4 -4 -18 -33q-1 -2 -1 -3 q5 2 15 4q9 4 14 5q15 3 17 4q12 10 30 28zM147 639q-32 -23 -35 -26q-1 -1 -4 -18q-1 -1 -1 -2q3 -1 8 -3q10 -3 14 -2q44 14 54 59q2 10 2 19q0 16 -2 43q-4 -3 -13 -10q-16 -12 -22 -19q-1 -1 -16 -25q-1 -1 -1 -2q20 10 30 14q7 3 14 4q-1 -14 -1 -15q-6 -9 -20 -27 q-10 -12 -14 -18q-1 1 -4 2l3 6q5 11 8 20zM151 422q-1 1 -3 2l-3 3q-40 -35 -48 -43q-4 -5 -1 -22q0 -3 6 -4h2q50 23 58 28q4 3 10 28q1 2 1 3q-3 -2 -11 -7q-8 -4 -11 -6q-5 -3 -8 -5q1 4 4 11q3 8 4 12zM179 508h-1v10q1 6 1 9q0 4 -2 12q-2 5 -2 7q-2 -2 -7 -5 q-7 -6 -9 -9q-9 -29 -16 -67q0 -3 3 -24q3 2 8 7q16 13 20 21q3 7 5 39zM397 281q1 -1 3 -2.5l2 -1.5q30 12 33 15l2 2q10 11 11 28q0 11 -16 33q-2 3 -3 4l-27 -24q5 -1 12 -2q10 -2 14 -3q-6 -14 -10 -20q-1 -2 -2.5 -4t-3 -4.5t-2.5 -4t-3.5 -4.5t-3 -4t-3.5 -5zM97 128 q34 0 57 30q10 12 10 22q0 2 -2 4l-4 4l-3 1q-4 -4 -58 -61zM389 125l33 -5q15 1 20 9q1 5 0 28q-19 -7 -22 -9q-4 -3 -31 -23zM379 420q-1 0 -3.5 -2t-3.5 -2l6 -21q3 -14 5 -21q5 2 16 8q11 5 16 7l-18 15q-12 11 -18 16zM387 218q3 -2 7 -8l8 -8q41 38 48 46q1 2 -2 12 q-1 0 -7 -1l-27 -21q-18 -13 -27 -20zM124 545q1 -1 2 -3l3 -3q48 30 49 31q2 1 3 19v2q-8 -1 -9 -1zM428 269q-32 -13 -40 -25q-7 -12 -7 -27v-6q10 13 28 34q13 17 19 24zM129 185q-1 1 -5.5 3.5t-5.5 3.5q-4 -6 -11 -17q-12 -19 -18 -29q0 -3 5 -10q1 1 4 2t4 2zM116 217 l4 -4q2 -3 3 -4q32 13 37 16q2 2 6 21v2q-2 -1 -7 -2q-7 -2 -10 -3q-12 -9 -33 -26zM399 158l6 -6q5 4 15 10q18 12 26 19q1 2 -2 18q-10 -5 -12 -7q-6 -6 -16 -17zM127 329l6 -9q7 4 20 11q14 8 20 11l-3 4q-3 3 -5 4l-2 1q-6 -3 -18 -11t-18 -11zM120 235l-2 2q-2 2 -3 2 q-3 -6 -11 -17q-8 -12 -11 -18q1 -1 5 -4q4 6 11 16q8 12 11 17v2zM155 718q0 1 -1 3.5t-1 3.5q-6 -1 -18 -4q-15 -2 -22 -4v-4v-2v-1q7 1 19 2q13 2 19 3q2 1 4 3zM98 483q2 -1 4 -3q4 -3 5 -4q4 6 11 16q8 12 12 17q-1 1 -4 2q-2 1 -3 2q-4 -5 -13 -15zM105 427 q7 11 12 22q-1 1 -7 6q-10 -12 -11 -15q1 -2 6 -13zM70 128l-10 8q-3 -2 -8 -7q-1 0 -2 -1v-1l4 -4q3 -2 4 -3q3 1 12 8z" glyph-name="h" horiz-adv-x="514" unicode="h"/>
<glyph d="M109 473l87 3q8 -2 13 -10q-2 -6 -10 -16q-1 -2 -5 -6q-6 -7 -6 -11q-1 -96 -1 -285q0 -4 2 -12q3 -11 2 -15q-2 -12 -13 -17q-2 -1 -3 -1q-41 -3 -120 -5q-4 1 -19 11q2 3 8 7l8 8q12 12 12 15l6 255q0 9 2 22q1 6 1 13q-2 20 -20 21h-5q-3 -1 -4 -1q-4 -1 -21 12 q-2 1 -3 2q2 1 7 4q10 5 15 6q2 0 67 3v-3zM132 265q-2 1 -4 3q-3 2 -4 3q-22 -30 -32 -46q0 -1 4 -12q1 1 4 2q5 3 6 4q4 7 13 23t13 23zM121 293q0 -1 1 -3v-2q4 2 11 6q17 9 24 15q3 4 5 21q-15 -6 -17 -7q-2 -3 -24 -30zM128 178l5 -5l9 6q12 7 16 12q3 5 5 23 q-17 -9 -18 -10t-17 -26zM136 420l-4 2q-3 2 -4 3q-5 -5 -14 -16q-10 -11 -15 -16q-1 -2 -3 -10q1 0 3 -1q3 -1 4 0q12 13 33 38zM130 403q1 -1 2 -3l3 -3l21 12q1 2 9 19l-18 -9q-3 -2 -10 -9zM115 190q-2 1 -5 3l-6 3q-7 -12 -13 -28q1 -2 5 -6q3 4 10 14q6 10 9 14z M129 439q-1 1 -1 5v4q-22 -2 -33 -4l4 -11zM155 270l-15 -20q8 -5 9 -5q9 8 13 14q-1 1 -7 11zM95 127q1 -1 3 -4q1 -3 2 -4q4 3 12 7q9 5 13 7q0 1 -1 7q-5 -2 -14 -6q-10 -5 -15 -7zM60 608q2 63 82 67h1q29 0 47 -34q7 -15 8 -30v-1q0 -31 -32 -55q-18 -12 -35 -13h-2 q-40 0 -60 34q-9 16 -9 32zM129 624l-4 4q-4 -3 -13 -7q-14 -8 -20 -13q-2 -2 -4 -19q2 0 5 -1q5 -1 6 0q2 3 30 36zM133 622l3 -6q2 -3 3 -5q22 14 32 21q1 1 -3 8l-18 -9q-11 -6 -17 -9zM108 579q1 -1 2 -5q2 -4 3 -5q4 3 12 8q8 6 12 8v7l-15 -6q-9 -5 -14 -7z" glyph-name="i" horiz-adv-x="229" unicode="i"/>
<glyph d="M-9 -68q49 79 49 146q0 2 -0.5 6t-0.5 5q-1 15 -3 47q-3 31 -4 46q0 6 1 9q18 39 18 99q0 12 -1 34q-1 24 -1 35q0 21 1 31l3 28q-2 9 -15 28q-2 3 -14 17q2 1 5 4q6 5 9 5q26 1 76 1q44 0 66 -1q7 -5 9 -32q-1 -38 -2 -112q-2 -75 -2 -112q0 -6 4 -19l3 -15 q1 -10 -4 -22q-3 -6 -9 -19q-13 -26 -15 -38q-16 -142 -135 -213q-57 -33 -125 -42q-2 0 -6 -1h-5q-43 1 -65 43q-9 18 -9 34q1 26 22 51q36 39 72 40q29 -1 46 -23q7 -9 32 -60zM140 178q-46 -63 -62 -86q-1 -2 -3 -14q1 0 4 -1h5q37 8 51 51q6 17 6 34q0 11 -1 16z M167 287q-2 7 -7 16q-2 6 -3 8l-16 -8q-20 -20 -55 -59q-1 -2 -3 -12l12 3q39 21 49 28q6 5 23 24zM165 350q-3 13 -5 22q-2 -1 -8 -2q-5 -2 -7 -3q-32 -11 -34 -12q-15 -9 -34 -26q-2 -3 3 -11h10q8 -1 11 -1q10 0 15 2q10 4 49 31zM103 376q9 5 24 13q22 12 31 19 q7 6 9 27q0 5 -7 9q-2 1 -3 1q-10 1 -16 -5q-15 -23 -38 -64zM-94 -50l-4 4q-44 -28 -49 -33q-2 -2 4 -26q1 -2 1 -3q2 1 8 3q8 3 10 5q5 8 30 50zM5 -81q2 -1 6 -5t6 -5q36 44 54 67v8h-6q-6 -1 -7 -2q-36 -42 -53 -63zM127 230q-1 1 -3 4l-3 3q-40 -33 -46 -38 q-2 -5 0 -24q13 8 15 10q14 16 37 45zM82 10q4 2 11 7q16 8 22 14q2 2 4 22q1 2 1 4q-28 -19 -37 -27q-3 -3 -9 -19q5 0 8 -1zM-49 -77l-8 8q-7 -7 -23 -21t-23 -21q-1 -1 -5 -12h14q10 9 27 28zM112 192l9 -9q5 6 17 17q12 12 17 18l-8 8l-17 -17q-12 -12 -18 -17zM83 421 q12 11 22 19q-2 1 -5 4q-6 4 -8 4q-8 -3 -14 -11q-1 -1 4 -13q1 -2 1 -3zM-78 -59q2 -1 4 -3q4 -3 5 -4l15 27v1q-1 2 -4 4l-2 2zM197 613v-2q0 -60 -60 -76q-14 -3 -30 -4h-2q-40 0 -58 39q-5 12 -6 24v6q0 57 45 79q17 8 37 9h1q39 0 62 -38q10 -18 11 -37zM130 611 q1 0 3 -1h2l15 6q9 3 14 5q-10 -16 -14 -24q-2 -4 -4 -13h14q12 29 12 37v3q-1 6 -17 26q-3 3 -4 5q-7 -5 -8 -7q-4 -9 -13 -37zM84 579q7 9 22 29q10 13 15 20q1 1 0 3l-1 1q-35 -23 -41 -28q-2 -2 -6 -19v-2q2 -1 11 -4z" glyph-name="j" horiz-adv-x="216" unicode="j"/>
<glyph d="M387 104h-12q-63 1 -111 55q-16 18 -49 45q-3 3 -15 -7q-1 -2 -2 -3v-8q0 -6 -1 -17q-1 -12 -1 -17q1 -27 21 -40l-8 -19l-2 -1q-104 6 -156 13q-30 5 -31 14q0 9 18 27q3 3 11 10q10 9 14 13q16 20 17 27q1 31 1 94q0 62 1 93q7 195 14 255q1 5 1 13q0 36 -36 69 q-4 3 -7 6q-1 1 -12 16q15 11 16 11q14 1 42 1q27 1 41 1h24q17 1 26 1h12q7 0 11 -13q1 -3 1 -4q-1 -45 -5 -135q-3 -89 -4 -134q0 -7 4 -20q2 1 7 3l12 6q19 12 54 12q58 -1 93 -25q41 -30 41 -86q0 -14 -1 -21q-6 -50 -55 -81q-20 -12 -40 -16q-5 -1 -28 -9q3 -3 7 -9 q8 -11 13 -15l51 -39q35 -26 52 -39q9 -8 8 -18q-1 -6 -15 -9h-22zM192 348q1 0 3.5 -1.5t3.5 -1.5q0 -5 1 -15q0 -15 1 -22q10 -48 50 -49h7q41 5 52 28q5 12 7 31q1 3 5 9q10 18 10 38q-1 39 -33 66q-16 13 -32 13q-20 -1 -34 -19q-10 -12 -34 -64q-4 -8 -7 -13zM192 712 q0 2 -2 8q-3 -1 -7 -3q-6 -3 -9 -4t-11 -1q-9 -2 -13 -3q-24 -13 -28 -20q-2 -6 -2 -9q0 -5 2 -16q2 -8 2 -11q3 1 10 3q10 3 14 5q3 1 9 6t9 6t11 1l-3 -9q-5 -6 -16 -17q-11 -12 -16 -18q-1 -2 -1 -12q5 3 14 9q26 16 33 26q5 8 5 22v12q-1 11 -1 17v8zM157 553 q-10 -1 -24 -4q-13 -1 -18 -2q9 13 17 28q1 3 1 12q-1 -1 -5 -1q-4 -2 -5 -2q-13 -6 -19 -55q-1 -9 -1 -16q0 -11 3 -16q5 -3 14 3q16 21 37 53zM333 133q1 2 5 5q4 4 5 6q-15 14 -44 40q-30 27 -44 40q-2 -2 -5 -6l-6 -6q15 -13 44 -40zM153 412l-4 4q-3 2 -4 3l-42 -49 l6 -12q41 18 67 32q3 2 7 16h-16q-6 -3 -24 -16q3 6 6 13q3 6 4 9zM102 468l11 -13q46 26 69 40q2 2 1 16q-12 -3 -13 -3q-9 -4 -26 -14q-18 -9 -27 -13q-6 -4 -15 -13zM158 356q-1 1 -3 4l-3 3l-18 -15q-19 -16 -28 -24q-2 -2 -1 -15h6q6 1 8 2q2 3 39 45zM368 329 q29 8 30 32q0 9 -2 14q-4 6 -11 8q-6 -3 -9 -11q-6 -28 -8 -43zM155 182q-1 2 -4 4q-3 4 -4 5l-42 -36q-1 -2 2 -15q11 3 12 4q13 13 36 38zM168 253q-6 -7 -16 -18q-14 -17 -20 -25q1 0 7 -7q16 10 36 25q1 2 -7 25zM148 583q0 -1 2 -3.5t3 -3.5q26 16 31 20q3 3 7 17 q-2 -1 -6 -2q-7 -2 -10 -4t-27 -24zM111 244q4 5 10 15q9 13 12 19l-6 4q-21 -21 -24 -25q1 -2 8 -13zM139 441l-3 3q-1 2 -2 3q-11 -10 -28 -27q0 -2 2 -7q18 14 27 22zM144 270q1 -1 3 -4q23 7 28 10q2 1 3 3.5t2 8.5v6l-12 -3zM142 323q1 -1 3 -4t3 -4l12 9q7 6 11 9 q0 1 -3 7q-4 -2 -13 -8q-9 -7 -13 -9zM157 539l7 -7l10 10q8 7 11 10q0 1 -4 9q-4 -3 -12 -11t-12 -11zM367 420q-18 9 -21 10q-2 -1 -6 -7q2 -1 5 -5q7 -6 10 -8q2 1 12 10z" glyph-name="k" horiz-adv-x="444" unicode="k"/>
<glyph d="M90 369q1 25 1 73q0 20 -1 60v59q0 49 1 73q-1 35 -23 53q-22 17 -47 42q-3 6 3 19q30 4 45 4h10q12 -1 38 -5q33 -5 50 -5q6 0 32 15q4 2 6.5 3t6.5 4q5 2 7 3q5 -13 5 -14q-12 -520 -12 -523v-9q0 -21 3 -62q3 -33 3 -49q0 -8 -13 -15q-3 -2 -6 -2q-57 1 -126 8 q-17 2 -31 11q-1 1 -0.5 4t1 6.5t1.5 6.5l1 3h7q28 3 29 28v15q0 10 8 156q1 21 1 38zM127 449q1 -1 4 -5t4 -5q21 9 27 10q10 1 17 -6q0 -19 -4 -52q-1 -14 -5 -42t-5 -42q28 2 29 35v6v50v46q1 31 1 46q-1 3 -8 11q-10 -9 -30 -26q-20 -18 -30 -26zM189 191q-1 2 -5 9 q-6 -8 -18 -22q-13 -14 -19 -21l13 -6h3q26 2 27 30v5q-1 4 -1 5zM159 269q-2 1 -5 4q-4 3 -5 4q-28 -36 -41 -55q0 -3 4 -11q9 5 10 6q19 24 37 52zM170 544l-7 7q-6 -5 -18 -13q-22 -16 -32 -25q-2 -2 -1 -21h9q5 6 16 17q23 23 33 35zM165 681l-4 4l-4 4l-42 -36 q-2 -4 0 -21q2 1 7 3q7 3 9 5q13 14 34 41zM196 246v6q-1 5 -1 7q-1 1 -3 2.5t-4 2.5t-3.5 2t-2.5 2h-2q-18 -17 -36 -38q-1 -2 2 -9v-1q8 4 25 13t25 13zM152 193l-5 5q-28 -23 -32 -28q-2 -4 -2 -25l18 12q2 3 21 36zM204 703l-9 3l-12 -15q-3 -5 -8 -15q-4 -8 -6 -11h16 q7 13 19 38zM158 704v6q-1 3 -1 5q-35 -5 -41 -7q0 -1 1 -18q7 2 21 7q13 5 20 7zM159 522l6 -9l30 21q1 2 -4 12q-5 -4 -16 -12t-16 -12zM151 375q-1 1 -2 3q-2 1 -2 2l-31 -28q-3 -3 -5 -13v-1q2 1 6 2q6 2 8 3q6 6 17 20zM107 287q1 -1 5 -3q4 -3 5 -4q5 6 13 20 q9 13 13 19q-1 1 -4 3t-4 3q-5 -7 -14 -19q-10 -13 -14 -19zM151 427q-17 -6 -18 -7q-12 -12 -22 -25q1 -1 3 -5q9 7 24 20q2 2 13 17zM140 609q-2 1 -5 4q-4 3 -5 4q-14 -19 -18 -26q0 -2 5 -8q3 5 11 13q9 9 12 13zM149 133q0 -1 1 -5v-5l36 6v9q-6 -1 -18 -2 q-13 -2 -19 -3zM194 634l-5 5q-4 -3 -11 -9q-8 -7 -12 -10q1 -1 2 -3l3 -3q3 4 11 10q9 7 12 10zM170 581q1 -1 2 -3q2 -3 3 -4q16 12 23 18q-1 1 -4 6q-4 -3 -12 -8zM142 567q0 1 -2 3q-2 1 -2 2q-4 -4 -12 -10q-7 -8 -11 -11q1 -1 3 -4q4 3 12 10t12 10z" glyph-name="l" horiz-adv-x="244" unicode="l"/>
<glyph d="M573 95l-39 3q-48 3 -72 6q-4 1 -16 12q2 2 5 4q6 5 8 8q13 16 13 20q5 138 6 272q0 10 -13 19q-3 2 -5 2h-9q-21 0 -56 -6q-1 0 -2.5 -1.5t-3 -3.5t-3 -4.5t-2.5 -4.5t-1.5 -4t0.5 -2q11 -14 11 -33q0 -10 -4 -29q-3 -18 -3 -27v-20q0 -3 -3 -123q0 -9 1 -29 q1 -19 1 -28v-9q0 -8 -12 -12q-2 -1 -3 -1q-60 -10 -92 -11q-8 0 -41 14q-3 1 -4 2l4 16l1 1q29 10 30 32q0 8 -5 22q-1 3 -1 5q0 4 4 15t4 16q0 34 -1 103v103q-1 19 -13 20q-3 0 -12 -2q-42 -13 -52 -32q-7 -15 -8 -43q-3 -71 -5 -213v-1q0 -3 11 -19q1 -2 2 -3 q5 -8 5 -10q-2 -3 -7 -11q-11 -19 -17 -19q-33 1 -119 12q-7 2 -12 14q0 1 8 9l2 2q1 2 4 4q6 8 7 11q8 119 12 237q-1 7 -14 20q-6 6 -17 16q-17 15 -24 23q-1 2 0 17l17 -6q3 -2 7 -9q5 -7 7 -9q4 -3 13 -7q6 -3 9 -4q1 2 3 7q4 10 3 14q-4 8 -15 16q-2 2 -7 2q-5 2 -7 3 q-4 4 -15 17q3 1 8 4q11 5 16 5q31 0 92 -2h3q3 0 9 1h8q18 -2 19 -20v-7q0 -3 9 -6h3q6 1 16 6q19 6 28 7h15q12 1 17 1q24 0 40 -5q18 -6 33 -6q14 0 38 7q31 9 64 9q21 0 39 -3q33 -8 79 -44q24 -20 24 -52q0 -10 -1 -16q-7 -55 -7 -118v-29q1 -20 1 -30q0 -5 15 -22 q4 -5 6 -8q2 -4 4 -7.5t4 -9t3 -7.5t3 -9l3 -7l-42 -15h-12zM140 317q2 5 6 17q3 12 5 17q-22 -14 -33 -22q-15 -11 -16 -13q-1 -3 -6 -36q19 10 24 14t18 20v-10q1 -6 1 -9q16 14 22 20q1 3 -1 12q-4 -1 -10 -5q-7 -4 -10 -5zM153 211q-43 -18 -59 -53q-4 -11 -4 -19 q1 -3 7 -15l13 7q22 39 43 80zM351 353l-6 6q-5 -4 -16 -11q-25 -16 -35 -26q-3 -5 -3 -11q0 -4 1 -13t1 -13q3 2 9 4q11 6 14 10q11 14 35 54zM84 361l5 -5q4 -4 5 -6t2 -6q1 -5 2 -7q2 1 6 2q6 2 8 3q5 4 14 12q13 11 20 15q4 3 18 7q-2 4 -4 12q-4 9 -5 13 q-12 -6 -17 -10q-4 -3 -11 -8q-12 -9 -18 -13q-1 0 -25 -9zM369 254l-9 21q-3 2 -9 -2q-7 -7 -18 -20q-3 3 -9 8l-8 8q-13 -13 -23 -26q1 0 6 -6q5 3 17 8q12 6 17 8q-18 -20 -26 -30q-1 -2 2 -12l30 21q20 15 30 22zM172 248q-18 19 -19 21q-22 -30 -33 -46q1 0 6 -5 q29 18 46 30zM551 347l-5 5q-5 -5 -16 -13q-18 -14 -26 -22q-2 -3 -2 -22q2 1 7 3q7 3 9 5q7 8 33 44zM286 414q14 -14 14 -13q4 3 26 20l-7 7q-10 9 -12 9q-4 -2 -18 -19q-2 -3 -3 -4zM521 173l5 -5q4 -3 5 -4q6 8 18 22q12 15 18 22q0 2 -2 11q-1 -1 -5 -2q-5 -2 -6 -3 q-12 -14 -33 -41zM580 269q-18 8 -19 7q-18 -18 -34 -37q1 -1 5 -8q29 23 48 38zM527 296l6 -6q27 18 34 25q2 3 1 21q-12 -5 -15 -8q-2 -2 -26 -32zM354 209q-4 -5 -9 -12t-7 -9l-8 -16q-6 -12 -9 -17q1 0 3 -1h4q15 16 28 34q0 2 -2 21zM497 410q2 -3 4 -5.5t3.5 -4.5 t3.5 -4l1 -1q11 6 28 17q-3 2 -8 6q-10 7 -16 9q-2 1 -12 -12q-3 -3 -4 -5zM136 130q4 7 12 19q9 14 13 20q-1 1 -7 11l-27 -36q1 -2 9 -14zM89 212q2 -1 6 -2l6 -3q3 7 8 21q6 13 8 20q-10 0 -11 -1q-4 -7 -10 -20q-5 -10 -7 -15zM139 420q-17 4 -18 4q-16 -13 -23 -20 q0 -2 5 -12zM545 157l-5 5q-5 -6 -15 -16q-10 -11 -15 -16l5 -5q5 5 15 16t15 16zM146 459q-22 -7 -45 -13q1 -2 1 -5q2 -4 2 -5q7 2 21 8q14 7 21 9v6zM525 272l-15 -18q-7 -10 -10 -14q1 -1 4 -6q4 6 12 16q9 11 13 16l-3 4q-1 1 -1 2zM333 308q1 -2 5 -4l4 -4 q17 22 22 29l-6 6q-4 -5 -12 -13q-9 -10 -13 -14zM171 431q-7 5 -10 6q-6 -5 -21 -20l4 -5q4 3 27 19zM529 378l-3 3q-3 2 -4 3q-14 -18 -20 -27l6 -6zM520 197q-1 1 -4 3l-3 3q-10 -12 -14 -19q0 -2 5 -8q2 4 8 10q6 8 8 11zM313 369q-1 1 -2 4q-2 3 -2 4q-12 -6 -17 -10 q0 -2 2 -11q3 2 10 6q6 5 9 7zM328 137q0 -1 1 -5t1 -5q8 2 21 8q0 1 -1 8q-4 -1 -11 -3q-8 -2 -11 -3zM558 121l8 14q0 2 -3 11q-2 -2 -7 -8q-4 -6 -6 -8l2 -2q4 -4 6 -7z" glyph-name="m" horiz-adv-x="646" unicode="m"/>
<glyph d="M178 311q0 -111 1 -166q1 -4 12 -13q3 -3 11 -8q7 -6 10 -9l-20 -10q-2 -1 -7 -5t-7 -5l-4 -2t-4 -1l-2 -1q-14 16 -38 16q-6 0 -20 -1q-13 -2 -19 -2q-8 0 -12 1q-3 1 -10 1q-11 2 -16 4q-3 2 -13 15q2 1 7 3q8 4 11 4q10 -2 12 -2q8 2 8 10v6q-1 5 -1 8v27q0 40 2 115 q0 10 1 30v31v15q-1 9 -10 19q-6 6 -18 17q-15 15 -21 22q-12 16 -11 21q14 17 26 18q20 1 56 1l76 -1q5 0 10 -8q1 -2 1 -3q-1 -5 -1 -11q1 -7 5 -8q7 1 18 8q38 21 72 21q46 -1 72 -39q30 -46 40 -104q1 -6 1 -15q0 -14 -5 -42t-5 -42t8 -111v-6q-2 -18 -15 -19q-5 0 -8 1 q-16 3 -49 6q-25 2 -37 4q-8 2 -13 10q-1 2 2 6q2 5 3 7q3 24 9 71v11q-1 7 -1 10l6 60q1 16 4 47q5 68 5 100q-1 21 -18 22q-9 0 -19 -3q-17 -4 -48 -18q-28 -12 -32 -56q0 -4 -1 -12q-1 -16 -1 -45h-3zM162 153q-2 10 -6 25q-2 10 -3 14q-3 -6 -9 -16q-5 -12 -8 -17v-2 l-9 -14q-5 -2 -13 1q-1 6 1 16v1q3 14 4 19q-1 0 -4 -1q-4 0 -5 -1q-10 -15 -10 -22q2 -26 26 -27q6 0 15 2q6 1 19 19q1 2 2 3zM108 259l9 -9l43 43q1 3 -2 15l-12 -6q-6 -7 -19 -22q-13 -14 -19 -21zM319 361q26 20 27 35q0 9 -9 21q-2 1 -13 6l-5 -11v-16v-35zM117 323 l6 -6q27 21 35 29q2 2 2 19v3l-16 -10q-6 -6 -16 -21q-8 -10 -11 -14zM315 238l6 -6q29 23 40 33q1 2 3 17q-14 -3 -15 -4q-4 -4 -34 -40zM119 376q49 23 50 52q0 5 -2 10l-21 -27q-17 -22 -27 -35zM69 448l-12 -12q10 -12 20 -23q1 2 4 5q5 8 5 10q-1 3 -15 18zM116 209 l6 -6q6 7 20 19q14 13 20 19l-8 8q-6 -7 -19 -20q-13 -14 -19 -20zM332 156l4 -4q3 -4 4 -5q16 18 24 28q0 1 -3 8q-5 -5 -15 -13q-9 -10 -14 -14zM337 288q-1 1 -4 2q-3 2 -4 3q-3 -3 -9 -11q-5 -7 -8 -10q1 -1 4 -3l3 -3q3 4 9 11q6 8 9 11zM350 206q13 17 14 19q0 2 -5 8 q-10 -10 -14 -16q1 -2 5 -11zM345 119q8 6 10 8l-10 6q-6 -2 -13 -7q9 -4 13 -7z" glyph-name="n" horiz-adv-x="415" unicode="n"/>
<glyph d="M21 270q-1 6 -1 14q0 61 63 123q69 66 139 67q104 0 149 -86q20 -38 23 -83v-9q1 -6 1 -9q0 -122 -99 -170q-42 -20 -95 -23h-10q-85 0 -136 66q-34 46 -34 101v9zM106 278q-1 -5 -1 -13q1 -38 36 -102q26 -34 70 -38q26 1 41 15q60 60 61 119q0 12 -1 18q-1 7 -6 22 q-6 22 -6 32q1 37 -37 76q-2 3 -6 7l-6 6q-15 16 -51 16q-33 -1 -48 -14q-45 -45 -46 -134v-10zM284 440q-1 -1 -3 -4l-3 -3q6 -8 16 -25q11 -16 16 -24q3 -3 17 -12q1 2 2.5 7.5t2 8t1 7t-1.5 4.5q-12 13 -47 41zM87 264q-9 12 -12 15q-3 -3 -9 -11q-7 -9 -10 -12l9 -6 q5 2 22 14zM360 288q-9 3 -10 3q-9 -9 -16 -19q0 -2 6 -9q2 3 20 25z" glyph-name="o" horiz-adv-x="414" unicode="o"/>
<glyph d="M430 406q31 -67 31 -131q0 -30 -6 -60q-16 -84 -91 -115q-31 -13 -64 -13q-37 0 -73 15q-8 4 -14 4q-8 -2 -8 -14v-5q5 -125 5 -151q0 -3 -1 -11q-2 -8 -2 -12q0 -12 14 -17q1 -1 2 -1q-1 -1 -5 -21q-14 -6 -31 -6h-6q-37 2 -116 8q-3 0 -45 6q1 6 3 17q5 23 9 33 q3 6 23 22q5 3 7 6q18 22 19 29q5 135 5 243v38q0 28 -6 82q-5 55 -6 82q0 2 -1 7q-1 9 -1 13q2 19 20 20h5q18 -2 52 -2h85q18 0 27 1q16 3 56 11q76 -3 113 -78zM209 327q1 -7 1 -21q2 -38 20 -52q-1 0 -6 -8h-5q-14 -2 -14 -16v-10v-6q0 -4 -1 -14v-13q0 -16 5 -26 q12 -23 42 -39q2 -1 4 -1q4 1 29 10l15 3q44 2 63 41q6 15 7 31q0 10 4 29q5 22 5 33q0 51 -12 116q-12 51 -81 52q-41 0 -64 -44q-13 -23 -13 -49q0 -11 1 -16zM140 388q-3 4 -11 33q-1 3 -1 4q14 -2 39 -8q2 -1 11 -9q5 17 5 22q-2 11 -15 12q-10 0 -15 -1q-4 -1 -14 -1 q-31 -1 -36 -15q-1 -5 -1 -10q0 -7 1 -11q4 -16 18 -29q4 -4 55 -40q0 1 2 3q2 1 2 2q-32 37 -40 48zM172 -10q2 -1 11 1q-1 5 -4 17q-6 29 -13 40q-5 8 -37 31q-3 3 -5 4q-2 -1 -4 -3l-4 -4q8 -12 56 -86zM178 294l-3 10q-42 37 -59 52q-3 1 -11 3q-2 -12 -1 -14 q6 -5 64 -55zM169 251q4 -5 11 -10q0 2 2 7l1.5 4.5t1 3.5t-0.5 2q-8 10 -42 49q-2 -1 -4 -3l-4 -4zM423 241q2 -1 8 8q-7 9 -20 24l-5 -5q-6 -7 -10 -11q19 -12 27 -16zM161 146q3 -4 17 -15q-3 21 -4 23q-4 6 -23 30q-1 -1 -5 -4q-3 -2 -4 -3q10 -18 19 -31zM162 -104 q1 2 4 4q2 4 3 5q-6 5 -19 15l-18 15q-2 -2 -4 -5q-3 -4 -4 -5q6 -5 19 -15q13 -9 19 -14zM422 278q1 -1 6 1l1 1h1q-3 7 -9 20l-9 21l-12 -6q19 -33 22 -37zM373 135q22 24 32 36l-7 7q-5 -7 -17 -21q-11 -13 -16 -19zM133 -47l9 6q-5 7 -16 22q-10 15 -15 22q-2 -1 -5 -3 l-6 -3q6 -7 16 -22q12 -15 17 -22zM413 193q5 0 7 8v2q-1 3 -12 27q-2 -3 -5 -9q-4 -6 -5 -9q-2 -2 -5 -8q-3 -5 -5 -7q16 -4 25 -4zM62 -93q6 6 15 18q-1 0 -9 8q-10 -7 -25 -21q18 -5 19 -5zM152 118q-1 -1 -4 -3t-4 -3l33 -39q1 1 4 3.5t4 3.5q-5 6 -17 19q-11 13 -16 19 zM109 248q0 -1 -2 -4q-1 -2 -1 -3q3 -4 20 -26q2 1 5 4q4 3 5 4q-4 4 -14 13q-9 8 -13 12zM179 -63l3 7q-6 8 -17 21q-3 -2 -7 -7q-5 -4 -7 -6q5 -2 14 -8zM112 179l-3 -8l12 -27l14 14q-4 4 -11 10q-8 8 -12 11z" glyph-name="p" horiz-adv-x="480" unicode="p"/>
<glyph d="M164 485q7 -1 20 -5q24 -5 36 -7q0 -1 14 -1l13 1h84h27q18 0 26 1h6q18 -2 19 -19q0 -5 -1 -13q-1 -5 -1 -7q-1 -27 -7 -82q-5 -55 -6 -82v-30q0 -84 6 -251q1 -9 19 -29q4 -4 12 -11q14 -11 18 -18q3 -6 11 -46q1 -2 1 -3l-18 -3q-18 -3 -27 -4q-80 -6 -116 -8h-5 q-15 0 -32 7q-2 1 -3 6t-2 9v5q15 6 16 17q0 4 -2 12q-2 9 -2 13q0 26 3 78t3 78q-1 12 -8 13q-7 -1 -15 -4q-36 -15 -73 -15q-83 0 -127 64q-20 28 -27 64q-6 30 -6 60q0 66 31 132q38 76 113 78zM196 437q-72 -1 -82 -52q-11 -60 -11 -116q0 -3 7 -48q2 -8 2 -14 q1 -46 41 -65q13 -6 28 -7l16 -4q4 -1 12 -4q11 -5 16 -5q3 1 4 1q32 18 43 39q5 11 5 26q0 4 -1 14v13v6v10q-2 14 -14 15h-5l-6 8q19 14 19 50q0 16 1 23t1 17q0 50 -37 79q-18 14 -39 14zM301 341q1 -1 2 -3q2 -1 2 -2q6 4 18 13q25 16 36 26q16 15 19 30q1 5 1 11 q0 23 -29 24h-7q-10 0 -15 1q-12 2 -16 2q-13 -2 -14 -12q0 -7 5 -22q2 1 4 4q5 4 7 5q14 3 39 7l-3 -12q-5 -17 -9 -24q-10 -13 -40 -48zM364 77q-2 1 -4 3q-3 2 -4 3q-4 -3 -13 -9q-22 -16 -28 -25t-16 -52q-1 -3 -1 -5q10 -2 11 -2q20 30 55 87zM313 291q62 53 64 55 q1 3 -1 13l-12 -3q-21 -18 -58 -51q-1 -2 -3 -11q2 -1 10 -3zM346 301q-2 1 -4 3l-3 3l-42 -48q0 -2 3 -17q11 8 12 10q5 7 34 49zM85 258q-5 5 -10 11l-5 5l-21 -24q0 -1 2 -3t5 -4l2 -2q4 2 27 17zM339 178q-1 1 -5 4q-3 2 -4 3q-21 -27 -23 -30q-2 -4 -4 -23q2 2 6 5 q8 6 11 9q8 11 19 32zM356 -75q-2 2 -4 5q-3 4 -4 6q-6 -5 -18 -16q-13 -10 -19 -15q1 -1 3 -5l4 -4q6 5 19 14q13 10 19 15zM81 315q-2 1 -7 3q-4 3 -6 4l-18 -42q8 -2 9 -2q5 7 22 37zM116 138q-5 6 -14 17q-13 16 -19 24l-7 -8q3 -4 32 -35l6 1q1 1 2 1zM381 -2 q-2 1 -5 3l-6 3q-5 -8 -16 -22q-10 -15 -15 -22q1 -1 5 -4q3 -2 4 -3zM93 198q-2 2 -5 7t-5 7q-1 3 -5 9t-5 9q-2 -3 -5 -10q-5 -11 -7 -16q0 -6 7 -11q6 0 25 5zM437 -87q-16 15 -25 21l-9 -8q10 -14 16 -19q1 1 18 6zM296 80l7 -7q5 7 17 20q11 14 16 20q-1 1 -4 3l-3 3z M345 224q1 -2 5 -4l5 -5q19 25 20 26q0 1 -3 8q-4 -4 -14 -13q-9 -8 -13 -12zM329 -48q-3 2 -7 6l-7 7q-11 -12 -16 -20q0 -2 3 -7l14 7q9 5 13 7zM346 158q2 -2 6 -7l7 -7l7 14q4 10 6 14q0 2 -3 8l-11 -11q-8 -8 -12 -11z" glyph-name="q" horiz-adv-x="480" unicode="q"/>
<glyph d="M157 158q0 -34 24 -38h4q5 0 9 -11v-5q-4 -8 -14 -11q-50 4 -137 16q-3 0 -20 13q-2 1 -3 2l9 6q9 5 13 8q8 9 9 14q2 182 2 272q7 37 28 40q7 0 11 -1h4q7 0 35 8q27 7 58 7q47 0 92 -21q27 -13 35 -54q2 -9 2 -17q0 -9 -1 -13q-11 -49 -56 -55q-20 -2 -29 -2 q-31 1 -46 21q-15 23 -15 45q1 22 13 46q3 5 7 18q-2 0 -7 2q-12 3 -15 1q-10 -6 -11 -20q-1 -47 -1 -138v-89v-44zM87 396q1 -1 4 -3l9 3q8 2 21 4q-1 -3 -2 -8q-2 -11 -4.5 -15.5t-8.5 -12.5q-7 -9 -9 -13t-4 -15q12 5 15 7q23 16 29 59q1 6 1 12q0 11 -3 20q0 1 -2 2 t-4 1.5t-4 0.5h-2q-2 -3 -36 -42zM234 390l-4 4l-17 -17q-12 -18 -11 -22q4 -5 22 -14q8 -3 17 -1q12 3 24 9q0 1 -1 10q-3 0 -8 -1q-10 -2 -15 -2q-10 -1 -26 -1l10 20zM240 374q1 -2 4 -4l4 -4q28 26 40 38q2 4 -4 10q-5 1 -10 -2q-22 -24 -34 -38zM101 266q-3 -4 -9 -11 q-11 -11 -14 -17q-2 -4 -4 -28l6 -2q3 6 26 46q0 3 -5 12zM112 278q3 5 10 15q10 15 14 22q-1 1 -7 8q-13 -16 -25 -34q2 -3 8 -11zM106 225l9 -6q3 6 11 17q7 12 10 18q-1 0 -3.5 2t-3.5 2q-4 -6 -11 -16q-8 -12 -12 -17zM94 320q-9 -13 -20 -32q1 -1 5 -4l9 15q7 10 10 15 q-1 2 -4 6zM138 152l-6 3q-1 -4 -5 -11q-5 -12 -7 -18q1 0 7 -3q2 5 5 15q4 9 6 14zM230 414l7 -7q3 4 9 11q5 8 8 12l-3 3q-3 -3 -11 -9zM109 146l-7 7q-2 -3 -8 -9t-8 -9l5 -5q3 2 9 8t9 8z" glyph-name="r" horiz-adv-x="338" unicode="r"/>
<glyph d="M164 284q69 -2 98 -20q11 -8 20 -17q16 -17 16 -49q0 -50 -30 -79q-13 -12 -27 -14q-12 -2 -22 -12q-11 -12 -14 -9l-6 9q-3 3 -6 4h-8l-118 -3q-8 -6 -14 -6q-13 2 -17 23l-6 36t-5 36q0 4 5 18q17 -8 19 -10q35 -50 90 -59q6 -1 19 -1q19 0 21 4q13 37 13 55 q0 10 -3 17q-19 46 -67 47h-7h-1q-12 0 -43 24q-5 4 -8 6q-7 5 -22 18q-11 9 -16 13q-2 3 -3 5q-2 10 -2 16q0 48 36 96q25 31 49 36q19 3 39 3q43 0 74 -14q10 -5 19 -5t27 14q3 2 5 3q9 6 13 6q6 -4 8 -13q6 -45 9 -90q0 -3 -6 -22q-13 7 -22 13q-18 13 -49 36q-8 6 -9 8 q-13 32 -45 35q-14 -1 -29 -8q-33 -18 -44 -67q-3 -13 -3 -24q1 -22 10 -36q8 -11 46 -27q8 -3 12 -5q1 1 2 5q1 3 2 4zM220 195q10 9 24 20q12 10 16 14q-13 8 -15 7q-16 -9 -28 -20q-1 -3 3 -21zM279 190l-10 7q-3 -3 -11 -8q-7 -6 -10 -8q5 -4 6 -5q11 6 25 14zM58 340h4 q3 -1 4 -1q0 5 1 13q1 9 1 13q-6 0 -7 -1z" glyph-name="s" horiz-adv-x="319" unicode="s"/>
<glyph d="M151 365v-199q1 -42 32 -43q18 1 39 13q61 36 60 109q1 4 11 24q1 -2 5 -6q8 -11 9 -16q0 -12 -1 -36q-2 -24 -2 -36q0 -13 4 -37q2 -16 3 -23t-4 -25q-13 4 -22 5q-5 1 -17 3q-21 4 -30 4q-7 0 -14 -2q-26 -9 -50 -9q-69 0 -111 51q-27 34 -27 75v7q6 126 9 253 q1 32 1 93q0 84 -1 127q-1 5 -14 26q-2 4 -11 17q2 1 7 3q8 4 11 4q9 0 28 -2q28 -2 41 -2q3 0 9 1h8q4 0 13 3t12 3q8 0 13 -11q1 -1 1 -2q2 -5 2 -12q-10 -156 -14 -227q0 -6 14 -11q3 -1 5 -1h43q29 1 43 1h21q5 -1 19 -16q-2 -1 -6 -5q-8 -7 -13 -7q-51 -3 -103 -3 q-23 -2 -24 -22v-25v-44h1zM74 240q0 -1 2 -2q2 -2 2 -3q7 4 18 10q3 1 9 5t9 5v-23v-8q1 -6 1 -8q2 2 6 5q7 6 8 9q0 5 1 15v13v13q-1 10 -1 15l-9 2h-1zM70 303l6 -6l18 15q26 19 36 30q2 5 0 27q-16 -11 -17 -12q-10 -11 -43 -54zM72 547q55 17 56 51q0 9 -3 18 q-20 -26 -53 -69zM57 193q20 -30 25 -37q5 -3 13 0q5 6 5 14q-1 1 -9 7l-14 17q-2 4 -7 13q-2 -2 -5 -6zM127 175q-1 0 -4 1h-4q-1 -6 -2 -20q-2 -13 -2 -19q1 -1 7 -3l6 33v4q-1 3 -1 4zM63 695q2 -4 6 -10q3 -4 4 -6q5 13 10 31q-1 2 -6 8q-5 -8 -14 -23zM95 503 q1 -1 4 -3q6 4 19 12t19 12l-6 6q-4 3 -6 5q-5 -5 -15 -16t-15 -16zM139 705q-3 2 -8 6q-4 4 -5 3q-8 -4 -12 -12q0 -2 5 -9q9 6 20 12zM104 454q-1 1 -3 4q-5 -4 -13 -14l-13 -13l7 -7q4 5 11 15t11 15zM64 577l4 -2q3 -2 4 -2q2 4 6 11l6 12l-11 3q-3 -5 -9 -22zM94 407 q-1 1 -4 3l-3 3q-12 -15 -19 -26l4 -4q4 4 11 12q8 8 11 12zM86 347q-2 1 -4 3q-3 1 -4 2q-8 -12 -11 -19q1 -2 5 -6q2 3 7 10t7 10z" glyph-name="t" horiz-adv-x="330" unicode="t"/>
<glyph d="M249 131q-4 -1 -13 -4q-20 -8 -30 -9q-5 -1 -13 -1q-59 0 -99 71q-10 17 -16 34q-40 113 -40 198v11q-1 6 -7 17q-2 4 -11 17q4 1 11 6q13 7 18 7h1q42 -4 95 -16q9 -5 13 -19q2 -47 5 -142t5 -142q1 -4 16 -9q11 -3 19 -3q40 0 50 37q2 10 2 19v10q0 5 1 15v16 q0 17 -4 27q-8 21 -8 43q0 12 3 38q3 25 3 37q0 13 -3 27q-2 5 -15 30l-3 6q-3 5 -3 7q1 5 11 7q60 4 90 4q19 -2 20 -19v-4q-1 -4 -1 -6q-2 -22 -2 -32q0 -17 2 -51q2 -22 2 -32q0 -3 1 -9t1 -9v-46q-1 -30 -1 -45q0 -1 1 -3t1 -3q-5 -14 -5 -21q0 -22 33 -47q2 0 4 -2 q4 -3 5 -4q7 -5 7 -21q0 -6 -2 -12q-3 -7 -26 -10q-46 -2 -68 -2h-25q-15 1 -27 14q-2 2 2 23v2zM317 397q-7 -9 -20 -27q-19 -25 -28 -36q45 17 51 28q2 6 2 11q0 8 -5 24zM93 311q41 11 42 33q-1 11 -6 22q-11 -16 -36 -55zM131 176q1 0 4 2q3 1 4 1q0 21 -1 31 q-1 11 -5 25q-2 -3 -6 -10q-9 -14 -9 -21q1 -6 13 -28zM260 436l6 -6q3 -5 5 -7q1 -2 3 -5l3 -6l9 12q6 9 9 13l-10 6q-10 -1 -25 -7zM84 371l4 -4q6 5 20 15q13 9 19 14q2 2 4 9v2h-11zM331 135q-3 5 -6 12q-2 6 -3 8q-15 -22 -16 -23l2 -2q1 -3 4 -5l2 -2q7 4 17 12z M294 185q2 -1 4 -3q3 -2 4 -3q3 5 10 16q9 14 13 21l-6 4zM289 244q1 -1 4 -3l21 18q2 3 10 19q-2 -2 -7 -5q-6 -4 -8 -6t-20 -23zM293 299q1 -1 4 -3t4 -3q5 6 14 17q10 12 14 18q-1 1 -3 2q-3 2 -4 3q-5 -5 -14 -17q-10 -12 -15 -17zM77 420q1 -2 3 -4q1 -3 2 -4l33 24 l-6 3q-16 -9 -32 -19zM95 342l-9 9q-2 -3 -5 -8q-5 -8 -7 -12q0 -3 5 -10q3 3 8 11q6 7 8 10zM278 185q9 18 10 21q0 2 -3 8q-10 -8 -11 -10q0 -2 4 -19zM282 122q4 7 12 23q0 1 -3 3q0 1 -1 2h-1q-11 -11 -11 -12q0 -2 4 -16z" glyph-name="u" horiz-adv-x="414" unicode="u"/>
<glyph d="M298 94q-55 4 -79 7q-16 2 -17 10q1 5 9 13q16 16 17 33q-1 14 -10 29q-13 21 -97 174q-6 11 -11 19q-22 40 -41 64q-3 3 -27 9q-3 1 -5 2q-3 1 -10 6q-5 3 -7 4q1 1 4 5q6 9 9 10q60 -2 118 -6l4 -20q-1 -4 -2 -5q-22 -20 -22 -41q1 -20 20 -52q17 -29 50 -88 q20 -38 30 -56q2 -3 15 -15q6 10 10 17q8 19 24 58q25 62 38 92q8 18 8 30q-1 19 -19 34q-5 4 -16 28q-1 3 -2 4l39 9q20 1 62 2q41 1 61 2h6q25 -1 26 -18q0 -8 -5 -20q-8 -19 -25 -56q-26 -57 -38 -86q-38 -89 -62 -157q-12 -37 -31 -42q-5 -1 -9 -1t-15 2zM330 271 l20 -40q2 -3 11 -11q0 2 2 6q2 8 1 11q-16 24 -40 53q-4 4 -14 -2q-2 -1 -3 -2q-6 -9 -6 -16q0 -10 19 -21q12 -7 15 -12q0 4 -2 12q-2 13 -3 22zM391 334q-9 54 -12 66q-1 3 -2.5 6.5t-2.5 5t-4 6.5l-4 4q-7 -11 -8 -12q-11 -31 -11 -34q0 -4 1 -6q5 -9 33 -29q6 -4 10 -7z M316 202q1 1 3 2q8 -16 12 -23q2 -3 9 -9q5 13 4 15q-20 30 -35 48q-8 5 -16 2q-9 -10 -7 -18q7 -13 28 -45q1 0 3.5 2t3.5 2l-3 12q-1 8 -2 12zM358 281l9 3q-10 37 -19 65l-9 9q-2 -3 -7 -10q-7 -12 -7 -21q0 -12 21 -32q9 -9 12 -14zM415 390q1 0 3 1t3 1q-1 4 -2 13 q-3 18 -7 25q-3 4 -23 11q4 -20 3 -19q3 -5 23 -32zM301 173l-4 -4l-4 -4q1 -5 4 -13q3 -10 4 -14q6 -15 12 -16q8 2 10 18q0 8 -19 30zM453 432q-2 2 -5 6q-5 4 -7 5q-6 -2 -10 -9q2 -6 11 -19q7 11 11 17zM275 154q2 3 5 6q2 3 2 4q-1 3 -12 24q-8 -9 -8 -10q1 -5 7 -13 q4 -7 6 -11zM259 119l16 8q-2 1 -5 5q-6 6 -9 6q-3 -1 -15 -9q1 -1 4 -3q6 -5 9 -7zM403 375q-1 -1 -3.5 -2t-3.5 -1q2 -6 6 -16q5 -11 7 -16q4 5 5 6q-2 8 -11 29z" glyph-name="v" horiz-adv-x="502" unicode="v"/>
<glyph d="M549 464q5 2 16 8q11 5 16 7q1 0 2 1q2 1 3.5 1.5t3.5 1.5t2 0q18 -11 40 -11q9 0 26 2q18 2 27 2q14 0 21 -2q5 -2 20 -15q-2 -2 -7 -6q-9 -8 -13 -8q-1 0 -3.5 0.5t-3.5 0.5q-22 -2 -33 -27q-20 -46 -61 -138q-28 -63 -42 -94q-16 -41 -18 -44q-2 -4 -6 -14 q-10 -27 -18 -29q-25 -6 -103 -8q-3 1 -8 15q-2 5 -4 15q-5 18 -10 24q-1 1 -58 64q-4 5 -7 8q-13 15 -19 -2q-1 -3 -1 -4l-30 -84q-13 -33 -43 -34h-4q-3 1 -4 1q-8 1 -20 1h-23h-12q-3 1 -21 9q10 12 11 15q5 13 4 15l-33 66q-23 44 -33 66q-9 19 -75 167q-8 18 -8 26 q2 12 20 12q10 0 15 -1q43 -5 47 -13q1 -3 1 -6q-1 -7 -14 -44q-3 -8 -3 -17q0 -14 5 -27q14 -37 51 -120q25 -54 35 -72q1 -1 4.5 -2t7.5 -0.5t4 1.5q38 89 63 153q2 6 -8 28q-24 50 -36 69q-4 6 -27 20q-3 3 -5 4q-4 3 -12 7q-7 6 -11 8q2 1 5 5q10 9 15 10q47 7 85 8 q86 3 172 3q25 -1 28 -8q1 -4 1 -7q0 -10 -17 -12q-6 -1 -8 -2q-21 -5 -28 -19q-34 -73 -70 -162q-1 -3 -1 -7q1 -17 8 -25q33 -40 77 -88q5 -2 15 4q56 122 98 218q3 9 -2 19q-3 5 -15 22q-4 7 -12 19q-9 14 -13 20q9 2 25 8q18 6 26 8q0 -2 2 -5q1 -4 1 -5zM269 358 q12 26 21 48q12 31 12 35q0 11 -27 12q-6 1 -15 1h-2q-21 -1 -22 -16q1 -9 4 -17q6 -16 29 -63zM546 237q-2 24 -6 59q-1 2 -6 11q-1 -1 -4 -3q-5 -4 -6 -6l-39 -90q-3 -9 3 -19q2 -3 16 -11q1 -1 2 -1l6 21q4 16 7 38q1 4 3 13q1 9 2 13q2 -3 7 -8q9 -10 15 -17zM620 451 q-7 -4 -17 -11q-13 -8 -17 -12q-8 -9 -8 -18q0 -7 15 -30q1 -3 2 -4q3 -4 17 -18q10 26 14 40q4 13 3 20q-1 8 -9 33zM576 296q-1 16 -4 46l-3 42q-22 -25 -23 -40q1 -18 30 -48zM330 332q-1 12 -2 32q-1 23 -2 33q0 1 -4 12q-9 -7 -10 -9q-6 -10 -6 -21q1 -19 24 -47z M491 107q21 21 21 22q-14 21 -28 37l-3 -3q-3 -4 -3 -5q2 -8 13 -51zM364 429q-12 12 -18 16q-1 0 -2.5 -1t-3.5 -2.5t-4 -3.5l-1 -1q3 -5 9 -16t9 -16q6 13 11 24zM266 246q2 0 6 2t6 2q-2 6 -6 20q-3 14 -5 20l-9 -10q1 -8 8 -34zM215 120l13 9q-3 6 -10 16l-6 9 q-6 -16 -7 -24q1 -2 10 -10zM595 349q-2 -1 -5 -1q-4 -2 -6 -2q2 -6 4 -18q4 -11 5 -17l7 7q-1 13 -5 31zM294 340h-5q-4 1 -5 1q0 -4 -1 -11v-16q1 -2 11 -6v32zM254 139q2 0 4 1h4q0 4 -1 11q0 12 -1 17q-1 2 -11 4q1 -6 3 -16q1 -12 2 -17zM565 275q-1 -1 -5 -1h-5 q1 -6 3 -16q3 -11 4 -16q1 1 3 2l3 3q0 1 -3 28zM315 321q-1 -1 -4 -1q-3 -2 -4 -2q2 -4 5 -14q4 -10 6 -14q1 1 3 2t3 2l2 1q-2 7 -11 26zM76 430q-3 2 -7 6q-4 3 -6 4t-7 -7q2 -4 9 -13q4 3 11 10zM558 449l-12 -10l-4 -4l6 -6q3 -4 5 -6l8 11q0 1 -3 15zM348 381 q-2 -1 -4 -1q-3 -1 -4 -1q2 -5 4 -13l3 -12l5 2q0 4 -2 12q-2 9 -2 13z" glyph-name="w" horiz-adv-x="745" unicode="w"/>
<glyph d="M397 95q-97 1 -298 5q-14 0 -22 4q-5 3 -22 18q25 8 26 9q17 9 18 10q64 94 85 130q3 5 3 13q-1 14 -7 23q-46 58 -107 124q-2 2 -24 11q-3 1 -5 2q-7 5 -24 20q19 8 22 8h97q65 -1 97 -1h49q2 0 143 6q2 0 6 1t6 1h30q-12 -27 -13 -28q-17 -24 -53 -73q-23 -31 -34 -46 q-7 -10 -22 -30q-33 -44 -47 -67q-3 -7 -3 -16q1 -18 8 -28q16 -18 66 -55q7 -4 29 -2h4q3 1 4 1q21 -2 26 -23q-1 -1 -29 -9q-4 -1 -8 -1q0 -1 -0.5 -3.5t-0.5 -3.5zM179 439q-9 -1 -29 -1q-19 -1 -28 -1q-5 0 -14 -4q6 -13 6 -14q65 -77 86 -99q5 -5 17 1q2 1 3 2 q17 23 44 68q12 23 9 29q-16 16 -36 20q-7 1 -18 1q-13 0 -40 -2zM248 201q2 -1 4 -1q3 -1 4 -1q10 15 31 46q31 43 45 65q6 11 1 20q-2 2 -17 7q-1 1 -2 1q-1 -3 -2 -9l-3 -9t-2 -9q-3 -15 -10 -16q-7 1 -10 2l-9 3q-7 3 -10 4q0 -15 1 -22q0 -3 2 -9q3 -9 3 -13v-11 q-2 -10 -8 -11q-4 0 -12 3q-4 2 -9 -6q-1 -1 -1 -2q0 -6 2 -20q2 -8 2 -12zM302 121q4 1 13 3l15 3q-4 4 -11 13q-8 8 -11 12q-5 5 -8 7q-20 19 -28 19t-24 -25q-1 -1 -1 -2q-7 -11 -8 -18q2 -9 20 -9q8 0 24 -1q13 -2 19 -2zM344 361q5 -10 9 -16q1 2 5 5q7 7 7 10 q-8 28 -15 30h-2q-15 2 -15 15q0 8 -1 12q-2 7 -8 23q-8 -8 -17 -19q-4 -8 -4 -10q16 -40 22 -52q2 -1 19 2zM387 416q13 -5 15 -4q8 7 7 16q-3 10 -13 15q-13 4 -38 6h-5q-12 -1 -13 -9q1 -7 4 -13q9 -17 20 -35q5 -6 10 -7q5 1 8 9q4 13 5 22zM236 230q-11 30 -12 32 q-3 7 -10 14q-2 -2 -7 -6t-7 -6q-7 -9 -7 -15q0 -7 16 -23q3 -3 4 -5q4 -4 16 -11q6 17 7 20zM304 344q-12 27 -19 42q-2 -4 -9 -12q-11 -15 -11 -21q0 -9 21 -30q3 -4 5 -6q8 17 13 27zM159 201q13 -14 31 -32q3 -3 14 -9v17q-1 3 -12 27q-2 4 -5 11q-4 8 -5 11 q-3 -3 -10 -9l-9 -9zM262 277q-5 22 -5 24q-5 13 -10 23q-10 -6 -11 -7q-4 -20 -3 -30q2 -7 11 -16q3 -3 14 -9q0 1 4 15zM161 174q-5 6 -10 11q-8 -12 -11 -18q0 -2 8 -9q8 10 13 16zM216 173q2 -3 4 -8q4 -6 5 -8q8 14 8 15q0 2 -7 10l-3 3l-3 -6q-3 -4 -4 -6zM206 128v9 q-4 0 -10 -1h-10q0 -7 1 -8h19zM139 123q1 1 1 5q1 4 1 5l-21 3q0 -1 -2 -7z" glyph-name="x" horiz-adv-x="489" unicode="x"/>
<glyph d="M107 34q9 -5 26 -13q28 -14 40 -21q9 -6 15 -6q9 2 15 17q8 22 27 65q17 39 24 58q5 14 0 24q-28 47 -82 140q-56 93 -83 140q-2 6 0 26q3 -1 10 -3q13 -5 16 -9q2 -3 138 -240q3 -4 7 -12q6 -9 8 -13q8 -11 13 -11q7 1 15 12q20 30 59 90q40 59 59 89q6 9 18 28 q13 19 19 28q0 6 -7 13q-4 1 -12 2q-10 2 -14 4q-7 4 -25 17q25 11 28 11h2q73 -4 147 -12q15 -3 20 -14q2 -9 -8 -23q-17 -25 -51 -73q-73 -103 -104 -158q-17 -31 -79 -106q-11 -14 -19 -24q-15 -20 -46 -59q-55 -70 -80 -105q-38 -41 -89 -46q-7 0 -20 2q-51 11 -62 61 q-2 9 -3 18q-1 7 -8 41q-2 8 0 10q15 10 86 52zM167 -103q2 10 4 22q2 10 3 14q2 8 2 13q0 31 -29 41q-4 1 -7 2q-4 -2 -8 -10q10 -25 35 -82zM352 178q-8 24 -11 35q-2 -3 -7 -10q-14 -17 -14 -27q0 -8 14 -35q1 -3 2 -4q3 8 9 23q5 13 7 18zM394 223v17q-1 7 -1 9 q-2 10 -8 27q-15 -23 -19 -31q-1 -6 1 -11q3 -6 11 -18q8 -11 11 -17q5 17 5 24zM510 386q-4 24 -7 36q-1 1 -6 14q-13 -9 -14 -10q0 -15 6 -42q0 -2 10 -12q2 -1 2 -2q1 3 4 8q4 6 5 8zM128 -70q-21 55 -24 63q-2 -1 -4.5 -2.5t-3.5 -2.5l-2 -2q3 -13 14 -50q3 -6 7 -8 q3 0 13 2zM474 353q-2 5 -8 17t-8 17q-13 -22 -13 -25q3 -7 19 -27q6 11 10 18zM435 302q-4 6 -10 17l-6 9q-13 -18 -13 -17v-4q2 -8 16 -26q8 13 13 21zM59 -47q16 -28 24 -41q1 2 4 5q3 5 3 6q-4 7 -11 22q-8 15 -11 22q-1 -2 -4 -6q-3 -5 -5 -8zM220 -44q3 8 9 22 q5 15 8 22l-8 3q-6 -14 -16 -39l5 -6zM560 424l-30 12q-3 0 -12 -5l21 -21q2 1 21 14zM287 54q-7 8 -17 18q-1 -2 -3 -5q-3 -6 -3 -9q0 -4 1 -7t4 -9l3 -6q2 2 5 6q7 8 10 12zM116 -123q4 1 9 3q3 1 4 1q12 4 18 7q0 1 -1 6l-6 -3q-7 -3 -10 -4q-4 0 -12 2q-2 1 -8 3 q-5 3 -7 4l-3 -8q3 -2 7 -5zM357 166q8 -10 11 -15q10 16 10 18q-2 5 -12 16q-1 -3 -4 -8q-3 -7 -5 -11zM300 96q-3 4 -8 10q-6 8 -8 11q-7 -8 -7 -10q3 -9 10 -20q1 1 4 3zM413 257q-6 -12 -6 -13q2 -8 8 -21q1 2 5 5q6 7 7 10q0 1 -11 15q-2 3 -3 4zM456 313q-2 -1 -5 -1 q-4 -1 -5 -1q0 -5 2 -17q1 -12 1 -17l11 6q0 6 -2 18q-2 8 -2 12z" glyph-name="y" horiz-adv-x="610" unicode="y"/>
<glyph d="M166 434q-5 1 -13 1q-39 0 -81 -42l-8 -8l-13 -13q-3 -2 -7 -6l-7 -7q-8 15 -9 17q-7 47 -8 84q0 5 15 9q3 1 5 1t206 -3q7 0 22 1h21l32 -2q10 -2 11 -8q-1 -5 -7 -15q-132 -204 -149 -230q-11 -17 -46 -78q0 -1 0.5 -3.5t1.5 -4.5l1 -2q6 0 18 -2q20 -2 30 -2 q14 0 27 5q16 7 55 41q8 8 14 12q15 11 31 22q13 -30 14 -32q5 -15 5 -28q-2 -39 -35 -40q-36 0 -106 -1h-106h-5q-4 1 -5 1q-43 7 -44 24q1 12 16 37q19 30 56 92q29 51 44 75q8 13 54 82q1 2 9 21q-14 2 -21 2h-18zM150 223q-12 26 -17 36q-2 -3 -8 -9q-9 -12 -10 -17 q0 -7 18 -26q3 -3 4 -5q2 4 7 12zM251 123q7 1 19 3q21 3 29 7q3 2 5 26q-1 0 -2.5 0.5t-5.5 1.5t-4 0q-7 -6 -41 -38zM63 443q-2 -2 -6 -7q-6 -8 -7 -11q0 -4 5 -19q5 4 17 12q11 7 16 11q-22 13 -25 14zM105 162l12 6q-3 6 -8 20q-5 13 -8 19l-13 -11q6 -13 17 -34z M85 144q-6 11 -14 24q-11 -19 -11 -18v-2q1 -4 11 -16q2 2 7 6t7 6zM253 419q-1 3 -4 9q-3 7 -4 9q-12 -15 -12 -16q0 -3 9 -16q4 5 11 14zM231 388q-2 -26 -2 -25q1 -6 5 -15q1 2 5 6q5 7 5 10q0 1 -11 21q-1 2 -2 3zM217 369q0 1 -7 17q-1 -2 -4 -6q-5 -8 -5 -11 q1 -3 8 -17q3 6 8 17zM220 319q-3 2 -9 5q-7 4 -10 5q-2 -1 -4 -6q2 -4 9 -16q2 1 5 4q6 5 9 8zM184 320l-6 9q-3 4 -4 5q-7 -8 -7 -9q3 -7 10 -14q2 3 7 9z" glyph-name="z" horiz-adv-x="352" unicode="z"/>
<glyph d="M289 777q33 -5 96 -17q9 -4 11 -12q1 -9 -7 -16q-34 -24 -52 -34q-11 -6 -27 -4h-4q-42 0 -73 -41q-18 -24 -19 -49q-1 -22 -5 -65q-3 -35 -4 -53v-6q0 -11 2 -34t2 -34v-6q-8 -150 -15 -225q-1 -11 -1 -29q0 -60 41 -90q16 -11 39 -22q14 -6 20 -10q9 -8 10 -15 q-1 -5 -13 -12q-13 -9 -38 -22q-6 -4 -9 -4q-1 0 -5 -1h-5q-55 0 -97 47q-18 20 -25 41q-9 28 -9 62q0 18 4 56q3 38 3 56q0 14 1 43t1 43q0 22 -1 33q-2 18 -25 41q-6 7 -54 49q-1 2 -2 2q-8 8 -9 14q1 9 13 17q58 38 68 46t16 34q4 18 11 53q14 77 29 111q16 37 91 47 l12 2h29v4zM190 571h-2v26q-4 11 -13 18q-6 2 -15 -2q-1 -5 1 -20q0 -5 6 -15q6 -12 6 -17q-1 -8 -7 -15q1 -1 11 -12q2 -2 9 5q1 3 2 4q1 5 1 17q1 8 1 11zM160 467q-17 11 -33 20q-2 0 -10 -7l30 -36l4 8q6 9 9 15zM146 345q12 -14 29 -33q10 13 10 15q-14 17 -27 29 q-2 -1 -12 -11zM203 707q9 6 22 13q-2 1 -5 5q-8 7 -10 7q-6 -2 -25 -17q2 -1 8 -3q7 -3 10 -5zM212 649q-28 19 -33 22q-1 0 -3 -2t-4 -5l-1 -2q10 -13 19 -20q2 0 22 7zM168 168l-12 15q-7 8 -10 11q-4 -7 -4 -10q3 -6 18 -28zM168 385q-16 7 -26 11q-1 0 -4 -4 q-1 0 -2 -1v-1q4 -2 10 -6q8 -5 11 -7q2 1 11 8zM230 695q-20 5 -23 5q-2 -1 -9 -6l14 -11q3 1 18 12z" glyph-name="braceleft" horiz-adv-x="416" unicode="{"/>
<glyph d="M90 422h8q5 0 14 1h9q27 0 31 -14q1 -6 1 -14q0 -7 -2 -31q-8 -114 -11 -171v-20v-41q1 -4 4 -8q3 -2 13 -8q-2 -1 -6 -5q-8 -6 -12 -7q-50 -4 -110 -4q-5 0 -9 17v6q2 21 7 63q9 80 9 119q0 7 -5 21q-5 15 -5 22v17q1 31 9 43q6 8 41 16l12 3q0 -1 1 -3q1 -1 1 -2z M80 169l-9 6q-4 -5 -12 -17t-12 -17q1 -1 4 -3q3 -1 4 -2q4 6 13 16q8 12 12 17zM116 172q-2 1 -5 2q-4 2 -5 3q-3 -5 -8 -15q-6 -9 -9 -14q12 0 13 1t14 23zM103 363l-17 10q-3 -3 -19 -22l6 -5q28 16 30 17zM91 281l-5 5l-27 -27l7 -7q4 4 12 14q9 11 13 15zM99 325l-3 3 q-2 3 -3 4l-15 -12q-10 -7 -15 -11q1 -1 2 -3q2 -2 2 -3q5 3 16 11t16 11zM126 370q-9 7 -10 7q-3 -2 -11 -11q4 -3 5 -4q8 3 16 8zM44 467q-4 4 -4 13q0 4 1 15.5t1 15.5q2 64 2 96v23q0 7 -4 20t-4 19q0 39 12 63q10 17 29 18q11 0 21 -6q11 -4 16 -3q10 2 13 2 q28 -2 28 -39v-7l-3 -132q0 -34 2 -51q2 -16 2 -20q0 -25 -24 -28q-7 -1 -15 -1h-5h-20q-4 0 -14 -1q-11 -1 -16 -1q-12 0 -18 4zM132 702l-4 2t-3 2t-2.5 1.5t-1.5 -0.5q-24 -11 -49 -27q-1 -1 0 -15q10 3 13 4q22 12 27 16q3 2 9 8q7 6 11 9zM73 574q15 11 40 28 q-1 2 -5 7q-5 5 -6 7l-16 -16q-12 -11 -17 -16q0 -2 4 -10zM132 554q-3 2 -5.5 4.5t-4.5 3.5h-1q-6 -3 -32 -20l3 -3q4 -4 5 -3q6 3 19 10zM98 656q0 -2 2 -6t2 -5q18 8 26 13q1 1 -2 7q-4 -1 -14 -5q-10 -3 -14 -4z" glyph-name="bar" horiz-adv-x="177" unicode="|"/>
<glyph d="M81 772q22 2 30 2q69 0 91 -56q8 -22 12 -52q2 -13 3 -39q3 -42 7 -61q14 -55 92 -85q18 -7 19 -15q-1 -4 -14 -21q-6 -7 -20 -22q-30 -30 -36 -47q-13 -40 -33 -156q-4 -23 -9 -69q-9 -65 -15 -96q-14 -65 -87 -72q-5 -1 -9 -1q-10 -1 -30 -5q-17 -3 -25 -4q-12 0 -18 8 q0 7 6 22q0 1 2 2l2 1q66 34 81 119q3 20 7 69q3 41 12 123q4 44 6 65v2q14 20 14 40q0 21 -23 65q-9 17 -11 73q-1 17 -2 28q-11 71 -46 98q-9 7 -19 12q-17 8 -41 34q-10 13 -6 26q5 8 24 11q7 1 18 1h18zM125 22l4 -4q3 -2 4 -3q4 5 14 15q15 17 22 26q1 2 3 19 q-18 -7 -19 -8q-7 -10 -28 -45zM197 124q-2 5 -6 11q-2 4 -3 5q-21 -32 -23 -35q0 -2 5 -9q18 18 27 28zM171 698q-7 -14 -15 -31q1 0 9 -5q15 15 16 18q-1 2 -10 18zM206 356l-14 10q-13 -23 -15 -28q1 -2 5 -7q8 9 24 25zM195 627q-6 7 -11 12q-10 -16 -14 -25q1 -2 8 -8 q2 2 6 8q7 9 11 13zM169 550q1 -1 4 -3t4 -3l9 12q5 8 8 12l-5 5q-3 -4 -10 -11q-7 -8 -10 -12zM210 197q0 3 -2 7q-2 6 -2 8q-1 0 -4 1t-5 1l-2 1q-6 -5 -11 -16q-1 -1 4 -6q1 -1 2 -1q6 1 20 5z" glyph-name="braceright" horiz-adv-x="355" unicode="}"/>
<glyph d="M513 345q-121 13 -180 58q-13 11 -24 22q-53 54 -96 69q-26 8 -47 8q-58 -1 -97 -47q-2 -3 -25 -13q-2 -1 -3 -2l-9 27q-12 29 -12 37q1 13 13 23q63 47 93 58q33 11 60 11q74 0 158 -81l20 -20q77 -69 144 -72q58 1 101 45q11 11 17 14q18 9 32 14q-2 -6 -4 -16 q-4 -11 -5 -16q-2 -4 -2 -7q0 -59 -45 -80q-21 -9 -61 -22q-20 -7 -28 -10zM381 418q-15 22 -30 42l-8 -2v-1q-2 -19 0 -22q10 -10 31 -23l3 2zM190 564q0 -2 -2 -4q-2 -3 -2 -4q13 -17 17 -19q8 -4 33 -8q-2 2 -5 8q-6 10 -10 13q-2 1 -31 14zM127 527q-20 13 -22 14 q-4 0 -18 -8q2 -2 4 -5q7 -7 10 -8q5 0 26 7zM435 395q-23 14 -26 16q-1 -1 -8 -6q14 -10 21 -14q3 0 13 4zM66 514q-2 -3 -5 -7l-6 -9q0 -2 5 -7l15 15q-5 5 -9 8zM139 562l-4 -12q5 -7 13 -12q2 1 7 6q-2 2 -7 8q-6 6 -9 10z" glyph-name="asciitilde" horiz-adv-x="678" unicode="~"/>
</font>
</defs>
</svg>
