<svg xmlns="http://www.w3.org/2000/svg" xmlns:xlink="http://www.w3.org/1999/xlink" viewBox="0 0 1920 1080"><defs><style>.cls-1{fill:#f5ebcf;}.cls-2{fill:url(#linear-gradient);}.cls-3{fill:url(#linear-gradient-2);}.cls-4{fill:url(#linear-gradient-3);}.cls-5{fill:url(#linear-gradient-4);}.cls-6{fill:url(#linear-gradient-5);}.cls-7{fill:url(#linear-gradient-6);}.cls-8{fill:url(#linear-gradient-7);}.cls-9{fill:url(#linear-gradient-8);}.cls-10{fill:url(#linear-gradient-9);}.cls-11{fill:url(#linear-gradient-10);}.cls-12{fill:url(#linear-gradient-11);}.cls-13{fill:url(#linear-gradient-12);}.cls-14{fill:url(#linear-gradient-13);}.cls-15{fill:url(#linear-gradient-14);}.cls-16{fill:url(#linear-gradient-15);}.cls-17{fill:url(#linear-gradient-16);}.cls-18{fill:url(#linear-gradient-17);}.cls-19{fill:url(#linear-gradient-18);}.cls-20{fill:url(#linear-gradient-19);}.cls-21{fill:url(#linear-gradient-20);}.cls-22{fill:url(#linear-gradient-21);}.cls-23{fill:url(#linear-gradient-22);}.cls-24{fill:url(#linear-gradient-23);}.cls-25{fill:url(#radial-gradient);}.cls-26{fill:url(#linear-gradient-24);}.cls-27{fill:url(#linear-gradient-25);}.cls-28{fill:url(#radial-gradient-2);}.cls-29{fill:url(#linear-gradient-26);}.cls-30{fill:url(#linear-gradient-27);}.cls-31{fill:url(#linear-gradient-28);}.cls-32{fill:url(#linear-gradient-29);}.cls-33{fill:url(#linear-gradient-30);}.cls-34{fill:url(#linear-gradient-31);}.cls-35{fill:url(#linear-gradient-32);}.cls-36{fill:url(#linear-gradient-33);}.cls-37{fill:url(#linear-gradient-34);}.cls-38{fill:url(#linear-gradient-35);}.cls-39{fill:url(#linear-gradient-36);}.cls-40{fill:#333;}.cls-41{fill:url(#linear-gradient-37);}.cls-42{fill:url(#linear-gradient-38);}</style><linearGradient id="linear-gradient" x1="908.93" y1="-137" x2="908.93" y2="1209.15" gradientUnits="userSpaceOnUse"><stop offset="0" stop-color="#c22547"/><stop offset="1" stop-color="#6e2735"/></linearGradient><linearGradient id="linear-gradient-2" x1="964.1" y1="-137" x2="964.1" y2="1209.15" xlink:href="#linear-gradient"/><linearGradient id="linear-gradient-3" x1="1018.26" y1="-137" x2="1018.26" y2="1209.15" xlink:href="#linear-gradient"/><linearGradient id="linear-gradient-4" x1="1072.42" y1="-137" x2="1072.42" y2="1209.15" xlink:href="#linear-gradient"/><linearGradient id="linear-gradient-5" x1="1126.58" y1="-137" x2="1126.58" y2="1209.15" xlink:href="#linear-gradient"/><linearGradient id="linear-gradient-6" x1="1181.67" y1="-137" x2="1181.67" y2="1209.15" xlink:href="#linear-gradient"/><linearGradient id="linear-gradient-7" x1="1242.04" y1="-137" x2="1242.04" y2="1209.15" xlink:href="#linear-gradient"/><linearGradient id="linear-gradient-8" x1="1288.61" y1="-137" x2="1288.61" y2="1209.15" xlink:href="#linear-gradient"/><linearGradient id="linear-gradient-9" x1="1332.32" y1="-137" x2="1332.32" y2="1209.15" xlink:href="#linear-gradient"/><linearGradient id="linear-gradient-10" x1="1387.91" y1="-137" x2="1387.91" y2="1209.15" xlink:href="#linear-gradient"/><linearGradient id="linear-gradient-11" x1="1441.15" y1="-137" x2="1441.15" y2="1209.15" xlink:href="#linear-gradient"/><linearGradient id="linear-gradient-12" x1="1496.74" y1="-137" x2="1496.74" y2="1209.15" xlink:href="#linear-gradient"/><linearGradient id="linear-gradient-13" x1="1552.33" y1="-137" x2="1552.33" y2="1209.15" xlink:href="#linear-gradient"/><linearGradient id="linear-gradient-14" x1="944.52" y1="-137" x2="944.52" y2="1209.15" xlink:href="#linear-gradient"/><linearGradient id="linear-gradient-15" x1="1075.89" y1="-137" x2="1075.89" y2="1209.15" xlink:href="#linear-gradient"/><linearGradient id="linear-gradient-16" x1="1210.87" y1="-137" x2="1210.87" y2="1209.15" xlink:href="#linear-gradient"/><linearGradient id="linear-gradient-17" x1="1359.04" y1="-137" x2="1359.04" y2="1209.15" xlink:href="#linear-gradient"/><linearGradient id="linear-gradient-18" x1="1505.92" y1="-137" x2="1505.92" y2="1209.15" xlink:href="#linear-gradient"/><linearGradient id="linear-gradient-19" x1="946.46" y1="-137" x2="946.46" y2="1209.15" xlink:href="#linear-gradient"/><linearGradient id="linear-gradient-20" x1="1080.99" y1="-137" x2="1080.99" y2="1209.15" xlink:href="#linear-gradient"/><linearGradient id="linear-gradient-21" x1="1219.07" y1="-137" x2="1219.07" y2="1209.15" xlink:href="#linear-gradient"/><linearGradient id="linear-gradient-22" x1="1367.78" y1="-137" x2="1367.78" y2="1209.15" xlink:href="#linear-gradient"/><linearGradient id="linear-gradient-23" x1="1511.69" y1="-137" x2="1511.69" y2="1209.15" xlink:href="#linear-gradient"/><radialGradient id="radial-gradient" cx="594.33" cy="544.28" r="358.07" xlink:href="#linear-gradient"/><linearGradient id="linear-gradient-24" x1="641.23" y1="534.71" x2="561.26" y2="556.52" gradientTransform="translate(162.17 -133.59) rotate(15)" gradientUnits="userSpaceOnUse"><stop offset="0" stop-color="#6e2735"/><stop offset="0.5" stop-color="#c22547"/><stop offset="1" stop-color="#6e2735"/></linearGradient><linearGradient id="linear-gradient-25" x1="579.51" y1="658.92" x2="613.97" y2="658.92" gradientUnits="userSpaceOnUse"><stop offset="0" stop-color="#333"/><stop offset="1" stop-color="#260a0f"/></linearGradient><radialGradient id="radial-gradient-2" cx="654.06" cy="331.96" r="85.74" gradientTransform="translate(798.11 -387.24) rotate(74.42)" gradientUnits="userSpaceOnUse"><stop offset="0" stop-color="#222"/><stop offset="1" stop-color="#260a0f"/></radialGradient><linearGradient id="linear-gradient-26" x1="609.61" y1="443.25" x2="640.56" y2="453.16" gradientTransform="translate(888.98 -274.38) rotate(74.42)" gradientUnits="userSpaceOnUse"><stop offset="0" stop-color="#111"/><stop offset="1" stop-color="#260a0f"/></linearGradient><linearGradient id="linear-gradient-27" x1="674.44" y1="176.82" x2="706.06" y2="176.82" gradientTransform="translate(675.13 -535.56) rotate(74.42)" xlink:href="#radial-gradient-2"/><linearGradient id="linear-gradient-28" x1="684.01" y1="150.59" x2="694.6" y2="150.59" gradientTransform="translate(649.18 -553.83) rotate(74.42)" xlink:href="#radial-gradient-2"/><linearGradient id="linear-gradient-29" x1="689.78" y1="188.15" x2="712.73" y2="188.15" gradientTransform="translate(694.09 -537.87) rotate(74.42)" xlink:href="#radial-gradient-2"/><linearGradient id="linear-gradient-30" x1="681.01" y1="205.24" x2="700.16" y2="205.24" gradientTransform="translate(702.75 -515.1) rotate(74.42)" xlink:href="#radial-gradient-2"/><linearGradient id="linear-gradient-31" x1="517.2" y1="696.23" x2="639.77" y2="696.23" gradientTransform="matrix(1, 0, 0, 1, 0, 0)" xlink:href="#radial-gradient-2"/><linearGradient id="linear-gradient-32" x1="573.36" y1="527.36" x2="592.72" y2="527.36" gradientTransform="translate(934.39 -175.92) rotate(74.42)" xlink:href="#radial-gradient-2"/><linearGradient id="linear-gradient-33" x1="579.58" y1="501.69" x2="605.55" y2="501.69" gradientTransform="translate(916.62 -203.86) rotate(74.42)" xlink:href="#radial-gradient-2"/><linearGradient id="linear-gradient-34" x1="560.75" y1="588.82" x2="580.5" y2="588.82" gradientTransform="translate(984.5 -119.01) rotate(74.42)" xlink:href="#radial-gradient-2"/><linearGradient id="linear-gradient-35" x1="573.32" y1="551.89" x2="590.89" y2="551.89" gradientTransform="translate(957.32 -157.08) rotate(74.42)" xlink:href="#radial-gradient-2"/><linearGradient id="linear-gradient-36" x1="544.15" y1="648.44" x2="559.12" y2="648.44" gradientTransform="translate(1028.04 -57.12) rotate(74.42)" xlink:href="#radial-gradient-2"/><linearGradient id="linear-gradient-37" x1="411.71" y1="706.52" x2="623.77" y2="790.08" xlink:href="#linear-gradient"/><linearGradient id="linear-gradient-38" x1="476.67" y1="214.61" x2="847.49" y2="413.96" xlink:href="#linear-gradient"/></defs><title>fill</title><g id="Layer_1" data-name="Layer 1"><rect class="cls-1" x="420" y="-420" width="1080" height="1920" transform="translate(420 1500) rotate(-90)"/></g><g id="Layer_2" data-name="Layer 2"><path class="cls-2" d="M935.75,266.77h-6.53Q916,266.77,916,253V206.31a7.54,7.54,0,0,0-7.55-7.55h-6.53v64.61h4.69v3.41H882.1v-3.41h4.69V138.2H882.1V134.8h26.32a23.83,23.83,0,0,1,16,5.66q6.63,5.66,6.63,13.58v25.49q0,12.33-13.16,17.49,13.16,5.52,13.16,17.58v43.72q0,5.06,4.33,5.06h.37Zm-19.79-79V145.75a7.54,7.54,0,0,0-7.55-7.55h-6.53v57.15h6.53a7.54,7.54,0,0,0,7.55-7.55Z"/><path class="cls-3" d="M987.66,266.77H940.54v-3.41h4.69V138.2h-4.69V134.8h47.12v39.57H972.57V138.2H960.33v57.15h17.85v3.41H960.33v64.61h12.24V227.2h15.09Z"/><path class="cls-4" d="M1043.25,138.2h-4.69L1025.3,266.77h-15L998,138.2h-4.69V134.8h24.48v3.41h-4.69l9.85,112.92,11-112.92h-4.79V134.8h14.17Z"/><path class="cls-5" d="M1095.06,248.46q0,7.92-6.63,13.57a25.42,25.42,0,0,1-32,0q-6.67-5.66-6.67-13.57V153.11q0-7.91,6.67-13.57a25.42,25.42,0,0,1,32,0q6.63,5.66,6.63,13.57ZM1080,256.74V144.83a7.55,7.55,0,1,0-15.09,0V256.74a7.55,7.55,0,1,0,15.09,0Z"/><path class="cls-6" d="M1149.64,266.77h-46.11v-3.41h4.69V138.2h-4.69V134.8H1128v3.41h-4.69V263.37h11.32V227.2h15Z"/><path class="cls-7" d="M1209,138.2h-4.69V248.46q0,7.92-6.63,13.57a25.35,25.35,0,0,1-31.94,0q-6.63-5.66-6.63-13.57V138.2h-4.79V134.8h24.57v3.41h-4.69V256.74a7.27,7.27,0,0,0,2.21,5.34,7.17,7.17,0,0,0,5.25,2.21,7.54,7.54,0,0,0,7.55-7.55V138.2h-4.69V134.8H1209Z"/><path class="cls-8" d="M1270.29,174.37h-13.9V138.2h-6.81V263.37h4.69v3.41H1229.8v-3.41h4.69V138.2h-6.81v36.17h-13.9V134.8h56.51Z"/><path class="cls-9" d="M1300.85,266.77h-24.48v-3.41h4.69V138.2h-4.69V134.8h24.48v3.41h-4.69V263.37h4.69Z"/><path class="cls-10" d="M1355,248.46q0,7.92-6.63,13.57a25.42,25.42,0,0,1-32,0q-6.67-5.66-6.67-13.57V153.11q0-7.91,6.67-13.57a25.42,25.42,0,0,1,32,0q6.63,5.66,6.63,13.57Zm-15.09,8.28V144.83a7.55,7.55,0,1,0-15.09,0V256.74a7.55,7.55,0,1,0,15.09,0Z"/><path class="cls-11" d="M1412.39,138.2h-4.69V266.77h-12.06l-22.82-102.71v99.3h4.69v3.41h-14.08v-3.41h4.69V138.2h-4.69V134.8h19.05L1403,226.46V138.2h-4.69V134.8h14.08Z"/><path class="cls-12" d="M1466.14,266.77h-24.48v-3.41h4.69l-3.41-38.29h-13.53l-3.77,38.29h4.69v3.41h-14.17v-3.41h4.69l13.25-128.57h15.09l12.24,128.57h4.69Zm-23.38-45-6.26-71.33-6.9,71.33Z"/><path class="cls-13" d="M1523.57,266.77H1517q-13.25,0-13.25-13.8V206.31a7.54,7.54,0,0,0-7.55-7.55h-6.54v64.61h4.69v3.41h-24.48v-3.41h4.69V138.2h-4.69V134.8h26.32a23.83,23.83,0,0,1,16,5.66q6.63,5.66,6.63,13.58v25.49q0,12.33-13.16,17.49,13.16,5.52,13.16,17.58v43.72q0,5.06,4.33,5.06h.37Zm-19.79-79V145.75a7.54,7.54,0,0,0-7.55-7.55h-6.54v57.15h6.54a7.54,7.54,0,0,0,7.55-7.55Z"/><path class="cls-14" d="M1578.23,138.2h-4.69l-14.08,75.19v50h4.69v3.41h-24.48v-3.41h4.69v-50l-13.25-75.19h-4.69V134.8h24.11v3.41h-4.69L1557,203.82,1569,138.2h-4.69V134.8h13.9Z"/><path class="cls-15" d="M1003,611.43H886.07V602.8H898V285.46h-11.9v-8.63h62.07v8.63h-11.9V602.8h28.7V511.1h38Z"/><path class="cls-16" d="M1139.24,611.43h-62.07V602.8h11.9l-8.63-97.07h-34.3l-9.57,97.07h11.9v8.63h-35.93V602.8h11.9l33.6-326h38.27l31,326h11.9ZM1080,497.33,1064.1,316.5l-17.5,180.83Z"/><path class="cls-17" d="M1272.94,562.66q0,20.07-16.8,34.42t-40.6,14.35H1148.8V602.8h11.9V285.46h-11.9v-8.63h66.73q23.8,0,40.6,14.35t16.8,34.42v64.63q0,31.27-33.37,44.33,33.36,14,33.37,44.57Zm-38.27-151.43V304.6a19.12,19.12,0,0,0-19.13-19.13H1199v144.9h16.57a19.12,19.12,0,0,0,19.13-19.13Zm0,172.43V458.13A19.12,19.12,0,0,0,1215.54,439H1199V602.8h16.57a19.12,19.12,0,0,0,19.13-19.13Z"/><path class="cls-18" d="M1416.44,565q0,20.07-16.8,34.42T1359,613.76q-23.57,0-40.48-14.35T1301.64,565V323.26q0-20.06,16.92-34.42T1359,274.5q23.8,0,40.6,14.35t16.8,34.42Zm-38.27,21V302.26a19.13,19.13,0,1,0-38.27,0V586a19.13,19.13,0,1,0,38.27,0Z"/><path class="cls-19" d="M1573.94,611.43h-16.57q-33.6,0-33.6-35V458.13A19.12,19.12,0,0,0,1504.64,439h-16.57V602.8H1500v8.63H1437.9V602.8h11.9V285.46h-11.9v-8.63h66.73q23.8,0,40.6,14.35T1562,325.6v64.63q0,31.27-33.37,44.33,33.36,14,33.37,44.57V590q0,12.83,11,12.83h.93Zm-50.17-200.2V304.6a19.12,19.12,0,0,0-19.13-19.13h-16.57v144.9h16.57a19.12,19.12,0,0,0,19.13-19.13Z"/><path class="cls-20" d="M1007.27,761.12q0,19.66-16.46,33.72T951,808.9H934.8V940.81h11.66v8.46H885.65v-8.46h11.66V629.9H885.65v-8.46H951q23.32,0,39.78,14.06t16.46,33.72ZM969.78,781.7v-133A18.73,18.73,0,0,0,951,629.9H934.8V800.44H951a18.73,18.73,0,0,0,18.75-18.75Z"/><path class="cls-21" d="M1143.06,949.27h-60.81v-8.46h11.66l-8.46-95.1h-33.61l-9.37,95.1h11.66v8.46h-35.21v-8.46h11.66l32.92-319.37H1101l30.41,319.37h11.66ZM1085,837.48,1069.45,660.3,1052.3,837.48Z"/><path class="cls-22" d="M1285.71,949.27h-16.23q-32.92,0-32.92-34.29V799.07a18.73,18.73,0,0,0-18.75-18.75h-16.23V940.81h11.66v8.46h-60.81v-8.46h11.66V629.9h-11.66v-8.46h65.38q23.32,0,39.78,14.06t16.46,33.72v63.33q0,30.64-32.69,43.44,32.69,13.72,32.69,43.66V928.23q0,12.58,10.75,12.57h.91Zm-49.15-196.15V648.65a18.73,18.73,0,0,0-18.75-18.75h-16.23v142h16.23a18.73,18.73,0,0,0,18.75-18.75Z"/><path class="cls-23" d="M1438,719.74h-34.52V629.9h-16.92V940.81h11.66v8.46h-60.81v-8.46H1349V629.9h-16.92v89.84H1297.6v-98.3H1438Z"/><path class="cls-24" d="M1576,629.9h-11.66l-35,186.77V940.81h11.66v8.46h-60.81v-8.46h11.66V816.67L1459,629.9h-11.66v-8.46h59.9v8.46h-11.66l27.66,163,29.95-163h-11.66v-8.46H1576Z"/><path class="cls-25" d="M401,628.18c0-104.34,199.1-149.9,326.86-204.91C783.55,439,832.64,466,832.64,508.94c0,54-315.28,102.26-406.91,198.6C410.54,686.66,401,660.63,401,628.18Z"/><rect class="cls-26" x="579.57" y="139.34" width="17.72" height="819.55" transform="translate(-122.07 171.01) rotate(-15)"/><path class="cls-27" d="M581.38,711l.31-1.11c7.43-26.64,13.54-31.63,17.92-30.41s9.48,16.81,5.81,29.95-21.56,6.61-21.56,6.61Zm29.27-113.43-31.15,111.7,4.37,9.48s19.47,6.61,23.74-8.72,10.17-95.72,3-112.19"/><rect class="cls-28" x="541.12" y="317.18" width="225.89" height="29.56" transform="translate(158.6 872.8) rotate(-74.42)"/><rect class="cls-29" x="618.35" y="432.32" width="13.64" height="31.83" transform="translate(25.47 930.01) rotate(-74.42)"/><rect class="cls-30" x="643.64" y="173.4" width="93.22" height="6.82" transform="translate(334.5 794.19) rotate(-74.42)"/><rect class="cls-31" x="685.89" y="146.04" width="6.82" height="9.1" transform="translate(359.08 774.1) rotate(-74.42)"/><rect class="cls-32" x="662.6" y="187.01" width="77.31" height="2.27" transform="translate(331.64 813.08) rotate(-74.42)"/><rect class="cls-33" x="671.26" y="200.69" width="38.65" height="9.1" transform="translate(307.37 815.3) rotate(-74.42)"/><path class="cls-34" d="M612.39,451.75l-69.51,245s13.35,36.77,10.4,64.27c0,0,.1,16.55-14.66,52.56S517.2,932.72,517.2,932.72l71,8s3.6-72.17,1-96.52-10.61-97.38-8.78-104,1.47-13.75,3.31-20.32-4.13-10.59-4.13-10.59l31.76-113.89s1.47-13.75-1.07-21.54,29.57-114.5,29.57-114.5l-2.19-.61Z"/><rect class="cls-35" x="579.63" y="518.27" width="6.82" height="18.19" transform="translate(-81.57 947.3) rotate(-74.42)"/><rect class="cls-36" x="568.69" y="494.87" width="47.75" height="13.64" transform="translate(-49.88 937.69) rotate(-74.42)"/><rect class="cls-37" x="550.16" y="584.27" width="40.93" height="9.1" transform="translate(-149.84 980.28) rotate(-74.42)"/><rect class="cls-38" x="561.64" y="548.48" width="40.93" height="6.82" transform="translate(-105.88 964.33) rotate(-74.42)"/><rect class="cls-39" x="548.23" y="641.61" width="6.82" height="13.64" transform="matrix(0.27, -0.96, 0.96, 0.27, -221.16, 1005.59)"/><path class="cls-40" d="M581.95,700.56l-1.83,6.57c15.94,2.09,20-3.87,20-3.87s-10.14,2.48-18.21-2.42"/><path class="cls-41" d="M401,761.08V628.18c0,32.45,9.54,58.48,24.73,79.36,59.48,81.74,205.63,84.55,205.63,84.55S401,817.19,401,761.08Z"/><path class="cls-42" d="M832.64,332v177c0-42.94-49.09-69.93-104.78-85.67C663.36,405,590,401.93,573.77,406.68L502.89,149.74c35.44-8.86,292.38,39.87,327.82,168.34A51.22,51.22,0,0,1,832.6,332"/></g></svg>