<svg xmlns="http://www.w3.org/2000/svg" viewBox="0 0 1080 1920"><defs><style>.cls-1{fill:#f5ebcf;}.cls-2{fill:#c22547;}.cls-3{fill:none;}</style></defs><title>With RLP</title><g id="Layer_2" data-name="Layer 2"><rect class="cls-1" width="1080" height="1920"/></g><g id="Layer_1" data-name="Layer 1"><rect class="cls-2" x="458.02" y="80.13" width="39" height="1803.77" transform="translate(-237.89 157.05) rotate(-15)"/><path class="cls-2" d="M1014.91,504.07a112.73,112.73,0,0,0-4.15-30.54c-78-282.75-643.51-390-721.51-370.5l156,565.51C481,658.07,642.44,664.94,784.39,705,907,739.68,1015,799.1,1015,893.6V504.07"/><path class="cls-2" d="M65,1448.54V1156c0,71.42,21,128.7,54.43,174.66C250.33,1510.6,572,1516.79,572,1516.79S65,1572,65,1448.54Z"/><path d="M462,1338.42l.68-2.45c16.36-58.64,29.81-69.62,39.45-66.93S523,1306,514.94,1335s-47.44,14.56-47.44,14.56Zm64.43-249.64-68.57,245.84,9.62,20.86s42.85,14.56,52.26-19.19,22.39-210.66,6.52-246.91"/><rect x="373.4" y="471.54" width="497.16" height="65.06" transform="translate(-30.66 967.77) rotate(-74.42)"/><rect x="543.38" y="724.96" width="30.03" height="70.06" transform="translate(-323.67 1093.69) rotate(-74.42)"/><rect x="599.03" y="155.11" width="205.18" height="15.01" transform="translate(356.49 794.76) rotate(-74.42)"/><rect x="692.03" y="94.88" width="15.01" height="20.02" transform="translate(410.58 750.53) rotate(-74.42)"/><rect x="640.76" y="185.05" width="170.15" height="5" transform="translate(350.18 836.33) rotate(-74.42)"/><rect x="659.82" y="215.16" width="85.08" height="20.02" transform="translate(296.78 841.22) rotate(-74.42)"/><path d="M530.26,767.73l-153,539.22s29.38,80.93,22.89,141.46c0,0,.23,36.43-32.27,115.69s-47.15,262.21-47.15,262.21l156.16,17.57s7.93-158.84,2.1-212.43-23.35-214.33-19.32-228.79,3.25-30.27,7.28-44.73-9.08-23.32-9.08-23.32L527.79,1084s3.25-30.27-2.36-47.42,65.09-252,65.09-252l-4.82-1.34Z"/><rect x="458.15" y="914.13" width="15.01" height="40.04" transform="translate(-559.25 1131.74) rotate(-74.42)"/><rect x="434.07" y="862.64" width="105.09" height="30.03" transform="matrix(0.27, -0.96, 0.96, 0.27, -489.5, 1110.6)"/><rect x="393.29" y="1059.39" width="90.08" height="20.02" transform="translate(-709.52 1204.33) rotate(-74.42)"/><rect x="418.56" y="980.62" width="90.08" height="15.01" transform="translate(-612.75 1169.22) rotate(-74.42)"/><rect x="389.03" y="1185.61" width="15.01" height="30.03" transform="translate(-866.47 1260.04) rotate(-74.42)"/><path d="M463.25,1315.34l-4,14.46c35.09,4.59,43.94-8.53,43.94-8.53s-22.31,5.47-40.08-5.33"/><path class="cls-2" d="M65,1156c0-229.65,438.21-329.92,719.39-451C907,739.68,1015,799.1,1015,893.6c0,118.75-693.91,225.06-895.57,437.1C86,1284.74,65,1227.46,65,1156Z"/><path d="M478.78,1120.24c-7,2.6-10.46,3.9-17.41,6.53-16.45,6.54-38,8.35-46.59-10.68l-39-81.75c-1.74-3.65-5.1-6-10-6.91a24.74,24.74,0,0,0-15.14,2.09c-6.47,2.93-9.68,4.41-16.05,7.39l52.36,112.18c4.82-2,7.24-3,12.1-5l2.79,5.93q-31.25,12.75-62.14,26.31l-2.6-5.83c4.62-2.07,7-3.1,11.63-5.16l-97.12-215c-4.09,2.36-6.11,3.54-10.11,5.92l-2.6-5.83C258.24,939,277.92,928.27,297.94,918c13.24-6.56,28.91-10.41,43.52-8.82,11,1.19,23,5.84,28.21,16.45l21.84,45.07c9.16,18.4-6.14,33.86-18.66,45.23,17.4-1.26,39.73-1.77,48.7,16.76L459,1110q4.34,8.95,15.85,4.61l1-.37Zm-118.5-118.31-35.17-73.69c-1.74-3.65-5-5.92-9.8-6.77a22.91,22.91,0,0,0-14.57,2.45c-6.18,3.11-9.24,4.68-15.28,7.84L331.78,1031c6.35-3,9.55-4.47,16-7.41a24.41,24.41,0,0,0,11.43-9.84Q362.9,1007.41,360.28,1001.93Z"/><path d="M614.27,1072.1c-41,14.12-82,28.48-122.7,43.4l-2.95-6.05,12.55-4.62-108.81-223c-4.87,2.07-7.3,3.11-12.13,5.2l-2.95-6.05q32-13.77,64.27-26.74l3,6.13c-5,2-7.52,3-12.51,5l109.53,224.91q15.07-5.37,30.18-10.64l-31.62-65.4Q560,1007,580,999.93Z"/><path d="M694.23,881.44c4.83,10.76.86,22.7-5.79,31.53-9,12-23.27,20.45-37.37,25.54l-17.76,6.29L678,1043l12.73-4.36,2.86,6.31q-32.24,11-64.49,22l-2.93-6.23,12.15-4.17-107-229.71-12.82,4.82-2.93-6.23q36-13.57,72-26.91c14.75-5.37,31.62-7.89,47-5.13,11.41,2.05,23.58,7.63,28.72,18.88Zm-32.37,29.62L616.8,811.52q-2.63-5.81-10.26-7.78a26.22,26.22,0,0,0-16.05,1.15l-17.87,6.62,57.82,127,17.77-6.31c5.64-2,9.72-5,12.35-9.15S663.62,914.93,661.86,911.06Z"/><path class="cls-3" d="M655.18,756.41C386.29,857.61,65,959.4,65,1156c0,71.42,21,128.7,54.43,174.66,124.72-131.14,437.72-221.83,658.41-300"/><path class="cls-3" d="M655.18,756.41c45.13-17,88.79-34,129.2-51.36C907,739.68,1015,799.1,1015,893.6c0,45.31-101,88.81-237.16,137.05"/><line class="cls-3" x1="220" y1="944" x2="332" y2="1195"/><line class="cls-3" x1="655" y1="756" x2="655.18" y2="756.41"/><line class="cls-3" x1="777.84" y1="1030.65" x2="778" y2="1031"/><line class="cls-3" x1="655.18" y1="756.41" x2="777.84" y2="1030.65"/></g></svg>