<svg xmlns="http://www.w3.org/2000/svg" viewBox="0 0 1080 1920"><defs><style>.cls-1{fill:#f5ebcf;}.cls-2{fill:#c22547;}</style></defs><title>Artboard 1</title><g id="Layer_2" data-name="Layer 2"><rect class="cls-1" width="1080" height="1920"/></g><g id="Layer_1" data-name="Layer 1"><rect class="cls-2" x="458.02" y="80.13" width="39" height="1803.77" transform="translate(-237.89 157.05) rotate(-15)"/><path class="cls-2" d="M1014.91,504.07a112.73,112.73,0,0,0-4.15-30.54c-78-282.75-643.51-390-721.51-370.5l156,565.51C481,658.07,642.44,664.94,784.39,705,907,739.68,1015,799.1,1015,893.6V504.07"/><path class="cls-2" d="M65,1448.54V1156c0,71.42,21,128.7,54.43,174.66C250.33,1510.6,572,1516.79,572,1516.79S65,1572,65,1448.54Z"/><path d="M462,1338.42l.68-2.45c16.36-58.64,29.81-69.62,39.45-66.93S523,1306,514.94,1335s-47.44,14.56-47.44,14.56Zm64.43-249.64-68.57,245.84,9.62,20.86s42.85,14.56,52.26-19.19,22.39-210.66,6.52-246.91"/><rect x="373.4" y="471.54" width="497.16" height="65.06" transform="translate(-30.66 967.77) rotate(-74.42)"/><rect x="543.38" y="724.96" width="30.03" height="70.06" transform="translate(-323.67 1093.69) rotate(-74.42)"/><rect x="599.03" y="155.11" width="205.18" height="15.01" transform="translate(356.49 794.76) rotate(-74.42)"/><rect x="692.03" y="94.88" width="15.01" height="20.02" transform="translate(410.58 750.53) rotate(-74.42)"/><rect x="640.76" y="185.05" width="170.15" height="5" transform="translate(350.18 836.33) rotate(-74.42)"/><rect x="659.82" y="215.16" width="85.08" height="20.02" transform="translate(296.78 841.22) rotate(-74.42)"/><path d="M530.26,767.73l-153,539.22s29.38,80.93,22.89,141.46c0,0,.23,36.43-32.27,115.69s-47.15,262.21-47.15,262.21l156.16,17.57s7.93-158.84,2.1-212.43-23.35-214.33-19.32-228.79,3.25-30.27,7.28-44.73-9.08-23.32-9.08-23.32L527.79,1084s3.25-30.27-2.36-47.42,65.09-252,65.09-252l-4.82-1.34Z"/><rect x="458.15" y="914.13" width="15.01" height="40.04" transform="translate(-559.25 1131.74) rotate(-74.42)"/><rect x="434.07" y="862.64" width="105.09" height="30.03" transform="matrix(0.27, -0.96, 0.96, 0.27, -489.5, 1110.6)"/><rect x="393.29" y="1059.39" width="90.08" height="20.02" transform="translate(-709.52 1204.33) rotate(-74.42)"/><rect x="418.56" y="980.62" width="90.08" height="15.01" transform="translate(-612.75 1169.22) rotate(-74.42)"/><rect x="389.03" y="1185.61" width="15.01" height="30.03" transform="translate(-866.47 1260.04) rotate(-74.42)"/><path d="M463.25,1315.34l-4,14.46c35.09,4.59,43.94-8.53,43.94-8.53s-22.31,5.47-40.08-5.33"/><path class="cls-2" d="M65,1156c0-229.65,438.21-329.92,719.39-451C907,739.68,1015,799.1,1015,893.6c0,118.75-693.91,225.06-895.57,437.1C86,1284.74,65,1227.46,65,1156Z"/></g></svg>