<?xml version="1.0" encoding="utf-8"?>
<!-- Generator: Adobe Illustrator 21.1.0, SVG Export Plug-In . SVG Version: 6.00 Build 0)  -->
<svg version="1.1" id="Layer_1" xmlns="http://www.w3.org/2000/svg" xmlns:xlink="http://www.w3.org/1999/xlink" x="0px" y="0px"
	 viewBox="0 0 1000 198.4" style="enable-background:new 0 0 1000 198.4;" xml:space="preserve">
<style type="text/css">
	.st0{stroke:#000000;stroke-miterlimit:10;}
	.st1{font-family:'Roboto-Thin';}
	.st2{font-size:200.6277px;}
</style>
<path class="st0" d="M453.7,53.3c7.7,2,14.9,6,20.8,11.6l1,1c2.5,2.5,10.2,10.7,17.6,22.6h-29.7C462.2,76.3,458.9,64.4,453.7,53.3z
	 M449.6,170.7L449.6,170.7c8.2-25.2,11.7-43.4,13.2-54.4c0.4-2.8,0.7-5.5,0.9-8H503c3.1,8.1,5.6,16.3,8.1,24.3
	c4.2,13.8,8.3,27.1,14.9,38.1h31h-31l0,0h31c-17.7-9.4-21-39.6-33-70.9s-33.9-51.4-33.9-51.4l0,0c-12.7-12-29.8-19.4-48.7-19.4
	c-10.2,0-19.8,2.2-28.6,6c17.6,16.1,28.6,39.2,28.6,64.8l-0.1,4.3c-0.1,2.2-0.4,5.2-0.9,9.1c-1.5,11.2-5.2,29.6-14.1,55.8
	c-0.2,0.5-0.4,1.1-0.6,1.6L449.6,170.7l-23.9-0.1l0,0"/>
<path class="st0" d="M387.6,65.8c-8.7-8.7-20.8-14.1-34.1-14.1c-26.6,0-48.2,21.6-48.2,48.2s21.6,48.2,48.2,48.2
	c13.3,0,25.4-5.4,34.1-14.1l16,16c-12.8,12.8-30.5,20.8-50.1,20.8c-39.1,0-70.9-31.7-70.9-70.9S314.4,29,353.5,29
	c19.6,0,37.3,7.9,50.1,20.8L387.6,65.8z"/>
<path class="st0" d="M203.3,51.7v36.9H226c10.2,0,18.4-8.2,18.4-18.4s-8.2-18.4-18.4-18.4h-22.7V51.7z M180.6,29H226
	c22.7,0,41.1,18.4,41.1,41.1c0,14.5-7.6,27.3-19,34.6l44,66h-26.4L226,111.2h-22.7v59.5h-22.7L180.6,29L180.6,29z"/>
<path class="st0" d="M95.6,170.7c-39.2,0-70.9-31.7-70.9-70.8S56.4,29,95.6,29s70.9,31.7,70.9,70.9S134.7,170.7,95.6,170.7z
	 M143.8,99.9c0-26.6-21.6-48.2-48.2-48.2S47.4,73.3,47.4,99.9s21.6,48.2,48.2,48.2S143.8,126.5,143.8,99.9z"/>
<text transform="matrix(1 0 0 1 557.0221 170.8)" class="st1 st2">Fins</text>
</svg>
