<?xml version="1.0" encoding="utf-8"?>
<!-- Generator: Adobe Illustrator 19.1.1, SVG Export Plug-In . SVG Version: 6.00 Build 0)  -->
<svg version="1.1" id="Layer_1" xmlns="http://www.w3.org/2000/svg" xmlns:xlink="http://www.w3.org/1999/xlink" x="0px" y="0px"
	 viewBox="0 0 586.8 198.4" style="enable-background:new 0 0 586.8 198.4;" xml:space="preserve">
<style type="text/css">
	.st0{fill:#FFFFFF;stroke:#000000;stroke-width:2.8346;stroke-miterlimit:10;}
</style>
<path class="st0" d="M455,53.3c7.7,2,14.9,6,20.8,11.6l1,1c2.5,2.5,10.2,10.7,17.6,22.6h-29.7C463.5,76.3,460.2,64.4,455,53.3z
	 M450.9,170.7L450.9,170.7c8.2-25.2,11.7-43.4,13.2-54.4c0.4-2.8,0.7-5.5,0.9-8h39.3c3.1,8.1,5.6,16.3,8.1,24.3
	c4.2,13.8,8.3,27.1,14.9,38.1h31h-31h0h31c-17.7-9.4-21-39.6-33-70.9s-33.9-51.4-33.9-51.4l0,0C478.7,36.4,461.6,29,442.7,29
	c-10.2,0-19.8,2.2-28.6,6c17.6,16.1,28.6,39.2,28.6,64.8l-0.1,4.3c-0.1,2.2-0.4,5.2-0.9,9.1c-1.5,11.2-5.2,29.6-14.1,55.8
	c-0.2,0.5-0.4,1.1-0.6,1.6H450.9H427h0"/>
<path class="st0" d="M388.9,65.8c-8.7-8.7-20.8-14.1-34.1-14.1c-26.6,0-48.2,21.6-48.2,48.2c0,26.6,21.6,48.2,48.2,48.2
	c13.3,0,25.4-5.4,34.1-14.1l16,16c-12.8,12.8-30.5,20.8-50.1,20.8c-39.1,0-70.9-31.7-70.9-70.9S315.7,29,354.8,29
	c19.6,0,37.3,7.9,50.1,20.8L388.9,65.8z"/>
<path class="st0" d="M204.6,51.7v36.9h22.7c10.2,0,18.4-8.2,18.4-18.4s-8.2-18.4-18.4-18.4H204.6z M181.9,29h45.4
	c22.7,0,41.1,18.4,41.1,41.1c0,14.5-7.6,27.3-19,34.6l44,66h-26.4l-39.7-59.5h-22.7v59.5h-22.7V29z"/>
<path class="st0" d="M96.9,170.7C57.7,170.7,26,139,26,99.9S57.7,29,96.9,29s70.9,31.7,70.9,70.9S136,170.7,96.9,170.7z M145.1,99.9
	c0-26.6-21.6-48.2-48.2-48.2S48.7,73.3,48.7,99.9s21.6,48.2,48.2,48.2S145.1,126.5,145.1,99.9z"/>
</svg>
