<?xml version="1.0" encoding="utf-8"?>
<!-- Generator: Adobe Illustrator 20.0.0, SVG Export Plug-In . SVG Version: 6.00 Build 0)  -->
<svg version="1.1" id="Layer_1" xmlns="http://www.w3.org/2000/svg" xmlns:xlink="http://www.w3.org/1999/xlink" x="0px" y="0px"
	 viewBox="0 0 205 205" style="enable-background:new 0 0 205 205;" xml:space="preserve">
<style type="text/css">
	.st0{fill:none;stroke:#FFFFFF;stroke-width:20;stroke-linecap:round;stroke-linejoin:round;}
</style>
<g>
	<path class="st0" d="M172.88,76.6c-3.63-9.9-9.41-19.18-17.35-27.13S138.3,35.75,128.4,32.12c-26.59-9.77-57.59-3.99-78.94,17.35
		s-27.12,52.35-17.35,78.94c3.63,9.9,9.41,19.18,17.35,27.13s17.23,13.72,27.13,17.35c26.59,9.77,57.59,3.99,78.94-17.35
		S182.65,103.18,172.88,76.6z"/>
	<path class="st0" d="M128.4,32.12c28.95-19.5,53.17-27.32,62.48-18.01s1.49,33.53-18.01,62.48
		c-11.15,16.56-26.11,34.66-43.87,52.42s-35.86,32.72-52.42,43.87c-28.95,19.5-53.17,27.32-62.48,18.01s-1.49-33.53,18.01-62.48"/>
</g>
</svg>
