<?xml version="1.0" encoding="utf-8"?>
<!-- Generator: Adobe Illustrator 20.0.0, SVG Export Plug-In . SVG Version: 6.00 Build 0)  -->
<svg version="1.1" id="Layer_1" xmlns="http://www.w3.org/2000/svg" xmlns:xlink="http://www.w3.org/1999/xlink" x="0px" y="0px"
	 viewBox="0 0 297 297" style="enable-background:new 0 0 297 297;" xml:space="preserve">
<style type="text/css">
	.st0{fill:#9FC9EB;}
	.st1{fill:none;stroke:#FFFFFF;stroke-width:20;stroke-linecap:round;stroke-linejoin:round;}
</style>
<rect class="st0" width="297" height="297"/>
<g>
	<path class="st1" d="M219.03,122.54c-3.64-9.92-9.43-19.23-17.39-27.19c-7.96-7.96-17.27-13.74-27.19-17.39
		c-26.64-9.79-57.71-4-79.1,17.39s-27.17,52.46-17.39,79.1c3.64,9.92,9.43,19.23,17.39,27.19c7.96,7.96,17.27,13.74,27.19,17.39
		c26.64,9.79,57.71,4,79.1-17.39S228.82,149.19,219.03,122.54z"/>
	<path class="st1" d="M174.46,77.97c29.02-19.54,53.28-27.38,62.62-18.04s1.49,33.6-18.04,62.62
		c-11.17,16.59-26.16,34.74-43.96,52.53s-35.94,32.79-52.53,43.96c-29.02,19.54-53.28,27.38-62.62,18.04s-1.49-33.6,18.04-62.62"/>
</g>
</svg>
