<svg id="Layer_1" data-name="Layer 1" xmlns="http://www.w3.org/2000/svg" viewBox="0 0 200 182"><defs><style>.cls-1{fill:#222;}.cls-2{fill:none;stroke:#333;stroke-miterlimit:10;stroke-width:3px;}</style></defs><title>background-tile</title><rect class="cls-1" width="200" height="182"/><path class="cls-2" d="M65.89,131a3,3,0,0,1-4.27,0,3,3,0,0,1,0-4.24,3,3,0,0,1,4.27,0A3,3,0,0,1,65.89,131Z"/><path class="cls-2" d="M55.27,145.92a3,3,0,0,1-4.27,0,3,3,0,0,1,0-4.24,3,3,0,0,1,4.27,0A3,3,0,0,1,55.27,145.92Z"/><path class="cls-2" d="M40.37,156.49a3,3,0,0,1-4.27,0,3,3,0,0,1,0-4.24,3,3,0,0,1,4.27,0A3,3,0,0,1,40.37,156.49Z"/><polyline class="cls-2" points="0 91 42.66 133.4 51.01 141.7"/><polyline class="cls-2" points="100 91 93.16 97.8 83 107.9 76.66 101.6 31.99 101.6 25.55 107.9 46.88 129.1 53.12 135.3 57.45 135.3 61.67 131.1"/><path class="cls-2" d="M65.89,40a3,3,0,0,1-4.27,0,3,3,0,0,1,0-4.24,3,3,0,0,1,4.27,0A3,3,0,0,1,65.89,40Z"/><path class="cls-2" d="M55.27,54.92a3,3,0,0,1-4.27,0,3,3,0,0,1,0-4.24,3,3,0,0,1,4.27,0A3,3,0,0,1,55.27,54.92Z"/><path class="cls-2" d="M40.37,65.49a3,3,0,0,1-4.27,0,3,3,0,0,1,0-4.24,3,3,0,0,1,4.27,0A3,3,0,0,1,40.37,65.49Z"/><polyline class="cls-2" points="0 0 42.66 42.4 51.01 50.7"/><polyline class="cls-2" points="100 0 93.16 6.8 83 16.9 76.66 10.6 31.99 10.6 25.55 16.9 46.88 38.1 53.12 44.3 57.45 44.3 61.67 40.1"/><path class="cls-2" d="M134.11,51a3,3,0,0,1,4.27,0,3,3,0,0,1,0,4.24,3,3,0,0,1-4.27,0A3,3,0,0,1,134.11,51Z"/><path class="cls-2" d="M144.73,36.08a3,3,0,0,1,4.27,0,3,3,0,0,1,0,4.24,3,3,0,0,1-4.27,0A3,3,0,0,1,144.73,36.08Z"/><path class="cls-2" d="M159.63,25.51a3,3,0,0,1,4.27,0,3,3,0,0,1,0,4.24,3,3,0,0,1-4.27,0A3,3,0,0,1,159.63,25.51Z"/><polyline class="cls-2" points="200 91 157.34 48.6 148.99 40.3"/><polyline class="cls-2" points="100 91 106.84 84.2 117 74.1 123.34 80.4 168.01 80.4 174.45 74.1 153.12 52.9 146.88 46.7 142.56 46.7 138.33 50.9"/><path class="cls-2" d="M134.11,142a3,3,0,0,1,4.27,0,3,3,0,0,1,0,4.24,3,3,0,0,1-4.27,0A3,3,0,0,1,134.11,142Z"/><path class="cls-2" d="M144.73,127.08a3,3,0,0,1,4.27,0,3,3,0,0,1,0,4.24,3,3,0,0,1-4.27,0A3,3,0,0,1,144.73,127.08Z"/><path class="cls-2" d="M159.63,116.51a3,3,0,0,1,4.27,0,3,3,0,0,1,0,4.24,3,3,0,0,1-4.27,0A3,3,0,0,1,159.63,116.51Z"/><polyline class="cls-2" points="200 182 157.34 139.6 148.99 131.3"/><polyline class="cls-2" points="100 182 106.84 175.2 117 165.1 123.34 171.4 168.01 171.4 174.45 165.1 153.12 143.9 146.88 137.7 142.56 137.7 138.33 141.9"/><polyline class="cls-2" points="40.34 152.3 44.57 148 44.57 143.8 38.43 137.6 17.1 116.4 10.66 122.8 10.66 167.2 25.55 182 51.31 182 148.69 91 174.45 91 189.34 105.8 189.34 150.2 182.9 156.6 161.57 135.4 155.43 129.2 155.43 125 159.66 120.7"/><polyline class="cls-2" points="40.34 61.3 44.57 57 44.57 52.8 38.43 46.6 17.1 25.4 10.66 31.8 10.66 76.2 25.55 91 51.31 91 148.69 0 174.45 0 189.34 14.8 189.34 59.2 182.9 65.6 161.57 44.4 155.43 38.2 155.43 34 159.66 29.7"/><polyline class="cls-2" points="0 91 -42.66 48.6 -51.01 40.3"/><polyline class="cls-2" points="0 182 -42.66 139.6 -51.01 131.3"/><polyline class="cls-2" points="0 182 42.66 224.4 51.01 232.7"/><polyline class="cls-2" points="100 182 93.16 188.8 83 198.9 76.66 192.6 31.99 192.6 25.55 198.9 46.88 220.1 53.12 226.3 57.45 226.3 61.67 222.1"/><polyline class="cls-2" points="40.34 243.3 44.57 239 44.57 234.8 38.43 228.6 17.1 207.4 10.66 213.8 10.66 258.2 25.55 273 51.31 273 148.69 182 174.45 182 189.34 196.8 189.34 241.2 182.9 247.6 161.57 226.4 155.43 220.2 155.43 216 159.66 211.7"/><polyline class="cls-2" points="200 91 242.66 133.4 251.01 141.7"/><polyline class="cls-2" points="200 0 242.66 42.4 251.01 50.7"/><polyline class="cls-2" points="200 0 157.34 -42.4 148.99 -50.7"/><polyline class="cls-2" points="100 0 106.84 -6.8 117 -16.9 123.34 -10.6 168.01 -10.6 174.45 -16.9 153.12 -38.1 146.88 -44.3 142.56 -44.3 138.33 -40.1"/><polyline class="cls-2" points="40.34 -29.7 44.57 -34 44.57 -38.2 38.43 -44.4 17.1 -65.6 10.66 -59.2 10.66 -14.8 25.55 0 51.31 0 148.69 -91 174.45 -91 189.34 -76.2 189.34 -31.8 182.9 -25.4 161.57 -46.6 155.43 -52.8 155.43 -57 159.66 -61.3"/></svg>