<svg id="Layer_1" data-name="Layer 1" xmlns="http://www.w3.org/2000/svg" viewBox="0 0 132 132"><defs><style>.cls-1{fill:#222;}.cls-2,.cls-3{fill:none;}.cls-2{stroke:#fff;stroke-miterlimit:10;stroke-width:2.5px;}</style></defs><title>circle-cropped</title><rect class="cls-1" width="132" height="132" rx="66" ry="66"/><circle class="cls-2" cx="52.69" cy="70.73" r="2.33" transform="translate(-34.58 57.97) rotate(-45)"/><circle class="cls-2" cx="28.33" cy="96.58" r="2.33" transform="translate(-59.99 48.32) rotate(-45)"/><circle class="cls-2" cx="60.93" cy="59.18" r="2.33" transform="translate(-24 60.42) rotate(-45)"/><circle class="cls-2" cx="60.02" cy="29.65" r="2.33" transform="translate(-3.38 51.12) rotate(-45)"/><circle class="cls-2" cx="103.67" cy="101.91" r="2.33" transform="translate(-41.7 103.15) rotate(-45)"/><circle class="cls-2" cx="72.48" cy="50.93" r="2.33" transform="translate(-14.79 66.17) rotate(-45)"/><line class="cls-2" x1="62.58" y1="60.83" x2="69.03" y2="67.27"/><line class="cls-2" x1="69.03" y1="67.27" x2="102.02" y2="100.26"/><polyline class="cls-2" points="29.98 94.93 37.83 87.08 42.76 92.02 77.28 92.02 82.22 87.07 65.73 70.57 60.94 65.78 57.64 65.78 54.34 69.08"/><polyline class="cls-2" points="62.34 29.46 82.22 29.46 93.77 41.01 93.77 75.52 88.82 80.47 72.33 63.98 67.53 59.18 67.53 55.88 70.83 52.58"/><rect id="_Slice_" data-name="&lt;Slice&gt;" class="cls-3" width="132" height="132"/></svg>