<svg id="Layer_1" data-name="Layer 1" xmlns="http://www.w3.org/2000/svg" viewBox="0 0 132 132"><defs><style>.cls-1{font-size:37.32px;fill:#fff;font-family:CourierNewPSMT, Courier New;}.cls-2{fill:lime;}.cls-3{fill:red;}.cls-4{fill:#f7931e;}.cls-5{fill:#ff0;}.cls-6{fill:none;}</style></defs><title>circle-alt-cropped-retro</title><rect width="132" height="132" rx="66" ry="66"/><text class="cls-1" transform="translate(12.87 67.5)">pvf</text><path class="cls-2" d="M124.43,35.32,110.62,22l-38.2.11A7.28,7.28,0,0,0,70.87,20a7,7,0,1,0-9.74,10.13,7.22,7.22,0,0,0,5,2h0a6.88,6.88,0,0,0,6.65-5l35.79-.1L124.48,42.3,129.22,47A65.56,65.56,0,0,0,124.43,35.32ZM67.57,26.55a1.94,1.94,0,0,1-1.41.59h0a2.25,2.25,0,0,1-1.56-.64,2.11,2.11,0,0,1-.17-3,2,2,0,0,1,1.42-.59,2.26,2.26,0,0,1,1.56.64A2.11,2.11,0,0,1,67.57,26.55Z"/><path class="cls-3" d="M71.45,93.81l-8.58,0-5.59,5.81a7,7,0,0,0-7.93,1.5,7.12,7.12,0,0,0,.31,10,7.22,7.22,0,0,0,5,2h0a6.9,6.9,0,0,0,5-2.12,7,7,0,0,0,1.18-8L65,98.83h4.44L96.3,124.63q2.31-1.2,4.52-2.56ZM56.1,107.63a1.94,1.94,0,0,1-1.41.59h0a2.25,2.25,0,0,1-1.56-.64,2.11,2.11,0,0,1-.17-3,2,2,0,0,1,1.42-.59,2.26,2.26,0,0,1,1.56.64A2.11,2.11,0,0,1,56.1,107.63Z"/><path class="cls-4" d="M108.26,116.69,76.53,86.15a7,7,0,0,0,.53-3,7.22,7.22,0,0,0-2.23-5A7,7,0,1,0,65.1,88.36a7.22,7.22,0,0,0,5,2h0a7,7,0,0,0,2.93-.65l31.21,30C105.65,118.77,107,117.76,108.26,116.69ZM71.54,84.81a1.94,1.94,0,0,1-1.41.59h0a2.25,2.25,0,0,1-1.56-.64,2.11,2.11,0,0,1-.17-3,2,2,0,0,1,1.42-.59,2.3,2.3,0,0,1,2.26,2.18,1.94,1.94,0,0,1-.53,1.43Z"/><path class="cls-5" d="M85.45,82.16l-.16-4.44,4.11-4.28a7.22,7.22,0,0,0,2.91.62,6.91,6.91,0,0,0,6.95-7.2,7.3,7.3,0,0,0-7.26-7h0a6.92,6.92,0,0,0-6.93,7.21A7.18,7.18,0,0,0,85.79,70l-5.58,5.81.32,8.58,30.58,29.38.21.21c1.2-1.14,2.38-2.31,3.49-3.53Zm5.13-16.71A1.94,1.94,0,0,1,92,64.87a2.19,2.19,0,0,1,1.57.64,2.25,2.25,0,0,1,.7,1.54,1.94,1.94,0,0,1-.53,1.43,2.11,2.11,0,0,1-3-.05,2.25,2.25,0,0,1-.7-1.54A1.94,1.94,0,0,1,90.58,65.45Z"/><rect id="_Slice_" data-name="&lt;Slice&gt;" class="cls-6" width="132" height="132"/></svg>