<svg id="Layer_1" data-name="Layer 1" xmlns="http://www.w3.org/2000/svg" viewBox="0 0 132 132"><defs><style>.cls-1{fill:#222;}.cls-2,.cls-4,.cls-5{fill:none;}.cls-2,.cls-4{stroke:#fff;stroke-width:5px;}.cls-2{stroke-linecap:round;stroke-linejoin:round;}.cls-3{font-size:37.32px;fill:#fff;font-family:CourierNewPSMT, Courier New;}.cls-4{stroke-miterlimit:10;}</style></defs><title>circle-alt-cropped</title><rect class="cls-1" width="132" height="132" rx="66" ry="66"/><path class="cls-2" d="M57.66,102.86a4.53,4.53,0,1,0,.24,6.51,4.61,4.61,0,0,0-.24-6.51"/><path class="cls-2" d="M73.34,86.54a4.69,4.69,0,1,0-6.51,0,4.61,4.61,0,0,0,6.51,0"/><ellipse class="cls-2" cx="66" cy="25.04" rx="4.53" ry="4.68" transform="translate(2.21 55.28) rotate(-46.14)"/><path class="cls-2" d="M89,70.23a4.53,4.53,0,1,0-.24-6.51A4.61,4.61,0,0,0,89,70.23"/><text class="cls-3" transform="translate(12.87 67.5)">pvf</text><polyline class="cls-4" points="132.2 46.48 126.25 40.53 109.62 24.55 70.37 24.66"/><polyline class="cls-4" points="99.14 123.92 98.44 123.21 80.26 105.74 70.45 96.31 63.94 96.33 57.66 102.86"/><polyline class="cls-4" points="107.53 119.45 106.11 118.04 86.53 99.22 73.34 86.54"/><polyline class="cls-4" points="114.29 113.4 112.87 111.98 92.8 92.69 82.99 83.26 82.75 76.75 89.02 70.23"/><rect id="_Slice_" data-name="&lt;Slice&gt;" class="cls-5" width="132" height="132"/></svg>