<?xml version="1.0" encoding="utf-8"?>
<!-- Generator: Adobe Illustrator 21.1.0, SVG Export Plug-In . SVG Version: 6.00 Build 0)  -->
<svg version="1.1" id="Layer_1" xmlns="http://www.w3.org/2000/svg" xmlns:xlink="http://www.w3.org/1999/xlink" x="0px" y="0px"
	 viewBox="0 0 172 172" style="enable-background:new 0 0 172 172;" xml:space="preserve">
<style type="text/css">
	.st0{fill:#222222;}
	.st1{fill:none;stroke:#FFFFFF;stroke-width:2.5;stroke-miterlimit:10;}
	.st2{fill:none;}
</style>
<path class="st0" d="M86,151.8L86,151.8c-36.5,0-66-29.5-66-66v0c0-36.5,29.5-66,66-66h0c36.5,0,66,29.5,66,66v0
	C152,122.2,122.5,151.8,86,151.8z"/>
<g>
	<ellipse transform="matrix(0.7071 -0.7071 0.7071 0.7071 -42.8651 77.9716)" class="st1" cx="72.7" cy="90.7" rx="2.3" ry="2.3"/>
	<ellipse transform="matrix(0.7071 -0.7071 0.7071 0.7071 -68.2768 68.3213)" class="st1" cx="48.3" cy="116.6" rx="2.3" ry="2.3"/>
	<ellipse transform="matrix(0.7071 -0.7071 0.7071 0.7071 -32.2849 80.4215)" class="st1" cx="80.9" cy="79.2" rx="2.3" ry="2.3"/>
	<ellipse transform="matrix(0.7071 -0.7071 0.7071 0.7071 -11.6685 71.1212)" class="st1" cx="80" cy="49.6" rx="2.3" ry="2.3"/>
	
		<ellipse transform="matrix(0.7071 -0.7071 0.7071 0.7071 -49.9852 123.1538)" class="st1" cx="123.7" cy="121.9" rx="2.3" ry="2.3"/>
	<ellipse transform="matrix(0.7071 -0.7071 0.7071 0.7071 -23.0711 86.1705)" class="st1" cx="92.5" cy="70.9" rx="2.3" ry="2.3"/>
	<line class="st1" x1="82.6" y1="80.8" x2="89" y2="87.3"/>
	<line class="st1" x1="89" y1="87.3" x2="122" y2="120.3"/>
	<polyline class="st1" points="50,114.9 57.8,107.1 62.8,112 97.3,112 102.2,107.1 85.7,90.6 80.9,85.8 77.6,85.8 74.3,89.1 	"/>
	<polyline class="st1" points="82.3,49.5 102.2,49.5 113.8,61 113.8,95.5 108.8,100.5 92.3,84 87.5,79.2 87.5,75.9 90.8,72.6 	"/>
</g>
<rect id="_x3C_Slice_x3E_" x="20" y="20" class="st2" width="132" height="132"/>
</svg>
