<?xml version="1.0" encoding="utf-8"?>
<!-- Generator: Adobe Illustrator 21.1.0, SVG Export Plug-In . SVG Version: 6.00 Build 0)  -->
<svg version="1.1" id="Layer_1" xmlns="http://www.w3.org/2000/svg" xmlns:xlink="http://www.w3.org/1999/xlink" x="0px" y="0px"
	 viewBox="0 0 172 172" style="enable-background:new 0 0 172 172;" xml:space="preserve">
<style type="text/css">
	.st0{fill:#222222;}
	.st1{fill:none;stroke:#FFFFFF;stroke-width:5;stroke-linecap:round;stroke-linejoin:round;}
	.st2{fill:#FFFFFF;}
	.st3{font-family:'CourierNewPSMT';}
	.st4{font-size:37.3197px;}
	.st5{fill:none;stroke:#FFFFFF;stroke-width:5;stroke-miterlimit:10;}
	.st6{fill:none;}
</style>
<path class="st0" d="M85.8,152L85.8,152c-36.5,0-66-29.5-66-66v0c0-36.5,29.5-66,66-66h0c36.5,0,66,29.5,66,66v0
	C151.8,122.5,122.2,152,85.8,152z"/>
<path class="st1" d="M77.5,122.9c-1.9-1.8-4.8-1.8-6.5,0s-1.6,4.7,0.2,6.5s4.8,1.8,6.5,0C79.4,127.6,79.3,124.6,77.5,122.9"/>
<path class="st1" d="M93.1,106.5c1.7-1.8,1.6-4.7-0.2-6.5s-4.8-1.8-6.5,0s-1.6,4.7,0.2,6.5S91.4,108.3,93.1,106.5"/>
<ellipse transform="matrix(0.6929 -0.721 0.721 0.6929 -6.1285 75.6917)" class="st1" cx="85.8" cy="45" rx="4.5" ry="4.7"/>
<path class="st1" d="M108.8,90.2c1.9,1.8,4.8,1.8,6.5,0c1.7-1.8,1.6-4.7-0.2-6.5s-4.8-1.8-6.5,0S107,88.4,108.8,90.2"/>
<text transform="matrix(1 0 0 1 32.6729 87.5)" class="st2 st3 st4">pvf</text>
<polyline class="st5" points="152.2,66.5 146.2,60.5 129.6,44.6 90.4,44.7 "/>
<polyline class="st5" points="118.9,143.9 118.2,143.2 100.1,125.7 90.2,116.3 83.7,116.3 77.5,122.9 "/>
<polyline class="st5" points="127.3,139.5 125.9,138 106.3,119.2 93.1,106.5 "/>
<polyline class="st5" points="134.1,133.4 132.7,132 112.6,112.7 102.8,103.3 102.5,96.8 108.8,90.2 "/>
<rect id="_x3C_Slice_x3E_" x="20" y="20" class="st6" width="132" height="132"/>
</svg>
