<?xml version="1.0" encoding="utf-8"?>
<!-- Generator: Adobe Illustrator 21.1.0, SVG Export Plug-In . SVG Version: 6.00 Build 0)  -->
<svg version="1.1" id="Layer_1" xmlns="http://www.w3.org/2000/svg" xmlns:xlink="http://www.w3.org/1999/xlink" x="0px" y="0px"
	 viewBox="0 0 340 172" style="enable-background:new 0 0 340 172;" xml:space="preserve">
<style type="text/css">
	.st0{fill:#222222;}
	.st1{fill:none;stroke:#FFFFFF;stroke-width:3;stroke-miterlimit:10;}
	.st2{font-family:'CourierNewPSMT';}
	.st3{font-size:20.6053px;}
	.st4{font-size:32.9684px;}
	.st5{font-family:'CenturySchoolbook';}
</style>
<g>
	<rect x="20" y="19" class="st0" width="132" height="132"/>
	<g>
		<ellipse transform="matrix(0.7071 -0.7071 0.7071 0.7071 -44.4264 75.4687)" class="st1" cx="68.9" cy="91.4" rx="3" ry="3"/>
		<ellipse transform="matrix(0.7071 -0.7071 0.7071 0.7071 -77.0953 63.0625)" class="st1" cx="37.6" cy="124.6" rx="3" ry="3"/>
		<ellipse transform="matrix(0.7071 -0.7071 0.7071 0.7071 -30.8246 78.6183)" class="st1" cx="79.5" cy="76.5" rx="3" ry="3"/>
		<ellipse transform="matrix(0.7071 -0.7071 0.7071 0.7071 -4.3205 66.662)" class="st1" cx="78.3" cy="38.5" rx="3" ry="3"/>
		<ellipse transform="matrix(0.7071 -0.7071 0.7071 0.7071 -53.5798 133.5543)" class="st1" cx="134.4" cy="131.5" rx="3" ry="3"/>
		<ellipse transform="matrix(0.7071 -0.7071 0.7071 0.7071 -18.9795 86.0091)" class="st1" cx="94.3" cy="65.9" rx="3" ry="3"/>
		<line class="st1" x1="81.6" y1="78.6" x2="89.9" y2="86.9"/>
		<line class="st1" x1="89.9" y1="86.9" x2="132.3" y2="129.3"/>
		<polyline class="st1" points="39.7,122.5 49.8,112.4 56.1,118.7 100.5,118.7 106.9,112.4 85.7,91.2 79.5,85 75.2,85 71,89.2 		"/>
		<polyline class="st1" points="81.3,38.3 106.9,38.3 121.7,53.1 121.7,97.5 115.3,103.9 94.1,82.7 88,76.5 88,72.3 92.2,68 		"/>
	</g>
	<text transform="matrix(1 0 0 1 174.8436 50.1218)"><tspan x="0" y="0" class="st0 st2 st3">the</tspan><tspan x="0" y="20.6" class="st0 st2 st4">people</tspan><tspan x="118.7" y="20.6" class="st0 st5 st4">’</tspan><tspan x="125.4" y="20.6" class="st0 st2 st4">s</tspan><tspan x="0" y="49.5" class="st0 st2 st4">virtual</tspan><tspan x="0" y="78.3" class="st0 st2 st4">front</tspan></text>
</g>
</svg>
