<?xml version="1.0" encoding="utf-8"?>
<!-- Generator: Adobe Illustrator 21.1.0, SVG Export Plug-In . SVG Version: 6.00 Build 0)  -->
<svg version="1.1" id="Layer_1" xmlns="http://www.w3.org/2000/svg" xmlns:xlink="http://www.w3.org/1999/xlink" x="0px" y="0px"
	 viewBox="0 0 172 172" style="enable-background:new 0 0 172 172;" xml:space="preserve">
<style type="text/css">
	.st0{fill:#222222;}
	.st1{fill:none;stroke:#FFFFFF;stroke-width:3;stroke-miterlimit:10;}
</style>
<rect x="20" y="20" class="st0" width="132" height="132"/>
<g>
	<ellipse transform="matrix(0.7071 -0.7071 0.7071 0.7071 -45.1335 75.7616)" class="st1" cx="68.9" cy="92.4" rx="3" ry="3"/>
	<ellipse transform="matrix(0.7071 -0.7071 0.7071 0.7071 -77.8024 63.3554)" class="st1" cx="37.6" cy="125.6" rx="3" ry="3"/>
	<ellipse transform="matrix(0.7071 -0.7071 0.7071 0.7071 -31.5317 78.9112)" class="st1" cx="79.5" cy="77.5" rx="3" ry="3"/>
	<ellipse transform="matrix(0.7071 -0.7071 0.7071 0.7071 -5.0276 66.9549)" class="st1" cx="78.3" cy="39.5" rx="3" ry="3"/>
	<ellipse transform="matrix(0.7071 -0.7071 0.7071 0.7071 -54.2869 133.8472)" class="st1" cx="134.4" cy="132.5" rx="3" ry="3"/>
	<ellipse transform="matrix(0.7071 -0.7071 0.7071 0.7071 -19.6866 86.302)" class="st1" cx="94.3" cy="66.9" rx="3" ry="3"/>
	<line class="st1" x1="81.6" y1="79.6" x2="89.9" y2="87.9"/>
	<line class="st1" x1="89.9" y1="87.9" x2="132.3" y2="130.3"/>
	<polyline class="st1" points="39.7,123.5 49.8,113.4 56.1,119.7 100.5,119.7 106.9,113.4 85.7,92.2 79.5,86 75.2,86 71,90.2 	"/>
	<polyline class="st1" points="81.3,39.3 106.9,39.3 121.7,54.1 121.7,98.5 115.3,104.9 94.1,83.7 88,77.5 88,73.3 92.2,69 	"/>
</g>
</svg>
