<?xml version="1.0" encoding="utf-8"?>
<!-- Generator: Adobe Illustrator 21.1.0, SVG Export Plug-In . SVG Version: 6.00 Build 0)  -->
<svg version="1.1" id="Layer_1" xmlns="http://www.w3.org/2000/svg" xmlns:xlink="http://www.w3.org/1999/xlink" x="0px" y="0px"
	 viewBox="0 0 172 232" style="enable-background:new 0 0 172 232;" xml:space="preserve">
<style type="text/css">
	.st0{fill:#222222;}
	.st1{fill:none;stroke:#FFFFFF;stroke-width:3;stroke-miterlimit:10;}
	.st2{font-family:'Courier New';}
	.st3{font-size:42.6008px;}
	.st4{letter-spacing:4;}
	.st5{fill:none;stroke:#222222;stroke-width:2;stroke-miterlimit:10;}
</style>
<g>
	<rect x="20" y="25" class="st0" width="132" height="132"/>
	<g>
		<ellipse transform="matrix(0.7071 -0.7071 0.7071 0.7071 -48.669 77.2261)" class="st1" cx="68.9" cy="97.4" rx="3" ry="3"/>
		<ellipse transform="matrix(0.7071 -0.7071 0.7071 0.7071 -81.3379 64.8199)" class="st1" cx="37.6" cy="130.6" rx="3" ry="3"/>
		<ellipse transform="matrix(0.7071 -0.7071 0.7071 0.7071 -35.0672 80.3757)" class="st1" cx="79.5" cy="82.5" rx="3" ry="3"/>
		<ellipse transform="matrix(0.7071 -0.7071 0.7071 0.7071 -8.5631 68.4194)" class="st1" cx="78.3" cy="44.5" rx="3" ry="3"/>
		<ellipse transform="matrix(0.7071 -0.7071 0.7071 0.7071 -57.8224 135.3117)" class="st1" cx="134.4" cy="137.5" rx="3" ry="3"/>
		<ellipse transform="matrix(0.7071 -0.7071 0.7071 0.7071 -23.2222 87.7665)" class="st1" cx="94.3" cy="71.9" rx="3" ry="3"/>
		<line class="st1" x1="81.6" y1="84.6" x2="89.9" y2="92.9"/>
		<line class="st1" x1="89.9" y1="92.9" x2="132.3" y2="135.3"/>
		<polyline class="st1" points="39.7,128.5 49.8,118.4 56.1,124.7 100.5,124.7 106.9,118.4 85.7,97.2 79.5,91 75.2,91 71,95.2 		"/>
		<polyline class="st1" points="81.3,44.3 106.9,44.3 121.7,59.1 121.7,103.5 115.3,109.9 94.1,88.7 88,82.5 88,78.3 92.2,74 		"/>
	</g>
	<text transform="matrix(1 0 0 1 43.3934 188.5032)" class="st0 st2 st3 st4">pvf</text>
	<polyline class="st5" points="21,157 21,207 151,207 151,157 	"/>
</g>
</svg>
