<svg id="Layer_1" data-name="Layer 1" xmlns="http://www.w3.org/2000/svg" viewBox="0 0 101.21 87.05"><defs><style>.cls-1{fill:#231f20;}</style></defs><title>black</title><path class="cls-1" d="M77.51,68.58l-4.37-5.32H83l-.77.84a43.34,43.34,0,0,1-4.38,4.17Z"/><path class="cls-1" d="M81.93,64.46,77.4,60.3l.4-.37c3.9-3.64,10.93-10.87,14.32-18.51A42.15,42.15,0,0,0,92.6,35c0-1.23-.06-2.48-.18-3.82l1-.09c.12,1.37.18,2.65.18,3.91A42.9,42.9,0,0,1,82.27,64.09Z"/><path class="cls-1" d="M57.11,22.53H46.24V15.86L42.6,12.22H53.7l1.44,1.44h4.1v4.52l-2.36-1.86-1.42,1.42,2.34.66-2,2Zm-6.87-7.33v1.36l2.08-.62v-.23Z"/><path class="cls-1" d="M39.19,27.3,50.64,65.44,62,27.28l-3.74-3.74H43Z"/><polygon class="cls-1" points="65.23 64.03 64.23 64.03 64.23 61.42 58.95 56.8 59.6 56.04 64.92 60.7 67.57 60.7 67.57 61.7 65.23 61.7 65.23 64.03"/><polygon class="cls-1" points="36.93 64.03 35.93 64.03 35.93 61.7 33.6 61.7 33.6 60.7 36.25 60.7 41.59 56.02 42.25 56.77 36.93 61.42 36.93 64.03"/><polygon class="cls-1" points="56.67 85.54 63.78 85.54 51.93 69.73 56.67 85.54"/><polygon class="cls-1" points="45.58 85.54 55.63 85.54 50.6 68.81 50.6 68.81 45.58 85.54"/><polygon class="cls-1" points="37.43 85.54 44.54 85.54 49.28 69.75 37.43 85.54"/><polygon class="cls-1" points="70.81 1.5 51.85 64.65 99.21 1.5 70.81 1.5"/><polygon class="cls-1" points="2 1.5 49.35 64.64 30.4 1.5 2 1.5"/><path class="cls-1" d="M23.69,68.58l-.39-.32a43.52,43.52,0,0,1-4.38-4.17l-.77-.84h9.91Z"/><path class="cls-1" d="M19.27,64.46l-.34-.37A42.9,42.9,0,0,1,7.6,35c0-1.25.06-2.53.18-3.91l1,.09C8.66,32.55,8.6,33.8,8.6,35a42.13,42.13,0,0,0,.49,6.4c3.39,7.64,10.42,14.87,14.32,18.51l.39.37Z"/></svg>