<svg id="Layer_1" data-name="Layer 1" xmlns="http://www.w3.org/2000/svg" viewBox="0 0 104.88 90.71"><defs><style>.cls-1{fill:none;stroke:#231f20;stroke-miterlimit:10;}</style></defs><title>outline</title><path class="cls-1" d="M79.41,69.71a42.77,42.77,0,0,0,4.33-4.12H76Z"/><path class="cls-1" d="M94.43,43.39C91.09,51,84.3,58.08,80,62.13l3.77,3.46A42.36,42.36,0,0,0,94.93,36.85c0-1.3-.07-2.59-.18-3.87"/><line class="cls-1" x1="56.77" y1="54.46" x2="60.73" y2="57.92"/><polyline class="cls-1" points="66.57 65.86 66.57 63.03 69.4 63.03 66.57 63.03 60.73 57.92"/><line class="cls-1" x1="48.09" y1="54.43" x2="44.13" y2="57.9"/><polyline class="cls-1" points="44.13 57.9 38.27 63.03 38.27 65.86 38.27 63.03 35.43 63.03"/><polygon class="cls-1" points="56.96 22.2 58.67 20.49 56.34 19.83 58.67 17.49 60.58 18.99 60.58 15.99 56.77 15.99 55.33 14.55 45.64 14.55 48.58 17.49 48.58 24.87 58.67 24.87 56.96 22.2"/><polygon class="cls-1" points="54.66 17.16 51.58 16.41 51.58 19.07 54.66 18.16 54.66 17.16"/><polygon class="cls-1" points="64.43 28.97 52.47 69.02 40.46 28.99 44.58 24.87 60.33 24.87 64.43 28.97 60.33 24.87 60.33 24.87 64.43 28.97"/><polyline class="cls-1" points="52.42 68.95 44.13 57.9 2.83 2.83 32.6 2.83 40.46 28.99 52.44 68.9 56.77 54.46 64.43 28.97 72.28 2.83 102.05 2.83 60.73 57.92 52.45 68.96 52.47 69.02 58.12 87.82 52.47 69.02 52.47 69.02 66.61 87.87 38.27 87.87 52.4 69.03 46.74 87.87"/><path class="cls-1" d="M25.46,69.71a42.77,42.77,0,0,1-4.33-4.12h7.71Z"/><path class="cls-1" d="M10.44,43.39C13.78,51,20.57,58.08,24.9,62.13l-3.77,3.46A42.36,42.36,0,0,1,9.94,36.85c0-1.3.07-2.59.18-3.87"/></svg>